M48
; DRILL file {KiCad (5.1.4)-1} date 1/14/2021 4:11:32 PM
; FORMAT={-:-/ absolute / inch / decimal}
; #@! TF.CreationDate,2021-01-14T16:11:32-07:00
; #@! TF.GenerationSoftware,Kicad,Pcbnew,(5.1.4)-1
; #@! TF.FileFunction,NonPlated,1,2,NPTH
FMAT,2
INCH
T1C0.0689
T2C0.1570
%
G90
G05
T1
X4.2594Y-3.5127
X4.6353Y-3.6495
X6.6147Y-3.6495
X6.9906Y-3.5127
X1.1838Y-3.1914
X1.5597Y-3.3282
X1.6969Y-1.7818
X2.0727Y-1.9187
X9.6903Y-3.3282
X10.0662Y-3.1914
X8.4084Y-1.999
X8.7843Y-1.8622
X7.5119Y-3.9216
X7.8878Y-3.7847
X2.9782Y-2.6473
X3.354Y-2.7841
X4.0029Y-4.2175
X4.3788Y-4.3543
X2.4658Y-1.8622
X2.8416Y-1.999
X9.1773Y-1.9187
X9.5532Y-1.7818
X6.3582Y-2.9447
X6.7341Y-2.8079
X4.516Y-2.8079
X4.8918Y-2.9447
X2.7216Y-3.352
X3.0975Y-3.4888
X8.6649Y-2.7038
X9.0408Y-2.5669
X7.6395Y-2.0793
X8.0154Y-1.9425
X3.6188Y-3.08
X3.9947Y-3.2168
X6.3072Y-4.7112
X6.5366Y-5.0389
X3.2347Y-1.9425
X3.6105Y-2.0793
X6.8712Y-4.3543
X7.2471Y-4.2175
X7.2554Y-3.2168
X7.6312Y-3.08
X3.3623Y-3.7847
X3.7382Y-3.9216
X7.896Y-2.7841
X8.2719Y-2.6473
X6.9989Y-2.512
X7.3747Y-2.3752
X1.4404Y-2.4866
X1.8162Y-2.6234
X8.9214Y-3.4085
X9.2973Y-3.2717
X8.1525Y-3.4888
X8.5284Y-3.352
X1.9527Y-3.2717
X2.3286Y-3.4085
X4.7134Y-5.0389
X4.9429Y-4.7112
X2.2093Y-2.5669
X2.5851Y-2.7038
X3.8753Y-2.3752
X4.2512Y-2.512
X9.4338Y-2.6234
X9.8097Y-2.4866
T2
X6.5462Y-2.8763
X4.7039Y-2.8763
X2.9096Y-3.4204
X8.8529Y-2.6353
X7.8274Y-2.0109
X3.8067Y-3.1484
X6.4219Y-4.875
X3.4226Y-2.0109
X7.0592Y-4.2859
X7.4433Y-3.1484
X3.5502Y-3.8532
X8.084Y-2.7157
X7.1868Y-2.4436
X1.6283Y-2.555
X9.1094Y-3.3401
X8.3405Y-3.4204
X2.1407Y-3.3401
X4.8281Y-4.875
X2.3972Y-2.6353
X4.0633Y-2.4436
X9.6218Y-2.555
X4.4474Y-3.5811
X6.8027Y-3.5811
X1.3718Y-3.2598
X1.8848Y-1.8503
X9.8783Y-3.2598
X8.5963Y-1.9306
X7.6998Y-3.8532
X3.1661Y-2.7157
X4.1909Y-4.2859
X2.6537Y-1.9306
X9.3652Y-1.8503
T0
M30
