G04 #@! TF.GenerationSoftware,KiCad,Pcbnew,(5.1.4)-1*
G04 #@! TF.CreationDate,2021-01-10T11:51:00-07:00*
G04 #@! TF.ProjectId,ONI-Kyan MKI,4f4e492d-4b79-4616-9e20-4d4b492e6b69,rev?*
G04 #@! TF.SameCoordinates,Original*
G04 #@! TF.FileFunction,Copper,L2,Bot*
G04 #@! TF.FilePolarity,Positive*
%FSLAX46Y46*%
G04 Gerber Fmt 4.6, Leading zero omitted, Abs format (unit mm)*
G04 Created by KiCad (PCBNEW (5.1.4)-1) date 2021-01-10 11:51:00*
%MOMM*%
%LPD*%
G04 APERTURE LIST*
%ADD10C,2.250000*%
%ADD11C,1.752600*%
%ADD12R,1.752600X1.752600*%
%ADD13R,0.900000X1.200000*%
%ADD14C,0.900000*%
%ADD15C,0.150000*%
%ADD16C,0.800000*%
%ADD17C,0.250000*%
G04 APERTURE END LIST*
D10*
X168734486Y-122992399D03*
X163011629Y-119247668D03*
X118368919Y-125489605D03*
X119930483Y-118831106D03*
X103736451Y-105170984D03*
X110572231Y-104955993D03*
D11*
X150495600Y-71755362D03*
X135255600Y-99695362D03*
X150495600Y-74295362D03*
X150495600Y-76835362D03*
X150495600Y-79375362D03*
X150495600Y-81915362D03*
X150495600Y-84455362D03*
X150495600Y-86995362D03*
X150495600Y-89535362D03*
X150495600Y-92075362D03*
X150495600Y-94615362D03*
X150495600Y-97155362D03*
X150495600Y-99695362D03*
X135255600Y-97155362D03*
X135255600Y-94615362D03*
X135255600Y-92075362D03*
X135255600Y-89535362D03*
X135255600Y-86995362D03*
X135255600Y-84455362D03*
X135255600Y-81915362D03*
X135255600Y-79375362D03*
X135255600Y-76835362D03*
X135255600Y-74295362D03*
D12*
X135255600Y-71755362D03*
D13*
X152459998Y-103589999D03*
X155759998Y-103589999D03*
X129800000Y-103600000D03*
X126500000Y-103600000D03*
D14*
X245388272Y-75938624D03*
D15*
G36*
X245170622Y-76656349D02*
G01*
X244760198Y-75528717D01*
X245605922Y-75220899D01*
X246016346Y-76348531D01*
X245170622Y-76656349D01*
X245170622Y-76656349D01*
G37*
D14*
X248489258Y-74809958D03*
D15*
G36*
X248271608Y-75527683D02*
G01*
X247861184Y-74400051D01*
X248706908Y-74092233D01*
X249117332Y-75219865D01*
X248271608Y-75527683D01*
X248271608Y-75527683D01*
G37*
D14*
X225858175Y-77978829D03*
D15*
G36*
X225640525Y-78696554D02*
G01*
X225230101Y-77568922D01*
X226075825Y-77261104D01*
X226486249Y-78388736D01*
X225640525Y-78696554D01*
X225640525Y-78696554D01*
G37*
D14*
X228959161Y-76850163D03*
D15*
G36*
X228741511Y-77567888D02*
G01*
X228331087Y-76440256D01*
X229176811Y-76132438D01*
X229587235Y-77260070D01*
X228741511Y-77567888D01*
X228741511Y-77567888D01*
G37*
D14*
X206328081Y-80019035D03*
D15*
G36*
X206110431Y-80736760D02*
G01*
X205700007Y-79609128D01*
X206545731Y-79301310D01*
X206956155Y-80428942D01*
X206110431Y-80736760D01*
X206110431Y-80736760D01*
G37*
D14*
X209429067Y-78890369D03*
D15*
G36*
X209211417Y-79608094D02*
G01*
X208800993Y-78480462D01*
X209646717Y-78172644D01*
X210057141Y-79300276D01*
X209211417Y-79608094D01*
X209211417Y-79608094D01*
G37*
D14*
X190055737Y-91009852D03*
D15*
G36*
X189838087Y-91727577D02*
G01*
X189427663Y-90599945D01*
X190273387Y-90292127D01*
X190683811Y-91419759D01*
X189838087Y-91727577D01*
X189838087Y-91727577D01*
G37*
D14*
X193156723Y-89881186D03*
D15*
G36*
X192939073Y-90598911D02*
G01*
X192528649Y-89471279D01*
X193374373Y-89163461D01*
X193784797Y-90291093D01*
X192939073Y-90598911D01*
X192939073Y-90598911D01*
G37*
D14*
X173783394Y-102000668D03*
D15*
G36*
X173565744Y-102718393D02*
G01*
X173155320Y-101590761D01*
X174001044Y-101282943D01*
X174411468Y-102410575D01*
X173565744Y-102718393D01*
X173565744Y-102718393D01*
G37*
D14*
X176884380Y-100872002D03*
D15*
G36*
X176666730Y-101589727D02*
G01*
X176256306Y-100462095D01*
X177102030Y-100154277D01*
X177512454Y-101281909D01*
X176666730Y-101589727D01*
X176666730Y-101589727D01*
G37*
D14*
X109730154Y-101186230D03*
D15*
G36*
X109102080Y-101596137D02*
G01*
X109512504Y-100468505D01*
X110358228Y-100776323D01*
X109947804Y-101903955D01*
X109102080Y-101596137D01*
X109102080Y-101596137D01*
G37*
D14*
X106629168Y-100057564D03*
D15*
G36*
X106001094Y-100467471D02*
G01*
X106411518Y-99339839D01*
X107257242Y-99647657D01*
X106846818Y-100775289D01*
X106001094Y-100467471D01*
X106001094Y-100467471D01*
G37*
D14*
X93457812Y-90195413D03*
D15*
G36*
X92829738Y-90605320D02*
G01*
X93240162Y-89477688D01*
X94085886Y-89785506D01*
X93675462Y-90913138D01*
X92829738Y-90605320D01*
X92829738Y-90605320D01*
G37*
D14*
X90356826Y-89066747D03*
D15*
G36*
X89728752Y-89476654D02*
G01*
X90139176Y-88349022D01*
X90984900Y-88656840D01*
X90574476Y-89784472D01*
X89728752Y-89476654D01*
X89728752Y-89476654D01*
G37*
D14*
X77185469Y-79204597D03*
D15*
G36*
X76557395Y-79614504D02*
G01*
X76967819Y-78486872D01*
X77813543Y-78794690D01*
X77403119Y-79922322D01*
X76557395Y-79614504D01*
X76557395Y-79614504D01*
G37*
D14*
X74084483Y-78075931D03*
D15*
G36*
X73456409Y-78485838D02*
G01*
X73866833Y-77358206D01*
X74712557Y-77666024D01*
X74302133Y-78793656D01*
X73456409Y-78485838D01*
X73456409Y-78485838D01*
G37*
D14*
X57655372Y-77164391D03*
D15*
G36*
X57027298Y-77574298D02*
G01*
X57437722Y-76446666D01*
X58283446Y-76754484D01*
X57873022Y-77882116D01*
X57027298Y-77574298D01*
X57027298Y-77574298D01*
G37*
D14*
X54554386Y-76035725D03*
D15*
G36*
X53926312Y-76445632D02*
G01*
X54336736Y-75318000D01*
X55182460Y-75625818D01*
X54772036Y-76753450D01*
X53926312Y-76445632D01*
X53926312Y-76445632D01*
G37*
D14*
X38125275Y-75124185D03*
D15*
G36*
X37497201Y-75534092D02*
G01*
X37907625Y-74406460D01*
X38753349Y-74714278D01*
X38342925Y-75841910D01*
X37497201Y-75534092D01*
X37497201Y-75534092D01*
G37*
D14*
X35024289Y-73995519D03*
D15*
G36*
X34396215Y-74405426D02*
G01*
X34806639Y-73277794D01*
X35652363Y-73585612D01*
X35241939Y-74713244D01*
X34396215Y-74405426D01*
X34396215Y-74405426D01*
G37*
D14*
X243759396Y-71463318D03*
D15*
G36*
X243541746Y-72181043D02*
G01*
X243131322Y-71053411D01*
X243977046Y-70745593D01*
X244387470Y-71873225D01*
X243541746Y-72181043D01*
X243541746Y-72181043D01*
G37*
D14*
X246860382Y-70334652D03*
D15*
G36*
X246642732Y-71052377D02*
G01*
X246232308Y-69924745D01*
X247078032Y-69616927D01*
X247488456Y-70744559D01*
X246642732Y-71052377D01*
X246642732Y-71052377D01*
G37*
D14*
X224229297Y-73503525D03*
D15*
G36*
X224011647Y-74221250D02*
G01*
X223601223Y-73093618D01*
X224446947Y-72785800D01*
X224857371Y-73913432D01*
X224011647Y-74221250D01*
X224011647Y-74221250D01*
G37*
D14*
X227330283Y-72374859D03*
D15*
G36*
X227112633Y-73092584D02*
G01*
X226702209Y-71964952D01*
X227547933Y-71657134D01*
X227958357Y-72784766D01*
X227112633Y-73092584D01*
X227112633Y-73092584D01*
G37*
D14*
X204699199Y-75543730D03*
D15*
G36*
X204481549Y-76261455D02*
G01*
X204071125Y-75133823D01*
X204916849Y-74826005D01*
X205327273Y-75953637D01*
X204481549Y-76261455D01*
X204481549Y-76261455D01*
G37*
D14*
X207800185Y-74415064D03*
D15*
G36*
X207582535Y-75132789D02*
G01*
X207172111Y-74005157D01*
X208017835Y-73697339D01*
X208428259Y-74824971D01*
X207582535Y-75132789D01*
X207582535Y-75132789D01*
G37*
D14*
X188426860Y-86534548D03*
D15*
G36*
X188209210Y-87252273D02*
G01*
X187798786Y-86124641D01*
X188644510Y-85816823D01*
X189054934Y-86944455D01*
X188209210Y-87252273D01*
X188209210Y-87252273D01*
G37*
D14*
X191527846Y-85405882D03*
D15*
G36*
X191310196Y-86123607D02*
G01*
X190899772Y-84995975D01*
X191745496Y-84688157D01*
X192155920Y-85815789D01*
X191310196Y-86123607D01*
X191310196Y-86123607D01*
G37*
D14*
X172154517Y-97525363D03*
D15*
G36*
X171936867Y-98243088D02*
G01*
X171526443Y-97115456D01*
X172372167Y-96807638D01*
X172782591Y-97935270D01*
X171936867Y-98243088D01*
X171936867Y-98243088D01*
G37*
D14*
X175255503Y-96396697D03*
D15*
G36*
X175037853Y-97114422D02*
G01*
X174627429Y-95986790D01*
X175473153Y-95678972D01*
X175883577Y-96806604D01*
X175037853Y-97114422D01*
X175037853Y-97114422D01*
G37*
D14*
X111359030Y-96710922D03*
D15*
G36*
X110730956Y-97120829D02*
G01*
X111141380Y-95993197D01*
X111987104Y-96301015D01*
X111576680Y-97428647D01*
X110730956Y-97120829D01*
X110730956Y-97120829D01*
G37*
D14*
X108258044Y-95582256D03*
D15*
G36*
X107629970Y-95992163D02*
G01*
X108040394Y-94864531D01*
X108886118Y-95172349D01*
X108475694Y-96299981D01*
X107629970Y-95992163D01*
X107629970Y-95992163D01*
G37*
D14*
X95086689Y-85720108D03*
D15*
G36*
X94458615Y-86130015D02*
G01*
X94869039Y-85002383D01*
X95714763Y-85310201D01*
X95304339Y-86437833D01*
X94458615Y-86130015D01*
X94458615Y-86130015D01*
G37*
D14*
X91985703Y-84591442D03*
D15*
G36*
X91357629Y-85001349D02*
G01*
X91768053Y-83873717D01*
X92613777Y-84181535D01*
X92203353Y-85309167D01*
X91357629Y-85001349D01*
X91357629Y-85001349D01*
G37*
D14*
X78814347Y-74729292D03*
D15*
G36*
X78186273Y-75139199D02*
G01*
X78596697Y-74011567D01*
X79442421Y-74319385D01*
X79031997Y-75447017D01*
X78186273Y-75139199D01*
X78186273Y-75139199D01*
G37*
D14*
X75713361Y-73600626D03*
D15*
G36*
X75085287Y-74010533D02*
G01*
X75495711Y-72882901D01*
X76341435Y-73190719D01*
X75931011Y-74318351D01*
X75085287Y-74010533D01*
X75085287Y-74010533D01*
G37*
D14*
X59284250Y-72689086D03*
D15*
G36*
X58656176Y-73098993D02*
G01*
X59066600Y-71971361D01*
X59912324Y-72279179D01*
X59501900Y-73406811D01*
X58656176Y-73098993D01*
X58656176Y-73098993D01*
G37*
D14*
X56183264Y-71560420D03*
D15*
G36*
X55555190Y-71970327D02*
G01*
X55965614Y-70842695D01*
X56811338Y-71150513D01*
X56400914Y-72278145D01*
X55555190Y-71970327D01*
X55555190Y-71970327D01*
G37*
D14*
X39754152Y-70648881D03*
D15*
G36*
X39126078Y-71058788D02*
G01*
X39536502Y-69931156D01*
X40382226Y-70238974D01*
X39971802Y-71366606D01*
X39126078Y-71058788D01*
X39126078Y-71058788D01*
G37*
D14*
X36653166Y-69520215D03*
D15*
G36*
X36025092Y-69930122D02*
G01*
X36435516Y-68802490D01*
X37281240Y-69110308D01*
X36870816Y-70237940D01*
X36025092Y-69930122D01*
X36025092Y-69930122D01*
G37*
D14*
X237243884Y-53562099D03*
D15*
G36*
X237026234Y-54279824D02*
G01*
X236615810Y-53152192D01*
X237461534Y-52844374D01*
X237871958Y-53972006D01*
X237026234Y-54279824D01*
X237026234Y-54279824D01*
G37*
D14*
X240344870Y-52433433D03*
D15*
G36*
X240127220Y-53151158D02*
G01*
X239716796Y-52023526D01*
X240562520Y-51715708D01*
X240972944Y-52843340D01*
X240127220Y-53151158D01*
X240127220Y-53151158D01*
G37*
D14*
X217713786Y-55602306D03*
D15*
G36*
X217496136Y-56320031D02*
G01*
X217085712Y-55192399D01*
X217931436Y-54884581D01*
X218341860Y-56012213D01*
X217496136Y-56320031D01*
X217496136Y-56320031D01*
G37*
D14*
X220814772Y-54473640D03*
D15*
G36*
X220597122Y-55191365D02*
G01*
X220186698Y-54063733D01*
X221032422Y-53755915D01*
X221442846Y-54883547D01*
X220597122Y-55191365D01*
X220597122Y-55191365D01*
G37*
D14*
X198183689Y-57642514D03*
D15*
G36*
X197966039Y-58360239D02*
G01*
X197555615Y-57232607D01*
X198401339Y-56924789D01*
X198811763Y-58052421D01*
X197966039Y-58360239D01*
X197966039Y-58360239D01*
G37*
D14*
X201284675Y-56513848D03*
D15*
G36*
X201067025Y-57231573D02*
G01*
X200656601Y-56103941D01*
X201502325Y-55796123D01*
X201912749Y-56923755D01*
X201067025Y-57231573D01*
X201067025Y-57231573D01*
G37*
D14*
X181911347Y-68633326D03*
D15*
G36*
X181693697Y-69351051D02*
G01*
X181283273Y-68223419D01*
X182128997Y-67915601D01*
X182539421Y-69043233D01*
X181693697Y-69351051D01*
X181693697Y-69351051D01*
G37*
D14*
X185012333Y-67504660D03*
D15*
G36*
X184794683Y-68222385D02*
G01*
X184384259Y-67094753D01*
X185229983Y-66786935D01*
X185640407Y-67914567D01*
X184794683Y-68222385D01*
X184794683Y-68222385D01*
G37*
D14*
X165639007Y-79624142D03*
D15*
G36*
X165421357Y-80341867D02*
G01*
X165010933Y-79214235D01*
X165856657Y-78906417D01*
X166267081Y-80034049D01*
X165421357Y-80341867D01*
X165421357Y-80341867D01*
G37*
D14*
X168739993Y-78495476D03*
D15*
G36*
X168522343Y-79213201D02*
G01*
X168111919Y-78085569D01*
X168957643Y-77777751D01*
X169368067Y-78905383D01*
X168522343Y-79213201D01*
X168522343Y-79213201D01*
G37*
D14*
X117874543Y-78809705D03*
D15*
G36*
X117246469Y-79219612D02*
G01*
X117656893Y-78091980D01*
X118502617Y-78399798D01*
X118092193Y-79527430D01*
X117246469Y-79219612D01*
X117246469Y-79219612D01*
G37*
D14*
X114773557Y-77681039D03*
D15*
G36*
X114145483Y-78090946D02*
G01*
X114555907Y-76963314D01*
X115401631Y-77271132D01*
X114991207Y-78398764D01*
X114145483Y-78090946D01*
X114145483Y-78090946D01*
G37*
D14*
X101602199Y-67818888D03*
D15*
G36*
X100974125Y-68228795D02*
G01*
X101384549Y-67101163D01*
X102230273Y-67408981D01*
X101819849Y-68536613D01*
X100974125Y-68228795D01*
X100974125Y-68228795D01*
G37*
D14*
X98501213Y-66690222D03*
D15*
G36*
X97873139Y-67100129D02*
G01*
X98283563Y-65972497D01*
X99129287Y-66280315D01*
X98718863Y-67407947D01*
X97873139Y-67100129D01*
X97873139Y-67100129D01*
G37*
D14*
X85329859Y-56828073D03*
D15*
G36*
X84701785Y-57237980D02*
G01*
X85112209Y-56110348D01*
X85957933Y-56418166D01*
X85547509Y-57545798D01*
X84701785Y-57237980D01*
X84701785Y-57237980D01*
G37*
D14*
X82228873Y-55699407D03*
D15*
G36*
X81600799Y-56109314D02*
G01*
X82011223Y-54981682D01*
X82856947Y-55289500D01*
X82446523Y-56417132D01*
X81600799Y-56109314D01*
X81600799Y-56109314D01*
G37*
D14*
X65799762Y-54787867D03*
D15*
G36*
X65171688Y-55197774D02*
G01*
X65582112Y-54070142D01*
X66427836Y-54377960D01*
X66017412Y-55505592D01*
X65171688Y-55197774D01*
X65171688Y-55197774D01*
G37*
D14*
X62698776Y-53659201D03*
D15*
G36*
X62070702Y-54069108D02*
G01*
X62481126Y-52941476D01*
X63326850Y-53249294D01*
X62916426Y-54376926D01*
X62070702Y-54069108D01*
X62070702Y-54069108D01*
G37*
D14*
X46269664Y-52747659D03*
D15*
G36*
X45641590Y-53157566D02*
G01*
X46052014Y-52029934D01*
X46897738Y-52337752D01*
X46487314Y-53465384D01*
X45641590Y-53157566D01*
X45641590Y-53157566D01*
G37*
D14*
X43168678Y-51618993D03*
D15*
G36*
X42540604Y-52028900D02*
G01*
X42951028Y-50901268D01*
X43796752Y-51209086D01*
X43386328Y-52336718D01*
X42540604Y-52028900D01*
X42540604Y-52028900D01*
G37*
D10*
X179952607Y-103218529D03*
X174854290Y-107777176D03*
X246459168Y-81715132D03*
X251557485Y-77156485D03*
X207398975Y-85795545D03*
X212497292Y-81236898D03*
X191126631Y-96786359D03*
X196224948Y-92227712D03*
X226929071Y-83755338D03*
X232027388Y-79196691D03*
X220413560Y-65854118D03*
X225511877Y-61295471D03*
X239943658Y-63813912D03*
X245041975Y-59255265D03*
X178095609Y-60983921D03*
X183193926Y-56425274D03*
X184611121Y-78885140D03*
X189709438Y-74326493D03*
X168338777Y-89875956D03*
X173437094Y-85317309D03*
X200883462Y-67894323D03*
X205981779Y-63335676D03*
X233428148Y-45912692D03*
X238526465Y-41354045D03*
X194367953Y-49993105D03*
X199466270Y-45434458D03*
X213898052Y-47952901D03*
X218996369Y-43394254D03*
X161823268Y-71974737D03*
X166921585Y-67416090D03*
X110251965Y-87269765D03*
X117087745Y-87054774D03*
X87464112Y-94180168D03*
X94299892Y-93965177D03*
X71191768Y-83189350D03*
X78027548Y-82974359D03*
X51661671Y-81149146D03*
X58497451Y-80934155D03*
X32131574Y-79108938D03*
X38967354Y-78893947D03*
X93979622Y-76278946D03*
X100815402Y-76063955D03*
X77707281Y-65288129D03*
X84543061Y-65073138D03*
X58177181Y-63247924D03*
X65012961Y-63032933D03*
X38647085Y-61207720D03*
X45482865Y-60992729D03*
X116767475Y-69368543D03*
X123603255Y-69153552D03*
X100495133Y-58377728D03*
X107330913Y-58162737D03*
X84222789Y-47386912D03*
X91058569Y-47171921D03*
X64692693Y-45346706D03*
X71528473Y-45131715D03*
X45162593Y-43306499D03*
X51998373Y-43091508D03*
D16*
X42711638Y-68606607D03*
X112510712Y-95510722D03*
X228813234Y-70365873D03*
D17*
X62040989Y-53419787D02*
X62698775Y-53659199D01*
X54751221Y-56819061D02*
X62040989Y-53419787D01*
X44379311Y-53043996D02*
X54751221Y-56819061D01*
X43826463Y-51858408D02*
X44379311Y-53043996D01*
X43168677Y-51618994D02*
X43826463Y-51858408D01*
X97843429Y-66450808D02*
X98501212Y-66690223D01*
X95600085Y-61639939D02*
X97843429Y-66450808D01*
X83489739Y-57232134D02*
X95600085Y-61639939D01*
X82228872Y-55699405D02*
X82886655Y-55938818D01*
X82886655Y-55938818D02*
X83489739Y-57232134D01*
X73853242Y-52650927D02*
X82228872Y-55699405D01*
X66563474Y-56050201D02*
X73853242Y-52650927D01*
X63909408Y-55084200D02*
X66563474Y-56050201D01*
X62698775Y-53659199D02*
X63356560Y-53898614D01*
X63356560Y-53898614D02*
X63909408Y-55084200D01*
X114115769Y-77441624D02*
X114773555Y-77681040D01*
X111835058Y-72550621D02*
X114115769Y-77441624D01*
X99724715Y-68142815D02*
X111835058Y-72550621D01*
X98501212Y-66690223D02*
X99159000Y-66929634D01*
X99159000Y-66929634D02*
X99724715Y-68142815D01*
X152365016Y-80045944D02*
X150495600Y-81915360D01*
X165639006Y-79624146D02*
X165217206Y-80045946D01*
X165217206Y-80045946D02*
X152365016Y-80045944D01*
X115195359Y-78102841D02*
X114773555Y-77681040D01*
X117742516Y-80649999D02*
X115195359Y-78102841D01*
X150495600Y-81915360D02*
X149230239Y-80650000D01*
X149230239Y-80650000D02*
X117742516Y-80649999D01*
X166296791Y-79384729D02*
X165639006Y-79624144D01*
X167482376Y-79937577D02*
X166296791Y-79384729D01*
X177854288Y-76162510D02*
X167482376Y-79937577D01*
X181253561Y-68872741D02*
X177854288Y-76162510D01*
X182569129Y-68393913D02*
X181253561Y-68872741D01*
X194126631Y-65171694D02*
X183754718Y-68946761D01*
X212902918Y-53358959D02*
X199336048Y-58296896D01*
X217713789Y-55602305D02*
X212902918Y-53358959D01*
X183754718Y-68946761D02*
X182569129Y-68393913D01*
X198183688Y-57642512D02*
X197525905Y-57881926D01*
X199336048Y-58296896D02*
X198234992Y-57783466D01*
X198234992Y-57783466D02*
X198183688Y-57642512D01*
X197525905Y-57881926D02*
X194126631Y-65171694D01*
X217765091Y-55743258D02*
X217713789Y-55602305D01*
X218914183Y-56279091D02*
X217765091Y-55743258D01*
X232433467Y-51358475D02*
X218914183Y-56279091D01*
X237243885Y-53562100D02*
X237196298Y-53579420D01*
X237196298Y-53579420D02*
X232433467Y-51358475D01*
X49227148Y-50705388D02*
X51998374Y-43091507D01*
X46269662Y-52747660D02*
X46560380Y-51948923D01*
X46560380Y-51948923D02*
X49227148Y-50705388D01*
X68757249Y-52745594D02*
X71528473Y-45131715D01*
X65799762Y-54787866D02*
X66090477Y-53989127D01*
X66090477Y-53989127D02*
X68757249Y-52745594D01*
X88047931Y-55443584D02*
X91058570Y-47171921D01*
X85329858Y-56828073D02*
X85381161Y-56687119D01*
X85381161Y-56687119D02*
X88047931Y-55443584D01*
X104320273Y-66434400D02*
X107330912Y-58162737D01*
X101602200Y-67818889D02*
X101653503Y-67677935D01*
X101653503Y-67677935D02*
X104320273Y-66434400D01*
X120832031Y-76767431D02*
X123603254Y-69153552D01*
X117874542Y-78809705D02*
X118165260Y-78010968D01*
X118165260Y-78010968D02*
X120832031Y-76767431D01*
X169397778Y-78256062D02*
X168739991Y-78495476D01*
X170222941Y-76486492D02*
X169397778Y-78256062D01*
X166921585Y-67416090D02*
X170222941Y-76486492D01*
X185670117Y-67265248D02*
X185012333Y-67504661D01*
X186495282Y-65495675D02*
X185670117Y-67265248D01*
X183193927Y-56425274D02*
X186495282Y-65495675D01*
X201942460Y-56274431D02*
X201284674Y-56513846D01*
X202767623Y-54504860D02*
X201942460Y-56274431D01*
X199466267Y-45434461D02*
X202767623Y-54504860D01*
X221472558Y-54234225D02*
X220814772Y-54473639D01*
X222297722Y-52464654D02*
X221472558Y-54234225D01*
X218996366Y-43394252D02*
X222297722Y-52464654D01*
X241002654Y-52194018D02*
X240344869Y-52433432D01*
X241827822Y-50424446D02*
X241002654Y-52194018D01*
X238526465Y-41354045D02*
X241827822Y-50424446D01*
X91327917Y-84352028D02*
X91985703Y-84591441D01*
X89114407Y-79605140D02*
X91327917Y-84352028D01*
X77910866Y-75527384D02*
X89114407Y-79605140D01*
X77277948Y-74170087D02*
X77910866Y-75527384D01*
X57393895Y-72985419D02*
X59718994Y-73831685D01*
X56841048Y-71799833D02*
X57393895Y-72985419D01*
X59718994Y-73831685D02*
X67008763Y-70432411D01*
X37369927Y-69781093D02*
X37957995Y-71042207D01*
X36653168Y-69520213D02*
X37369927Y-69781093D01*
X37957995Y-71042207D02*
X48160181Y-74755501D01*
X48160181Y-74755501D02*
X55525477Y-71321007D01*
X55525477Y-71321007D02*
X56183265Y-71560419D01*
X67008763Y-70432411D02*
X77277948Y-74170087D01*
X56183265Y-71560419D02*
X56841048Y-71799833D01*
X92643488Y-84830856D02*
X91985703Y-84591441D01*
X93239040Y-86108020D02*
X92643488Y-84830856D01*
X206714281Y-75937236D02*
X205356985Y-75304316D01*
X227071047Y-73529612D02*
X225793884Y-72934062D01*
X218824626Y-71529430D02*
X206714281Y-75937236D01*
X223571513Y-73742939D02*
X218824626Y-71529430D01*
X190297720Y-86860801D02*
X189084643Y-86295133D01*
X225793884Y-72934062D02*
X223571513Y-73742939D01*
X243759395Y-71463319D02*
X238932377Y-69212443D01*
X172154514Y-97525362D02*
X150865604Y-97525361D01*
X238932377Y-69212443D02*
X227071047Y-73529612D01*
X205356985Y-75304316D02*
X204041416Y-75783144D01*
X204041416Y-75783144D02*
X200629321Y-83100405D01*
X108258044Y-95541954D02*
X108258045Y-95582258D01*
X200629321Y-83100405D02*
X190297720Y-86860801D01*
X189084643Y-86295133D02*
X187769073Y-86773961D01*
X187769073Y-86773961D02*
X184369798Y-94063730D01*
X184369798Y-94063730D02*
X173997886Y-97838797D01*
X137355358Y-97155360D02*
X136099999Y-95900001D01*
X173997886Y-97838797D02*
X172812301Y-97285947D01*
X172812301Y-97285947D02*
X172154514Y-97525362D01*
X109014289Y-94785711D02*
X108258044Y-95541954D01*
X150865604Y-97525361D02*
X150495600Y-97155360D01*
X150495600Y-97155360D02*
X137355358Y-97155360D01*
X136099999Y-95900001D02*
X114100000Y-95900000D01*
X114100000Y-95900000D02*
X112985712Y-94785712D01*
X112985712Y-94785712D02*
X109014289Y-94785711D01*
X108258045Y-95582258D02*
X106007172Y-90755236D01*
X106007172Y-90755236D02*
X93239040Y-86108020D01*
X40044869Y-69850141D02*
X42711638Y-68606607D01*
X39754153Y-70648883D02*
X40044869Y-69850141D01*
X42711638Y-68606607D02*
X42711638Y-68606607D01*
X62002323Y-71304596D02*
X65012961Y-63032933D01*
X59284249Y-72689088D02*
X59335553Y-72548134D01*
X59335553Y-72548134D02*
X62002323Y-71304596D01*
X81532420Y-73344804D02*
X84543062Y-65073137D01*
X78814347Y-74729292D02*
X78865650Y-74588338D01*
X78865650Y-74588338D02*
X81532420Y-73344804D01*
X98044176Y-83677837D02*
X100815401Y-76063953D01*
X95086689Y-85720107D02*
X95377406Y-84921370D01*
X95377406Y-84921370D02*
X98044176Y-83677837D01*
X111649744Y-95912198D02*
X112510712Y-95510722D01*
X111359032Y-96710924D02*
X111649744Y-95912198D01*
X175913288Y-96157281D02*
X175255503Y-96396697D01*
X176738451Y-94387712D02*
X175913288Y-96157281D01*
X173437096Y-85317310D02*
X176738451Y-94387712D01*
X192185629Y-85166467D02*
X191527844Y-85405881D01*
X193010794Y-83396897D02*
X192185629Y-85166467D01*
X189709436Y-74326492D02*
X193010794Y-83396897D01*
X208457971Y-74175650D02*
X207800186Y-74415065D01*
X209283135Y-72406081D02*
X208457971Y-74175650D01*
X205981779Y-63335678D02*
X209283135Y-72406081D01*
X227988069Y-72135443D02*
X227330283Y-72374861D01*
X228813234Y-70365873D02*
X228813234Y-70365873D01*
X228813234Y-70365873D02*
X227988069Y-72135443D01*
X247518166Y-70095237D02*
X246860382Y-70334652D01*
X248343331Y-68325667D02*
X247518166Y-70095237D01*
X245041975Y-59255265D02*
X248343331Y-68325667D01*
X152800909Y-102000669D02*
X173783394Y-102000667D01*
X108286732Y-98399999D02*
X149200240Y-98400001D01*
X106629168Y-100057563D02*
X108286732Y-98399999D01*
X106631295Y-100051719D02*
X106629168Y-100057563D01*
X54554386Y-76035725D02*
X54567450Y-75999828D01*
X89699041Y-88827334D02*
X90356825Y-89066745D01*
X48982603Y-78087746D02*
X53896600Y-75796311D01*
X35024288Y-73995518D02*
X35682074Y-74234933D01*
X35682074Y-74234933D02*
X36872259Y-73679939D01*
X54567450Y-75999828D02*
X55884886Y-75385499D01*
X103235738Y-92769923D02*
X106631295Y-100051719D01*
X55884886Y-75385499D02*
X59567297Y-76725787D01*
X90356825Y-89066745D02*
X91014610Y-89306161D01*
X59567297Y-76725787D02*
X64305084Y-74516520D01*
X64305084Y-74516520D02*
X74742267Y-78315346D01*
X53896600Y-75796311D02*
X54554386Y-76035725D01*
X74742267Y-78315346D02*
X75927852Y-77762497D01*
X149200240Y-98400001D02*
X152800909Y-102000669D01*
X91014610Y-89306161D02*
X92200196Y-88753312D01*
X36872259Y-73679939D02*
X48982603Y-78087746D01*
X75927852Y-77762497D02*
X86299766Y-81537563D01*
X92200196Y-88753312D02*
X103235738Y-92769923D01*
X86299766Y-81537563D02*
X89699041Y-88827334D01*
X225200391Y-78218244D02*
X217910624Y-74818969D01*
X226430383Y-77770564D02*
X225200391Y-78218244D01*
X174441181Y-101761255D02*
X173783395Y-102000668D01*
X205670293Y-80258450D02*
X203376714Y-85177047D01*
X227007776Y-76532339D02*
X226430383Y-77770564D01*
X245388273Y-75938624D02*
X244730490Y-76178037D01*
X244730490Y-76178037D02*
X237388083Y-72754217D01*
X217910624Y-74818969D02*
X207538711Y-78594036D01*
X203376714Y-85177047D02*
X191266369Y-89584852D01*
X207538711Y-78594036D02*
X206985863Y-79779623D01*
X206985863Y-79779623D02*
X205670293Y-80258450D01*
X174994027Y-100575669D02*
X174441181Y-101761255D01*
X191266369Y-89584852D02*
X190713521Y-90770438D01*
X237388083Y-72754217D02*
X227007776Y-76532339D01*
X187104374Y-96167862D02*
X174994027Y-100575669D01*
X190713521Y-90770438D02*
X189397952Y-91249266D01*
X189397952Y-91249266D02*
X187104374Y-96167862D01*
X37723817Y-76227179D02*
X38967353Y-78893947D01*
X38125275Y-75124185D02*
X37723817Y-76227179D01*
X57253915Y-78267383D02*
X58497451Y-80934153D01*
X57655371Y-77164393D02*
X57253915Y-78267383D01*
X76784013Y-80307589D02*
X78027548Y-82974360D01*
X77185468Y-79204598D02*
X76784013Y-80307589D01*
X93056356Y-91298404D02*
X94299893Y-93965175D01*
X93457810Y-90195414D02*
X93056356Y-91298404D01*
X109328697Y-102289223D02*
X110572232Y-104955992D01*
X109730157Y-101186230D02*
X109328697Y-102289223D01*
X177285836Y-101974995D02*
X176884382Y-100872001D01*
X179952606Y-103218530D02*
X177285836Y-101974995D01*
X193558178Y-90984179D02*
X193156721Y-89881186D01*
X196224949Y-92227713D02*
X193558178Y-90984179D01*
X209830520Y-79993363D02*
X209429064Y-78890370D01*
X212497290Y-81236899D02*
X209830520Y-79993363D01*
X229360618Y-77953156D02*
X228959163Y-76850162D01*
X232027388Y-79196692D02*
X229360618Y-77953156D01*
X248890715Y-75912951D02*
X248489258Y-74809958D01*
X251557484Y-77156485D02*
X248890715Y-75912951D01*
X119770472Y-117923648D02*
X119930482Y-118831105D01*
X129799999Y-103600000D02*
X119770472Y-117923648D01*
X95949967Y-72249968D02*
X105599967Y-72249967D01*
X84500001Y-60800001D02*
X95949967Y-72249968D01*
X58479104Y-60800001D02*
X84500001Y-60800001D01*
X105599967Y-72249967D02*
X116949956Y-83599956D01*
X56779107Y-62500001D02*
X58479104Y-60800001D01*
X38647085Y-61207720D02*
X39939365Y-62500000D01*
X39939365Y-62500000D02*
X56779107Y-62500001D01*
X134400195Y-83599957D02*
X135255600Y-84455361D01*
X116949956Y-83599956D02*
X134400195Y-83599957D01*
X134379302Y-86119062D02*
X135255602Y-86995360D01*
X95763568Y-72699979D02*
X105413568Y-72699978D01*
X116763554Y-84049965D02*
X132310207Y-84049966D01*
X105413568Y-72699978D02*
X116763554Y-84049965D01*
X132310207Y-84049966D02*
X134379302Y-86119062D01*
X84313601Y-61250011D02*
X95763568Y-72699979D01*
X60175096Y-61250011D02*
X84313601Y-61250011D01*
X58177182Y-63247925D02*
X60175096Y-61250011D01*
X84127200Y-61700022D02*
X95577166Y-73149990D01*
X95577166Y-73149990D02*
X105227172Y-73149990D01*
X105227172Y-73149990D02*
X116577155Y-84499978D01*
X134379300Y-88659062D02*
X135255600Y-89535360D01*
X116577155Y-84499978D02*
X130220217Y-84499976D01*
X81295388Y-61700022D02*
X84127200Y-61700022D01*
X130220217Y-84499976D02*
X134379300Y-88659062D01*
X77707281Y-65288131D02*
X81295388Y-61700022D01*
X93979621Y-76278947D02*
X96658568Y-73600000D01*
X96658568Y-73600000D02*
X105040771Y-73599999D01*
X116390754Y-84949988D02*
X128130229Y-84949990D01*
X128130229Y-84949990D02*
X134379301Y-91199061D01*
X134379301Y-91199061D02*
X135255600Y-92075360D01*
X105040771Y-73599999D02*
X116390754Y-84949988D01*
X126040240Y-85400000D02*
X135255600Y-94615361D01*
X116300000Y-85400000D02*
X126040240Y-85400000D01*
X110251965Y-87269764D02*
X114430233Y-87269765D01*
X114430233Y-87269765D02*
X116300000Y-85400000D01*
X155235004Y-89875956D02*
X150495600Y-94615362D01*
X168338779Y-89875956D02*
X155235004Y-89875956D01*
X151371899Y-91199059D02*
X150495600Y-92075360D01*
X159320927Y-83250033D02*
X151371899Y-91199059D01*
X177049967Y-83250033D02*
X159320927Y-83250033D01*
X184611120Y-78885140D02*
X181414861Y-78885140D01*
X181414861Y-78885140D02*
X177049967Y-83250033D01*
X151371899Y-88659060D02*
X150495600Y-89535360D01*
X199005678Y-67894325D02*
X194599979Y-72300022D01*
X194599979Y-72300022D02*
X187362978Y-72300023D01*
X187362978Y-72300023D02*
X176862978Y-82800023D01*
X200883463Y-67894321D02*
X199005678Y-67894325D01*
X176862978Y-82800023D02*
X157230938Y-82800022D01*
X157230938Y-82800022D02*
X151371899Y-88659060D01*
X155140951Y-82350010D02*
X150495600Y-86995362D01*
X216059442Y-61500001D02*
X204736410Y-61500000D01*
X220413560Y-65854117D02*
X216059442Y-61500001D01*
X204736410Y-61500000D02*
X194386401Y-71850011D01*
X194386401Y-71850011D02*
X187176577Y-71850011D01*
X187176577Y-71850011D02*
X176676577Y-82350011D01*
X176676577Y-82350011D02*
X155140951Y-82350010D01*
X216245841Y-61049989D02*
X204550011Y-61049990D01*
X204550011Y-61049990D02*
X194199999Y-71399998D01*
X194199999Y-71399998D02*
X186990177Y-71400000D01*
X186990177Y-71400000D02*
X176490177Y-81900002D01*
X151371900Y-83579060D02*
X150495602Y-84455362D01*
X153050960Y-81900001D02*
X151371900Y-83579060D01*
X219009764Y-63813911D02*
X216245841Y-61049989D01*
X176490177Y-81900002D02*
X153050960Y-81900001D01*
X239943657Y-63813912D02*
X219009764Y-63813911D01*
X148565360Y-99695360D02*
X135255600Y-99695360D01*
X152460000Y-103590000D02*
X148565360Y-99695360D01*
X130404639Y-99695360D02*
X135255600Y-99695360D01*
X126500000Y-103600000D02*
X130404639Y-99695360D01*
X168857441Y-122295085D02*
X168734486Y-122992397D01*
X155759999Y-103589999D02*
X168857441Y-122295085D01*
M02*
