G04 #@! TF.GenerationSoftware,KiCad,Pcbnew,(5.1.4)-1*
G04 #@! TF.CreationDate,2021-01-09T12:31:01-07:00*
G04 #@! TF.ProjectId,CS30 Ergo 3,43533330-2045-4726-976f-20332e6b6963,rev?*
G04 #@! TF.SameCoordinates,Original*
G04 #@! TF.FileFunction,Legend,Bot*
G04 #@! TF.FilePolarity,Positive*
%FSLAX46Y46*%
G04 Gerber Fmt 4.6, Leading zero omitted, Abs format (unit mm)*
G04 Created by KiCad (PCBNEW (5.1.4)-1) date 2021-01-09 12:31:01*
%MOMM*%
%LPD*%
G04 APERTURE LIST*
%ADD10C,0.120000*%
%ADD11C,0.381000*%
%ADD12C,0.150000*%
G04 APERTURE END LIST*
D10*
X151860000Y-104590000D02*
X151860000Y-102590000D01*
X151860000Y-102590000D02*
X155760000Y-102590000D01*
X151860000Y-104590000D02*
X155760000Y-104590000D01*
X134650000Y-104584810D02*
X138550000Y-104584810D01*
X134650000Y-102584810D02*
X138550000Y-102584810D01*
X134650000Y-104584810D02*
X134650000Y-102584810D01*
X245166478Y-77083529D02*
X244482437Y-75204144D01*
X244482437Y-75204144D02*
X248147239Y-73870265D01*
X245166478Y-77083529D02*
X248831279Y-75749650D01*
X225636380Y-79123735D02*
X224952339Y-77244350D01*
X224952339Y-77244350D02*
X228617141Y-75910471D01*
X225636380Y-79123735D02*
X229301181Y-77789856D01*
X206106283Y-81163941D02*
X205422242Y-79284556D01*
X205422242Y-79284556D02*
X209087044Y-77950677D01*
X206106283Y-81163941D02*
X209771084Y-79830062D01*
X189833941Y-92154757D02*
X189149900Y-90275372D01*
X189149900Y-90275372D02*
X192814702Y-88941493D01*
X189833941Y-92154757D02*
X193498742Y-90820878D01*
X173561599Y-103145573D02*
X172877558Y-101266188D01*
X172877558Y-101266188D02*
X176542360Y-99932309D01*
X173561599Y-103145573D02*
X177226400Y-101811694D01*
X105723332Y-100792044D02*
X109388134Y-102125923D01*
X106407373Y-98912659D02*
X110072174Y-100246538D01*
X105723332Y-100792044D02*
X106407373Y-98912659D01*
X89450989Y-89801227D02*
X93115791Y-91135106D01*
X90135030Y-87921842D02*
X93799831Y-89255721D01*
X89450989Y-89801227D02*
X90135030Y-87921842D01*
X73178647Y-78810411D02*
X76843449Y-80144290D01*
X73862688Y-76931026D02*
X77527489Y-78264905D01*
X73178647Y-78810411D02*
X73862688Y-76931026D01*
X53648550Y-76770205D02*
X57313352Y-78104084D01*
X54332591Y-74890820D02*
X57997392Y-76224699D01*
X53648550Y-76770205D02*
X54332591Y-74890820D01*
X34118453Y-74729999D02*
X37783255Y-76063878D01*
X34802494Y-72850614D02*
X38467295Y-74184493D01*
X34118453Y-74729999D02*
X34802494Y-72850614D01*
X243537600Y-72608223D02*
X242853559Y-70728838D01*
X242853559Y-70728838D02*
X246518361Y-69394959D01*
X243537600Y-72608223D02*
X247202401Y-71274344D01*
X224007503Y-74648430D02*
X223323462Y-72769045D01*
X223323462Y-72769045D02*
X226988264Y-71435166D01*
X224007503Y-74648430D02*
X227672304Y-73314551D01*
X204477405Y-76688636D02*
X203793364Y-74809251D01*
X203793364Y-74809251D02*
X207458166Y-73475372D01*
X204477405Y-76688636D02*
X208142206Y-75354757D01*
X188205064Y-87679452D02*
X187521023Y-85800067D01*
X187521023Y-85800067D02*
X191185825Y-84466188D01*
X188205064Y-87679452D02*
X191869865Y-86345573D01*
X171932722Y-98670268D02*
X171248681Y-96790883D01*
X171248681Y-96790883D02*
X174913483Y-95457004D01*
X171932722Y-98670268D02*
X175597523Y-97336389D01*
X107352209Y-96316738D02*
X111017011Y-97650617D01*
X108036250Y-94437353D02*
X111701051Y-95771232D01*
X107352209Y-96316738D02*
X108036250Y-94437353D01*
X91079867Y-85325922D02*
X94744669Y-86659801D01*
X91763908Y-83446537D02*
X95428709Y-84780416D01*
X91079867Y-85325922D02*
X91763908Y-83446537D01*
X74807525Y-74335106D02*
X78472327Y-75668985D01*
X75491566Y-72455721D02*
X79156367Y-73789600D01*
X74807525Y-74335106D02*
X75491566Y-72455721D01*
X55277428Y-72294900D02*
X58942230Y-73628779D01*
X55961469Y-70415515D02*
X59626270Y-71749394D01*
X55277428Y-72294900D02*
X55961469Y-70415515D01*
X35747330Y-70254695D02*
X39412132Y-71588574D01*
X36431371Y-68375310D02*
X40096172Y-69709189D01*
X35747330Y-70254695D02*
X36431371Y-68375310D01*
X237022089Y-54707004D02*
X236338048Y-52827619D01*
X236338048Y-52827619D02*
X240002850Y-51493740D01*
X237022089Y-54707004D02*
X240686890Y-53373125D01*
X217491992Y-56747210D02*
X216807951Y-54867825D01*
X216807951Y-54867825D02*
X220472753Y-53533946D01*
X217491992Y-56747210D02*
X221156793Y-55413331D01*
X197961894Y-58787416D02*
X197277853Y-56908031D01*
X197277853Y-56908031D02*
X200942655Y-55574152D01*
X197961894Y-58787416D02*
X201626695Y-57453537D01*
X181689552Y-69778231D02*
X181005511Y-67898846D01*
X181005511Y-67898846D02*
X184670313Y-66564967D01*
X181689552Y-69778231D02*
X185354353Y-68444352D01*
X165417212Y-80769048D02*
X164733171Y-78889663D01*
X164733171Y-78889663D02*
X168397973Y-77555784D01*
X165417212Y-80769048D02*
X169082013Y-79435169D01*
X113867720Y-78415519D02*
X117532522Y-79749398D01*
X114551761Y-76536134D02*
X118216562Y-77870013D01*
X113867720Y-78415519D02*
X114551761Y-76536134D01*
X97595377Y-67424703D02*
X101260179Y-68758582D01*
X98279418Y-65545318D02*
X101944219Y-66879197D01*
X97595377Y-67424703D02*
X98279418Y-65545318D01*
X81323036Y-56433887D02*
X84987838Y-57767766D01*
X82007077Y-54554502D02*
X85671878Y-55888381D01*
X81323036Y-56433887D02*
X82007077Y-54554502D01*
X61792939Y-54393680D02*
X65457741Y-55727559D01*
X62476980Y-52514295D02*
X66141781Y-53848174D01*
X61792939Y-54393680D02*
X62476980Y-52514295D01*
X42262842Y-52353474D02*
X45927644Y-53687353D01*
X42946883Y-50474089D02*
X46611684Y-51807968D01*
X42262842Y-52353474D02*
X42946883Y-50474089D01*
D11*
X136525600Y-73025360D02*
X133985600Y-73025360D01*
X136525600Y-70485360D02*
X136525600Y-73025360D01*
D12*
G36*
X148920235Y-76774390D02*
G01*
X148920235Y-76874390D01*
X149020235Y-76874390D01*
X149020235Y-76774390D01*
X148920235Y-76774390D01*
G37*
X148920235Y-76774390D02*
X148920235Y-76874390D01*
X149020235Y-76874390D01*
X149020235Y-76774390D01*
X148920235Y-76774390D01*
G36*
X149120235Y-76374390D02*
G01*
X149120235Y-77174390D01*
X149220235Y-77174390D01*
X149220235Y-76374390D01*
X149120235Y-76374390D01*
G37*
X149120235Y-76374390D02*
X149120235Y-77174390D01*
X149220235Y-77174390D01*
X149220235Y-76374390D01*
X149120235Y-76374390D01*
G36*
X148720235Y-76974390D02*
G01*
X148720235Y-77174390D01*
X148820235Y-77174390D01*
X148820235Y-76974390D01*
X148720235Y-76974390D01*
G37*
X148720235Y-76974390D02*
X148720235Y-77174390D01*
X148820235Y-77174390D01*
X148820235Y-76974390D01*
X148720235Y-76974390D01*
G36*
X148720235Y-76374390D02*
G01*
X148720235Y-76674390D01*
X148820235Y-76674390D01*
X148820235Y-76374390D01*
X148720235Y-76374390D01*
G37*
X148720235Y-76374390D02*
X148720235Y-76674390D01*
X148820235Y-76674390D01*
X148820235Y-76374390D01*
X148720235Y-76374390D01*
G36*
X148720235Y-76374390D02*
G01*
X148720235Y-76474390D01*
X149220235Y-76474390D01*
X149220235Y-76374390D01*
X148720235Y-76374390D01*
G37*
X148720235Y-76374390D02*
X148720235Y-76474390D01*
X149220235Y-76474390D01*
X149220235Y-76374390D01*
X148720235Y-76374390D01*
D11*
X151765600Y-100965360D02*
X151765600Y-67945360D01*
X133985600Y-100965360D02*
X151765600Y-100965360D01*
X133985600Y-67945360D02*
X133985600Y-100965360D01*
X151765600Y-67945360D02*
X133985600Y-67945360D01*
X136525600Y-70485360D02*
X133985600Y-70485360D01*
D12*
X155324285Y-106042380D02*
X155324285Y-105042380D01*
X155086190Y-105042380D01*
X154943333Y-105090000D01*
X154848095Y-105185238D01*
X154800476Y-105280476D01*
X154752857Y-105470952D01*
X154752857Y-105613809D01*
X154800476Y-105804285D01*
X154848095Y-105899523D01*
X154943333Y-105994761D01*
X155086190Y-106042380D01*
X155324285Y-106042380D01*
X154419523Y-105042380D02*
X153800476Y-105042380D01*
X154133809Y-105423333D01*
X153990952Y-105423333D01*
X153895714Y-105470952D01*
X153848095Y-105518571D01*
X153800476Y-105613809D01*
X153800476Y-105851904D01*
X153848095Y-105947142D01*
X153895714Y-105994761D01*
X153990952Y-106042380D01*
X154276666Y-106042380D01*
X154371904Y-105994761D01*
X154419523Y-105947142D01*
X152848095Y-106042380D02*
X153419523Y-106042380D01*
X153133809Y-106042380D02*
X153133809Y-105042380D01*
X153229047Y-105185238D01*
X153324285Y-105280476D01*
X153419523Y-105328095D01*
X138114285Y-106037190D02*
X138114285Y-105037190D01*
X137876190Y-105037190D01*
X137733333Y-105084810D01*
X137638095Y-105180048D01*
X137590476Y-105275286D01*
X137542857Y-105465762D01*
X137542857Y-105608619D01*
X137590476Y-105799095D01*
X137638095Y-105894333D01*
X137733333Y-105989571D01*
X137876190Y-106037190D01*
X138114285Y-106037190D01*
X137209523Y-105037190D02*
X136590476Y-105037190D01*
X136923809Y-105418143D01*
X136780952Y-105418143D01*
X136685714Y-105465762D01*
X136638095Y-105513381D01*
X136590476Y-105608619D01*
X136590476Y-105846714D01*
X136638095Y-105941952D01*
X136685714Y-105989571D01*
X136780952Y-106037190D01*
X137066666Y-106037190D01*
X137161904Y-105989571D01*
X137209523Y-105941952D01*
X135971428Y-105037190D02*
X135876190Y-105037190D01*
X135780952Y-105084810D01*
X135733333Y-105132429D01*
X135685714Y-105227667D01*
X135638095Y-105418143D01*
X135638095Y-105656238D01*
X135685714Y-105846714D01*
X135733333Y-105941952D01*
X135780952Y-105989571D01*
X135876190Y-106037190D01*
X135971428Y-106037190D01*
X136066666Y-105989571D01*
X136114285Y-105941952D01*
X136161904Y-105846714D01*
X136209523Y-105656238D01*
X136209523Y-105418143D01*
X136161904Y-105227667D01*
X136114285Y-105132429D01*
X136066666Y-105084810D01*
X135971428Y-105037190D01*
X248918584Y-77263464D02*
X248576564Y-76323772D01*
X248352828Y-76405205D01*
X248234873Y-76498812D01*
X248177951Y-76620880D01*
X248165778Y-76726661D01*
X248186177Y-76921937D01*
X248235037Y-77056179D01*
X248344931Y-77218881D01*
X248422252Y-77292089D01*
X248544319Y-77349010D01*
X248694848Y-77344898D01*
X248918584Y-77263464D01*
X247714192Y-76739000D02*
X247653158Y-76710539D01*
X247547377Y-76698365D01*
X247323641Y-76779799D01*
X247250433Y-76857119D01*
X247221972Y-76918153D01*
X247209798Y-77023934D01*
X247242372Y-77113429D01*
X247335979Y-77231384D01*
X248068386Y-77572911D01*
X247486672Y-77784638D01*
X247039199Y-77947505D02*
X246860210Y-78012651D01*
X246754429Y-78000477D01*
X246693395Y-77972017D01*
X246555040Y-77870348D01*
X246445146Y-77707646D01*
X246314853Y-77349668D01*
X246327027Y-77243887D01*
X246355487Y-77182853D01*
X246428695Y-77105532D01*
X246607684Y-77040385D01*
X246713466Y-77052559D01*
X246774499Y-77081020D01*
X246851820Y-77154228D01*
X246933253Y-77377964D01*
X246921080Y-77483745D01*
X246892619Y-77544779D01*
X246819411Y-77622100D01*
X246640422Y-77687247D01*
X246534641Y-77675073D01*
X246473607Y-77646612D01*
X246396286Y-77573404D01*
X229388486Y-79303670D02*
X229046466Y-78363978D01*
X228822730Y-78445411D01*
X228704775Y-78539018D01*
X228647853Y-78661086D01*
X228635680Y-78766867D01*
X228656079Y-78962143D01*
X228704939Y-79096385D01*
X228814833Y-79259087D01*
X228892154Y-79332295D01*
X229014221Y-79389216D01*
X229164750Y-79385104D01*
X229388486Y-79303670D01*
X228184094Y-78779206D02*
X228123060Y-78750745D01*
X228017279Y-78738571D01*
X227793543Y-78820005D01*
X227720335Y-78897325D01*
X227691874Y-78958359D01*
X227679700Y-79064140D01*
X227712274Y-79153635D01*
X227805881Y-79271590D01*
X228538288Y-79613117D01*
X227956574Y-79824844D01*
X227224166Y-79483317D02*
X227297374Y-79405996D01*
X227325835Y-79344962D01*
X227338009Y-79239181D01*
X227321722Y-79194434D01*
X227244401Y-79121226D01*
X227183368Y-79092765D01*
X227077586Y-79080591D01*
X226898597Y-79145738D01*
X226825389Y-79223059D01*
X226796929Y-79284093D01*
X226784755Y-79389874D01*
X226801042Y-79434621D01*
X226878362Y-79507829D01*
X226939396Y-79536290D01*
X227045177Y-79548463D01*
X227224166Y-79483317D01*
X227329948Y-79495491D01*
X227390982Y-79523951D01*
X227468302Y-79597159D01*
X227533449Y-79776148D01*
X227521275Y-79881929D01*
X227492814Y-79942963D01*
X227419606Y-80020284D01*
X227240617Y-80085431D01*
X227134836Y-80073257D01*
X227073802Y-80044796D01*
X226996482Y-79971588D01*
X226931335Y-79792599D01*
X226943509Y-79686818D01*
X226971969Y-79625784D01*
X227045177Y-79548463D01*
X209858389Y-81343876D02*
X209516369Y-80404184D01*
X209292633Y-80485617D01*
X209174678Y-80579224D01*
X209117756Y-80701292D01*
X209105583Y-80807073D01*
X209125982Y-81002349D01*
X209174842Y-81136591D01*
X209284736Y-81299293D01*
X209362057Y-81372501D01*
X209484124Y-81429422D01*
X209634653Y-81425310D01*
X209858389Y-81343876D01*
X208653997Y-80819412D02*
X208592963Y-80790951D01*
X208487182Y-80778777D01*
X208263446Y-80860211D01*
X208190238Y-80937531D01*
X208161777Y-80998565D01*
X208149603Y-81104346D01*
X208182177Y-81193841D01*
X208275784Y-81311796D01*
X209008191Y-81653323D01*
X208426477Y-81865050D01*
X207771226Y-81039364D02*
X207144764Y-81267377D01*
X207889509Y-82060490D01*
X193586047Y-92334692D02*
X193244027Y-91395000D01*
X193020291Y-91476433D01*
X192902336Y-91570040D01*
X192845414Y-91692108D01*
X192833241Y-91797889D01*
X192853640Y-91993165D01*
X192902500Y-92127407D01*
X193012394Y-92290109D01*
X193089715Y-92363317D01*
X193211782Y-92420238D01*
X193362311Y-92416126D01*
X193586047Y-92334692D01*
X192381655Y-91810228D02*
X192320621Y-91781767D01*
X192214840Y-91769593D01*
X191991104Y-91851027D01*
X191917896Y-91928347D01*
X191889435Y-91989381D01*
X191877261Y-92095162D01*
X191909835Y-92184657D01*
X192003442Y-92302612D01*
X192735849Y-92644139D01*
X192154135Y-92855866D01*
X191006664Y-92209333D02*
X191185653Y-92144187D01*
X191291434Y-92156361D01*
X191352468Y-92184821D01*
X191490822Y-92286490D01*
X191600716Y-92449192D01*
X191731010Y-92807170D01*
X191718836Y-92912951D01*
X191690375Y-92973985D01*
X191617167Y-93051306D01*
X191438178Y-93116453D01*
X191332397Y-93104279D01*
X191271363Y-93075818D01*
X191194043Y-93002610D01*
X191112609Y-92778874D01*
X191124783Y-92673093D01*
X191153244Y-92612059D01*
X191226452Y-92534738D01*
X191405441Y-92469592D01*
X191511222Y-92481765D01*
X191572256Y-92510226D01*
X191649576Y-92583434D01*
X177313705Y-103325508D02*
X176971685Y-102385816D01*
X176747949Y-102467249D01*
X176629994Y-102560856D01*
X176573072Y-102682924D01*
X176560899Y-102788705D01*
X176581298Y-102983981D01*
X176630158Y-103118223D01*
X176740052Y-103280925D01*
X176817373Y-103354133D01*
X176939440Y-103411054D01*
X177089969Y-103406942D01*
X177313705Y-103325508D01*
X176109313Y-102801044D02*
X176048279Y-102772583D01*
X175942498Y-102760409D01*
X175718762Y-102841843D01*
X175645554Y-102919163D01*
X175617093Y-102980197D01*
X175604919Y-103085978D01*
X175637493Y-103175473D01*
X175731100Y-103293428D01*
X176463507Y-103634955D01*
X175881793Y-103846682D01*
X174689574Y-103216436D02*
X175137047Y-103053569D01*
X175344661Y-103484755D01*
X175283627Y-103456295D01*
X175177846Y-103444121D01*
X174954110Y-103525554D01*
X174880902Y-103602875D01*
X174852441Y-103663909D01*
X174840267Y-103769690D01*
X174921701Y-103993426D01*
X174999021Y-104066634D01*
X175060055Y-104095095D01*
X175165836Y-104107269D01*
X175389573Y-104025835D01*
X175462781Y-103948515D01*
X175491241Y-103887481D01*
X108481952Y-103341691D02*
X108823973Y-102401998D01*
X108600236Y-102320565D01*
X108449708Y-102316452D01*
X108327640Y-102373373D01*
X108250319Y-102446581D01*
X108140425Y-102609283D01*
X108091565Y-102743525D01*
X108071166Y-102938801D01*
X108083340Y-103044582D01*
X108140261Y-103166650D01*
X108258216Y-103260257D01*
X108481952Y-103341691D01*
X107896454Y-102165759D02*
X107867993Y-102104725D01*
X107794785Y-102027405D01*
X107571049Y-101945971D01*
X107465268Y-101958145D01*
X107404234Y-101986606D01*
X107326913Y-102059814D01*
X107294340Y-102149308D01*
X107290227Y-102299837D01*
X107631754Y-103032244D01*
X107050040Y-102820517D01*
X106472602Y-101900895D02*
X106244589Y-102527357D01*
X106826632Y-101624351D02*
X106806068Y-102376993D01*
X106224354Y-102165266D01*
X92209609Y-92350874D02*
X92551630Y-91411181D01*
X92327893Y-91329748D01*
X92177365Y-91325635D01*
X92055297Y-91382556D01*
X91977976Y-91455764D01*
X91868082Y-91618466D01*
X91819222Y-91752708D01*
X91798823Y-91947984D01*
X91810997Y-92053765D01*
X91867918Y-92175833D01*
X91985873Y-92269440D01*
X92209609Y-92350874D01*
X91624111Y-91174942D02*
X91595650Y-91113908D01*
X91522442Y-91036588D01*
X91298706Y-90955154D01*
X91192925Y-90967328D01*
X91131891Y-90995789D01*
X91054570Y-91068997D01*
X91021997Y-91158491D01*
X91017884Y-91309020D01*
X91359411Y-92041427D01*
X90777697Y-91829700D01*
X90806486Y-90776001D02*
X90224772Y-90564274D01*
X90407709Y-91036259D01*
X90273467Y-90987399D01*
X90167686Y-90999573D01*
X90106652Y-91028033D01*
X90029332Y-91101241D01*
X89947898Y-91324978D01*
X89960072Y-91430759D01*
X89988533Y-91491793D01*
X90061741Y-91569113D01*
X90330224Y-91666833D01*
X90436005Y-91654660D01*
X90497039Y-91626199D01*
X75937267Y-81360058D02*
X76279288Y-80420365D01*
X76055551Y-80338932D01*
X75905023Y-80334819D01*
X75782955Y-80391740D01*
X75705634Y-80464948D01*
X75595740Y-80627650D01*
X75546880Y-80761892D01*
X75526481Y-80957168D01*
X75538655Y-81062949D01*
X75595576Y-81185017D01*
X75713531Y-81278624D01*
X75937267Y-81360058D01*
X75351769Y-80184126D02*
X75323308Y-80123092D01*
X75250100Y-80045772D01*
X75026364Y-79964338D01*
X74920583Y-79976512D01*
X74859549Y-80004973D01*
X74782228Y-80078181D01*
X74749655Y-80167675D01*
X74745542Y-80318204D01*
X75087069Y-81050611D01*
X74505355Y-80838884D01*
X74456824Y-79858393D02*
X74428363Y-79797359D01*
X74355155Y-79720038D01*
X74131419Y-79638605D01*
X74025638Y-79650779D01*
X73964604Y-79679239D01*
X73887283Y-79752447D01*
X73854710Y-79841942D01*
X73850597Y-79992470D01*
X74192124Y-80724877D01*
X73610410Y-80513151D01*
X56407170Y-79319852D02*
X56749191Y-78380159D01*
X56525454Y-78298726D01*
X56374926Y-78294613D01*
X56252858Y-78351534D01*
X56175537Y-78424742D01*
X56065643Y-78587444D01*
X56016783Y-78721686D01*
X55996384Y-78916962D01*
X56008558Y-79022743D01*
X56065479Y-79144811D01*
X56183434Y-79238418D01*
X56407170Y-79319852D01*
X55821672Y-78143920D02*
X55793211Y-78082886D01*
X55720003Y-78005566D01*
X55496267Y-77924132D01*
X55390486Y-77936306D01*
X55329452Y-77964767D01*
X55252131Y-78037975D01*
X55219558Y-78127469D01*
X55215445Y-78277998D01*
X55556972Y-79010405D01*
X54975258Y-78798678D01*
X54080313Y-78472945D02*
X54617280Y-78668385D01*
X54348796Y-78570665D02*
X54690816Y-77630972D01*
X54731451Y-77797787D01*
X54788372Y-77919855D01*
X54861580Y-77997176D01*
X36877073Y-77279646D02*
X37219094Y-76339953D01*
X36995357Y-76258520D01*
X36844829Y-76254407D01*
X36722761Y-76311328D01*
X36645440Y-76384536D01*
X36535546Y-76547238D01*
X36486686Y-76681480D01*
X36466287Y-76876756D01*
X36478461Y-76982537D01*
X36535382Y-77104605D01*
X36653337Y-77198212D01*
X36877073Y-77279646D01*
X36291575Y-76103714D02*
X36263114Y-76042680D01*
X36189906Y-75965360D01*
X35966170Y-75883926D01*
X35860389Y-75896100D01*
X35799355Y-75924561D01*
X35722034Y-75997769D01*
X35689461Y-76087263D01*
X35685348Y-76237792D01*
X36026875Y-76970199D01*
X35445161Y-76758472D01*
X35205467Y-75607053D02*
X35115972Y-75574479D01*
X35010191Y-75586653D01*
X34949157Y-75615114D01*
X34871836Y-75688322D01*
X34761942Y-75851024D01*
X34680509Y-76074761D01*
X34660109Y-76270036D01*
X34672283Y-76375818D01*
X34700744Y-76436851D01*
X34773952Y-76514172D01*
X34863446Y-76546745D01*
X34969228Y-76534571D01*
X35030262Y-76506111D01*
X35107582Y-76432903D01*
X35217476Y-76270201D01*
X35298909Y-76046464D01*
X35319309Y-75851189D01*
X35307135Y-75745407D01*
X35278674Y-75684373D01*
X35205467Y-75607053D01*
X247289706Y-72788158D02*
X246947686Y-71848466D01*
X246723950Y-71929899D01*
X246605995Y-72023506D01*
X246549073Y-72145574D01*
X246536900Y-72251355D01*
X246557299Y-72446631D01*
X246606159Y-72580873D01*
X246716053Y-72743575D01*
X246793374Y-72816783D01*
X246915441Y-72873704D01*
X247065970Y-72869592D01*
X247289706Y-72788158D01*
X245857794Y-73309332D02*
X246394761Y-73113892D01*
X246126277Y-73211612D02*
X245784257Y-72271919D01*
X245922612Y-72373588D01*
X246044680Y-72430509D01*
X246150461Y-72442683D01*
X245410321Y-73472199D02*
X245231332Y-73537345D01*
X245125551Y-73525171D01*
X245064517Y-73496711D01*
X244926162Y-73395042D01*
X244816268Y-73232340D01*
X244685975Y-72874362D01*
X244698149Y-72768581D01*
X244726609Y-72707547D01*
X244799817Y-72630226D01*
X244978806Y-72565079D01*
X245084588Y-72577253D01*
X245145621Y-72605714D01*
X245222942Y-72678922D01*
X245304375Y-72902658D01*
X245292202Y-73008439D01*
X245263741Y-73069473D01*
X245190533Y-73146794D01*
X245011544Y-73211941D01*
X244905763Y-73199767D01*
X244844729Y-73171306D01*
X244767408Y-73098098D01*
X227759609Y-74828365D02*
X227417589Y-73888673D01*
X227193853Y-73970106D01*
X227075898Y-74063713D01*
X227018976Y-74185781D01*
X227006803Y-74291562D01*
X227027202Y-74486838D01*
X227076062Y-74621080D01*
X227185956Y-74783782D01*
X227263277Y-74856990D01*
X227385344Y-74913911D01*
X227535873Y-74909799D01*
X227759609Y-74828365D01*
X226327697Y-75349539D02*
X226864664Y-75154099D01*
X226596180Y-75251819D02*
X226254160Y-74312126D01*
X226392515Y-74413795D01*
X226514583Y-74470716D01*
X226620364Y-74482890D01*
X225595289Y-75008012D02*
X225668497Y-74930691D01*
X225696958Y-74869657D01*
X225709132Y-74763876D01*
X225692845Y-74719129D01*
X225615524Y-74645921D01*
X225554491Y-74617460D01*
X225448709Y-74605286D01*
X225269720Y-74670433D01*
X225196512Y-74747754D01*
X225168052Y-74808788D01*
X225155878Y-74914569D01*
X225172165Y-74959316D01*
X225249485Y-75032524D01*
X225310519Y-75060985D01*
X225416300Y-75073158D01*
X225595289Y-75008012D01*
X225701071Y-75020186D01*
X225762105Y-75048646D01*
X225839425Y-75121854D01*
X225904572Y-75300843D01*
X225892398Y-75406624D01*
X225863937Y-75467658D01*
X225790729Y-75544979D01*
X225611740Y-75610126D01*
X225505959Y-75597952D01*
X225444925Y-75569491D01*
X225367605Y-75496283D01*
X225302458Y-75317294D01*
X225314632Y-75211513D01*
X225343092Y-75150479D01*
X225416300Y-75073158D01*
X208229511Y-76868571D02*
X207887491Y-75928879D01*
X207663755Y-76010312D01*
X207545800Y-76103919D01*
X207488878Y-76225987D01*
X207476705Y-76331768D01*
X207497104Y-76527044D01*
X207545964Y-76661286D01*
X207655858Y-76823988D01*
X207733179Y-76897196D01*
X207855246Y-76954117D01*
X208005775Y-76950005D01*
X208229511Y-76868571D01*
X206797599Y-77389745D02*
X207334566Y-77194305D01*
X207066082Y-77292025D02*
X206724062Y-76352332D01*
X206862417Y-76454001D01*
X206984485Y-76510922D01*
X207090266Y-76523096D01*
X206142348Y-76564059D02*
X205515886Y-76792072D01*
X206260631Y-77585185D01*
X191957170Y-87859387D02*
X191615150Y-86919695D01*
X191391414Y-87001128D01*
X191273459Y-87094735D01*
X191216537Y-87216803D01*
X191204364Y-87322584D01*
X191224763Y-87517860D01*
X191273623Y-87652102D01*
X191383517Y-87814804D01*
X191460838Y-87888012D01*
X191582905Y-87944933D01*
X191733434Y-87940821D01*
X191957170Y-87859387D01*
X190525258Y-88380561D02*
X191062225Y-88185121D01*
X190793741Y-88282841D02*
X190451721Y-87343148D01*
X190590076Y-87444817D01*
X190712144Y-87501738D01*
X190817925Y-87513912D01*
X189377787Y-87734028D02*
X189556776Y-87668882D01*
X189662557Y-87681056D01*
X189723591Y-87709516D01*
X189861945Y-87811185D01*
X189971839Y-87973887D01*
X190102133Y-88331865D01*
X190089959Y-88437646D01*
X190061498Y-88498680D01*
X189988290Y-88576001D01*
X189809301Y-88641148D01*
X189703520Y-88628974D01*
X189642486Y-88600513D01*
X189565166Y-88527305D01*
X189483732Y-88303569D01*
X189495906Y-88197788D01*
X189524367Y-88136754D01*
X189597575Y-88059433D01*
X189776564Y-87994287D01*
X189882345Y-88006460D01*
X189943379Y-88034921D01*
X190020699Y-88108129D01*
X175684828Y-98850203D02*
X175342808Y-97910511D01*
X175119072Y-97991944D01*
X175001117Y-98085551D01*
X174944195Y-98207619D01*
X174932022Y-98313400D01*
X174952421Y-98508676D01*
X175001281Y-98642918D01*
X175111175Y-98805620D01*
X175188496Y-98878828D01*
X175310563Y-98935749D01*
X175461092Y-98931637D01*
X175684828Y-98850203D01*
X174252916Y-99371377D02*
X174789883Y-99175937D01*
X174521399Y-99273657D02*
X174179379Y-98333964D01*
X174317734Y-98435633D01*
X174439802Y-98492554D01*
X174545583Y-98504728D01*
X173060697Y-98741131D02*
X173508170Y-98578264D01*
X173715784Y-99009450D01*
X173654750Y-98980990D01*
X173548969Y-98968816D01*
X173325233Y-99050249D01*
X173252025Y-99127570D01*
X173223564Y-99188604D01*
X173211390Y-99294385D01*
X173292824Y-99518121D01*
X173370144Y-99591329D01*
X173431178Y-99619790D01*
X173536959Y-99631964D01*
X173760696Y-99550530D01*
X173833904Y-99473210D01*
X173862364Y-99412176D01*
X110110829Y-98866385D02*
X110452850Y-97926692D01*
X110229113Y-97845259D01*
X110078585Y-97841146D01*
X109956517Y-97898067D01*
X109879196Y-97971275D01*
X109769302Y-98133977D01*
X109720442Y-98268219D01*
X109700043Y-98463495D01*
X109712217Y-98569276D01*
X109769138Y-98691344D01*
X109887093Y-98784951D01*
X110110829Y-98866385D01*
X108678917Y-98345211D02*
X109215884Y-98540651D01*
X108947400Y-98442931D02*
X109289421Y-97503239D01*
X109330055Y-97670054D01*
X109386976Y-97792122D01*
X109460184Y-97869442D01*
X108101479Y-97425589D02*
X107873466Y-98052051D01*
X108455509Y-97149045D02*
X108434945Y-97901687D01*
X107853231Y-97689960D01*
X93838487Y-87875569D02*
X94180508Y-86935876D01*
X93956771Y-86854443D01*
X93806243Y-86850330D01*
X93684175Y-86907251D01*
X93606854Y-86980459D01*
X93496960Y-87143161D01*
X93448100Y-87277403D01*
X93427701Y-87472679D01*
X93439875Y-87578460D01*
X93496796Y-87700528D01*
X93614751Y-87794135D01*
X93838487Y-87875569D01*
X92406575Y-87354395D02*
X92943542Y-87549835D01*
X92675058Y-87452115D02*
X93017079Y-86512423D01*
X93057713Y-86679238D01*
X93114634Y-86801306D01*
X93187842Y-86878626D01*
X92435364Y-86300696D02*
X91853650Y-86088969D01*
X92036587Y-86560954D01*
X91902345Y-86512094D01*
X91796564Y-86524268D01*
X91735530Y-86552728D01*
X91658210Y-86625936D01*
X91576776Y-86849673D01*
X91588950Y-86955454D01*
X91617411Y-87016488D01*
X91690619Y-87093808D01*
X91959102Y-87191528D01*
X92064883Y-87179355D01*
X92125917Y-87150894D01*
X77566145Y-76884753D02*
X77908166Y-75945060D01*
X77684429Y-75863627D01*
X77533901Y-75859514D01*
X77411833Y-75916435D01*
X77334512Y-75989643D01*
X77224618Y-76152345D01*
X77175758Y-76286587D01*
X77155359Y-76481863D01*
X77167533Y-76587644D01*
X77224454Y-76709712D01*
X77342409Y-76803319D01*
X77566145Y-76884753D01*
X76134233Y-76363579D02*
X76671200Y-76559019D01*
X76402716Y-76461299D02*
X76744737Y-75521607D01*
X76785371Y-75688422D01*
X76842292Y-75810490D01*
X76915500Y-75887810D01*
X76085702Y-75383088D02*
X76057241Y-75322054D01*
X75984033Y-75244733D01*
X75760297Y-75163300D01*
X75654516Y-75175474D01*
X75593482Y-75203934D01*
X75516161Y-75277142D01*
X75483588Y-75366637D01*
X75479475Y-75517165D01*
X75821002Y-76249572D01*
X75239288Y-76037846D01*
X58036048Y-74844547D02*
X58378069Y-73904854D01*
X58154332Y-73823421D01*
X58003804Y-73819308D01*
X57881736Y-73876229D01*
X57804415Y-73949437D01*
X57694521Y-74112139D01*
X57645661Y-74246381D01*
X57625262Y-74441657D01*
X57637436Y-74547438D01*
X57694357Y-74669506D01*
X57812312Y-74763113D01*
X58036048Y-74844547D01*
X56604136Y-74323373D02*
X57141103Y-74518813D01*
X56872619Y-74421093D02*
X57214640Y-73481401D01*
X57255274Y-73648216D01*
X57312195Y-73770284D01*
X57385403Y-73847604D01*
X55709191Y-73997640D02*
X56246158Y-74193080D01*
X55977674Y-74095360D02*
X56319694Y-73155667D01*
X56360329Y-73322482D01*
X56417250Y-73444550D01*
X56490458Y-73521871D01*
X38505950Y-72804342D02*
X38847971Y-71864649D01*
X38624234Y-71783216D01*
X38473706Y-71779103D01*
X38351638Y-71836024D01*
X38274317Y-71909232D01*
X38164423Y-72071934D01*
X38115563Y-72206176D01*
X38095164Y-72401452D01*
X38107338Y-72507233D01*
X38164259Y-72629301D01*
X38282214Y-72722908D01*
X38505950Y-72804342D01*
X37074038Y-72283168D02*
X37611005Y-72478608D01*
X37342521Y-72380888D02*
X37684542Y-71441196D01*
X37725176Y-71608011D01*
X37782097Y-71730079D01*
X37855305Y-71807399D01*
X36834344Y-71131749D02*
X36744849Y-71099175D01*
X36639068Y-71111349D01*
X36578034Y-71139810D01*
X36500713Y-71213018D01*
X36390819Y-71375720D01*
X36309386Y-71599457D01*
X36288986Y-71794732D01*
X36301160Y-71900514D01*
X36329621Y-71961547D01*
X36402829Y-72038868D01*
X36492323Y-72071441D01*
X36598105Y-72059267D01*
X36659139Y-72030807D01*
X36736459Y-71957599D01*
X36846353Y-71794897D01*
X36927786Y-71571160D01*
X36948186Y-71375885D01*
X36936012Y-71270103D01*
X36907551Y-71209069D01*
X36834344Y-71131749D01*
X240326723Y-55049806D02*
X239984702Y-54110113D01*
X239760966Y-54191547D01*
X239643011Y-54285154D01*
X239586090Y-54407222D01*
X239573916Y-54513003D01*
X239594315Y-54708279D01*
X239643175Y-54842521D01*
X239753069Y-55005223D01*
X239830390Y-55078431D01*
X239952458Y-55135352D01*
X240102986Y-55131239D01*
X240326723Y-55049806D01*
X239342283Y-55408113D02*
X239163294Y-55473260D01*
X239057512Y-55461086D01*
X238996478Y-55432625D01*
X238858124Y-55330957D01*
X238748230Y-55168254D01*
X238617937Y-54810276D01*
X238630110Y-54704495D01*
X238658571Y-54643461D01*
X238731779Y-54566140D01*
X238910768Y-54500994D01*
X239016549Y-54513168D01*
X239077583Y-54541628D01*
X239154904Y-54614836D01*
X239236337Y-54838572D01*
X239224163Y-54944354D01*
X239195703Y-55005388D01*
X239122495Y-55082708D01*
X238943506Y-55147855D01*
X238837724Y-55135681D01*
X238776691Y-55107220D01*
X238699370Y-55034012D01*
X220796626Y-57090012D02*
X220454605Y-56150319D01*
X220230869Y-56231753D01*
X220112914Y-56325360D01*
X220055993Y-56447428D01*
X220043819Y-56553209D01*
X220064218Y-56748485D01*
X220113078Y-56882727D01*
X220222972Y-57045429D01*
X220300293Y-57118637D01*
X220422361Y-57175558D01*
X220572889Y-57171445D01*
X220796626Y-57090012D01*
X219527251Y-56943925D02*
X219600459Y-56866604D01*
X219628919Y-56805570D01*
X219641093Y-56699789D01*
X219624807Y-56655042D01*
X219547486Y-56581834D01*
X219486452Y-56553374D01*
X219380671Y-56541200D01*
X219201682Y-56606346D01*
X219128474Y-56683667D01*
X219100013Y-56744701D01*
X219087840Y-56850482D01*
X219104126Y-56895229D01*
X219181447Y-56968437D01*
X219242481Y-56996898D01*
X219348262Y-57009072D01*
X219527251Y-56943925D01*
X219633032Y-56956099D01*
X219694066Y-56984560D01*
X219771387Y-57057767D01*
X219836533Y-57236757D01*
X219824360Y-57342538D01*
X219795899Y-57403572D01*
X219722691Y-57480892D01*
X219543702Y-57546039D01*
X219437921Y-57533865D01*
X219376887Y-57505404D01*
X219299566Y-57432197D01*
X219234420Y-57253208D01*
X219246594Y-57147426D01*
X219275054Y-57086392D01*
X219348262Y-57009072D01*
X201266528Y-59130218D02*
X200924507Y-58190525D01*
X200700771Y-58271959D01*
X200582816Y-58365566D01*
X200525895Y-58487634D01*
X200513721Y-58593415D01*
X200534120Y-58788691D01*
X200582980Y-58922933D01*
X200692874Y-59085635D01*
X200770195Y-59158843D01*
X200892263Y-59215764D01*
X201042791Y-59211651D01*
X201266528Y-59130218D01*
X200074309Y-58499972D02*
X199447848Y-58727986D01*
X200192593Y-59521098D01*
X184994186Y-70121033D02*
X184652165Y-69181340D01*
X184428429Y-69262774D01*
X184310474Y-69356381D01*
X184253553Y-69478449D01*
X184241379Y-69584230D01*
X184261778Y-69779506D01*
X184310638Y-69913748D01*
X184420532Y-70076450D01*
X184497853Y-70149658D01*
X184619921Y-70206579D01*
X184770449Y-70202466D01*
X184994186Y-70121033D01*
X183309747Y-69669941D02*
X183488736Y-69604794D01*
X183594518Y-69616968D01*
X183655552Y-69645429D01*
X183793906Y-69747097D01*
X183903800Y-69909799D01*
X184034093Y-70267778D01*
X184021920Y-70373559D01*
X183993459Y-70434593D01*
X183920251Y-70511913D01*
X183741262Y-70577060D01*
X183635481Y-70564886D01*
X183574447Y-70536425D01*
X183497126Y-70463218D01*
X183415693Y-70239481D01*
X183427867Y-70133700D01*
X183456327Y-70072666D01*
X183529535Y-69995345D01*
X183708524Y-69930199D01*
X183814306Y-69942373D01*
X183875340Y-69970833D01*
X183952660Y-70044041D01*
X168721846Y-81111850D02*
X168379825Y-80172157D01*
X168156089Y-80253591D01*
X168038134Y-80347198D01*
X167981213Y-80469266D01*
X167969039Y-80575047D01*
X167989438Y-80770323D01*
X168038298Y-80904565D01*
X168148192Y-81067267D01*
X168225513Y-81140475D01*
X168347581Y-81197396D01*
X168498109Y-81193283D01*
X168721846Y-81111850D01*
X166992660Y-80677044D02*
X167440133Y-80514178D01*
X167647747Y-80945364D01*
X167586713Y-80916903D01*
X167480932Y-80904729D01*
X167257195Y-80986162D01*
X167183987Y-81063483D01*
X167155527Y-81124517D01*
X167143353Y-81230298D01*
X167224786Y-81454035D01*
X167302107Y-81527242D01*
X167363141Y-81555703D01*
X167468922Y-81567877D01*
X167692658Y-81486444D01*
X167765866Y-81409123D01*
X167794327Y-81348089D01*
X116178868Y-80802299D02*
X116520888Y-79862606D01*
X116297152Y-79781173D01*
X116146623Y-79777060D01*
X116024555Y-79833981D01*
X115947235Y-79907189D01*
X115837341Y-80069892D01*
X115788481Y-80204133D01*
X115768081Y-80399409D01*
X115780255Y-80505190D01*
X115837176Y-80627258D01*
X115955131Y-80720866D01*
X116178868Y-80802299D01*
X115064463Y-79687237D02*
X114836450Y-80313699D01*
X115418493Y-79410692D02*
X115397929Y-80163335D01*
X114816215Y-79951608D01*
X99906525Y-69811483D02*
X100248545Y-68871790D01*
X100024809Y-68790357D01*
X99874280Y-68786244D01*
X99752212Y-68843165D01*
X99674892Y-68916373D01*
X99564998Y-69079076D01*
X99516138Y-69213317D01*
X99495738Y-69408593D01*
X99507912Y-69514374D01*
X99564833Y-69636442D01*
X99682788Y-69730050D01*
X99906525Y-69811483D01*
X99398347Y-68562344D02*
X98816632Y-68350617D01*
X98999570Y-68822602D01*
X98865328Y-68773742D01*
X98759547Y-68785916D01*
X98698513Y-68814376D01*
X98621192Y-68887584D01*
X98539759Y-69111320D01*
X98551933Y-69217102D01*
X98580393Y-69278136D01*
X98653601Y-69355456D01*
X98922085Y-69453176D01*
X99027866Y-69441002D01*
X99088900Y-69412542D01*
X83634184Y-58820667D02*
X83976204Y-57880974D01*
X83752468Y-57799541D01*
X83601939Y-57795428D01*
X83479871Y-57852349D01*
X83402551Y-57925557D01*
X83292657Y-58088260D01*
X83243797Y-58222501D01*
X83223397Y-58417777D01*
X83235571Y-58523558D01*
X83292492Y-58645626D01*
X83410447Y-58739234D01*
X83634184Y-58820667D01*
X83048685Y-57644735D02*
X83020225Y-57583701D01*
X82947017Y-57506381D01*
X82723280Y-57424948D01*
X82617499Y-57437121D01*
X82556465Y-57465582D01*
X82479145Y-57538790D01*
X82446571Y-57628284D01*
X82442459Y-57778813D01*
X82783986Y-58511220D01*
X82202271Y-58299493D01*
X64104087Y-56780460D02*
X64446107Y-55840767D01*
X64222371Y-55759334D01*
X64071842Y-55755221D01*
X63949774Y-55812142D01*
X63872454Y-55885350D01*
X63762560Y-56048053D01*
X63713700Y-56182294D01*
X63693300Y-56377570D01*
X63705474Y-56483351D01*
X63762395Y-56605419D01*
X63880350Y-56699027D01*
X64104087Y-56780460D01*
X62672174Y-56259286D02*
X63209141Y-56454727D01*
X62940658Y-56357006D02*
X63282678Y-55417314D01*
X63323312Y-55584129D01*
X63380234Y-55706197D01*
X63453441Y-55783517D01*
X44573990Y-54740254D02*
X44916010Y-53800561D01*
X44692274Y-53719128D01*
X44541745Y-53715015D01*
X44419677Y-53771936D01*
X44342357Y-53845144D01*
X44232463Y-54007847D01*
X44183603Y-54142088D01*
X44163203Y-54337364D01*
X44175377Y-54443145D01*
X44232298Y-54565213D01*
X44350253Y-54658821D01*
X44573990Y-54740254D01*
X43797328Y-53393395D02*
X43707834Y-53360821D01*
X43602052Y-53372995D01*
X43541019Y-53401456D01*
X43463698Y-53474664D01*
X43353804Y-53637366D01*
X43272371Y-53861102D01*
X43251971Y-54056378D01*
X43264145Y-54162159D01*
X43292606Y-54223193D01*
X43365814Y-54300514D01*
X43455308Y-54333087D01*
X43561089Y-54320913D01*
X43622123Y-54292453D01*
X43699444Y-54219245D01*
X43809338Y-54056542D01*
X43890771Y-53832806D01*
X43911171Y-53637530D01*
X43898997Y-53531749D01*
X43870536Y-53470715D01*
X43797328Y-53393395D01*
X138005076Y-74657264D02*
X138005076Y-73857264D01*
X137814600Y-73857264D01*
X137700314Y-73895360D01*
X137624123Y-73971550D01*
X137586028Y-74047740D01*
X137547933Y-74200121D01*
X137547933Y-74314407D01*
X137586028Y-74466788D01*
X137624123Y-74542979D01*
X137700314Y-74619169D01*
X137814600Y-74657264D01*
X138005076Y-74657264D01*
X137243171Y-73933455D02*
X137205076Y-73895360D01*
X137128885Y-73857264D01*
X136938409Y-73857264D01*
X136862219Y-73895360D01*
X136824123Y-73933455D01*
X136786028Y-74009645D01*
X136786028Y-74085836D01*
X136824123Y-74200121D01*
X137281266Y-74657264D01*
X136786028Y-74657264D01*
X138005076Y-84817264D02*
X138005076Y-84017264D01*
X137814600Y-84017264D01*
X137700314Y-84055360D01*
X137624123Y-84131550D01*
X137586028Y-84207740D01*
X137547933Y-84360121D01*
X137547933Y-84474407D01*
X137586028Y-84626788D01*
X137624123Y-84702979D01*
X137700314Y-84779169D01*
X137814600Y-84817264D01*
X138005076Y-84817264D01*
X137052695Y-84017264D02*
X136976504Y-84017264D01*
X136900314Y-84055360D01*
X136862219Y-84093455D01*
X136824123Y-84169645D01*
X136786028Y-84322026D01*
X136786028Y-84512502D01*
X136824123Y-84664883D01*
X136862219Y-84741074D01*
X136900314Y-84779169D01*
X136976504Y-84817264D01*
X137052695Y-84817264D01*
X137128885Y-84779169D01*
X137166980Y-84741074D01*
X137205076Y-84664883D01*
X137243171Y-84512502D01*
X137243171Y-84322026D01*
X137205076Y-84169645D01*
X137166980Y-84093455D01*
X137128885Y-84055360D01*
X137052695Y-84017264D01*
X138005076Y-82277264D02*
X138005076Y-81477264D01*
X137814600Y-81477264D01*
X137700314Y-81515360D01*
X137624123Y-81591550D01*
X137586028Y-81667740D01*
X137547933Y-81820121D01*
X137547933Y-81934407D01*
X137586028Y-82086788D01*
X137624123Y-82162979D01*
X137700314Y-82239169D01*
X137814600Y-82277264D01*
X138005076Y-82277264D01*
X136786028Y-82277264D02*
X137243171Y-82277264D01*
X137014600Y-82277264D02*
X137014600Y-81477264D01*
X137090790Y-81591550D01*
X137166980Y-81667740D01*
X137243171Y-81705836D01*
X138024123Y-78975360D02*
X138100314Y-78937264D01*
X138214600Y-78937264D01*
X138328885Y-78975360D01*
X138405076Y-79051550D01*
X138443171Y-79127740D01*
X138481266Y-79280121D01*
X138481266Y-79394407D01*
X138443171Y-79546788D01*
X138405076Y-79622979D01*
X138328885Y-79699169D01*
X138214600Y-79737264D01*
X138138409Y-79737264D01*
X138024123Y-79699169D01*
X137986028Y-79661074D01*
X137986028Y-79394407D01*
X138138409Y-79394407D01*
X137643171Y-79737264D02*
X137643171Y-78937264D01*
X137186028Y-79737264D01*
X137186028Y-78937264D01*
X136805076Y-79737264D02*
X136805076Y-78937264D01*
X136614600Y-78937264D01*
X136500314Y-78975360D01*
X136424123Y-79051550D01*
X136386028Y-79127740D01*
X136347933Y-79280121D01*
X136347933Y-79394407D01*
X136386028Y-79546788D01*
X136424123Y-79622979D01*
X136500314Y-79699169D01*
X136614600Y-79737264D01*
X136805076Y-79737264D01*
X138024123Y-76435360D02*
X138100314Y-76397264D01*
X138214600Y-76397264D01*
X138328885Y-76435360D01*
X138405076Y-76511550D01*
X138443171Y-76587740D01*
X138481266Y-76740121D01*
X138481266Y-76854407D01*
X138443171Y-77006788D01*
X138405076Y-77082979D01*
X138328885Y-77159169D01*
X138214600Y-77197264D01*
X138138409Y-77197264D01*
X138024123Y-77159169D01*
X137986028Y-77121074D01*
X137986028Y-76854407D01*
X138138409Y-76854407D01*
X137643171Y-77197264D02*
X137643171Y-76397264D01*
X137186028Y-77197264D01*
X137186028Y-76397264D01*
X136805076Y-77197264D02*
X136805076Y-76397264D01*
X136614600Y-76397264D01*
X136500314Y-76435360D01*
X136424123Y-76511550D01*
X136386028Y-76587740D01*
X136347933Y-76740121D01*
X136347933Y-76854407D01*
X136386028Y-77006788D01*
X136424123Y-77082979D01*
X136500314Y-77159169D01*
X136614600Y-77197264D01*
X136805076Y-77197264D01*
X138005076Y-87357264D02*
X138005076Y-86557264D01*
X137814600Y-86557264D01*
X137700314Y-86595360D01*
X137624123Y-86671550D01*
X137586028Y-86747740D01*
X137547933Y-86900121D01*
X137547933Y-87014407D01*
X137586028Y-87166788D01*
X137624123Y-87242979D01*
X137700314Y-87319169D01*
X137814600Y-87357264D01*
X138005076Y-87357264D01*
X136862219Y-86823931D02*
X136862219Y-87357264D01*
X137052695Y-86519169D02*
X137243171Y-87090598D01*
X136747933Y-87090598D01*
X137547933Y-89821074D02*
X137586028Y-89859169D01*
X137700314Y-89897264D01*
X137776504Y-89897264D01*
X137890790Y-89859169D01*
X137966980Y-89782979D01*
X138005076Y-89706788D01*
X138043171Y-89554407D01*
X138043171Y-89440121D01*
X138005076Y-89287740D01*
X137966980Y-89211550D01*
X137890790Y-89135360D01*
X137776504Y-89097264D01*
X137700314Y-89097264D01*
X137586028Y-89135360D01*
X137547933Y-89173455D01*
X136862219Y-89097264D02*
X137014600Y-89097264D01*
X137090790Y-89135360D01*
X137128885Y-89173455D01*
X137205076Y-89287740D01*
X137243171Y-89440121D01*
X137243171Y-89744883D01*
X137205076Y-89821074D01*
X137166980Y-89859169D01*
X137090790Y-89897264D01*
X136938409Y-89897264D01*
X136862219Y-89859169D01*
X136824123Y-89821074D01*
X136786028Y-89744883D01*
X136786028Y-89554407D01*
X136824123Y-89478217D01*
X136862219Y-89440121D01*
X136938409Y-89402026D01*
X137090790Y-89402026D01*
X137166980Y-89440121D01*
X137205076Y-89478217D01*
X137243171Y-89554407D01*
X138005076Y-92437264D02*
X138005076Y-91637264D01*
X137814600Y-91637264D01*
X137700314Y-91675360D01*
X137624123Y-91751550D01*
X137586028Y-91827740D01*
X137547933Y-91980121D01*
X137547933Y-92094407D01*
X137586028Y-92246788D01*
X137624123Y-92322979D01*
X137700314Y-92399169D01*
X137814600Y-92437264D01*
X138005076Y-92437264D01*
X137281266Y-91637264D02*
X136747933Y-91637264D01*
X137090790Y-92437264D01*
X137966980Y-94558217D02*
X137700314Y-94558217D01*
X137586028Y-94977264D02*
X137966980Y-94977264D01*
X137966980Y-94177264D01*
X137586028Y-94177264D01*
X136900314Y-94177264D02*
X137052695Y-94177264D01*
X137128885Y-94215360D01*
X137166980Y-94253455D01*
X137243171Y-94367740D01*
X137281266Y-94520121D01*
X137281266Y-94824883D01*
X137243171Y-94901074D01*
X137205076Y-94939169D01*
X137128885Y-94977264D01*
X136976504Y-94977264D01*
X136900314Y-94939169D01*
X136862219Y-94901074D01*
X136824123Y-94824883D01*
X136824123Y-94634407D01*
X136862219Y-94558217D01*
X136900314Y-94520121D01*
X136976504Y-94482026D01*
X137128885Y-94482026D01*
X137205076Y-94520121D01*
X137243171Y-94558217D01*
X137281266Y-94634407D01*
X137738409Y-97098217D02*
X137624123Y-97136312D01*
X137586028Y-97174407D01*
X137547933Y-97250598D01*
X137547933Y-97364883D01*
X137586028Y-97441074D01*
X137624123Y-97479169D01*
X137700314Y-97517264D01*
X138005076Y-97517264D01*
X138005076Y-96717264D01*
X137738409Y-96717264D01*
X137662219Y-96755360D01*
X137624123Y-96793455D01*
X137586028Y-96869645D01*
X137586028Y-96945836D01*
X137624123Y-97022026D01*
X137662219Y-97060121D01*
X137738409Y-97098217D01*
X138005076Y-97098217D01*
X136862219Y-96983931D02*
X136862219Y-97517264D01*
X137052695Y-96679169D02*
X137243171Y-97250598D01*
X136747933Y-97250598D01*
X137738409Y-99638217D02*
X137624123Y-99676312D01*
X137586028Y-99714407D01*
X137547933Y-99790598D01*
X137547933Y-99904883D01*
X137586028Y-99981074D01*
X137624123Y-100019169D01*
X137700314Y-100057264D01*
X138005076Y-100057264D01*
X138005076Y-99257264D01*
X137738409Y-99257264D01*
X137662219Y-99295360D01*
X137624123Y-99333455D01*
X137586028Y-99409645D01*
X137586028Y-99485836D01*
X137624123Y-99562026D01*
X137662219Y-99600121D01*
X137738409Y-99638217D01*
X138005076Y-99638217D01*
X136824123Y-99257264D02*
X137205076Y-99257264D01*
X137243171Y-99638217D01*
X137205076Y-99600121D01*
X137128885Y-99562026D01*
X136938409Y-99562026D01*
X136862219Y-99600121D01*
X136824123Y-99638217D01*
X136786028Y-99714407D01*
X136786028Y-99904883D01*
X136824123Y-99981074D01*
X136862219Y-100019169D01*
X136938409Y-100057264D01*
X137128885Y-100057264D01*
X137205076Y-100019169D01*
X137243171Y-99981074D01*
X148660409Y-99638217D02*
X148546123Y-99676312D01*
X148508028Y-99714407D01*
X148469933Y-99790598D01*
X148469933Y-99904883D01*
X148508028Y-99981074D01*
X148546123Y-100019169D01*
X148622314Y-100057264D01*
X148927076Y-100057264D01*
X148927076Y-99257264D01*
X148660409Y-99257264D01*
X148584219Y-99295360D01*
X148546123Y-99333455D01*
X148508028Y-99409645D01*
X148508028Y-99485836D01*
X148546123Y-99562026D01*
X148584219Y-99600121D01*
X148660409Y-99638217D01*
X148927076Y-99638217D01*
X147784219Y-99257264D02*
X147936600Y-99257264D01*
X148012790Y-99295360D01*
X148050885Y-99333455D01*
X148127076Y-99447740D01*
X148165171Y-99600121D01*
X148165171Y-99904883D01*
X148127076Y-99981074D01*
X148088980Y-100019169D01*
X148012790Y-100057264D01*
X147860409Y-100057264D01*
X147784219Y-100019169D01*
X147746123Y-99981074D01*
X147708028Y-99904883D01*
X147708028Y-99714407D01*
X147746123Y-99638217D01*
X147784219Y-99600121D01*
X147860409Y-99562026D01*
X148012790Y-99562026D01*
X148088980Y-99600121D01*
X148127076Y-99638217D01*
X148165171Y-99714407D01*
X148660409Y-94558217D02*
X148546123Y-94596312D01*
X148508028Y-94634407D01*
X148469933Y-94710598D01*
X148469933Y-94824883D01*
X148508028Y-94901074D01*
X148546123Y-94939169D01*
X148622314Y-94977264D01*
X148927076Y-94977264D01*
X148927076Y-94177264D01*
X148660409Y-94177264D01*
X148584219Y-94215360D01*
X148546123Y-94253455D01*
X148508028Y-94329645D01*
X148508028Y-94405836D01*
X148546123Y-94482026D01*
X148584219Y-94520121D01*
X148660409Y-94558217D01*
X148927076Y-94558217D01*
X148203266Y-94177264D02*
X147708028Y-94177264D01*
X147974695Y-94482026D01*
X147860409Y-94482026D01*
X147784219Y-94520121D01*
X147746123Y-94558217D01*
X147708028Y-94634407D01*
X147708028Y-94824883D01*
X147746123Y-94901074D01*
X147784219Y-94939169D01*
X147860409Y-94977264D01*
X148088980Y-94977264D01*
X148165171Y-94939169D01*
X148203266Y-94901074D01*
X148660409Y-92018217D02*
X148546123Y-92056312D01*
X148508028Y-92094407D01*
X148469933Y-92170598D01*
X148469933Y-92284883D01*
X148508028Y-92361074D01*
X148546123Y-92399169D01*
X148622314Y-92437264D01*
X148927076Y-92437264D01*
X148927076Y-91637264D01*
X148660409Y-91637264D01*
X148584219Y-91675360D01*
X148546123Y-91713455D01*
X148508028Y-91789645D01*
X148508028Y-91865836D01*
X148546123Y-91942026D01*
X148584219Y-91980121D01*
X148660409Y-92018217D01*
X148927076Y-92018217D01*
X147708028Y-92437264D02*
X148165171Y-92437264D01*
X147936600Y-92437264D02*
X147936600Y-91637264D01*
X148012790Y-91751550D01*
X148088980Y-91827740D01*
X148165171Y-91865836D01*
X148603266Y-81858217D02*
X148869933Y-81858217D01*
X148869933Y-82277264D02*
X148869933Y-81477264D01*
X148488980Y-81477264D01*
X147841361Y-81743931D02*
X147841361Y-82277264D01*
X148031838Y-81439169D02*
X148222314Y-82010598D01*
X147727076Y-82010598D01*
X149403266Y-78937264D02*
X149136600Y-79737264D01*
X148869933Y-78937264D01*
X148146123Y-79661074D02*
X148184219Y-79699169D01*
X148298504Y-79737264D01*
X148374695Y-79737264D01*
X148488980Y-79699169D01*
X148565171Y-79622979D01*
X148603266Y-79546788D01*
X148641361Y-79394407D01*
X148641361Y-79280121D01*
X148603266Y-79127740D01*
X148565171Y-79051550D01*
X148488980Y-78975360D01*
X148374695Y-78937264D01*
X148298504Y-78937264D01*
X148184219Y-78975360D01*
X148146123Y-79013455D01*
X147346123Y-79661074D02*
X147384219Y-79699169D01*
X147498504Y-79737264D01*
X147574695Y-79737264D01*
X147688980Y-79699169D01*
X147765171Y-79622979D01*
X147803266Y-79546788D01*
X147841361Y-79394407D01*
X147841361Y-79280121D01*
X147803266Y-79127740D01*
X147765171Y-79051550D01*
X147688980Y-78975360D01*
X147574695Y-78937264D01*
X147498504Y-78937264D01*
X147384219Y-78975360D01*
X147346123Y-79013455D01*
X148946123Y-73895360D02*
X149022314Y-73857264D01*
X149136600Y-73857264D01*
X149250885Y-73895360D01*
X149327076Y-73971550D01*
X149365171Y-74047740D01*
X149403266Y-74200121D01*
X149403266Y-74314407D01*
X149365171Y-74466788D01*
X149327076Y-74542979D01*
X149250885Y-74619169D01*
X149136600Y-74657264D01*
X149060409Y-74657264D01*
X148946123Y-74619169D01*
X148908028Y-74581074D01*
X148908028Y-74314407D01*
X149060409Y-74314407D01*
X148565171Y-74657264D02*
X148565171Y-73857264D01*
X148108028Y-74657264D01*
X148108028Y-73857264D01*
X147727076Y-74657264D02*
X147727076Y-73857264D01*
X147536600Y-73857264D01*
X147422314Y-73895360D01*
X147346123Y-73971550D01*
X147308028Y-74047740D01*
X147269933Y-74200121D01*
X147269933Y-74314407D01*
X147308028Y-74466788D01*
X147346123Y-74542979D01*
X147422314Y-74619169D01*
X147536600Y-74657264D01*
X147727076Y-74657264D01*
X148888980Y-72117264D02*
X149155647Y-71736312D01*
X149346123Y-72117264D02*
X149346123Y-71317264D01*
X149041361Y-71317264D01*
X148965171Y-71355360D01*
X148927076Y-71393455D01*
X148888980Y-71469645D01*
X148888980Y-71583931D01*
X148927076Y-71660121D01*
X148965171Y-71698217D01*
X149041361Y-71736312D01*
X149346123Y-71736312D01*
X148584219Y-71888693D02*
X148203266Y-71888693D01*
X148660409Y-72117264D02*
X148393742Y-71317264D01*
X148127076Y-72117264D01*
X147936600Y-71317264D02*
X147746123Y-72117264D01*
X147593742Y-71545836D01*
X147441361Y-72117264D01*
X147250885Y-71317264D01*
X148603266Y-84398217D02*
X148869933Y-84398217D01*
X148869933Y-84817264D02*
X148869933Y-84017264D01*
X148488980Y-84017264D01*
X147803266Y-84017264D02*
X148184219Y-84017264D01*
X148222314Y-84398217D01*
X148184219Y-84360121D01*
X148108028Y-84322026D01*
X147917552Y-84322026D01*
X147841361Y-84360121D01*
X147803266Y-84398217D01*
X147765171Y-84474407D01*
X147765171Y-84664883D01*
X147803266Y-84741074D01*
X147841361Y-84779169D01*
X147917552Y-84817264D01*
X148108028Y-84817264D01*
X148184219Y-84779169D01*
X148222314Y-84741074D01*
X148603266Y-86938217D02*
X148869933Y-86938217D01*
X148869933Y-87357264D02*
X148869933Y-86557264D01*
X148488980Y-86557264D01*
X147841361Y-86557264D02*
X147993742Y-86557264D01*
X148069933Y-86595360D01*
X148108028Y-86633455D01*
X148184219Y-86747740D01*
X148222314Y-86900121D01*
X148222314Y-87204883D01*
X148184219Y-87281074D01*
X148146123Y-87319169D01*
X148069933Y-87357264D01*
X147917552Y-87357264D01*
X147841361Y-87319169D01*
X147803266Y-87281074D01*
X147765171Y-87204883D01*
X147765171Y-87014407D01*
X147803266Y-86938217D01*
X147841361Y-86900121D01*
X147917552Y-86862026D01*
X148069933Y-86862026D01*
X148146123Y-86900121D01*
X148184219Y-86938217D01*
X148222314Y-87014407D01*
X148603266Y-89478217D02*
X148869933Y-89478217D01*
X148869933Y-89897264D02*
X148869933Y-89097264D01*
X148488980Y-89097264D01*
X148260409Y-89097264D02*
X147727076Y-89097264D01*
X148069933Y-89897264D01*
X148660409Y-97098217D02*
X148546123Y-97136312D01*
X148508028Y-97174407D01*
X148469933Y-97250598D01*
X148469933Y-97364883D01*
X148508028Y-97441074D01*
X148546123Y-97479169D01*
X148622314Y-97517264D01*
X148927076Y-97517264D01*
X148927076Y-96717264D01*
X148660409Y-96717264D01*
X148584219Y-96755360D01*
X148546123Y-96793455D01*
X148508028Y-96869645D01*
X148508028Y-96945836D01*
X148546123Y-97022026D01*
X148584219Y-97060121D01*
X148660409Y-97098217D01*
X148927076Y-97098217D01*
X148165171Y-96793455D02*
X148127076Y-96755360D01*
X148050885Y-96717264D01*
X147860409Y-96717264D01*
X147784219Y-96755360D01*
X147746123Y-96793455D01*
X147708028Y-96869645D01*
X147708028Y-96945836D01*
X147746123Y-97060121D01*
X148203266Y-97517264D01*
X147708028Y-97517264D01*
X141494204Y-71317264D02*
X141037061Y-71317264D01*
X141265632Y-72117264D02*
X141265632Y-71317264D01*
X140846585Y-71317264D02*
X140313251Y-72117264D01*
X140313251Y-71317264D02*
X140846585Y-72117264D01*
X139856108Y-71317264D02*
X139779918Y-71317264D01*
X139703728Y-71355360D01*
X139665632Y-71393455D01*
X139627537Y-71469645D01*
X139589442Y-71622026D01*
X139589442Y-71812502D01*
X139627537Y-71964883D01*
X139665632Y-72041074D01*
X139703728Y-72079169D01*
X139779918Y-72117264D01*
X139856108Y-72117264D01*
X139932299Y-72079169D01*
X139970394Y-72041074D01*
X140008489Y-71964883D01*
X140046585Y-71812502D01*
X140046585Y-71622026D01*
X140008489Y-71469645D01*
X139970394Y-71393455D01*
X139932299Y-71355360D01*
X139856108Y-71317264D01*
X138675156Y-71279169D02*
X139360870Y-72307740D01*
X138408489Y-72117264D02*
X138408489Y-71317264D01*
X138218013Y-71317264D01*
X138103728Y-71355360D01*
X138027537Y-71431550D01*
X137989442Y-71507740D01*
X137951347Y-71660121D01*
X137951347Y-71774407D01*
X137989442Y-71926788D01*
X138027537Y-72002979D01*
X138103728Y-72079169D01*
X138218013Y-72117264D01*
X138408489Y-72117264D01*
X137684680Y-71317264D02*
X137189442Y-71317264D01*
X137456108Y-71622026D01*
X137341823Y-71622026D01*
X137265632Y-71660121D01*
X137227537Y-71698217D01*
X137189442Y-71774407D01*
X137189442Y-71964883D01*
X137227537Y-72041074D01*
X137265632Y-72079169D01*
X137341823Y-72117264D01*
X137570394Y-72117264D01*
X137646585Y-72079169D01*
X137684680Y-72041074D01*
X148448933Y-77139169D02*
X148334647Y-77177264D01*
X148144171Y-77177264D01*
X148067980Y-77139169D01*
X148029885Y-77101074D01*
X147991790Y-77024883D01*
X147991790Y-76948693D01*
X148029885Y-76872502D01*
X148067980Y-76834407D01*
X148144171Y-76796312D01*
X148296552Y-76758217D01*
X148372742Y-76720121D01*
X148410838Y-76682026D01*
X148448933Y-76605836D01*
X148448933Y-76529645D01*
X148410838Y-76453455D01*
X148372742Y-76415360D01*
X148296552Y-76377264D01*
X148106076Y-76377264D01*
X147991790Y-76415360D01*
X147763219Y-76377264D02*
X147306076Y-76377264D01*
X147534647Y-77177264D02*
X147534647Y-76377264D01*
M02*
