M48
; DRILL file {KiCad (5.1.4)-1} date 1/4/2021 11:43:58 AM
; FORMAT={-:-/ absolute / inch / decimal}
; #@! TF.CreationDate,2021-01-04T11:43:58-07:00
; #@! TF.GenerationSoftware,Kicad,Pcbnew,(5.1.4)-1
; #@! TF.FileFunction,Plated,1,2,PTH
FMAT,2
INCH
T1C0.0157
T2C0.0394
T3C0.0430
T4C0.0579
%
G90
G05
T1
X1.6442Y-2.9982
X2.4153Y-2.9438
X3.1865Y-2.8894
X3.8926Y-3.2043
X4.5986Y-3.5191
X6.4173Y-3.6326
X7.126Y-3.3203
X7.8346Y-3.008
X8.5835Y-3.0402
X9.2165Y-2.9564
T2
X2.5898Y-4.0992
X2.6432Y-3.7968
X6.9478Y-3.5657
X7.0011Y-3.8681
X4.1892Y-3.6672
X4.2425Y-3.3648
X9.2613Y-3.729
X9.3146Y-4.0314
X9.1311Y-2.9904
X9.1844Y-3.2928
X1.8187Y-4.1536
X1.872Y-3.8512
X5.0254Y-3.2435
X5.0788Y-2.9411
X4.0589Y-4.4058
X4.1123Y-4.1034
X6.8176Y-2.8271
X6.8709Y-3.1295
X9.0008Y-2.2517
X9.0541Y-2.5542
X5.9531Y-4.4402
X5.9531Y-4.7473
X9.3813Y-2.8642
X9.6837Y-2.8108
X7.0699Y-4.2582
X7.1232Y-4.5606
X8.4901Y-3.6746
X8.5435Y-3.977
X4.8952Y-3.9821
X4.9485Y-3.6797
X2.071Y-2.7225
X2.1243Y-2.4201
X1.9408Y-3.4612
X1.9941Y-3.1587
X3.6133Y-2.6137
X3.6667Y-2.3113
X4.3194Y-2.9286
X4.3727Y-2.6262
X3.3529Y-4.0909
X3.4062Y-3.7885
X7.7759Y-3.9433
X7.8293Y-4.2457
X2.7119Y-3.4067
X2.7653Y-3.1043
X8.2297Y-2.1973
X8.283Y-2.4998
X9.5278Y-3.6951
X9.8302Y-3.6418
X7.6538Y-3.2508
X7.7072Y-3.5533
X7.5236Y-2.5122
X7.5769Y-2.8146
X9.5115Y-3.6028
X9.8139Y-3.5494
X3.4831Y-3.3523
X3.5364Y-3.0499
X4.765Y-4.7207
X4.8183Y-4.4183
X8.3599Y-2.9359
X8.4132Y-3.2384
X2.8422Y-2.6681
X2.8955Y-2.3657
T3
X5.325Y-2.9188
X5.325Y-3.0188
X5.325Y-3.1188
X5.325Y-3.2188
X5.325Y-3.3188
X5.325Y-3.4188
X5.325Y-3.5188
X5.325Y-3.6188
X5.325Y-3.7188
X5.325Y-3.8188
X5.325Y-3.9188
X5.325Y-4.0188
X5.925Y-2.9188
X5.925Y-3.0188
X5.925Y-3.1188
X5.925Y-3.2188
X5.925Y-3.3188
X5.925Y-3.4188
X5.925Y-3.5188
X5.925Y-3.6188
X5.925Y-3.7188
X5.925Y-3.8188
X5.925Y-3.9188
X5.925Y-4.0188
T4
X6.6165Y-4.4401
X6.8453Y-4.2982
X9.3104Y-2.4419
X9.5393Y-2.3
X2.4153Y-2.3354
X2.6789Y-2.2803
X5.475Y-4.5406
X5.725Y-4.4406
X1.6442Y-2.3898
X1.9077Y-2.3348
X4.4684Y-3.6494
X4.7319Y-3.5943
X3.1865Y-2.281
X3.4501Y-2.2259
X2.926Y-3.7582
X3.1896Y-3.7031
X9.4407Y-3.1805
X9.6695Y-3.0386
X6.4862Y-3.7015
X6.7151Y-3.5596
X7.1923Y-3.3866
X7.4211Y-3.2447
X9.5709Y-3.9191
X9.7997Y-3.7772
X7.8983Y-3.0717
X8.1272Y-2.9298
X3.0563Y-3.0196
X3.3198Y-2.9645
X1.3837Y-3.867
X1.6473Y-3.812
X8.0286Y-3.8103
X8.2574Y-3.6684
X2.2851Y-3.074
X2.5487Y-3.0189
X3.7623Y-3.3345
X4.0259Y-3.2794
X7.062Y-2.648
X7.2909Y-2.5061
X7.7681Y-2.3331
X7.9969Y-2.1912
X8.5393Y-2.3875
X8.7681Y-2.2456
X3.8926Y-2.5959
X4.1561Y-2.5408
X4.3381Y-4.388
X4.6017Y-4.3329
X8.7997Y-3.8647
X9.0286Y-3.7228
X1.5139Y-3.1284
X1.7775Y-3.0734
X6.356Y-2.9629
X6.5848Y-2.821
X7.3225Y-4.1252
X7.5514Y-3.9833
X4.5986Y-2.9108
X4.8622Y-2.8557
X2.1549Y-3.8126
X2.4184Y-3.7576
X3.6321Y-4.0731
X3.8957Y-4.018
X8.6695Y-3.1261
X8.8983Y-2.9842
T0
M30
