M48
; DRILL file {KiCad (5.1.4)-1} date 1/9/2021 12:31:03 PM
; FORMAT={-:-/ absolute / inch / decimal}
; #@! TF.CreationDate,2021-01-09T12:31:03-07:00
; #@! TF.GenerationSoftware,Kicad,Pcbnew,(5.1.4)-1
; #@! TF.FileFunction,Plated,1,2,PTH
FMAT,2
INCH
T1C0.0157
T2C0.0430
T3C0.0579
%
G90
G05
T1
X1.6816Y-2.701
X4.4296Y-3.7603
X9.0084Y-2.7703
T2
X5.325Y-2.825
X5.325Y-2.925
X5.325Y-3.025
X5.325Y-3.125
X5.325Y-3.225
X5.325Y-3.325
X5.325Y-3.425
X5.325Y-3.525
X5.325Y-3.625
X5.325Y-3.725
X5.325Y-3.825
X5.325Y-3.925
X5.925Y-2.825
X5.925Y-2.925
X5.925Y-3.025
X5.925Y-3.125
X5.925Y-3.225
X5.925Y-3.325
X5.925Y-3.425
X5.925Y-3.525
X5.925Y-3.625
X5.925Y-3.725
X5.925Y-3.825
X5.925Y-3.925
T3
X3.9565Y-2.2983
X4.2256Y-2.2899
X4.3406Y-3.4358
X4.6098Y-3.4274
X9.4466Y-2.5124
X9.6473Y-2.3329
X2.8028Y-3.2752
X3.072Y-3.2667
X7.5247Y-3.8105
X7.7254Y-3.631
X3.7Y-3.0031
X3.9691Y-2.9946
X3.3159Y-1.8656
X3.585Y-1.8572
X2.547Y-1.7853
X2.8161Y-1.7768
X6.6275Y-3.5384
X6.8282Y-3.3589
X4.5971Y-2.731
X4.8663Y-2.7226
X7.6523Y-1.9682
X7.853Y-1.7888
X9.7031Y-3.2171
X9.9038Y-3.0377
X6.884Y-4.2432
X7.0847Y-4.0637
X8.9342Y-3.2975
X9.1349Y-3.118
X1.5215Y-2.4098
X1.7907Y-2.4013
X6.1323Y-4.5168
X6.3117Y-4.7175
X3.0593Y-2.5704
X3.3285Y-2.5619
X7.0116Y-2.4009
X7.2124Y-2.2215
X1.7781Y-1.705
X2.0472Y-1.6965
X4.0841Y-4.1406
X4.3532Y-4.1321
X7.9088Y-2.673
X8.1095Y-2.4935
X5.0409Y-4.4356
X5.0494Y-4.7048
X8.4212Y-1.8879
X8.6219Y-1.7084
X2.0339Y-3.1948
X2.303Y-3.1864
X3.4435Y-3.7079
X3.7126Y-3.6994
X8.1653Y-3.3778
X8.366Y-3.1983
X8.6777Y-2.5927
X8.8784Y-2.4132
X2.2904Y-2.4901
X2.5596Y-2.4816
X7.2682Y-3.1057
X7.4689Y-2.9262
X9.1901Y-1.8076
X9.3908Y-1.6281
X1.265Y-3.1145
X1.5341Y-3.1061
X6.371Y-2.8337
X6.5717Y-2.6542
T0
M30
