G04 #@! TF.GenerationSoftware,KiCad,Pcbnew,(5.1.4)-1*
G04 #@! TF.CreationDate,2021-01-09T12:31:01-07:00*
G04 #@! TF.ProjectId,CS30 Ergo 3,43533330-2045-4726-976f-20332e6b6963,rev?*
G04 #@! TF.SameCoordinates,Original*
G04 #@! TF.FileFunction,Profile,NP*
%FSLAX46Y46*%
G04 Gerber Fmt 4.6, Leading zero omitted, Abs format (unit mm)*
G04 Created by KiCad (PCBNEW (5.1.4)-1) date 2021-01-09 12:31:01*
%MOMM*%
%LPD*%
G04 APERTURE LIST*
%ADD10C,0.050000*%
G04 APERTURE END LIST*
D10*
X131687286Y-67365629D02*
X154063838Y-67365657D01*
X157946828Y-126770337D02*
X127804358Y-126770373D01*
X171557838Y-59731319D02*
G75*
G02X170846232Y-61257365I-1118826J-407220D01*
G01*
X170743398Y-57493668D02*
G75*
G02X171455006Y-55967620I1118828J407220D01*
G01*
X187830181Y-48740504D02*
G75*
G02X187118573Y-50266550I-1118827J-407219D01*
G01*
X187015742Y-46502852D02*
G75*
G02X187727423Y-44976779I1118826J407220D01*
G01*
X203390916Y-39275733D02*
G75*
G02X204916961Y-39987340I407219J-1118826D01*
G01*
X207257493Y-42936497D02*
G75*
G02X205731475Y-42224965I-407267J1118724D01*
G01*
X222921060Y-37235422D02*
G75*
G02X224447135Y-37947106I407172J-1118931D01*
G01*
X226787591Y-40896292D02*
G75*
G02X225261572Y-40184759I-407267J1118725D01*
G01*
X242451186Y-35195293D02*
G75*
G02X243977156Y-35906928I407144J-1118854D01*
G01*
X262709148Y-87372886D02*
G75*
G02X261997616Y-88898904I-1118724J-407267D01*
G01*
X246334076Y-94600052D02*
G75*
G02X244808031Y-93888445I-407219J1118826D01*
G01*
X242467546Y-90939185D02*
G75*
G02X243993592Y-91650793I407219J-1118827D01*
G01*
X226803978Y-96640258D02*
G75*
G02X225277933Y-95928651I-407219J1118826D01*
G01*
X222937449Y-92979392D02*
G75*
G02X224463494Y-93690999I407219J-1118826D01*
G01*
X206562247Y-100206434D02*
G75*
G02X207273882Y-98680464I1118854J407144D01*
G01*
X207376685Y-102444085D02*
G75*
G02X206665109Y-103970207I-1118798J-407297D01*
G01*
X190289905Y-111197251D02*
G75*
G02X191001539Y-109671279I1118854J407145D01*
G01*
X191104345Y-113434904D02*
G75*
G02X190392765Y-114961024I-1118799J-407294D01*
G01*
X114904994Y-61257290D02*
G75*
G02X114193389Y-59731243I407221J1118826D01*
G01*
X114296221Y-55967546D02*
G75*
G02X115007828Y-57493591I-407219J-1118826D01*
G01*
X98632627Y-50266549D02*
G75*
G02X97920972Y-48740400I407247J1118902D01*
G01*
X98023879Y-44976730D02*
G75*
G02X98735486Y-46502775I-407219J-1118826D01*
G01*
X80834266Y-39987265D02*
G75*
G02X82360312Y-39275657I1118827J-407219D01*
G01*
X80019905Y-42224945D02*
G75*
G02X78493754Y-42936600I-1118903J407248D01*
G01*
X61304244Y-37947085D02*
G75*
G02X62830188Y-37235525I1118752J-407192D01*
G01*
X60489806Y-40184738D02*
G75*
G02X58963657Y-40896393I-1118902J407247D01*
G01*
X41774121Y-35906954D02*
G75*
G02X43300015Y-35195295I1118776J-407117D01*
G01*
X78477319Y-98680463D02*
G75*
G02X79188878Y-100206406I-407192J-1118751D01*
G01*
X79086120Y-103970132D02*
G75*
G02X78374514Y-102444086I407220J1118826D01*
G01*
X94749661Y-109671279D02*
G75*
G02X95461220Y-111197222I-407192J-1118751D01*
G01*
X95358434Y-114961024D02*
G75*
G02X94646781Y-113434875I407248J1118901D01*
G01*
X61287809Y-93690952D02*
G75*
G02X62813751Y-92979392I1118751J-407191D01*
G01*
X60473342Y-95928678D02*
G75*
G02X58947147Y-96640230I-1118874J407322D01*
G01*
X41757636Y-91650718D02*
G75*
G02X43283681Y-90939111I1118826J-407218D01*
G01*
X40943246Y-93888471D02*
G75*
G02X39417050Y-94600024I-1118875J407322D01*
G01*
X23753480Y-88898949D02*
G75*
G02X23041876Y-87372906I407323J1118871D01*
G01*
X244808031Y-93888445D02*
X243993592Y-91650793D01*
X206665109Y-103970207D02*
X191001539Y-109671279D01*
X187830180Y-48740504D02*
X187015817Y-46502824D01*
X225277933Y-95928651D02*
X224463494Y-93690999D01*
X171557839Y-59731320D02*
X170743400Y-57493667D01*
X187727423Y-44976778D02*
X203390915Y-39275733D01*
X204916961Y-39987340D02*
X205731475Y-42224965D01*
X190392765Y-114961024D02*
X157946828Y-126770337D01*
X206562323Y-100206407D02*
X207376761Y-102444060D01*
X207257521Y-42936572D02*
X222921088Y-37235500D01*
X154063838Y-67365657D02*
X170846232Y-61257365D01*
X222937421Y-92979317D02*
X207273854Y-98680389D01*
X242467546Y-90939186D02*
X226803952Y-96640183D01*
X171455006Y-55967620D02*
X187118573Y-50266550D01*
X261997616Y-88898904D02*
X246334049Y-94599977D01*
X224447135Y-37947106D02*
X225261572Y-40184759D01*
X190289981Y-111197223D02*
X191104420Y-113434876D01*
X243977156Y-35906928D02*
X262709223Y-87372859D01*
X226787617Y-40896366D02*
X242451185Y-35195293D01*
X95358463Y-114960948D02*
X127804358Y-126770373D01*
X95461220Y-111197222D02*
X94646781Y-113434875D01*
X79086122Y-103970130D02*
X94749661Y-109671281D01*
X79188878Y-100206406D02*
X78374514Y-102444086D01*
X62813751Y-92979392D02*
X78477318Y-98680464D01*
X60473192Y-95928624D02*
X61287733Y-93690924D01*
X43283681Y-90939111D02*
X58947146Y-96640231D01*
X40943094Y-93888418D02*
X41757636Y-91650716D01*
X23753481Y-88898952D02*
X39417049Y-94600024D01*
X41773969Y-35906900D02*
X23041874Y-87372908D01*
X58963657Y-40896393D02*
X43300015Y-35195293D01*
X61304095Y-37947031D02*
X60489730Y-40184710D01*
X78493754Y-42936600D02*
X62830188Y-37235525D01*
X80834267Y-39987264D02*
X80019725Y-42224965D01*
X98023879Y-44976729D02*
X82360312Y-39275657D01*
X97921020Y-48740505D02*
X98735486Y-46502775D01*
X114296221Y-55967545D02*
X98632627Y-50266550D01*
X114193389Y-59731243D02*
X115007828Y-57493591D01*
X131687286Y-67365629D02*
X114904968Y-61257365D01*
M02*
