G04 #@! TF.GenerationSoftware,KiCad,Pcbnew,(5.1.4)-1*
G04 #@! TF.CreationDate,2021-01-04T11:43:55-07:00*
G04 #@! TF.ProjectId,CS30 Ergo,43533330-2045-4726-976f-2e6b69636164,rev?*
G04 #@! TF.SameCoordinates,Original*
G04 #@! TF.FileFunction,Profile,NP*
%FSLAX46Y46*%
G04 Gerber Fmt 4.6, Leading zero omitted, Abs format (unit mm)*
G04 Created by KiCad (PCBNEW (5.1.4)-1) date 2021-01-04 11:43:55*
%MOMM*%
%LPD*%
G04 APERTURE LIST*
%ADD10C,0.050000*%
G04 APERTURE END LIST*
D10*
X121226102Y-125652324D02*
X164525019Y-125652338D01*
X131150137Y-69370325D02*
X154600984Y-69370339D01*
X173154900Y-64889785D02*
G75*
G02X172189109Y-66269078I-1172542J-206751D01*
G01*
X172741398Y-62544703D02*
G75*
G02X173707189Y-61165410I1172542J206751D01*
G01*
X191088564Y-56891608D02*
G75*
G02X190122772Y-58270900I-1172542J-206750D01*
G01*
X190675064Y-54546525D02*
G75*
G02X191640931Y-53167219I1172540J206752D01*
G01*
X208056436Y-50272722D02*
G75*
G02X209435728Y-51238512I206751J-1172541D01*
G01*
X211228588Y-54549294D02*
G75*
G02X209849309Y-53583582I-206816J1172449D01*
G01*
X227644170Y-51654783D02*
G75*
G02X229023477Y-52620653I206686J-1172635D01*
G01*
X230816257Y-55931449D02*
G75*
G02X229436978Y-54965737I-206816J1172449D01*
G01*
X247231854Y-53037019D02*
G75*
G02X248611067Y-54002822I206672J-1172554D01*
G01*
X258121508Y-107939673D02*
G75*
G02X257155796Y-109318952I-1172449J-206816D01*
G01*
X240740227Y-112213541D02*
G75*
G02X239360934Y-111247750I-206751J1172542D01*
G01*
X237568140Y-107936876D02*
G75*
G02X238947433Y-108902667I206751J-1172542D01*
G01*
X221152558Y-110831386D02*
G75*
G02X219773265Y-109865595I-206751J1172542D01*
G01*
X217980471Y-106554722D02*
G75*
G02X219359763Y-107520512I206751J-1172541D01*
G01*
X200599083Y-110828445D02*
G75*
G02X201564888Y-109449231I1172556J206672D01*
G01*
X201012585Y-113173527D02*
G75*
G02X200046809Y-114552899I-1172528J-206831D01*
G01*
X182665418Y-118826623D02*
G75*
G02X183631224Y-117447408I1172557J206672D01*
G01*
X183078921Y-121171706D02*
G75*
G02X182113144Y-122551078I-1172528J-206830D01*
G01*
X113562105Y-66268999D02*
G75*
G02X112596314Y-64889706I206751J1172542D01*
G01*
X112044025Y-61165330D02*
G75*
G02X113009816Y-62544623I-206751J-1172542D01*
G01*
X95628428Y-58270898D02*
G75*
G02X94662572Y-56891514I206764J1172620D01*
G01*
X94110360Y-53167152D02*
G75*
G02X95076152Y-54546444I-206750J-1172542D01*
G01*
X76315486Y-51238432D02*
G75*
G02X77694778Y-50272642I1172541J-206751D01*
G01*
X75902065Y-53583530D02*
G75*
G02X74522678Y-54549387I-1172622J206765D01*
G01*
X56727895Y-52620601D02*
G75*
G02X58107095Y-51654875I1172463J-206737D01*
G01*
X56314395Y-54965685D02*
G75*
G02X54935008Y-55931542I-1172622J206765D01*
G01*
X37140214Y-54002835D02*
G75*
G02X38519347Y-53037019I1172474J-206658D01*
G01*
X84186312Y-109449230D02*
G75*
G02X85152038Y-110828430I-206737J-1172463D01*
G01*
X85704406Y-114552819D02*
G75*
G02X84738616Y-113173527I206751J1172541D01*
G01*
X102119976Y-117447408D02*
G75*
G02X103085702Y-118826608I-206737J-1172463D01*
G01*
X103638056Y-122551077D02*
G75*
G02X102672200Y-121171691I206765J1172621D01*
G01*
X66391530Y-107520446D02*
G75*
G02X67770729Y-106554721I1172462J-206737D01*
G01*
X65978013Y-109865608D02*
G75*
G02X64598565Y-110831371I-1172606J206843D01*
G01*
X46803782Y-108902589D02*
G75*
G02X48183073Y-107936797I1172541J-206749D01*
G01*
X46390344Y-111247763D02*
G75*
G02X45010896Y-112213526I-1172606J206843D01*
G01*
X28595311Y-109319014D02*
G75*
G02X27629522Y-107939724I206844J1172605D01*
G01*
X239360934Y-111247750D02*
X238947433Y-108902667D01*
X200046809Y-114552899D02*
X183631224Y-117447408D01*
X191088563Y-56891607D02*
X190675141Y-54546510D01*
X219773265Y-109865595D02*
X219359763Y-107520512D01*
X173154900Y-64889786D02*
X172741398Y-62544702D01*
X191640932Y-53167218D02*
X208056436Y-50272722D01*
X209435728Y-51238512D02*
X209849309Y-53583582D01*
X182113144Y-122551078D02*
X164525019Y-125652338D01*
X200599162Y-110828431D02*
X201012663Y-113173514D01*
X211228601Y-54549373D02*
X227644184Y-51654863D01*
X154600984Y-69370339D02*
X172189109Y-66269078D01*
X217980457Y-106554642D02*
X201564874Y-109449152D01*
X237568140Y-107936876D02*
X221152543Y-110831307D01*
X173707189Y-61165410D02*
X190122772Y-58270900D01*
X257155796Y-109318952D02*
X240740213Y-112213462D01*
X229023477Y-52620653D02*
X229436978Y-54965737D01*
X182665498Y-118826609D02*
X183079000Y-121171692D01*
X248611067Y-54002822D02*
X258121587Y-107939660D01*
X230816269Y-55931528D02*
X247231854Y-53037017D01*
X103638070Y-122550998D02*
X121226102Y-125652324D01*
X103085702Y-118826608D02*
X102672200Y-121171691D01*
X85704407Y-114552818D02*
X102119976Y-117447408D01*
X85152038Y-110828430D02*
X84738616Y-113173527D01*
X67770729Y-106554721D02*
X84186312Y-109449231D01*
X65977856Y-109865581D02*
X66391451Y-107520432D01*
X48183073Y-107936797D02*
X64598564Y-110831372D01*
X46390187Y-111247736D02*
X46803781Y-108902588D01*
X28595311Y-109319017D02*
X45010895Y-112213527D01*
X37140054Y-54002808D02*
X27629520Y-107939726D01*
X54935008Y-55931542D02*
X38519346Y-53037017D01*
X56727738Y-52620574D02*
X56314315Y-54965671D01*
X74522678Y-54549387D02*
X58107095Y-51654875D01*
X76315486Y-51238433D02*
X75901891Y-53583582D01*
X94110361Y-53167152D02*
X77694778Y-50272642D01*
X94662637Y-56891607D02*
X95076152Y-54546444D01*
X112044025Y-61165330D02*
X95628428Y-58270900D01*
X112596314Y-64889706D02*
X113009816Y-62544623D01*
X131150137Y-69370325D02*
X113562091Y-66269078D01*
M02*
