G04 #@! TF.GenerationSoftware,KiCad,Pcbnew,(5.1.4)-1*
G04 #@! TF.CreationDate,2021-01-09T12:31:01-07:00*
G04 #@! TF.ProjectId,CS30 Ergo 3,43533330-2045-4726-976f-20332e6b6963,rev?*
G04 #@! TF.SameCoordinates,Original*
G04 #@! TF.FileFunction,Legend,Top*
G04 #@! TF.FilePolarity,Positive*
%FSLAX46Y46*%
G04 Gerber Fmt 4.6, Leading zero omitted, Abs format (unit mm)*
G04 Created by KiCad (PCBNEW (5.1.4)-1) date 2021-01-09 12:31:01*
%MOMM*%
%LPD*%
G04 APERTURE LIST*
%ADD10C,0.381000*%
%ADD11C,0.150000*%
G04 APERTURE END LIST*
D10*
X133985600Y-70485360D02*
X133985600Y-100965360D01*
X133985600Y-100965360D02*
X151765600Y-100965360D01*
X151765600Y-100965360D02*
X151765600Y-70485360D01*
X136525600Y-70485360D02*
X136525600Y-73025360D01*
X136525600Y-73025360D02*
X133985600Y-73025360D01*
D11*
G36*
X147807168Y-76364720D02*
G01*
X147807168Y-76664720D01*
X147707168Y-76664720D01*
X147707168Y-76364720D01*
X147807168Y-76364720D01*
G37*
X147807168Y-76364720D02*
X147807168Y-76664720D01*
X147707168Y-76664720D01*
X147707168Y-76364720D01*
X147807168Y-76364720D01*
G36*
X147607168Y-76764720D02*
G01*
X147607168Y-76864720D01*
X147507168Y-76864720D01*
X147507168Y-76764720D01*
X147607168Y-76764720D01*
G37*
X147607168Y-76764720D02*
X147607168Y-76864720D01*
X147507168Y-76864720D01*
X147507168Y-76764720D01*
X147607168Y-76764720D01*
G36*
X147807168Y-76364720D02*
G01*
X147807168Y-76464720D01*
X147307168Y-76464720D01*
X147307168Y-76364720D01*
X147807168Y-76364720D01*
G37*
X147807168Y-76364720D02*
X147807168Y-76464720D01*
X147307168Y-76464720D01*
X147307168Y-76364720D01*
X147807168Y-76364720D01*
G36*
X147407168Y-76364720D02*
G01*
X147407168Y-77164720D01*
X147307168Y-77164720D01*
X147307168Y-76364720D01*
X147407168Y-76364720D01*
G37*
X147407168Y-76364720D02*
X147407168Y-77164720D01*
X147307168Y-77164720D01*
X147307168Y-76364720D01*
X147407168Y-76364720D01*
G36*
X147807168Y-76964720D02*
G01*
X147807168Y-77164720D01*
X147707168Y-77164720D01*
X147707168Y-76964720D01*
X147807168Y-76964720D01*
G37*
X147807168Y-76964720D02*
X147807168Y-77164720D01*
X147707168Y-77164720D01*
X147707168Y-76964720D01*
X147807168Y-76964720D01*
D10*
X151765600Y-70485360D02*
X151765600Y-67945360D01*
X151765600Y-67945360D02*
X133985600Y-67945360D01*
X133985600Y-67945360D02*
X133985600Y-70485360D01*
X136525600Y-70485360D02*
X133985600Y-70485360D01*
D11*
X148012790Y-97098217D02*
X148127076Y-97136312D01*
X148165171Y-97174407D01*
X148203266Y-97250598D01*
X148203266Y-97364883D01*
X148165171Y-97441074D01*
X148127076Y-97479169D01*
X148050885Y-97517264D01*
X147746123Y-97517264D01*
X147746123Y-96717264D01*
X148012790Y-96717264D01*
X148088980Y-96755360D01*
X148127076Y-96793455D01*
X148165171Y-96869645D01*
X148165171Y-96945836D01*
X148127076Y-97022026D01*
X148088980Y-97060121D01*
X148012790Y-97098217D01*
X147746123Y-97098217D01*
X148508028Y-96793455D02*
X148546123Y-96755360D01*
X148622314Y-96717264D01*
X148812790Y-96717264D01*
X148888980Y-96755360D01*
X148927076Y-96793455D01*
X148965171Y-96869645D01*
X148965171Y-96945836D01*
X148927076Y-97060121D01*
X148469933Y-97517264D01*
X148965171Y-97517264D01*
X148069933Y-89478217D02*
X147803266Y-89478217D01*
X147803266Y-89897264D02*
X147803266Y-89097264D01*
X148184219Y-89097264D01*
X148412790Y-89097264D02*
X148946123Y-89097264D01*
X148603266Y-89897264D01*
X148069933Y-86938217D02*
X147803266Y-86938217D01*
X147803266Y-87357264D02*
X147803266Y-86557264D01*
X148184219Y-86557264D01*
X148831838Y-86557264D02*
X148679457Y-86557264D01*
X148603266Y-86595360D01*
X148565171Y-86633455D01*
X148488980Y-86747740D01*
X148450885Y-86900121D01*
X148450885Y-87204883D01*
X148488980Y-87281074D01*
X148527076Y-87319169D01*
X148603266Y-87357264D01*
X148755647Y-87357264D01*
X148831838Y-87319169D01*
X148869933Y-87281074D01*
X148908028Y-87204883D01*
X148908028Y-87014407D01*
X148869933Y-86938217D01*
X148831838Y-86900121D01*
X148755647Y-86862026D01*
X148603266Y-86862026D01*
X148527076Y-86900121D01*
X148488980Y-86938217D01*
X148450885Y-87014407D01*
X148069933Y-84398217D02*
X147803266Y-84398217D01*
X147803266Y-84817264D02*
X147803266Y-84017264D01*
X148184219Y-84017264D01*
X148869933Y-84017264D02*
X148488980Y-84017264D01*
X148450885Y-84398217D01*
X148488980Y-84360121D01*
X148565171Y-84322026D01*
X148755647Y-84322026D01*
X148831838Y-84360121D01*
X148869933Y-84398217D01*
X148908028Y-84474407D01*
X148908028Y-84664883D01*
X148869933Y-84741074D01*
X148831838Y-84779169D01*
X148755647Y-84817264D01*
X148565171Y-84817264D01*
X148488980Y-84779169D01*
X148450885Y-84741074D01*
X147784219Y-72117264D02*
X147517552Y-71736312D01*
X147327076Y-72117264D02*
X147327076Y-71317264D01*
X147631838Y-71317264D01*
X147708028Y-71355360D01*
X147746123Y-71393455D01*
X147784219Y-71469645D01*
X147784219Y-71583931D01*
X147746123Y-71660121D01*
X147708028Y-71698217D01*
X147631838Y-71736312D01*
X147327076Y-71736312D01*
X148088980Y-71888693D02*
X148469933Y-71888693D01*
X148012790Y-72117264D02*
X148279457Y-71317264D01*
X148546123Y-72117264D01*
X148736600Y-71317264D02*
X148927076Y-72117264D01*
X149079457Y-71545836D01*
X149231838Y-72117264D01*
X149422314Y-71317264D01*
X147727076Y-73895360D02*
X147650885Y-73857264D01*
X147536600Y-73857264D01*
X147422314Y-73895360D01*
X147346123Y-73971550D01*
X147308028Y-74047740D01*
X147269933Y-74200121D01*
X147269933Y-74314407D01*
X147308028Y-74466788D01*
X147346123Y-74542979D01*
X147422314Y-74619169D01*
X147536600Y-74657264D01*
X147612790Y-74657264D01*
X147727076Y-74619169D01*
X147765171Y-74581074D01*
X147765171Y-74314407D01*
X147612790Y-74314407D01*
X148108028Y-74657264D02*
X148108028Y-73857264D01*
X148565171Y-74657264D01*
X148565171Y-73857264D01*
X148946123Y-74657264D02*
X148946123Y-73857264D01*
X149136600Y-73857264D01*
X149250885Y-73895360D01*
X149327076Y-73971550D01*
X149365171Y-74047740D01*
X149403266Y-74200121D01*
X149403266Y-74314407D01*
X149365171Y-74466788D01*
X149327076Y-74542979D01*
X149250885Y-74619169D01*
X149136600Y-74657264D01*
X148946123Y-74657264D01*
X148075386Y-77129169D02*
X148189672Y-77167264D01*
X148380148Y-77167264D01*
X148456339Y-77129169D01*
X148494434Y-77091074D01*
X148532529Y-77014883D01*
X148532529Y-76938693D01*
X148494434Y-76862502D01*
X148456339Y-76824407D01*
X148380148Y-76786312D01*
X148227767Y-76748217D01*
X148151577Y-76710121D01*
X148113481Y-76672026D01*
X148075386Y-76595836D01*
X148075386Y-76519645D01*
X148113481Y-76443455D01*
X148151577Y-76405360D01*
X148227767Y-76367264D01*
X148418243Y-76367264D01*
X148532529Y-76405360D01*
X148761100Y-76367264D02*
X149218243Y-76367264D01*
X148989672Y-77167264D02*
X148989672Y-76367264D01*
X147269933Y-78937264D02*
X147536600Y-79737264D01*
X147803266Y-78937264D01*
X148527076Y-79661074D02*
X148488980Y-79699169D01*
X148374695Y-79737264D01*
X148298504Y-79737264D01*
X148184219Y-79699169D01*
X148108028Y-79622979D01*
X148069933Y-79546788D01*
X148031838Y-79394407D01*
X148031838Y-79280121D01*
X148069933Y-79127740D01*
X148108028Y-79051550D01*
X148184219Y-78975360D01*
X148298504Y-78937264D01*
X148374695Y-78937264D01*
X148488980Y-78975360D01*
X148527076Y-79013455D01*
X149327076Y-79661074D02*
X149288980Y-79699169D01*
X149174695Y-79737264D01*
X149098504Y-79737264D01*
X148984219Y-79699169D01*
X148908028Y-79622979D01*
X148869933Y-79546788D01*
X148831838Y-79394407D01*
X148831838Y-79280121D01*
X148869933Y-79127740D01*
X148908028Y-79051550D01*
X148984219Y-78975360D01*
X149098504Y-78937264D01*
X149174695Y-78937264D01*
X149288980Y-78975360D01*
X149327076Y-79013455D01*
X148069933Y-81858217D02*
X147803266Y-81858217D01*
X147803266Y-82277264D02*
X147803266Y-81477264D01*
X148184219Y-81477264D01*
X148831838Y-81743931D02*
X148831838Y-82277264D01*
X148641361Y-81439169D02*
X148450885Y-82010598D01*
X148946123Y-82010598D01*
X148012790Y-92018217D02*
X148127076Y-92056312D01*
X148165171Y-92094407D01*
X148203266Y-92170598D01*
X148203266Y-92284883D01*
X148165171Y-92361074D01*
X148127076Y-92399169D01*
X148050885Y-92437264D01*
X147746123Y-92437264D01*
X147746123Y-91637264D01*
X148012790Y-91637264D01*
X148088980Y-91675360D01*
X148127076Y-91713455D01*
X148165171Y-91789645D01*
X148165171Y-91865836D01*
X148127076Y-91942026D01*
X148088980Y-91980121D01*
X148012790Y-92018217D01*
X147746123Y-92018217D01*
X148965171Y-92437264D02*
X148508028Y-92437264D01*
X148736600Y-92437264D02*
X148736600Y-91637264D01*
X148660409Y-91751550D01*
X148584219Y-91827740D01*
X148508028Y-91865836D01*
X148012790Y-94558217D02*
X148127076Y-94596312D01*
X148165171Y-94634407D01*
X148203266Y-94710598D01*
X148203266Y-94824883D01*
X148165171Y-94901074D01*
X148127076Y-94939169D01*
X148050885Y-94977264D01*
X147746123Y-94977264D01*
X147746123Y-94177264D01*
X148012790Y-94177264D01*
X148088980Y-94215360D01*
X148127076Y-94253455D01*
X148165171Y-94329645D01*
X148165171Y-94405836D01*
X148127076Y-94482026D01*
X148088980Y-94520121D01*
X148012790Y-94558217D01*
X147746123Y-94558217D01*
X148469933Y-94177264D02*
X148965171Y-94177264D01*
X148698504Y-94482026D01*
X148812790Y-94482026D01*
X148888980Y-94520121D01*
X148927076Y-94558217D01*
X148965171Y-94634407D01*
X148965171Y-94824883D01*
X148927076Y-94901074D01*
X148888980Y-94939169D01*
X148812790Y-94977264D01*
X148584219Y-94977264D01*
X148508028Y-94939169D01*
X148469933Y-94901074D01*
X148012790Y-99638217D02*
X148127076Y-99676312D01*
X148165171Y-99714407D01*
X148203266Y-99790598D01*
X148203266Y-99904883D01*
X148165171Y-99981074D01*
X148127076Y-100019169D01*
X148050885Y-100057264D01*
X147746123Y-100057264D01*
X147746123Y-99257264D01*
X148012790Y-99257264D01*
X148088980Y-99295360D01*
X148127076Y-99333455D01*
X148165171Y-99409645D01*
X148165171Y-99485836D01*
X148127076Y-99562026D01*
X148088980Y-99600121D01*
X148012790Y-99638217D01*
X147746123Y-99638217D01*
X148888980Y-99257264D02*
X148736600Y-99257264D01*
X148660409Y-99295360D01*
X148622314Y-99333455D01*
X148546123Y-99447740D01*
X148508028Y-99600121D01*
X148508028Y-99904883D01*
X148546123Y-99981074D01*
X148584219Y-100019169D01*
X148660409Y-100057264D01*
X148812790Y-100057264D01*
X148888980Y-100019169D01*
X148927076Y-99981074D01*
X148965171Y-99904883D01*
X148965171Y-99714407D01*
X148927076Y-99638217D01*
X148888980Y-99600121D01*
X148812790Y-99562026D01*
X148660409Y-99562026D01*
X148584219Y-99600121D01*
X148546123Y-99638217D01*
X148508028Y-99714407D01*
X137090790Y-99638217D02*
X137205076Y-99676312D01*
X137243171Y-99714407D01*
X137281266Y-99790598D01*
X137281266Y-99904883D01*
X137243171Y-99981074D01*
X137205076Y-100019169D01*
X137128885Y-100057264D01*
X136824123Y-100057264D01*
X136824123Y-99257264D01*
X137090790Y-99257264D01*
X137166980Y-99295360D01*
X137205076Y-99333455D01*
X137243171Y-99409645D01*
X137243171Y-99485836D01*
X137205076Y-99562026D01*
X137166980Y-99600121D01*
X137090790Y-99638217D01*
X136824123Y-99638217D01*
X138005076Y-99257264D02*
X137624123Y-99257264D01*
X137586028Y-99638217D01*
X137624123Y-99600121D01*
X137700314Y-99562026D01*
X137890790Y-99562026D01*
X137966980Y-99600121D01*
X138005076Y-99638217D01*
X138043171Y-99714407D01*
X138043171Y-99904883D01*
X138005076Y-99981074D01*
X137966980Y-100019169D01*
X137890790Y-100057264D01*
X137700314Y-100057264D01*
X137624123Y-100019169D01*
X137586028Y-99981074D01*
X137090790Y-97098217D02*
X137205076Y-97136312D01*
X137243171Y-97174407D01*
X137281266Y-97250598D01*
X137281266Y-97364883D01*
X137243171Y-97441074D01*
X137205076Y-97479169D01*
X137128885Y-97517264D01*
X136824123Y-97517264D01*
X136824123Y-96717264D01*
X137090790Y-96717264D01*
X137166980Y-96755360D01*
X137205076Y-96793455D01*
X137243171Y-96869645D01*
X137243171Y-96945836D01*
X137205076Y-97022026D01*
X137166980Y-97060121D01*
X137090790Y-97098217D01*
X136824123Y-97098217D01*
X137966980Y-96983931D02*
X137966980Y-97517264D01*
X137776504Y-96679169D02*
X137586028Y-97250598D01*
X138081266Y-97250598D01*
X136862219Y-94558217D02*
X137128885Y-94558217D01*
X137243171Y-94977264D02*
X136862219Y-94977264D01*
X136862219Y-94177264D01*
X137243171Y-94177264D01*
X137928885Y-94177264D02*
X137776504Y-94177264D01*
X137700314Y-94215360D01*
X137662219Y-94253455D01*
X137586028Y-94367740D01*
X137547933Y-94520121D01*
X137547933Y-94824883D01*
X137586028Y-94901074D01*
X137624123Y-94939169D01*
X137700314Y-94977264D01*
X137852695Y-94977264D01*
X137928885Y-94939169D01*
X137966980Y-94901074D01*
X138005076Y-94824883D01*
X138005076Y-94634407D01*
X137966980Y-94558217D01*
X137928885Y-94520121D01*
X137852695Y-94482026D01*
X137700314Y-94482026D01*
X137624123Y-94520121D01*
X137586028Y-94558217D01*
X137547933Y-94634407D01*
X136824123Y-92437264D02*
X136824123Y-91637264D01*
X137014600Y-91637264D01*
X137128885Y-91675360D01*
X137205076Y-91751550D01*
X137243171Y-91827740D01*
X137281266Y-91980121D01*
X137281266Y-92094407D01*
X137243171Y-92246788D01*
X137205076Y-92322979D01*
X137128885Y-92399169D01*
X137014600Y-92437264D01*
X136824123Y-92437264D01*
X137547933Y-91637264D02*
X138081266Y-91637264D01*
X137738409Y-92437264D01*
X137281266Y-89821074D02*
X137243171Y-89859169D01*
X137128885Y-89897264D01*
X137052695Y-89897264D01*
X136938409Y-89859169D01*
X136862219Y-89782979D01*
X136824123Y-89706788D01*
X136786028Y-89554407D01*
X136786028Y-89440121D01*
X136824123Y-89287740D01*
X136862219Y-89211550D01*
X136938409Y-89135360D01*
X137052695Y-89097264D01*
X137128885Y-89097264D01*
X137243171Y-89135360D01*
X137281266Y-89173455D01*
X137966980Y-89097264D02*
X137814600Y-89097264D01*
X137738409Y-89135360D01*
X137700314Y-89173455D01*
X137624123Y-89287740D01*
X137586028Y-89440121D01*
X137586028Y-89744883D01*
X137624123Y-89821074D01*
X137662219Y-89859169D01*
X137738409Y-89897264D01*
X137890790Y-89897264D01*
X137966980Y-89859169D01*
X138005076Y-89821074D01*
X138043171Y-89744883D01*
X138043171Y-89554407D01*
X138005076Y-89478217D01*
X137966980Y-89440121D01*
X137890790Y-89402026D01*
X137738409Y-89402026D01*
X137662219Y-89440121D01*
X137624123Y-89478217D01*
X137586028Y-89554407D01*
X136824123Y-87357264D02*
X136824123Y-86557264D01*
X137014600Y-86557264D01*
X137128885Y-86595360D01*
X137205076Y-86671550D01*
X137243171Y-86747740D01*
X137281266Y-86900121D01*
X137281266Y-87014407D01*
X137243171Y-87166788D01*
X137205076Y-87242979D01*
X137128885Y-87319169D01*
X137014600Y-87357264D01*
X136824123Y-87357264D01*
X137966980Y-86823931D02*
X137966980Y-87357264D01*
X137776504Y-86519169D02*
X137586028Y-87090598D01*
X138081266Y-87090598D01*
X136805076Y-76435360D02*
X136728885Y-76397264D01*
X136614600Y-76397264D01*
X136500314Y-76435360D01*
X136424123Y-76511550D01*
X136386028Y-76587740D01*
X136347933Y-76740121D01*
X136347933Y-76854407D01*
X136386028Y-77006788D01*
X136424123Y-77082979D01*
X136500314Y-77159169D01*
X136614600Y-77197264D01*
X136690790Y-77197264D01*
X136805076Y-77159169D01*
X136843171Y-77121074D01*
X136843171Y-76854407D01*
X136690790Y-76854407D01*
X137186028Y-77197264D02*
X137186028Y-76397264D01*
X137643171Y-77197264D01*
X137643171Y-76397264D01*
X138024123Y-77197264D02*
X138024123Y-76397264D01*
X138214600Y-76397264D01*
X138328885Y-76435360D01*
X138405076Y-76511550D01*
X138443171Y-76587740D01*
X138481266Y-76740121D01*
X138481266Y-76854407D01*
X138443171Y-77006788D01*
X138405076Y-77082979D01*
X138328885Y-77159169D01*
X138214600Y-77197264D01*
X138024123Y-77197264D01*
X136805076Y-78975360D02*
X136728885Y-78937264D01*
X136614600Y-78937264D01*
X136500314Y-78975360D01*
X136424123Y-79051550D01*
X136386028Y-79127740D01*
X136347933Y-79280121D01*
X136347933Y-79394407D01*
X136386028Y-79546788D01*
X136424123Y-79622979D01*
X136500314Y-79699169D01*
X136614600Y-79737264D01*
X136690790Y-79737264D01*
X136805076Y-79699169D01*
X136843171Y-79661074D01*
X136843171Y-79394407D01*
X136690790Y-79394407D01*
X137186028Y-79737264D02*
X137186028Y-78937264D01*
X137643171Y-79737264D01*
X137643171Y-78937264D01*
X138024123Y-79737264D02*
X138024123Y-78937264D01*
X138214600Y-78937264D01*
X138328885Y-78975360D01*
X138405076Y-79051550D01*
X138443171Y-79127740D01*
X138481266Y-79280121D01*
X138481266Y-79394407D01*
X138443171Y-79546788D01*
X138405076Y-79622979D01*
X138328885Y-79699169D01*
X138214600Y-79737264D01*
X138024123Y-79737264D01*
X136824123Y-82277264D02*
X136824123Y-81477264D01*
X137014600Y-81477264D01*
X137128885Y-81515360D01*
X137205076Y-81591550D01*
X137243171Y-81667740D01*
X137281266Y-81820121D01*
X137281266Y-81934407D01*
X137243171Y-82086788D01*
X137205076Y-82162979D01*
X137128885Y-82239169D01*
X137014600Y-82277264D01*
X136824123Y-82277264D01*
X138043171Y-82277264D02*
X137586028Y-82277264D01*
X137814600Y-82277264D02*
X137814600Y-81477264D01*
X137738409Y-81591550D01*
X137662219Y-81667740D01*
X137586028Y-81705836D01*
X136824123Y-84817264D02*
X136824123Y-84017264D01*
X137014600Y-84017264D01*
X137128885Y-84055360D01*
X137205076Y-84131550D01*
X137243171Y-84207740D01*
X137281266Y-84360121D01*
X137281266Y-84474407D01*
X137243171Y-84626788D01*
X137205076Y-84702979D01*
X137128885Y-84779169D01*
X137014600Y-84817264D01*
X136824123Y-84817264D01*
X137776504Y-84017264D02*
X137852695Y-84017264D01*
X137928885Y-84055360D01*
X137966980Y-84093455D01*
X138005076Y-84169645D01*
X138043171Y-84322026D01*
X138043171Y-84512502D01*
X138005076Y-84664883D01*
X137966980Y-84741074D01*
X137928885Y-84779169D01*
X137852695Y-84817264D01*
X137776504Y-84817264D01*
X137700314Y-84779169D01*
X137662219Y-84741074D01*
X137624123Y-84664883D01*
X137586028Y-84512502D01*
X137586028Y-84322026D01*
X137624123Y-84169645D01*
X137662219Y-84093455D01*
X137700314Y-84055360D01*
X137776504Y-84017264D01*
X136824123Y-74657264D02*
X136824123Y-73857264D01*
X137014600Y-73857264D01*
X137128885Y-73895360D01*
X137205076Y-73971550D01*
X137243171Y-74047740D01*
X137281266Y-74200121D01*
X137281266Y-74314407D01*
X137243171Y-74466788D01*
X137205076Y-74542979D01*
X137128885Y-74619169D01*
X137014600Y-74657264D01*
X136824123Y-74657264D01*
X137586028Y-73933455D02*
X137624123Y-73895360D01*
X137700314Y-73857264D01*
X137890790Y-73857264D01*
X137966980Y-73895360D01*
X138005076Y-73933455D01*
X138043171Y-74009645D01*
X138043171Y-74085836D01*
X138005076Y-74200121D01*
X137547933Y-74657264D01*
X138043171Y-74657264D01*
X137113251Y-71317264D02*
X137570394Y-71317264D01*
X137341823Y-72117264D02*
X137341823Y-71317264D01*
X137760870Y-71317264D02*
X138294204Y-72117264D01*
X138294204Y-71317264D02*
X137760870Y-72117264D01*
X138751347Y-71317264D02*
X138827537Y-71317264D01*
X138903728Y-71355360D01*
X138941823Y-71393455D01*
X138979918Y-71469645D01*
X139018013Y-71622026D01*
X139018013Y-71812502D01*
X138979918Y-71964883D01*
X138941823Y-72041074D01*
X138903728Y-72079169D01*
X138827537Y-72117264D01*
X138751347Y-72117264D01*
X138675156Y-72079169D01*
X138637061Y-72041074D01*
X138598966Y-71964883D01*
X138560870Y-71812502D01*
X138560870Y-71622026D01*
X138598966Y-71469645D01*
X138637061Y-71393455D01*
X138675156Y-71355360D01*
X138751347Y-71317264D01*
X139932299Y-71279169D02*
X139246585Y-72307740D01*
X140198966Y-72117264D02*
X140198966Y-71317264D01*
X140389442Y-71317264D01*
X140503728Y-71355360D01*
X140579918Y-71431550D01*
X140618013Y-71507740D01*
X140656108Y-71660121D01*
X140656108Y-71774407D01*
X140618013Y-71926788D01*
X140579918Y-72002979D01*
X140503728Y-72079169D01*
X140389442Y-72117264D01*
X140198966Y-72117264D01*
X140922775Y-71317264D02*
X141418013Y-71317264D01*
X141151347Y-71622026D01*
X141265632Y-71622026D01*
X141341823Y-71660121D01*
X141379918Y-71698217D01*
X141418013Y-71774407D01*
X141418013Y-71964883D01*
X141379918Y-72041074D01*
X141341823Y-72079169D01*
X141265632Y-72117264D01*
X141037061Y-72117264D01*
X140960870Y-72079169D01*
X140922775Y-72041074D01*
M02*
