G04 #@! TF.GenerationSoftware,KiCad,Pcbnew,(5.1.4)-1*
G04 #@! TF.CreationDate,2021-01-04T11:43:55-07:00*
G04 #@! TF.ProjectId,CS30 Ergo,43533330-2045-4726-976f-2e6b69636164,rev?*
G04 #@! TF.SameCoordinates,Original*
G04 #@! TF.FileFunction,Legend,Top*
G04 #@! TF.FilePolarity,Positive*
%FSLAX46Y46*%
G04 Gerber Fmt 4.6, Leading zero omitted, Abs format (unit mm)*
G04 Created by KiCad (PCBNEW (5.1.4)-1) date 2021-01-04 11:43:55*
%MOMM*%
%LPD*%
G04 APERTURE LIST*
%ADD10C,0.381000*%
%ADD11C,0.150000*%
G04 APERTURE END LIST*
D10*
X136525600Y-72866620D02*
X133985600Y-72866620D01*
X133985600Y-70326620D02*
X133985600Y-72866620D01*
X151765600Y-70326620D02*
X133985600Y-70326620D01*
X151765600Y-72866620D02*
X151765600Y-70326620D01*
D11*
G36*
X147807168Y-79345980D02*
G01*
X147807168Y-79545980D01*
X147707168Y-79545980D01*
X147707168Y-79345980D01*
X147807168Y-79345980D01*
G37*
X147807168Y-79345980D02*
X147807168Y-79545980D01*
X147707168Y-79545980D01*
X147707168Y-79345980D01*
X147807168Y-79345980D01*
G36*
X147407168Y-78745980D02*
G01*
X147407168Y-79545980D01*
X147307168Y-79545980D01*
X147307168Y-78745980D01*
X147407168Y-78745980D01*
G37*
X147407168Y-78745980D02*
X147407168Y-79545980D01*
X147307168Y-79545980D01*
X147307168Y-78745980D01*
X147407168Y-78745980D01*
G36*
X147807168Y-78745980D02*
G01*
X147807168Y-78845980D01*
X147307168Y-78845980D01*
X147307168Y-78745980D01*
X147807168Y-78745980D01*
G37*
X147807168Y-78745980D02*
X147807168Y-78845980D01*
X147307168Y-78845980D01*
X147307168Y-78745980D01*
X147807168Y-78745980D01*
G36*
X147607168Y-79145980D02*
G01*
X147607168Y-79245980D01*
X147507168Y-79245980D01*
X147507168Y-79145980D01*
X147607168Y-79145980D01*
G37*
X147607168Y-79145980D02*
X147607168Y-79245980D01*
X147507168Y-79245980D01*
X147507168Y-79145980D01*
X147607168Y-79145980D01*
G36*
X147807168Y-78745980D02*
G01*
X147807168Y-79045980D01*
X147707168Y-79045980D01*
X147707168Y-78745980D01*
X147807168Y-78745980D01*
G37*
X147807168Y-78745980D02*
X147807168Y-79045980D01*
X147707168Y-79045980D01*
X147707168Y-78745980D01*
X147807168Y-78745980D01*
D10*
X136525600Y-75406620D02*
X133985600Y-75406620D01*
X136525600Y-72866620D02*
X136525600Y-75406620D01*
X151765600Y-103346620D02*
X151765600Y-72866620D01*
X133985600Y-103346620D02*
X151765600Y-103346620D01*
X133985600Y-72866620D02*
X133985600Y-103346620D01*
D11*
X137113251Y-73698524D02*
X137570394Y-73698524D01*
X137341823Y-74498524D02*
X137341823Y-73698524D01*
X137760870Y-73698524D02*
X138294204Y-74498524D01*
X138294204Y-73698524D02*
X137760870Y-74498524D01*
X138751347Y-73698524D02*
X138827537Y-73698524D01*
X138903728Y-73736620D01*
X138941823Y-73774715D01*
X138979918Y-73850905D01*
X139018013Y-74003286D01*
X139018013Y-74193762D01*
X138979918Y-74346143D01*
X138941823Y-74422334D01*
X138903728Y-74460429D01*
X138827537Y-74498524D01*
X138751347Y-74498524D01*
X138675156Y-74460429D01*
X138637061Y-74422334D01*
X138598966Y-74346143D01*
X138560870Y-74193762D01*
X138560870Y-74003286D01*
X138598966Y-73850905D01*
X138637061Y-73774715D01*
X138675156Y-73736620D01*
X138751347Y-73698524D01*
X139932299Y-73660429D02*
X139246585Y-74689000D01*
X140198966Y-74498524D02*
X140198966Y-73698524D01*
X140389442Y-73698524D01*
X140503728Y-73736620D01*
X140579918Y-73812810D01*
X140618013Y-73889000D01*
X140656108Y-74041381D01*
X140656108Y-74155667D01*
X140618013Y-74308048D01*
X140579918Y-74384239D01*
X140503728Y-74460429D01*
X140389442Y-74498524D01*
X140198966Y-74498524D01*
X140922775Y-73698524D02*
X141418013Y-73698524D01*
X141151347Y-74003286D01*
X141265632Y-74003286D01*
X141341823Y-74041381D01*
X141379918Y-74079477D01*
X141418013Y-74155667D01*
X141418013Y-74346143D01*
X141379918Y-74422334D01*
X141341823Y-74460429D01*
X141265632Y-74498524D01*
X141037061Y-74498524D01*
X140960870Y-74460429D01*
X140922775Y-74422334D01*
X136824123Y-77038524D02*
X136824123Y-76238524D01*
X137014600Y-76238524D01*
X137128885Y-76276620D01*
X137205076Y-76352810D01*
X137243171Y-76429000D01*
X137281266Y-76581381D01*
X137281266Y-76695667D01*
X137243171Y-76848048D01*
X137205076Y-76924239D01*
X137128885Y-77000429D01*
X137014600Y-77038524D01*
X136824123Y-77038524D01*
X137586028Y-76314715D02*
X137624123Y-76276620D01*
X137700314Y-76238524D01*
X137890790Y-76238524D01*
X137966980Y-76276620D01*
X138005076Y-76314715D01*
X138043171Y-76390905D01*
X138043171Y-76467096D01*
X138005076Y-76581381D01*
X137547933Y-77038524D01*
X138043171Y-77038524D01*
X136824123Y-87198524D02*
X136824123Y-86398524D01*
X137014600Y-86398524D01*
X137128885Y-86436620D01*
X137205076Y-86512810D01*
X137243171Y-86589000D01*
X137281266Y-86741381D01*
X137281266Y-86855667D01*
X137243171Y-87008048D01*
X137205076Y-87084239D01*
X137128885Y-87160429D01*
X137014600Y-87198524D01*
X136824123Y-87198524D01*
X137776504Y-86398524D02*
X137852695Y-86398524D01*
X137928885Y-86436620D01*
X137966980Y-86474715D01*
X138005076Y-86550905D01*
X138043171Y-86703286D01*
X138043171Y-86893762D01*
X138005076Y-87046143D01*
X137966980Y-87122334D01*
X137928885Y-87160429D01*
X137852695Y-87198524D01*
X137776504Y-87198524D01*
X137700314Y-87160429D01*
X137662219Y-87122334D01*
X137624123Y-87046143D01*
X137586028Y-86893762D01*
X137586028Y-86703286D01*
X137624123Y-86550905D01*
X137662219Y-86474715D01*
X137700314Y-86436620D01*
X137776504Y-86398524D01*
X136824123Y-84658524D02*
X136824123Y-83858524D01*
X137014600Y-83858524D01*
X137128885Y-83896620D01*
X137205076Y-83972810D01*
X137243171Y-84049000D01*
X137281266Y-84201381D01*
X137281266Y-84315667D01*
X137243171Y-84468048D01*
X137205076Y-84544239D01*
X137128885Y-84620429D01*
X137014600Y-84658524D01*
X136824123Y-84658524D01*
X138043171Y-84658524D02*
X137586028Y-84658524D01*
X137814600Y-84658524D02*
X137814600Y-83858524D01*
X137738409Y-83972810D01*
X137662219Y-84049000D01*
X137586028Y-84087096D01*
X136805076Y-81356620D02*
X136728885Y-81318524D01*
X136614600Y-81318524D01*
X136500314Y-81356620D01*
X136424123Y-81432810D01*
X136386028Y-81509000D01*
X136347933Y-81661381D01*
X136347933Y-81775667D01*
X136386028Y-81928048D01*
X136424123Y-82004239D01*
X136500314Y-82080429D01*
X136614600Y-82118524D01*
X136690790Y-82118524D01*
X136805076Y-82080429D01*
X136843171Y-82042334D01*
X136843171Y-81775667D01*
X136690790Y-81775667D01*
X137186028Y-82118524D02*
X137186028Y-81318524D01*
X137643171Y-82118524D01*
X137643171Y-81318524D01*
X138024123Y-82118524D02*
X138024123Y-81318524D01*
X138214600Y-81318524D01*
X138328885Y-81356620D01*
X138405076Y-81432810D01*
X138443171Y-81509000D01*
X138481266Y-81661381D01*
X138481266Y-81775667D01*
X138443171Y-81928048D01*
X138405076Y-82004239D01*
X138328885Y-82080429D01*
X138214600Y-82118524D01*
X138024123Y-82118524D01*
X136805076Y-78816620D02*
X136728885Y-78778524D01*
X136614600Y-78778524D01*
X136500314Y-78816620D01*
X136424123Y-78892810D01*
X136386028Y-78969000D01*
X136347933Y-79121381D01*
X136347933Y-79235667D01*
X136386028Y-79388048D01*
X136424123Y-79464239D01*
X136500314Y-79540429D01*
X136614600Y-79578524D01*
X136690790Y-79578524D01*
X136805076Y-79540429D01*
X136843171Y-79502334D01*
X136843171Y-79235667D01*
X136690790Y-79235667D01*
X137186028Y-79578524D02*
X137186028Y-78778524D01*
X137643171Y-79578524D01*
X137643171Y-78778524D01*
X138024123Y-79578524D02*
X138024123Y-78778524D01*
X138214600Y-78778524D01*
X138328885Y-78816620D01*
X138405076Y-78892810D01*
X138443171Y-78969000D01*
X138481266Y-79121381D01*
X138481266Y-79235667D01*
X138443171Y-79388048D01*
X138405076Y-79464239D01*
X138328885Y-79540429D01*
X138214600Y-79578524D01*
X138024123Y-79578524D01*
X136824123Y-89738524D02*
X136824123Y-88938524D01*
X137014600Y-88938524D01*
X137128885Y-88976620D01*
X137205076Y-89052810D01*
X137243171Y-89129000D01*
X137281266Y-89281381D01*
X137281266Y-89395667D01*
X137243171Y-89548048D01*
X137205076Y-89624239D01*
X137128885Y-89700429D01*
X137014600Y-89738524D01*
X136824123Y-89738524D01*
X137966980Y-89205191D02*
X137966980Y-89738524D01*
X137776504Y-88900429D02*
X137586028Y-89471858D01*
X138081266Y-89471858D01*
X137281266Y-92202334D02*
X137243171Y-92240429D01*
X137128885Y-92278524D01*
X137052695Y-92278524D01*
X136938409Y-92240429D01*
X136862219Y-92164239D01*
X136824123Y-92088048D01*
X136786028Y-91935667D01*
X136786028Y-91821381D01*
X136824123Y-91669000D01*
X136862219Y-91592810D01*
X136938409Y-91516620D01*
X137052695Y-91478524D01*
X137128885Y-91478524D01*
X137243171Y-91516620D01*
X137281266Y-91554715D01*
X137966980Y-91478524D02*
X137814600Y-91478524D01*
X137738409Y-91516620D01*
X137700314Y-91554715D01*
X137624123Y-91669000D01*
X137586028Y-91821381D01*
X137586028Y-92126143D01*
X137624123Y-92202334D01*
X137662219Y-92240429D01*
X137738409Y-92278524D01*
X137890790Y-92278524D01*
X137966980Y-92240429D01*
X138005076Y-92202334D01*
X138043171Y-92126143D01*
X138043171Y-91935667D01*
X138005076Y-91859477D01*
X137966980Y-91821381D01*
X137890790Y-91783286D01*
X137738409Y-91783286D01*
X137662219Y-91821381D01*
X137624123Y-91859477D01*
X137586028Y-91935667D01*
X136824123Y-94818524D02*
X136824123Y-94018524D01*
X137014600Y-94018524D01*
X137128885Y-94056620D01*
X137205076Y-94132810D01*
X137243171Y-94209000D01*
X137281266Y-94361381D01*
X137281266Y-94475667D01*
X137243171Y-94628048D01*
X137205076Y-94704239D01*
X137128885Y-94780429D01*
X137014600Y-94818524D01*
X136824123Y-94818524D01*
X137547933Y-94018524D02*
X138081266Y-94018524D01*
X137738409Y-94818524D01*
X136862219Y-96939477D02*
X137128885Y-96939477D01*
X137243171Y-97358524D02*
X136862219Y-97358524D01*
X136862219Y-96558524D01*
X137243171Y-96558524D01*
X137928885Y-96558524D02*
X137776504Y-96558524D01*
X137700314Y-96596620D01*
X137662219Y-96634715D01*
X137586028Y-96749000D01*
X137547933Y-96901381D01*
X137547933Y-97206143D01*
X137586028Y-97282334D01*
X137624123Y-97320429D01*
X137700314Y-97358524D01*
X137852695Y-97358524D01*
X137928885Y-97320429D01*
X137966980Y-97282334D01*
X138005076Y-97206143D01*
X138005076Y-97015667D01*
X137966980Y-96939477D01*
X137928885Y-96901381D01*
X137852695Y-96863286D01*
X137700314Y-96863286D01*
X137624123Y-96901381D01*
X137586028Y-96939477D01*
X137547933Y-97015667D01*
X137090790Y-99479477D02*
X137205076Y-99517572D01*
X137243171Y-99555667D01*
X137281266Y-99631858D01*
X137281266Y-99746143D01*
X137243171Y-99822334D01*
X137205076Y-99860429D01*
X137128885Y-99898524D01*
X136824123Y-99898524D01*
X136824123Y-99098524D01*
X137090790Y-99098524D01*
X137166980Y-99136620D01*
X137205076Y-99174715D01*
X137243171Y-99250905D01*
X137243171Y-99327096D01*
X137205076Y-99403286D01*
X137166980Y-99441381D01*
X137090790Y-99479477D01*
X136824123Y-99479477D01*
X137966980Y-99365191D02*
X137966980Y-99898524D01*
X137776504Y-99060429D02*
X137586028Y-99631858D01*
X138081266Y-99631858D01*
X137090790Y-102019477D02*
X137205076Y-102057572D01*
X137243171Y-102095667D01*
X137281266Y-102171858D01*
X137281266Y-102286143D01*
X137243171Y-102362334D01*
X137205076Y-102400429D01*
X137128885Y-102438524D01*
X136824123Y-102438524D01*
X136824123Y-101638524D01*
X137090790Y-101638524D01*
X137166980Y-101676620D01*
X137205076Y-101714715D01*
X137243171Y-101790905D01*
X137243171Y-101867096D01*
X137205076Y-101943286D01*
X137166980Y-101981381D01*
X137090790Y-102019477D01*
X136824123Y-102019477D01*
X138005076Y-101638524D02*
X137624123Y-101638524D01*
X137586028Y-102019477D01*
X137624123Y-101981381D01*
X137700314Y-101943286D01*
X137890790Y-101943286D01*
X137966980Y-101981381D01*
X138005076Y-102019477D01*
X138043171Y-102095667D01*
X138043171Y-102286143D01*
X138005076Y-102362334D01*
X137966980Y-102400429D01*
X137890790Y-102438524D01*
X137700314Y-102438524D01*
X137624123Y-102400429D01*
X137586028Y-102362334D01*
X148012790Y-102019477D02*
X148127076Y-102057572D01*
X148165171Y-102095667D01*
X148203266Y-102171858D01*
X148203266Y-102286143D01*
X148165171Y-102362334D01*
X148127076Y-102400429D01*
X148050885Y-102438524D01*
X147746123Y-102438524D01*
X147746123Y-101638524D01*
X148012790Y-101638524D01*
X148088980Y-101676620D01*
X148127076Y-101714715D01*
X148165171Y-101790905D01*
X148165171Y-101867096D01*
X148127076Y-101943286D01*
X148088980Y-101981381D01*
X148012790Y-102019477D01*
X147746123Y-102019477D01*
X148888980Y-101638524D02*
X148736600Y-101638524D01*
X148660409Y-101676620D01*
X148622314Y-101714715D01*
X148546123Y-101829000D01*
X148508028Y-101981381D01*
X148508028Y-102286143D01*
X148546123Y-102362334D01*
X148584219Y-102400429D01*
X148660409Y-102438524D01*
X148812790Y-102438524D01*
X148888980Y-102400429D01*
X148927076Y-102362334D01*
X148965171Y-102286143D01*
X148965171Y-102095667D01*
X148927076Y-102019477D01*
X148888980Y-101981381D01*
X148812790Y-101943286D01*
X148660409Y-101943286D01*
X148584219Y-101981381D01*
X148546123Y-102019477D01*
X148508028Y-102095667D01*
X148012790Y-96939477D02*
X148127076Y-96977572D01*
X148165171Y-97015667D01*
X148203266Y-97091858D01*
X148203266Y-97206143D01*
X148165171Y-97282334D01*
X148127076Y-97320429D01*
X148050885Y-97358524D01*
X147746123Y-97358524D01*
X147746123Y-96558524D01*
X148012790Y-96558524D01*
X148088980Y-96596620D01*
X148127076Y-96634715D01*
X148165171Y-96710905D01*
X148165171Y-96787096D01*
X148127076Y-96863286D01*
X148088980Y-96901381D01*
X148012790Y-96939477D01*
X147746123Y-96939477D01*
X148469933Y-96558524D02*
X148965171Y-96558524D01*
X148698504Y-96863286D01*
X148812790Y-96863286D01*
X148888980Y-96901381D01*
X148927076Y-96939477D01*
X148965171Y-97015667D01*
X148965171Y-97206143D01*
X148927076Y-97282334D01*
X148888980Y-97320429D01*
X148812790Y-97358524D01*
X148584219Y-97358524D01*
X148508028Y-97320429D01*
X148469933Y-97282334D01*
X148012790Y-94399477D02*
X148127076Y-94437572D01*
X148165171Y-94475667D01*
X148203266Y-94551858D01*
X148203266Y-94666143D01*
X148165171Y-94742334D01*
X148127076Y-94780429D01*
X148050885Y-94818524D01*
X147746123Y-94818524D01*
X147746123Y-94018524D01*
X148012790Y-94018524D01*
X148088980Y-94056620D01*
X148127076Y-94094715D01*
X148165171Y-94170905D01*
X148165171Y-94247096D01*
X148127076Y-94323286D01*
X148088980Y-94361381D01*
X148012790Y-94399477D01*
X147746123Y-94399477D01*
X148965171Y-94818524D02*
X148508028Y-94818524D01*
X148736600Y-94818524D02*
X148736600Y-94018524D01*
X148660409Y-94132810D01*
X148584219Y-94209000D01*
X148508028Y-94247096D01*
X148069933Y-84239477D02*
X147803266Y-84239477D01*
X147803266Y-84658524D02*
X147803266Y-83858524D01*
X148184219Y-83858524D01*
X148831838Y-84125191D02*
X148831838Y-84658524D01*
X148641361Y-83820429D02*
X148450885Y-84391858D01*
X148946123Y-84391858D01*
X147269933Y-81318524D02*
X147536600Y-82118524D01*
X147803266Y-81318524D01*
X148527076Y-82042334D02*
X148488980Y-82080429D01*
X148374695Y-82118524D01*
X148298504Y-82118524D01*
X148184219Y-82080429D01*
X148108028Y-82004239D01*
X148069933Y-81928048D01*
X148031838Y-81775667D01*
X148031838Y-81661381D01*
X148069933Y-81509000D01*
X148108028Y-81432810D01*
X148184219Y-81356620D01*
X148298504Y-81318524D01*
X148374695Y-81318524D01*
X148488980Y-81356620D01*
X148527076Y-81394715D01*
X149327076Y-82042334D02*
X149288980Y-82080429D01*
X149174695Y-82118524D01*
X149098504Y-82118524D01*
X148984219Y-82080429D01*
X148908028Y-82004239D01*
X148869933Y-81928048D01*
X148831838Y-81775667D01*
X148831838Y-81661381D01*
X148869933Y-81509000D01*
X148908028Y-81432810D01*
X148984219Y-81356620D01*
X149098504Y-81318524D01*
X149174695Y-81318524D01*
X149288980Y-81356620D01*
X149327076Y-81394715D01*
X148075386Y-79510429D02*
X148189672Y-79548524D01*
X148380148Y-79548524D01*
X148456339Y-79510429D01*
X148494434Y-79472334D01*
X148532529Y-79396143D01*
X148532529Y-79319953D01*
X148494434Y-79243762D01*
X148456339Y-79205667D01*
X148380148Y-79167572D01*
X148227767Y-79129477D01*
X148151577Y-79091381D01*
X148113481Y-79053286D01*
X148075386Y-78977096D01*
X148075386Y-78900905D01*
X148113481Y-78824715D01*
X148151577Y-78786620D01*
X148227767Y-78748524D01*
X148418243Y-78748524D01*
X148532529Y-78786620D01*
X148761100Y-78748524D02*
X149218243Y-78748524D01*
X148989672Y-79548524D02*
X148989672Y-78748524D01*
X147727076Y-76276620D02*
X147650885Y-76238524D01*
X147536600Y-76238524D01*
X147422314Y-76276620D01*
X147346123Y-76352810D01*
X147308028Y-76429000D01*
X147269933Y-76581381D01*
X147269933Y-76695667D01*
X147308028Y-76848048D01*
X147346123Y-76924239D01*
X147422314Y-77000429D01*
X147536600Y-77038524D01*
X147612790Y-77038524D01*
X147727076Y-77000429D01*
X147765171Y-76962334D01*
X147765171Y-76695667D01*
X147612790Y-76695667D01*
X148108028Y-77038524D02*
X148108028Y-76238524D01*
X148565171Y-77038524D01*
X148565171Y-76238524D01*
X148946123Y-77038524D02*
X148946123Y-76238524D01*
X149136600Y-76238524D01*
X149250885Y-76276620D01*
X149327076Y-76352810D01*
X149365171Y-76429000D01*
X149403266Y-76581381D01*
X149403266Y-76695667D01*
X149365171Y-76848048D01*
X149327076Y-76924239D01*
X149250885Y-77000429D01*
X149136600Y-77038524D01*
X148946123Y-77038524D01*
X147784219Y-74498524D02*
X147517552Y-74117572D01*
X147327076Y-74498524D02*
X147327076Y-73698524D01*
X147631838Y-73698524D01*
X147708028Y-73736620D01*
X147746123Y-73774715D01*
X147784219Y-73850905D01*
X147784219Y-73965191D01*
X147746123Y-74041381D01*
X147708028Y-74079477D01*
X147631838Y-74117572D01*
X147327076Y-74117572D01*
X148088980Y-74269953D02*
X148469933Y-74269953D01*
X148012790Y-74498524D02*
X148279457Y-73698524D01*
X148546123Y-74498524D01*
X148736600Y-73698524D02*
X148927076Y-74498524D01*
X149079457Y-73927096D01*
X149231838Y-74498524D01*
X149422314Y-73698524D01*
X148069933Y-86779477D02*
X147803266Y-86779477D01*
X147803266Y-87198524D02*
X147803266Y-86398524D01*
X148184219Y-86398524D01*
X148869933Y-86398524D02*
X148488980Y-86398524D01*
X148450885Y-86779477D01*
X148488980Y-86741381D01*
X148565171Y-86703286D01*
X148755647Y-86703286D01*
X148831838Y-86741381D01*
X148869933Y-86779477D01*
X148908028Y-86855667D01*
X148908028Y-87046143D01*
X148869933Y-87122334D01*
X148831838Y-87160429D01*
X148755647Y-87198524D01*
X148565171Y-87198524D01*
X148488980Y-87160429D01*
X148450885Y-87122334D01*
X148069933Y-89319477D02*
X147803266Y-89319477D01*
X147803266Y-89738524D02*
X147803266Y-88938524D01*
X148184219Y-88938524D01*
X148831838Y-88938524D02*
X148679457Y-88938524D01*
X148603266Y-88976620D01*
X148565171Y-89014715D01*
X148488980Y-89129000D01*
X148450885Y-89281381D01*
X148450885Y-89586143D01*
X148488980Y-89662334D01*
X148527076Y-89700429D01*
X148603266Y-89738524D01*
X148755647Y-89738524D01*
X148831838Y-89700429D01*
X148869933Y-89662334D01*
X148908028Y-89586143D01*
X148908028Y-89395667D01*
X148869933Y-89319477D01*
X148831838Y-89281381D01*
X148755647Y-89243286D01*
X148603266Y-89243286D01*
X148527076Y-89281381D01*
X148488980Y-89319477D01*
X148450885Y-89395667D01*
X148069933Y-91859477D02*
X147803266Y-91859477D01*
X147803266Y-92278524D02*
X147803266Y-91478524D01*
X148184219Y-91478524D01*
X148412790Y-91478524D02*
X148946123Y-91478524D01*
X148603266Y-92278524D01*
X148012790Y-99479477D02*
X148127076Y-99517572D01*
X148165171Y-99555667D01*
X148203266Y-99631858D01*
X148203266Y-99746143D01*
X148165171Y-99822334D01*
X148127076Y-99860429D01*
X148050885Y-99898524D01*
X147746123Y-99898524D01*
X147746123Y-99098524D01*
X148012790Y-99098524D01*
X148088980Y-99136620D01*
X148127076Y-99174715D01*
X148165171Y-99250905D01*
X148165171Y-99327096D01*
X148127076Y-99403286D01*
X148088980Y-99441381D01*
X148012790Y-99479477D01*
X147746123Y-99479477D01*
X148508028Y-99174715D02*
X148546123Y-99136620D01*
X148622314Y-99098524D01*
X148812790Y-99098524D01*
X148888980Y-99136620D01*
X148927076Y-99174715D01*
X148965171Y-99250905D01*
X148965171Y-99327096D01*
X148927076Y-99441381D01*
X148469933Y-99898524D01*
X148965171Y-99898524D01*
M02*
