G04 #@! TF.GenerationSoftware,KiCad,Pcbnew,(5.1.4)-1*
G04 #@! TF.CreationDate,2021-01-04T11:43:55-07:00*
G04 #@! TF.ProjectId,CS30 Ergo,43533330-2045-4726-976f-2e6b69636164,rev?*
G04 #@! TF.SameCoordinates,Original*
G04 #@! TF.FileFunction,Copper,L2,Bot*
G04 #@! TF.FilePolarity,Positive*
%FSLAX46Y46*%
G04 Gerber Fmt 4.6, Leading zero omitted, Abs format (unit mm)*
G04 Created by KiCad (PCBNEW (5.1.4)-1) date 2021-01-04 11:43:55*
%MOMM*%
%LPD*%
G04 APERTURE LIST*
%ADD10C,2.250000*%
%ADD11C,0.500000*%
%ADD12C,0.150000*%
%ADD13C,1.200000*%
%ADD14C,1.600000*%
%ADD15C,1.752600*%
%ADD16R,1.752600X1.752600*%
%ADD17R,1.600000X1.600000*%
%ADD18R,0.500000X2.900000*%
%ADD19R,1.200000X1.600000*%
%ADD20C,0.800000*%
%ADD21C,0.250000*%
G04 APERTURE END LIST*
D10*
X243100861Y-99546094D03*
X248913324Y-95942016D03*
X223513191Y-98163939D03*
X229325654Y-94559861D03*
X185991859Y-104779963D03*
X191804322Y-101175885D03*
X168058195Y-112778141D03*
X173870658Y-109174063D03*
X203925522Y-96781784D03*
X209737985Y-93177706D03*
X220205180Y-79403273D03*
X226017643Y-75799195D03*
X239792849Y-80785428D03*
X245605312Y-77181350D03*
X179375835Y-67258630D03*
X185188298Y-63654552D03*
X182683847Y-86019296D03*
X188496310Y-82415218D03*
X164750183Y-94017475D03*
X170562646Y-90413397D03*
X200617510Y-78021118D03*
X206429973Y-74417040D03*
X236484839Y-62024761D03*
X242297302Y-58420683D03*
X197309499Y-59260452D03*
X203121962Y-55656374D03*
X216897168Y-60642606D03*
X222709631Y-57038528D03*
X161442172Y-75256808D03*
X167254635Y-71652730D03*
D11*
X243384771Y-93612235D03*
D12*
G36*
X242000212Y-94110227D02*
G01*
X241913388Y-93617823D01*
X244769330Y-93114243D01*
X244856154Y-93606647D01*
X242000212Y-94110227D01*
X242000212Y-94110227D01*
G37*
D13*
X244468059Y-93421222D03*
D12*
G36*
X243784402Y-94151025D02*
G01*
X243576024Y-92969256D01*
X245151716Y-92691419D01*
X245360094Y-93873188D01*
X243784402Y-94151025D01*
X243784402Y-94151025D01*
G37*
D13*
X247225521Y-92935008D03*
D12*
G36*
X246541864Y-93664811D02*
G01*
X246333486Y-92483042D01*
X247909178Y-92205205D01*
X248117556Y-93386974D01*
X246541864Y-93664811D01*
X246541864Y-93664811D01*
G37*
D11*
X248308809Y-92743995D03*
D12*
G36*
X246924250Y-93241987D02*
G01*
X246837426Y-92749583D01*
X249693368Y-92246003D01*
X249780192Y-92738407D01*
X246924250Y-93241987D01*
X246924250Y-93241987D01*
G37*
D14*
X242006040Y-93855343D03*
X249687540Y-92500887D03*
D12*
G36*
X249038612Y-93427652D02*
G01*
X248760775Y-91851959D01*
X250336468Y-91574122D01*
X250614305Y-93149815D01*
X249038612Y-93427652D01*
X249038612Y-93427652D01*
G37*
D11*
X194650702Y-83949834D03*
D12*
G36*
X194152710Y-82565275D02*
G01*
X194645114Y-82478451D01*
X195148694Y-85334393D01*
X194656290Y-85421217D01*
X194152710Y-82565275D01*
X194152710Y-82565275D01*
G37*
D13*
X194841715Y-85033122D03*
D12*
G36*
X194111912Y-84349465D02*
G01*
X195293681Y-84141087D01*
X195571518Y-85716779D01*
X194389749Y-85925157D01*
X194111912Y-84349465D01*
X194111912Y-84349465D01*
G37*
D13*
X195327929Y-87790584D03*
D12*
G36*
X194598126Y-87106927D02*
G01*
X195779895Y-86898549D01*
X196057732Y-88474241D01*
X194875963Y-88682619D01*
X194598126Y-87106927D01*
X194598126Y-87106927D01*
G37*
D11*
X195518942Y-88873872D03*
D12*
G36*
X195020950Y-87489313D02*
G01*
X195513354Y-87402489D01*
X196016934Y-90258431D01*
X195524530Y-90345255D01*
X195020950Y-87489313D01*
X195020950Y-87489313D01*
G37*
D14*
X194407594Y-82571103D03*
X195762050Y-90252603D03*
D12*
G36*
X194835285Y-89603675D02*
G01*
X196410978Y-89325838D01*
X196688815Y-90901531D01*
X195113122Y-91179368D01*
X194835285Y-89603675D01*
X194835285Y-89603675D01*
G37*
D11*
X179818300Y-109536137D03*
D12*
G36*
X179320308Y-108151578D02*
G01*
X179812712Y-108064754D01*
X180316292Y-110920696D01*
X179823888Y-111007520D01*
X179320308Y-108151578D01*
X179320308Y-108151578D01*
G37*
D13*
X180009313Y-110619425D03*
D12*
G36*
X179279510Y-109935768D02*
G01*
X180461279Y-109727390D01*
X180739116Y-111303082D01*
X179557347Y-111511460D01*
X179279510Y-109935768D01*
X179279510Y-109935768D01*
G37*
D13*
X180495527Y-113376887D03*
D12*
G36*
X179765724Y-112693230D02*
G01*
X180947493Y-112484852D01*
X181225330Y-114060544D01*
X180043561Y-114268922D01*
X179765724Y-112693230D01*
X179765724Y-112693230D01*
G37*
D11*
X180686540Y-114460175D03*
D12*
G36*
X180188548Y-113075616D02*
G01*
X180680952Y-112988792D01*
X181184532Y-115844734D01*
X180692128Y-115931558D01*
X180188548Y-113075616D01*
X180188548Y-113075616D01*
G37*
D14*
X179575192Y-108157406D03*
X180929648Y-115838906D03*
D12*
G36*
X180002883Y-115189978D02*
G01*
X181578576Y-114912141D01*
X181856413Y-116487834D01*
X180280720Y-116765671D01*
X180002883Y-115189978D01*
X180002883Y-115189978D01*
G37*
D11*
X232172035Y-77333811D03*
D12*
G36*
X231674043Y-75949252D02*
G01*
X232166447Y-75862428D01*
X232670027Y-78718370D01*
X232177623Y-78805194D01*
X231674043Y-75949252D01*
X231674043Y-75949252D01*
G37*
D13*
X232363048Y-78417099D03*
D12*
G36*
X231633245Y-77733442D02*
G01*
X232815014Y-77525064D01*
X233092851Y-79100756D01*
X231911082Y-79309134D01*
X231633245Y-77733442D01*
X231633245Y-77733442D01*
G37*
D13*
X232849262Y-81174561D03*
D12*
G36*
X232119459Y-80490904D02*
G01*
X233301228Y-80282526D01*
X233579065Y-81858218D01*
X232397296Y-82066596D01*
X232119459Y-80490904D01*
X232119459Y-80490904D01*
G37*
D11*
X233040275Y-82257849D03*
D12*
G36*
X232542283Y-80873290D02*
G01*
X233034687Y-80786466D01*
X233538267Y-83642408D01*
X233045863Y-83729232D01*
X232542283Y-80873290D01*
X232542283Y-80873290D01*
G37*
D14*
X231928927Y-75955080D03*
X233283383Y-83636580D03*
D12*
G36*
X232356618Y-82987652D02*
G01*
X233932311Y-82709815D01*
X234210148Y-84285508D01*
X232634455Y-84563345D01*
X232356618Y-82987652D01*
X232356618Y-82987652D01*
G37*
D11*
X215892378Y-94712322D03*
D12*
G36*
X215394386Y-93327763D02*
G01*
X215886790Y-93240939D01*
X216390370Y-96096881D01*
X215897966Y-96183705D01*
X215394386Y-93327763D01*
X215394386Y-93327763D01*
G37*
D13*
X216083391Y-95795610D03*
D12*
G36*
X215353588Y-95111953D02*
G01*
X216535357Y-94903575D01*
X216813194Y-96479267D01*
X215631425Y-96687645D01*
X215353588Y-95111953D01*
X215353588Y-95111953D01*
G37*
D13*
X216569605Y-98553072D03*
D12*
G36*
X215839802Y-97869415D02*
G01*
X217021571Y-97661037D01*
X217299408Y-99236729D01*
X216117639Y-99445107D01*
X215839802Y-97869415D01*
X215839802Y-97869415D01*
G37*
D11*
X216760618Y-99636360D03*
D12*
G36*
X216262626Y-98251801D02*
G01*
X216755030Y-98164977D01*
X217258610Y-101020919D01*
X216766206Y-101107743D01*
X216262626Y-98251801D01*
X216262626Y-98251801D01*
G37*
D14*
X215649270Y-93333591D03*
X217003726Y-101015091D03*
D12*
G36*
X216076961Y-100366163D02*
G01*
X217652654Y-100088326D01*
X217930491Y-101664019D01*
X216354798Y-101941856D01*
X216076961Y-100366163D01*
X216076961Y-100366163D01*
G37*
D11*
X242971269Y-91267151D03*
D12*
G36*
X241586710Y-91765143D02*
G01*
X241499886Y-91272739D01*
X244355828Y-90769159D01*
X244442652Y-91261563D01*
X241586710Y-91765143D01*
X241586710Y-91765143D01*
G37*
D13*
X244054557Y-91076138D03*
D12*
G36*
X243370900Y-91805941D02*
G01*
X243162522Y-90624172D01*
X244738214Y-90346335D01*
X244946592Y-91528104D01*
X243370900Y-91805941D01*
X243370900Y-91805941D01*
G37*
D13*
X246812019Y-90589924D03*
D12*
G36*
X246128362Y-91319727D02*
G01*
X245919984Y-90137958D01*
X247495676Y-89860121D01*
X247704054Y-91041890D01*
X246128362Y-91319727D01*
X246128362Y-91319727D01*
G37*
D11*
X247895307Y-90398911D03*
D12*
G36*
X246510748Y-90896903D02*
G01*
X246423924Y-90404499D01*
X249279866Y-89900919D01*
X249366690Y-90393323D01*
X246510748Y-90896903D01*
X246510748Y-90896903D01*
G37*
D14*
X241592538Y-91510259D03*
X249274038Y-90155803D03*
D12*
G36*
X248625110Y-91082568D02*
G01*
X248347273Y-89506875D01*
X249922966Y-89229038D01*
X250200803Y-90804731D01*
X248625110Y-91082568D01*
X248625110Y-91082568D01*
G37*
D11*
X212584366Y-75951656D03*
D12*
G36*
X212086374Y-74567097D02*
G01*
X212578778Y-74480273D01*
X213082358Y-77336215D01*
X212589954Y-77423039D01*
X212086374Y-74567097D01*
X212086374Y-74567097D01*
G37*
D13*
X212775379Y-77034944D03*
D12*
G36*
X212045576Y-76351287D02*
G01*
X213227345Y-76142909D01*
X213505182Y-77718601D01*
X212323413Y-77926979D01*
X212045576Y-76351287D01*
X212045576Y-76351287D01*
G37*
D13*
X213261593Y-79792406D03*
D12*
G36*
X212531790Y-79108749D02*
G01*
X213713559Y-78900371D01*
X213991396Y-80476063D01*
X212809627Y-80684441D01*
X212531790Y-79108749D01*
X212531790Y-79108749D01*
G37*
D11*
X213452606Y-80875694D03*
D12*
G36*
X212954614Y-79491135D02*
G01*
X213447018Y-79404311D01*
X213950598Y-82260253D01*
X213458194Y-82347077D01*
X212954614Y-79491135D01*
X212954614Y-79491135D01*
G37*
D14*
X212341258Y-74572925D03*
X213695714Y-82254425D03*
D12*
G36*
X212768949Y-81605497D02*
G01*
X214344642Y-81327660D01*
X214622479Y-82903353D01*
X213046786Y-83181190D01*
X212768949Y-81605497D01*
X212768949Y-81605497D01*
G37*
D11*
X235480047Y-96094477D03*
D12*
G36*
X234982055Y-94709918D02*
G01*
X235474459Y-94623094D01*
X235978039Y-97479036D01*
X235485635Y-97565860D01*
X234982055Y-94709918D01*
X234982055Y-94709918D01*
G37*
D13*
X235671060Y-97177765D03*
D12*
G36*
X234941257Y-96494108D02*
G01*
X236123026Y-96285730D01*
X236400863Y-97861422D01*
X235219094Y-98069800D01*
X234941257Y-96494108D01*
X234941257Y-96494108D01*
G37*
D13*
X236157274Y-99935227D03*
D12*
G36*
X235427471Y-99251570D02*
G01*
X236609240Y-99043192D01*
X236887077Y-100618884D01*
X235705308Y-100827262D01*
X235427471Y-99251570D01*
X235427471Y-99251570D01*
G37*
D11*
X236348287Y-101018515D03*
D12*
G36*
X235850295Y-99633956D02*
G01*
X236342699Y-99547132D01*
X236846279Y-102403074D01*
X236353875Y-102489898D01*
X235850295Y-99633956D01*
X235850295Y-99633956D01*
G37*
D14*
X235236939Y-94715746D03*
X236591395Y-102397246D03*
D12*
G36*
X235664630Y-101748318D02*
G01*
X237240323Y-101470481D01*
X237518160Y-103046174D01*
X235942467Y-103324011D01*
X235664630Y-101748318D01*
X235664630Y-101748318D01*
G37*
D11*
X197751963Y-101537959D03*
D12*
G36*
X197253971Y-100153400D02*
G01*
X197746375Y-100066576D01*
X198249955Y-102922518D01*
X197757551Y-103009342D01*
X197253971Y-100153400D01*
X197253971Y-100153400D01*
G37*
D13*
X197942976Y-102621247D03*
D12*
G36*
X197213173Y-101937590D02*
G01*
X198394942Y-101729212D01*
X198672779Y-103304904D01*
X197491010Y-103513282D01*
X197213173Y-101937590D01*
X197213173Y-101937590D01*
G37*
D13*
X198429190Y-105378709D03*
D12*
G36*
X197699387Y-104695052D02*
G01*
X198881156Y-104486674D01*
X199158993Y-106062366D01*
X197977224Y-106270744D01*
X197699387Y-104695052D01*
X197699387Y-104695052D01*
G37*
D11*
X198620203Y-106461997D03*
D12*
G36*
X198122211Y-105077438D02*
G01*
X198614615Y-104990614D01*
X199118195Y-107846556D01*
X198625791Y-107933380D01*
X198122211Y-105077438D01*
X198122211Y-105077438D01*
G37*
D14*
X197508855Y-100159228D03*
X198863311Y-107840728D03*
D12*
G36*
X197936546Y-107191800D02*
G01*
X199512239Y-106913963D01*
X199790076Y-108489656D01*
X198214383Y-108767493D01*
X197936546Y-107191800D01*
X197936546Y-107191800D01*
G37*
D11*
X191342691Y-65189168D03*
D12*
G36*
X190844699Y-63804609D02*
G01*
X191337103Y-63717785D01*
X191840683Y-66573727D01*
X191348279Y-66660551D01*
X190844699Y-63804609D01*
X190844699Y-63804609D01*
G37*
D13*
X191533704Y-66272456D03*
D12*
G36*
X190803901Y-65588799D02*
G01*
X191985670Y-65380421D01*
X192263507Y-66956113D01*
X191081738Y-67164491D01*
X190803901Y-65588799D01*
X190803901Y-65588799D01*
G37*
D13*
X192019918Y-69029918D03*
D12*
G36*
X191290115Y-68346261D02*
G01*
X192471884Y-68137883D01*
X192749721Y-69713575D01*
X191567952Y-69921953D01*
X191290115Y-68346261D01*
X191290115Y-68346261D01*
G37*
D11*
X192210931Y-70113206D03*
D12*
G36*
X191712939Y-68728647D02*
G01*
X192205343Y-68641823D01*
X192708923Y-71497765D01*
X192216519Y-71584589D01*
X191712939Y-68728647D01*
X191712939Y-68728647D01*
G37*
D14*
X191099583Y-63810437D03*
X192454039Y-71491937D03*
D12*
G36*
X191527274Y-70843009D02*
G01*
X193102967Y-70565172D01*
X193380804Y-72140865D01*
X191805111Y-72418702D01*
X191527274Y-70843009D01*
X191527274Y-70843009D01*
G37*
D11*
X173409027Y-73187346D03*
D12*
G36*
X172911035Y-71802787D02*
G01*
X173403439Y-71715963D01*
X173907019Y-74571905D01*
X173414615Y-74658729D01*
X172911035Y-71802787D01*
X172911035Y-71802787D01*
G37*
D13*
X173600040Y-74270634D03*
D12*
G36*
X172870237Y-73586977D02*
G01*
X174052006Y-73378599D01*
X174329843Y-74954291D01*
X173148074Y-75162669D01*
X172870237Y-73586977D01*
X172870237Y-73586977D01*
G37*
D13*
X174086254Y-77028096D03*
D12*
G36*
X173356451Y-76344439D02*
G01*
X174538220Y-76136061D01*
X174816057Y-77711753D01*
X173634288Y-77920131D01*
X173356451Y-76344439D01*
X173356451Y-76344439D01*
G37*
D11*
X174277267Y-78111384D03*
D12*
G36*
X173779275Y-76726825D02*
G01*
X174271679Y-76640001D01*
X174775259Y-79495943D01*
X174282855Y-79582767D01*
X173779275Y-76726825D01*
X173779275Y-76726825D01*
G37*
D14*
X173165919Y-71808615D03*
X174520375Y-79490115D03*
D12*
G36*
X173593610Y-78841187D02*
G01*
X175169303Y-78563350D01*
X175447140Y-80139043D01*
X173871447Y-80416880D01*
X173593610Y-78841187D01*
X173593610Y-78841187D01*
G37*
D11*
X176717039Y-91948012D03*
D12*
G36*
X176219047Y-90563453D02*
G01*
X176711451Y-90476629D01*
X177215031Y-93332571D01*
X176722627Y-93419395D01*
X176219047Y-90563453D01*
X176219047Y-90563453D01*
G37*
D13*
X176908052Y-93031300D03*
D12*
G36*
X176178249Y-92347643D02*
G01*
X177360018Y-92139265D01*
X177637855Y-93714957D01*
X176456086Y-93923335D01*
X176178249Y-92347643D01*
X176178249Y-92347643D01*
G37*
D13*
X177394266Y-95788762D03*
D12*
G36*
X176664463Y-95105105D02*
G01*
X177846232Y-94896727D01*
X178124069Y-96472419D01*
X176942300Y-96680797D01*
X176664463Y-95105105D01*
X176664463Y-95105105D01*
G37*
D11*
X177585279Y-96872050D03*
D12*
G36*
X177087287Y-95487491D02*
G01*
X177579691Y-95400667D01*
X178083271Y-98256609D01*
X177590867Y-98343433D01*
X177087287Y-95487491D01*
X177087287Y-95487491D01*
G37*
D14*
X176473931Y-90569281D03*
X177828387Y-98250781D03*
D12*
G36*
X176901622Y-97601853D02*
G01*
X178477315Y-97324016D01*
X178755152Y-98899709D01*
X177179459Y-99177546D01*
X176901622Y-97601853D01*
X176901622Y-97601853D01*
G37*
D11*
X228864024Y-58573144D03*
D12*
G36*
X228366032Y-57188585D02*
G01*
X228858436Y-57101761D01*
X229362016Y-59957703D01*
X228869612Y-60044527D01*
X228366032Y-57188585D01*
X228366032Y-57188585D01*
G37*
D13*
X229055037Y-59656432D03*
D12*
G36*
X228325234Y-58972775D02*
G01*
X229507003Y-58764397D01*
X229784840Y-60340089D01*
X228603071Y-60548467D01*
X228325234Y-58972775D01*
X228325234Y-58972775D01*
G37*
D13*
X229541251Y-62413894D03*
D12*
G36*
X228811448Y-61730237D02*
G01*
X229993217Y-61521859D01*
X230271054Y-63097551D01*
X229089285Y-63305929D01*
X228811448Y-61730237D01*
X228811448Y-61730237D01*
G37*
D11*
X229732264Y-63497182D03*
D12*
G36*
X229234272Y-62112623D02*
G01*
X229726676Y-62025799D01*
X230230256Y-64881741D01*
X229737852Y-64968565D01*
X229234272Y-62112623D01*
X229234272Y-62112623D01*
G37*
D14*
X228620916Y-57194413D03*
X229975372Y-64875913D03*
D12*
G36*
X229048607Y-64226985D02*
G01*
X230624300Y-63949148D01*
X230902137Y-65524841D01*
X229326444Y-65802678D01*
X229048607Y-64226985D01*
X229048607Y-64226985D01*
G37*
D11*
X239663258Y-72506485D03*
D12*
G36*
X238278699Y-73004477D02*
G01*
X238191875Y-72512073D01*
X241047817Y-72008493D01*
X241134641Y-72500897D01*
X238278699Y-73004477D01*
X238278699Y-73004477D01*
G37*
D13*
X240746546Y-72315472D03*
D12*
G36*
X240062889Y-73045275D02*
G01*
X239854511Y-71863506D01*
X241430203Y-71585669D01*
X241638581Y-72767438D01*
X240062889Y-73045275D01*
X240062889Y-73045275D01*
G37*
D13*
X243504008Y-71829258D03*
D12*
G36*
X242820351Y-72559061D02*
G01*
X242611973Y-71377292D01*
X244187665Y-71099455D01*
X244396043Y-72281224D01*
X242820351Y-72559061D01*
X242820351Y-72559061D01*
G37*
D11*
X244587296Y-71638245D03*
D12*
G36*
X243202737Y-72136237D02*
G01*
X243115913Y-71643833D01*
X245971855Y-71140253D01*
X246058679Y-71632657D01*
X243202737Y-72136237D01*
X243202737Y-72136237D01*
G37*
D14*
X238284527Y-72749593D03*
X245966027Y-71395137D03*
D12*
G36*
X245317099Y-72321902D02*
G01*
X245039262Y-70746209D01*
X246614955Y-70468372D01*
X246892792Y-72044065D01*
X245317099Y-72321902D01*
X245317099Y-72321902D01*
G37*
D11*
X209276354Y-57190989D03*
D12*
G36*
X208778362Y-55806430D02*
G01*
X209270766Y-55719606D01*
X209774346Y-58575548D01*
X209281942Y-58662372D01*
X208778362Y-55806430D01*
X208778362Y-55806430D01*
G37*
D13*
X209467367Y-58274277D03*
D12*
G36*
X208737564Y-57590620D02*
G01*
X209919333Y-57382242D01*
X210197170Y-58957934D01*
X209015401Y-59166312D01*
X208737564Y-57590620D01*
X208737564Y-57590620D01*
G37*
D13*
X209953581Y-61031739D03*
D12*
G36*
X209223778Y-60348082D02*
G01*
X210405547Y-60139704D01*
X210683384Y-61715396D01*
X209501615Y-61923774D01*
X209223778Y-60348082D01*
X209223778Y-60348082D01*
G37*
D11*
X210144594Y-62115027D03*
D12*
G36*
X209646602Y-60730468D02*
G01*
X210139006Y-60643644D01*
X210642586Y-63499586D01*
X210150182Y-63586410D01*
X209646602Y-60730468D01*
X209646602Y-60730468D01*
G37*
D14*
X209033246Y-55812258D03*
X210387702Y-63493758D03*
D12*
G36*
X209460937Y-62844830D02*
G01*
X211036630Y-62566993D01*
X211314467Y-64142686D01*
X209738774Y-64420523D01*
X209460937Y-62844830D01*
X209460937Y-62844830D01*
G37*
D10*
X120191378Y-91295531D03*
X113496783Y-92694277D03*
D15*
X150495600Y-74136620D03*
X135255600Y-102076620D03*
X150495600Y-76676620D03*
X150495600Y-79216620D03*
X150495600Y-81756620D03*
X150495600Y-84296620D03*
X150495600Y-86836620D03*
X150495600Y-89376620D03*
X150495600Y-91916620D03*
X150495600Y-94456620D03*
X150495600Y-96996620D03*
X150495600Y-99536620D03*
X150495600Y-102076620D03*
X135255600Y-99536620D03*
X135255600Y-96996620D03*
X135255600Y-94456620D03*
X135255600Y-91916620D03*
X135255600Y-89376620D03*
X135255600Y-86836620D03*
X135255600Y-84296620D03*
X135255600Y-81756620D03*
X135255600Y-79216620D03*
X135255600Y-76676620D03*
D16*
X135255600Y-74136620D03*
D10*
X145415600Y-112792370D03*
X139065600Y-115332370D03*
X116883365Y-110056196D03*
X110188770Y-111454942D03*
X98949703Y-102058018D03*
X92255108Y-103456764D03*
X81016038Y-94059838D03*
X74321443Y-95458584D03*
X61428369Y-95441994D03*
X54733774Y-96840740D03*
X41840699Y-96824149D03*
X35146104Y-98222895D03*
X102257713Y-83297351D03*
X95563118Y-84696097D03*
X84324050Y-75299173D03*
X77629455Y-76697919D03*
X64736380Y-76681328D03*
X58041785Y-78080074D03*
X45148711Y-78063484D03*
X38454116Y-79462230D03*
X123499388Y-72534863D03*
X116804793Y-73933609D03*
X105565725Y-64536685D03*
X98871130Y-65935431D03*
X87632061Y-56538507D03*
X80937466Y-57937253D03*
X68044392Y-57920661D03*
X61349797Y-59319407D03*
X48456721Y-59302816D03*
X41762126Y-60701562D03*
D17*
X151210010Y-120581740D03*
D14*
X151210010Y-112781740D03*
D18*
X151210010Y-119181740D03*
D19*
X151210010Y-118081740D03*
X151210010Y-115281740D03*
D18*
X151210010Y-114181740D03*
D14*
X121030386Y-119905958D03*
D12*
G36*
X120381458Y-118979193D02*
G01*
X121957151Y-119257030D01*
X121679314Y-120832723D01*
X120103621Y-120554886D01*
X120381458Y-118979193D01*
X120381458Y-118979193D01*
G37*
D14*
X122384842Y-112224458D03*
D11*
X121273494Y-118527227D03*
D12*
G36*
X121279082Y-117055844D02*
G01*
X121771486Y-117142668D01*
X121267906Y-119998610D01*
X120775502Y-119911786D01*
X121279082Y-117055844D01*
X121279082Y-117055844D01*
G37*
D13*
X121464507Y-117443939D03*
D12*
G36*
X121012541Y-116551904D02*
G01*
X122194310Y-116760282D01*
X121916473Y-118335974D01*
X120734704Y-118127596D01*
X121012541Y-116551904D01*
X121012541Y-116551904D01*
G37*
D13*
X121950721Y-114686477D03*
D12*
G36*
X121498755Y-113794442D02*
G01*
X122680524Y-114002820D01*
X122402687Y-115578512D01*
X121220918Y-115370134D01*
X121498755Y-113794442D01*
X121498755Y-113794442D01*
G37*
D11*
X122141734Y-113603189D03*
D12*
G36*
X122147322Y-112131806D02*
G01*
X122639726Y-112218630D01*
X122136146Y-115074572D01*
X121643742Y-114987748D01*
X122147322Y-112131806D01*
X122147322Y-112131806D01*
G37*
D14*
X103096721Y-111907780D03*
D12*
G36*
X102447793Y-110981015D02*
G01*
X104023486Y-111258852D01*
X103745649Y-112834545D01*
X102169956Y-112556708D01*
X102447793Y-110981015D01*
X102447793Y-110981015D01*
G37*
D14*
X104451177Y-104226280D03*
D11*
X103339829Y-110529049D03*
D12*
G36*
X103345417Y-109057666D02*
G01*
X103837821Y-109144490D01*
X103334241Y-112000432D01*
X102841837Y-111913608D01*
X103345417Y-109057666D01*
X103345417Y-109057666D01*
G37*
D13*
X103530842Y-109445761D03*
D12*
G36*
X103078876Y-108553726D02*
G01*
X104260645Y-108762104D01*
X103982808Y-110337796D01*
X102801039Y-110129418D01*
X103078876Y-108553726D01*
X103078876Y-108553726D01*
G37*
D13*
X104017056Y-106688299D03*
D12*
G36*
X103565090Y-105796264D02*
G01*
X104746859Y-106004642D01*
X104469022Y-107580334D01*
X103287253Y-107371956D01*
X103565090Y-105796264D01*
X103565090Y-105796264D01*
G37*
D11*
X104208069Y-105605011D03*
D12*
G36*
X104213657Y-104133628D02*
G01*
X104706061Y-104220452D01*
X104202481Y-107076394D01*
X103710077Y-106989570D01*
X104213657Y-104133628D01*
X104213657Y-104133628D01*
G37*
D14*
X85163057Y-103909602D03*
D12*
G36*
X84514129Y-102982837D02*
G01*
X86089822Y-103260674D01*
X85811985Y-104836367D01*
X84236292Y-104558530D01*
X84514129Y-102982837D01*
X84514129Y-102982837D01*
G37*
D14*
X86517513Y-96228102D03*
D11*
X85406165Y-102530871D03*
D12*
G36*
X85411753Y-101059488D02*
G01*
X85904157Y-101146312D01*
X85400577Y-104002254D01*
X84908173Y-103915430D01*
X85411753Y-101059488D01*
X85411753Y-101059488D01*
G37*
D13*
X85597178Y-101447583D03*
D12*
G36*
X85145212Y-100555548D02*
G01*
X86326981Y-100763926D01*
X86049144Y-102339618D01*
X84867375Y-102131240D01*
X85145212Y-100555548D01*
X85145212Y-100555548D01*
G37*
D13*
X86083392Y-98690121D03*
D12*
G36*
X85631426Y-97798086D02*
G01*
X86813195Y-98006464D01*
X86535358Y-99582156D01*
X85353589Y-99373778D01*
X85631426Y-97798086D01*
X85631426Y-97798086D01*
G37*
D11*
X86274405Y-97606833D03*
D12*
G36*
X86279993Y-96135450D02*
G01*
X86772397Y-96222274D01*
X86268817Y-99078216D01*
X85776413Y-98991392D01*
X86279993Y-96135450D01*
X86279993Y-96135450D01*
G37*
D14*
X65782139Y-104119215D03*
D12*
G36*
X65133211Y-103192450D02*
G01*
X66708904Y-103470287D01*
X66431067Y-105045980D01*
X64855374Y-104768143D01*
X65133211Y-103192450D01*
X65133211Y-103192450D01*
G37*
D14*
X67136595Y-96437715D03*
D11*
X66025247Y-102740484D03*
D12*
G36*
X66030835Y-101269101D02*
G01*
X66523239Y-101355925D01*
X66019659Y-104211867D01*
X65527255Y-104125043D01*
X66030835Y-101269101D01*
X66030835Y-101269101D01*
G37*
D13*
X66216260Y-101657196D03*
D12*
G36*
X65764294Y-100765161D02*
G01*
X66946063Y-100973539D01*
X66668226Y-102549231D01*
X65486457Y-102340853D01*
X65764294Y-100765161D01*
X65764294Y-100765161D01*
G37*
D13*
X66702474Y-98899734D03*
D12*
G36*
X66250508Y-98007699D02*
G01*
X67432277Y-98216077D01*
X67154440Y-99791769D01*
X65972671Y-99583391D01*
X66250508Y-98007699D01*
X66250508Y-98007699D01*
G37*
D11*
X66893487Y-97816446D03*
D12*
G36*
X66899075Y-96345063D02*
G01*
X67391479Y-96431887D01*
X66887899Y-99287829D01*
X66395495Y-99201005D01*
X66899075Y-96345063D01*
X66899075Y-96345063D01*
G37*
D14*
X46194469Y-105501370D03*
D12*
G36*
X45545541Y-104574605D02*
G01*
X47121234Y-104852442D01*
X46843397Y-106428135D01*
X45267704Y-106150298D01*
X45545541Y-104574605D01*
X45545541Y-104574605D01*
G37*
D14*
X47548925Y-97819870D03*
D11*
X46437577Y-104122639D03*
D12*
G36*
X46443165Y-102651256D02*
G01*
X46935569Y-102738080D01*
X46431989Y-105594022D01*
X45939585Y-105507198D01*
X46443165Y-102651256D01*
X46443165Y-102651256D01*
G37*
D13*
X46628590Y-103039351D03*
D12*
G36*
X46176624Y-102147316D02*
G01*
X47358393Y-102355694D01*
X47080556Y-103931386D01*
X45898787Y-103723008D01*
X46176624Y-102147316D01*
X46176624Y-102147316D01*
G37*
D13*
X47114804Y-100281889D03*
D12*
G36*
X46662838Y-99389854D02*
G01*
X47844607Y-99598232D01*
X47566770Y-101173924D01*
X46385001Y-100965546D01*
X46662838Y-99389854D01*
X46662838Y-99389854D01*
G37*
D11*
X47305817Y-99198601D03*
D12*
G36*
X47311405Y-97727218D02*
G01*
X47803809Y-97814042D01*
X47300229Y-100669984D01*
X46807825Y-100583160D01*
X47311405Y-97727218D01*
X47311405Y-97727218D01*
G37*
D14*
X124338396Y-101145292D03*
D12*
G36*
X123689468Y-100218527D02*
G01*
X125265161Y-100496364D01*
X124987324Y-102072057D01*
X123411631Y-101794220D01*
X123689468Y-100218527D01*
X123689468Y-100218527D01*
G37*
D14*
X125692852Y-93463792D03*
D11*
X124581504Y-99766561D03*
D12*
G36*
X124587092Y-98295178D02*
G01*
X125079496Y-98382002D01*
X124575916Y-101237944D01*
X124083512Y-101151120D01*
X124587092Y-98295178D01*
X124587092Y-98295178D01*
G37*
D13*
X124772517Y-98683273D03*
D12*
G36*
X124320551Y-97791238D02*
G01*
X125502320Y-97999616D01*
X125224483Y-99575308D01*
X124042714Y-99366930D01*
X124320551Y-97791238D01*
X124320551Y-97791238D01*
G37*
D13*
X125258731Y-95925811D03*
D12*
G36*
X124806765Y-95033776D02*
G01*
X125988534Y-95242154D01*
X125710697Y-96817846D01*
X124528928Y-96609468D01*
X124806765Y-95033776D01*
X124806765Y-95033776D01*
G37*
D11*
X125449744Y-94842523D03*
D12*
G36*
X125455332Y-93371140D02*
G01*
X125947736Y-93457964D01*
X125444156Y-96313906D01*
X124951752Y-96227082D01*
X125455332Y-93371140D01*
X125455332Y-93371140D01*
G37*
D14*
X106404733Y-93147113D03*
D12*
G36*
X105755805Y-92220348D02*
G01*
X107331498Y-92498185D01*
X107053661Y-94073878D01*
X105477968Y-93796041D01*
X105755805Y-92220348D01*
X105755805Y-92220348D01*
G37*
D14*
X107759189Y-85465613D03*
D11*
X106647841Y-91768382D03*
D12*
G36*
X106653429Y-90296999D02*
G01*
X107145833Y-90383823D01*
X106642253Y-93239765D01*
X106149849Y-93152941D01*
X106653429Y-90296999D01*
X106653429Y-90296999D01*
G37*
D13*
X106838854Y-90685094D03*
D12*
G36*
X106386888Y-89793059D02*
G01*
X107568657Y-90001437D01*
X107290820Y-91577129D01*
X106109051Y-91368751D01*
X106386888Y-89793059D01*
X106386888Y-89793059D01*
G37*
D13*
X107325068Y-87927632D03*
D12*
G36*
X106873102Y-87035597D02*
G01*
X108054871Y-87243975D01*
X107777034Y-88819667D01*
X106595265Y-88611289D01*
X106873102Y-87035597D01*
X106873102Y-87035597D01*
G37*
D11*
X107516081Y-86844344D03*
D12*
G36*
X107521669Y-85372961D02*
G01*
X108014073Y-85459785D01*
X107510493Y-88315727D01*
X107018089Y-88228903D01*
X107521669Y-85372961D01*
X107521669Y-85372961D01*
G37*
D14*
X88471069Y-85148935D03*
D12*
G36*
X87822141Y-84222170D02*
G01*
X89397834Y-84500007D01*
X89119997Y-86075700D01*
X87544304Y-85797863D01*
X87822141Y-84222170D01*
X87822141Y-84222170D01*
G37*
D14*
X89825525Y-77467435D03*
D11*
X88714177Y-83770204D03*
D12*
G36*
X88719765Y-82298821D02*
G01*
X89212169Y-82385645D01*
X88708589Y-85241587D01*
X88216185Y-85154763D01*
X88719765Y-82298821D01*
X88719765Y-82298821D01*
G37*
D13*
X88905190Y-82686916D03*
D12*
G36*
X88453224Y-81794881D02*
G01*
X89634993Y-82003259D01*
X89357156Y-83578951D01*
X88175387Y-83370573D01*
X88453224Y-81794881D01*
X88453224Y-81794881D01*
G37*
D13*
X89391404Y-79929454D03*
D12*
G36*
X88939438Y-79037419D02*
G01*
X90121207Y-79245797D01*
X89843370Y-80821489D01*
X88661601Y-80613111D01*
X88939438Y-79037419D01*
X88939438Y-79037419D01*
G37*
D11*
X89582417Y-78846166D03*
D12*
G36*
X89588005Y-77374783D02*
G01*
X90080409Y-77461607D01*
X89576829Y-80317549D01*
X89084425Y-80230725D01*
X89588005Y-77374783D01*
X89588005Y-77374783D01*
G37*
D14*
X68883400Y-86531090D03*
D12*
G36*
X68234472Y-85604325D02*
G01*
X69810165Y-85882162D01*
X69532328Y-87457855D01*
X67956635Y-87180018D01*
X68234472Y-85604325D01*
X68234472Y-85604325D01*
G37*
D14*
X70237856Y-78849590D03*
D11*
X69126508Y-85152359D03*
D12*
G36*
X69132096Y-83680976D02*
G01*
X69624500Y-83767800D01*
X69120920Y-86623742D01*
X68628516Y-86536918D01*
X69132096Y-83680976D01*
X69132096Y-83680976D01*
G37*
D13*
X69317521Y-84069071D03*
D12*
G36*
X68865555Y-83177036D02*
G01*
X70047324Y-83385414D01*
X69769487Y-84961106D01*
X68587718Y-84752728D01*
X68865555Y-83177036D01*
X68865555Y-83177036D01*
G37*
D13*
X69803735Y-81311609D03*
D12*
G36*
X69351769Y-80419574D02*
G01*
X70533538Y-80627952D01*
X70255701Y-82203644D01*
X69073932Y-81995266D01*
X69351769Y-80419574D01*
X69351769Y-80419574D01*
G37*
D11*
X69994748Y-80228321D03*
D12*
G36*
X70000336Y-78756938D02*
G01*
X70492740Y-78843762D01*
X69989160Y-81699704D01*
X69496756Y-81612880D01*
X70000336Y-78756938D01*
X70000336Y-78756938D01*
G37*
D14*
X49295730Y-87913246D03*
D12*
G36*
X48646802Y-86986481D02*
G01*
X50222495Y-87264318D01*
X49944658Y-88840011D01*
X48368965Y-88562174D01*
X48646802Y-86986481D01*
X48646802Y-86986481D01*
G37*
D14*
X50650186Y-80231746D03*
D11*
X49538838Y-86534515D03*
D12*
G36*
X49544426Y-85063132D02*
G01*
X50036830Y-85149956D01*
X49533250Y-88005898D01*
X49040846Y-87919074D01*
X49544426Y-85063132D01*
X49544426Y-85063132D01*
G37*
D13*
X49729851Y-85451227D03*
D12*
G36*
X49277885Y-84559192D02*
G01*
X50459654Y-84767570D01*
X50181817Y-86343262D01*
X49000048Y-86134884D01*
X49277885Y-84559192D01*
X49277885Y-84559192D01*
G37*
D13*
X50216065Y-82693765D03*
D12*
G36*
X49764099Y-81801730D02*
G01*
X50945868Y-82010108D01*
X50668031Y-83585800D01*
X49486262Y-83377422D01*
X49764099Y-81801730D01*
X49764099Y-81801730D01*
G37*
D11*
X50407078Y-81610477D03*
D12*
G36*
X50412666Y-80139094D02*
G01*
X50905070Y-80225918D01*
X50401490Y-83081860D01*
X49909086Y-82995036D01*
X50412666Y-80139094D01*
X50412666Y-80139094D01*
G37*
D14*
X127646408Y-82384625D03*
D12*
G36*
X126997480Y-81457860D02*
G01*
X128573173Y-81735697D01*
X128295336Y-83311390D01*
X126719643Y-83033553D01*
X126997480Y-81457860D01*
X126997480Y-81457860D01*
G37*
D14*
X129000864Y-74703125D03*
D11*
X127889516Y-81005894D03*
D12*
G36*
X127895104Y-79534511D02*
G01*
X128387508Y-79621335D01*
X127883928Y-82477277D01*
X127391524Y-82390453D01*
X127895104Y-79534511D01*
X127895104Y-79534511D01*
G37*
D13*
X128080529Y-79922606D03*
D12*
G36*
X127628563Y-79030571D02*
G01*
X128810332Y-79238949D01*
X128532495Y-80814641D01*
X127350726Y-80606263D01*
X127628563Y-79030571D01*
X127628563Y-79030571D01*
G37*
D13*
X128566743Y-77165144D03*
D12*
G36*
X128114777Y-76273109D02*
G01*
X129296546Y-76481487D01*
X129018709Y-78057179D01*
X127836940Y-77848801D01*
X128114777Y-76273109D01*
X128114777Y-76273109D01*
G37*
D11*
X128757756Y-76081856D03*
D12*
G36*
X128763344Y-74610473D02*
G01*
X129255748Y-74697297D01*
X128752168Y-77553239D01*
X128259764Y-77466415D01*
X128763344Y-74610473D01*
X128763344Y-74610473D01*
G37*
D14*
X109712743Y-74386447D03*
D12*
G36*
X109063815Y-73459682D02*
G01*
X110639508Y-73737519D01*
X110361671Y-75313212D01*
X108785978Y-75035375D01*
X109063815Y-73459682D01*
X109063815Y-73459682D01*
G37*
D14*
X111067199Y-66704947D03*
D11*
X109955851Y-73007716D03*
D12*
G36*
X109961439Y-71536333D02*
G01*
X110453843Y-71623157D01*
X109950263Y-74479099D01*
X109457859Y-74392275D01*
X109961439Y-71536333D01*
X109961439Y-71536333D01*
G37*
D13*
X110146864Y-71924428D03*
D12*
G36*
X109694898Y-71032393D02*
G01*
X110876667Y-71240771D01*
X110598830Y-72816463D01*
X109417061Y-72608085D01*
X109694898Y-71032393D01*
X109694898Y-71032393D01*
G37*
D13*
X110633078Y-69166966D03*
D12*
G36*
X110181112Y-68274931D02*
G01*
X111362881Y-68483309D01*
X111085044Y-70059001D01*
X109903275Y-69850623D01*
X110181112Y-68274931D01*
X110181112Y-68274931D01*
G37*
D11*
X110824091Y-68083678D03*
D12*
G36*
X110829679Y-66612295D02*
G01*
X111322083Y-66699119D01*
X110818503Y-69555061D01*
X110326099Y-69468237D01*
X110829679Y-66612295D01*
X110829679Y-66612295D01*
G37*
D14*
X91779081Y-66388269D03*
D12*
G36*
X91130153Y-65461504D02*
G01*
X92705846Y-65739341D01*
X92428009Y-67315034D01*
X90852316Y-67037197D01*
X91130153Y-65461504D01*
X91130153Y-65461504D01*
G37*
D14*
X93133537Y-58706769D03*
D11*
X92022189Y-65009538D03*
D12*
G36*
X92027777Y-63538155D02*
G01*
X92520181Y-63624979D01*
X92016601Y-66480921D01*
X91524197Y-66394097D01*
X92027777Y-63538155D01*
X92027777Y-63538155D01*
G37*
D13*
X92213202Y-63926250D03*
D12*
G36*
X91761236Y-63034215D02*
G01*
X92943005Y-63242593D01*
X92665168Y-64818285D01*
X91483399Y-64609907D01*
X91761236Y-63034215D01*
X91761236Y-63034215D01*
G37*
D13*
X92699416Y-61168788D03*
D12*
G36*
X92247450Y-60276753D02*
G01*
X93429219Y-60485131D01*
X93151382Y-62060823D01*
X91969613Y-61852445D01*
X92247450Y-60276753D01*
X92247450Y-60276753D01*
G37*
D11*
X92890429Y-60085500D03*
D12*
G36*
X92896017Y-58614117D02*
G01*
X93388421Y-58700941D01*
X92884841Y-61556883D01*
X92392437Y-61470059D01*
X92896017Y-58614117D01*
X92896017Y-58614117D01*
G37*
D14*
X72191411Y-67770425D03*
D12*
G36*
X71542483Y-66843660D02*
G01*
X73118176Y-67121497D01*
X72840339Y-68697190D01*
X71264646Y-68419353D01*
X71542483Y-66843660D01*
X71542483Y-66843660D01*
G37*
D14*
X73545867Y-60088925D03*
D11*
X72434519Y-66391694D03*
D12*
G36*
X72440107Y-64920311D02*
G01*
X72932511Y-65007135D01*
X72428931Y-67863077D01*
X71936527Y-67776253D01*
X72440107Y-64920311D01*
X72440107Y-64920311D01*
G37*
D13*
X72625532Y-65308406D03*
D12*
G36*
X72173566Y-64416371D02*
G01*
X73355335Y-64624749D01*
X73077498Y-66200441D01*
X71895729Y-65992063D01*
X72173566Y-64416371D01*
X72173566Y-64416371D01*
G37*
D13*
X73111746Y-62550944D03*
D12*
G36*
X72659780Y-61658909D02*
G01*
X73841549Y-61867287D01*
X73563712Y-63442979D01*
X72381943Y-63234601D01*
X72659780Y-61658909D01*
X72659780Y-61658909D01*
G37*
D11*
X73302759Y-61467656D03*
D12*
G36*
X73308347Y-59996273D02*
G01*
X73800751Y-60083097D01*
X73297171Y-62939039D01*
X72804767Y-62852215D01*
X73308347Y-59996273D01*
X73308347Y-59996273D01*
G37*
D14*
X52603742Y-69152579D03*
D12*
G36*
X51954814Y-68225814D02*
G01*
X53530507Y-68503651D01*
X53252670Y-70079344D01*
X51676977Y-69801507D01*
X51954814Y-68225814D01*
X51954814Y-68225814D01*
G37*
D14*
X53958198Y-61471079D03*
D11*
X52846850Y-67773848D03*
D12*
G36*
X52852438Y-66302465D02*
G01*
X53344842Y-66389289D01*
X52841262Y-69245231D01*
X52348858Y-69158407D01*
X52852438Y-66302465D01*
X52852438Y-66302465D01*
G37*
D13*
X53037863Y-66690560D03*
D12*
G36*
X52585897Y-65798525D02*
G01*
X53767666Y-66006903D01*
X53489829Y-67582595D01*
X52308060Y-67374217D01*
X52585897Y-65798525D01*
X52585897Y-65798525D01*
G37*
D13*
X53524077Y-63933098D03*
D12*
G36*
X53072111Y-63041063D02*
G01*
X54253880Y-63249441D01*
X53976043Y-64825133D01*
X52794274Y-64616755D01*
X53072111Y-63041063D01*
X53072111Y-63041063D01*
G37*
D11*
X53715090Y-62849810D03*
D12*
G36*
X53720678Y-61378427D02*
G01*
X54213082Y-61465251D01*
X53709502Y-64321193D01*
X53217098Y-64234369D01*
X53720678Y-61378427D01*
X53720678Y-61378427D01*
G37*
D20*
X41762126Y-76154220D03*
X61349797Y-74772062D03*
X80937466Y-73389908D03*
X98871130Y-81388085D03*
X116804793Y-89386267D03*
X163000000Y-92267292D03*
X181000000Y-84335449D03*
X199000000Y-76403608D03*
X218022167Y-77220260D03*
X234100000Y-75092579D03*
D21*
X51789935Y-59302816D02*
X53958198Y-61471079D01*
X48456721Y-59302816D02*
X51789935Y-59302816D01*
X71377603Y-57920661D02*
X73545867Y-60088925D01*
X68044392Y-57920661D02*
X71377603Y-57920661D01*
X90965275Y-56538507D02*
X93133537Y-58706769D01*
X87632061Y-56538507D02*
X90965275Y-56538507D01*
X108898937Y-64536685D02*
X111067199Y-66704947D01*
X105565725Y-64536685D02*
X108898937Y-64536685D01*
X126832602Y-72534863D02*
X129000864Y-74703125D01*
X123499388Y-72534863D02*
X126832602Y-72534863D01*
X173010034Y-71652730D02*
X173165919Y-71808615D01*
X167254635Y-71652730D02*
X173010034Y-71652730D01*
X190943698Y-63654552D02*
X191099583Y-63810437D01*
X185188298Y-63654552D02*
X190943698Y-63654552D01*
X208877362Y-55656374D02*
X209033246Y-55812258D01*
X203121962Y-55656374D02*
X208877362Y-55656374D01*
X228465031Y-57038528D02*
X228620916Y-57194413D01*
X222709631Y-57038528D02*
X228465031Y-57038528D01*
X238100000Y-72565066D02*
X238284527Y-72749593D01*
X242297302Y-58420683D02*
X238100000Y-62617985D01*
X238100000Y-62617985D02*
X238100000Y-72565066D01*
X48481924Y-78063484D02*
X50650186Y-80231746D01*
X45148711Y-78063484D02*
X48481924Y-78063484D01*
X68069594Y-76681328D02*
X70237856Y-78849590D01*
X64736380Y-76681328D02*
X68069594Y-76681328D01*
X87657263Y-75299173D02*
X89825525Y-77467435D01*
X84324050Y-75299173D02*
X87657263Y-75299173D01*
X105590927Y-83297351D02*
X107759189Y-85465613D01*
X102257713Y-83297351D02*
X105590927Y-83297351D01*
X123524591Y-91295531D02*
X125692852Y-93463792D01*
X120191378Y-91295531D02*
X123524591Y-91295531D01*
X176318047Y-90413397D02*
X176473931Y-90569281D01*
X170562646Y-90413397D02*
X176318047Y-90413397D01*
X194251709Y-82415218D02*
X194407594Y-82571103D01*
X188496310Y-82415218D02*
X194251709Y-82415218D01*
X212185373Y-74417040D02*
X212341258Y-74572925D01*
X206429973Y-74417040D02*
X212185373Y-74417040D01*
X231773042Y-75799195D02*
X231928927Y-75955080D01*
X226017643Y-75799195D02*
X231773042Y-75799195D01*
X241500000Y-91417721D02*
X241592538Y-91510259D01*
X245605312Y-77181350D02*
X241500000Y-81286662D01*
X241500000Y-81286662D02*
X241500000Y-91417721D01*
X152500000Y-104081020D02*
X150495600Y-102076620D01*
X151210010Y-120581740D02*
X152500000Y-119291750D01*
X152500000Y-119291750D02*
X152500000Y-104081020D01*
X46553204Y-96824149D02*
X47548925Y-97819870D01*
X41840699Y-96824149D02*
X46553204Y-96824149D01*
X66140874Y-95441994D02*
X67136595Y-96437715D01*
X61428369Y-95441994D02*
X66140874Y-95441994D01*
X84349249Y-94059838D02*
X86517513Y-96228102D01*
X81016038Y-94059838D02*
X84349249Y-94059838D01*
X102282915Y-102058018D02*
X104451177Y-104226280D01*
X98949703Y-102058018D02*
X102282915Y-102058018D01*
X120216580Y-110056196D02*
X122384842Y-112224458D01*
X116883365Y-110056196D02*
X120216580Y-110056196D01*
X145426230Y-112781740D02*
X145415600Y-112792370D01*
X151210010Y-112781740D02*
X145426230Y-112781740D01*
X178558535Y-109174063D02*
X179575192Y-108157406D01*
X173870658Y-109174063D02*
X178558535Y-109174063D01*
X196492198Y-101175885D02*
X197508855Y-100159228D01*
X191804322Y-101175885D02*
X196492198Y-101175885D01*
X215493385Y-93177706D02*
X215649270Y-93333591D01*
X209737985Y-93177706D02*
X215493385Y-93177706D01*
X235081054Y-94559861D02*
X235236939Y-94715746D01*
X229325654Y-94559861D02*
X235081054Y-94559861D01*
X244092713Y-95942016D02*
X248913324Y-95942016D01*
X242006040Y-93855343D02*
X244092713Y-95942016D01*
X41762126Y-76154220D02*
X41762126Y-76154220D01*
X41762126Y-60701562D02*
X41762126Y-76154220D01*
X38454116Y-94914883D02*
X35146104Y-98222895D01*
X38454116Y-79462230D02*
X38454116Y-94914883D01*
X41762126Y-76154220D02*
X38454116Y-79462230D01*
X61349797Y-74772062D02*
X61349797Y-74772062D01*
X61349797Y-59319407D02*
X61349797Y-74772062D01*
X58041785Y-93532729D02*
X54733774Y-96840740D01*
X58041785Y-78080074D02*
X58041785Y-93532729D01*
X61349797Y-74772062D02*
X58041785Y-78080074D01*
X80937466Y-73389908D02*
X80937466Y-73389908D01*
X80937466Y-57937253D02*
X80937466Y-73389908D01*
X77629455Y-92150572D02*
X74321443Y-95458584D01*
X77629455Y-76697919D02*
X77629455Y-92150572D01*
X80937466Y-73389908D02*
X77629455Y-76697919D01*
X98871130Y-81388085D02*
X98871130Y-81388085D01*
X98871130Y-65935431D02*
X98871130Y-81388085D01*
X95563118Y-100148754D02*
X92255108Y-103456764D01*
X95563118Y-84696097D02*
X95563118Y-100148754D01*
X98871130Y-81388085D02*
X95563118Y-84696097D01*
X116804793Y-89386267D02*
X113496783Y-92694277D01*
X116804793Y-73933609D02*
X116804793Y-89386267D01*
X113496783Y-108146929D02*
X110188770Y-111454942D01*
X113496783Y-92694277D02*
X113496783Y-108146929D01*
X116804793Y-89386267D02*
X116804793Y-89386267D01*
X139065600Y-100806620D02*
X139065600Y-115332370D01*
X135255600Y-96996620D02*
X139065600Y-100806620D01*
X165875182Y-95142474D02*
X164750183Y-94017475D01*
X166000000Y-95267292D02*
X165875182Y-95142474D01*
X168058195Y-112778141D02*
X166000000Y-110719946D01*
X166000000Y-110719946D02*
X166000000Y-95267292D01*
X163000000Y-76814636D02*
X161442172Y-75256808D01*
X164750183Y-94017475D02*
X163000000Y-92267292D01*
X163000000Y-92267292D02*
X163000000Y-92267292D01*
X163000000Y-92267292D02*
X163000000Y-76814636D01*
X181000000Y-84335449D02*
X181000000Y-84335449D01*
X179375835Y-67258630D02*
X181000000Y-68882795D01*
X181000000Y-68882795D02*
X181000000Y-84335449D01*
X184000000Y-102788104D02*
X185991859Y-104779963D01*
X182683847Y-86019296D02*
X184000000Y-87335449D01*
X184000000Y-87335449D02*
X184000000Y-102788104D01*
X181000000Y-84335449D02*
X182683847Y-86019296D01*
X199000000Y-76403608D02*
X199000000Y-76403608D01*
X197309499Y-59260452D02*
X199000000Y-60950953D01*
X199000000Y-60950953D02*
X199000000Y-76403608D01*
X202000000Y-94856262D02*
X203925522Y-96781784D01*
X200617510Y-78021118D02*
X202000000Y-79403608D01*
X202000000Y-79403608D02*
X202000000Y-94856262D01*
X199000000Y-76403608D02*
X200617510Y-78021118D01*
X218022167Y-77220260D02*
X218022167Y-77220260D01*
X218022167Y-61767605D02*
X218022167Y-77220260D01*
X216897168Y-60642606D02*
X218022167Y-61767605D01*
X221000000Y-80198093D02*
X220205180Y-79403273D01*
X223513191Y-98163939D02*
X221000000Y-95650748D01*
X221000000Y-95650748D02*
X221000000Y-80198093D01*
X218022167Y-77220260D02*
X220205180Y-79403273D01*
X237500000Y-83078277D02*
X239792849Y-80785428D01*
X243100861Y-99546094D02*
X237500000Y-93945233D01*
X237500000Y-93945233D02*
X237500000Y-83078277D01*
X234100000Y-64409600D02*
X236484839Y-62024761D01*
X239792849Y-80785428D02*
X234100000Y-75092579D01*
X234100000Y-75092579D02*
X234100000Y-64409600D01*
X234100000Y-75092579D02*
X234100000Y-75092579D01*
M02*
