G04 #@! TF.GenerationSoftware,KiCad,Pcbnew,(5.1.4)-1*
G04 #@! TF.CreationDate,2020-12-12T14:35:36-07:00*
G04 #@! TF.ProjectId,CS30 Ergo,43533330-2045-4726-976f-2e6b69636164,rev?*
G04 #@! TF.SameCoordinates,Original*
G04 #@! TF.FileFunction,Legend,Bot*
G04 #@! TF.FilePolarity,Positive*
%FSLAX46Y46*%
G04 Gerber Fmt 4.6, Leading zero omitted, Abs format (unit mm)*
G04 Created by KiCad (PCBNEW (5.1.4)-1) date 2020-12-12 14:35:36*
%MOMM*%
%LPD*%
G04 APERTURE LIST*
%ADD10C,0.150000*%
%ADD11C,0.381000*%
G04 APERTURE END LIST*
D10*
X238437826Y-103543928D02*
X239938673Y-103279288D01*
X238459879Y-103668999D02*
X239960726Y-103404359D01*
X239982780Y-103529429D02*
X238481933Y-103794069D01*
X238548093Y-104169281D02*
X240048940Y-103904641D01*
X240026886Y-103779571D02*
X238526039Y-104044210D01*
X238503986Y-103919140D02*
X240004833Y-103654500D01*
X239188860Y-99026888D02*
X237688013Y-99291528D01*
X240070993Y-104029712D02*
X239188860Y-99026888D01*
X238570146Y-104294352D02*
X240070993Y-104029712D01*
X237688013Y-99291528D02*
X238570146Y-104294352D01*
X194643145Y-88295161D02*
X196143992Y-88030521D01*
X194665198Y-88420232D02*
X196166045Y-88155592D01*
X196188099Y-88280662D02*
X194687252Y-88545302D01*
X194753412Y-88920514D02*
X196254259Y-88655874D01*
X196232205Y-88530804D02*
X194731358Y-88795443D01*
X194709305Y-88670373D02*
X196210152Y-88405733D01*
X195394179Y-83778121D02*
X193893332Y-84042761D01*
X196276312Y-88780945D02*
X195394179Y-83778121D01*
X194775465Y-89045585D02*
X196276312Y-88780945D01*
X193893332Y-84042761D02*
X194775465Y-89045585D01*
X180017494Y-115054006D02*
X181518341Y-114789366D01*
X180039547Y-115179077D02*
X181540394Y-114914437D01*
X181562448Y-115039507D02*
X180061601Y-115304147D01*
X180127761Y-115679359D02*
X181628608Y-115414719D01*
X181606554Y-115289649D02*
X180105707Y-115554288D01*
X180083654Y-115429218D02*
X181584501Y-115164578D01*
X180768528Y-110536966D02*
X179267681Y-110801606D01*
X181650661Y-115539790D02*
X180768528Y-110536966D01*
X180149814Y-115804430D02*
X181650661Y-115539790D01*
X179267681Y-110801606D02*
X180149814Y-115804430D01*
X232164478Y-81679138D02*
X233665325Y-81414498D01*
X232186531Y-81804209D02*
X233687378Y-81539569D01*
X233709432Y-81664639D02*
X232208585Y-81929279D01*
X232274745Y-82304491D02*
X233775592Y-82039851D01*
X233753538Y-81914781D02*
X232252691Y-82179420D01*
X232230638Y-82054350D02*
X233731485Y-81789710D01*
X232915512Y-77162098D02*
X231414665Y-77426738D01*
X233797645Y-82164922D02*
X232915512Y-77162098D01*
X232296798Y-82429562D02*
X233797645Y-82164922D01*
X231414665Y-77426738D02*
X232296798Y-82429562D01*
X215884821Y-99057649D02*
X217385668Y-98793009D01*
X215906874Y-99182720D02*
X217407721Y-98918080D01*
X217429775Y-99043150D02*
X215928928Y-99307790D01*
X215995088Y-99683002D02*
X217495935Y-99418362D01*
X217473881Y-99293292D02*
X215973034Y-99557931D01*
X215950981Y-99432861D02*
X217451828Y-99168221D01*
X216635855Y-94540609D02*
X215135008Y-94805249D01*
X217517988Y-99543433D02*
X216635855Y-94540609D01*
X216017141Y-99808073D02*
X217517988Y-99543433D01*
X215135008Y-94805249D02*
X216017141Y-99808073D01*
X235336565Y-85955803D02*
X236837412Y-85691163D01*
X235358618Y-86080874D02*
X236859465Y-85816234D01*
X236881519Y-85941304D02*
X235380672Y-86205944D01*
X235446832Y-86581156D02*
X236947679Y-86316516D01*
X236925625Y-86191446D02*
X235424778Y-86456085D01*
X235402725Y-86331015D02*
X236903572Y-86066375D01*
X236087599Y-81438763D02*
X234586752Y-81703403D01*
X236969732Y-86441587D02*
X236087599Y-81438763D01*
X235468885Y-86706227D02*
X236969732Y-86441587D01*
X234586752Y-81703403D02*
X235468885Y-86706227D01*
X212576809Y-80296983D02*
X214077656Y-80032343D01*
X212598862Y-80422054D02*
X214099709Y-80157414D01*
X214121763Y-80282484D02*
X212620916Y-80547124D01*
X212687076Y-80922336D02*
X214187923Y-80657696D01*
X214165869Y-80532626D02*
X212665022Y-80797265D01*
X212642969Y-80672195D02*
X214143816Y-80407555D01*
X213327843Y-75779943D02*
X211826996Y-76044583D01*
X214209976Y-80782767D02*
X213327843Y-75779943D01*
X212709129Y-81047407D02*
X214209976Y-80782767D01*
X211826996Y-76044583D02*
X212709129Y-81047407D01*
X235058989Y-98094721D02*
X236559836Y-97830081D01*
X235081042Y-98219792D02*
X236581889Y-97955152D01*
X236603943Y-98080222D02*
X235103096Y-98344862D01*
X235169256Y-98720074D02*
X236670103Y-98455434D01*
X236648049Y-98330364D02*
X235147202Y-98595003D01*
X235125149Y-98469933D02*
X236625996Y-98205293D01*
X235810023Y-93577681D02*
X234309176Y-93842321D01*
X236692156Y-98580505D02*
X235810023Y-93577681D01*
X235191309Y-98845145D02*
X236692156Y-98580505D01*
X234309176Y-93842321D02*
X235191309Y-98845145D01*
X197951157Y-107055828D02*
X199452004Y-106791188D01*
X197973210Y-107180899D02*
X199474057Y-106916259D01*
X199496111Y-107041329D02*
X197995264Y-107305969D01*
X198061424Y-107681181D02*
X199562271Y-107416541D01*
X199540217Y-107291471D02*
X198039370Y-107556110D01*
X198017317Y-107431040D02*
X199518164Y-107166400D01*
X198702191Y-102538788D02*
X197201344Y-102803428D01*
X199584324Y-107541612D02*
X198702191Y-102538788D01*
X198083477Y-107806252D02*
X199584324Y-107541612D01*
X197201344Y-102803428D02*
X198083477Y-107806252D01*
X191335134Y-69534495D02*
X192835981Y-69269855D01*
X191357187Y-69659566D02*
X192858034Y-69394926D01*
X192880088Y-69519996D02*
X191379241Y-69784636D01*
X191445401Y-70159848D02*
X192946248Y-69895208D01*
X192924194Y-69770138D02*
X191423347Y-70034777D01*
X191401294Y-69909707D02*
X192902141Y-69645067D01*
X192086168Y-65017455D02*
X190585321Y-65282095D01*
X192968301Y-70020279D02*
X192086168Y-65017455D01*
X191467454Y-70284919D02*
X192968301Y-70020279D01*
X190585321Y-65282095D02*
X191467454Y-70284919D01*
X173401470Y-77532673D02*
X174902317Y-77268033D01*
X173423523Y-77657744D02*
X174924370Y-77393104D01*
X174946424Y-77518174D02*
X173445577Y-77782814D01*
X173511737Y-78158026D02*
X175012584Y-77893386D01*
X174990530Y-77768316D02*
X173489683Y-78032955D01*
X173467630Y-77907885D02*
X174968477Y-77643245D01*
X174152504Y-73015633D02*
X172651657Y-73280273D01*
X175034637Y-78018457D02*
X174152504Y-73015633D01*
X173533790Y-78283097D02*
X175034637Y-78018457D01*
X172651657Y-73280273D02*
X173533790Y-78283097D01*
X176709482Y-96293339D02*
X178210329Y-96028699D01*
X176731535Y-96418410D02*
X178232382Y-96153770D01*
X178254436Y-96278840D02*
X176753589Y-96543480D01*
X176819749Y-96918692D02*
X178320596Y-96654052D01*
X178298542Y-96528982D02*
X176797695Y-96793621D01*
X176775642Y-96668551D02*
X178276489Y-96403911D01*
X177460516Y-91776299D02*
X175959669Y-92040939D01*
X178342649Y-96779123D02*
X177460516Y-91776299D01*
X176841802Y-97043763D02*
X178342649Y-96779123D01*
X175959669Y-92040939D02*
X176841802Y-97043763D01*
X228856467Y-62918471D02*
X230357314Y-62653831D01*
X228878520Y-63043542D02*
X230379367Y-62778902D01*
X230401421Y-62903972D02*
X228900574Y-63168612D01*
X228966734Y-63543824D02*
X230467581Y-63279184D01*
X230445527Y-63154114D02*
X228944680Y-63418753D01*
X228922627Y-63293683D02*
X230423474Y-63029043D01*
X229607501Y-58401431D02*
X228106654Y-58666071D01*
X230489634Y-63404255D02*
X229607501Y-58401431D01*
X228988787Y-63668895D02*
X230489634Y-63404255D01*
X228106654Y-58666071D02*
X228988787Y-63668895D01*
X232028553Y-67195137D02*
X233529400Y-66930497D01*
X232050606Y-67320208D02*
X233551453Y-67055568D01*
X233573507Y-67180638D02*
X232072660Y-67445278D01*
X232138820Y-67820490D02*
X233639667Y-67555850D01*
X233617613Y-67430780D02*
X232116766Y-67695419D01*
X232094713Y-67570349D02*
X233595560Y-67305709D01*
X232779587Y-62678097D02*
X231278740Y-62942737D01*
X233661720Y-67680921D02*
X232779587Y-62678097D01*
X232160873Y-67945561D02*
X233661720Y-67680921D01*
X231278740Y-62942737D02*
X232160873Y-67945561D01*
X209268797Y-61536316D02*
X210769644Y-61271676D01*
X209290850Y-61661387D02*
X210791697Y-61396747D01*
X210813751Y-61521817D02*
X209312904Y-61786457D01*
X209379064Y-62161669D02*
X210879911Y-61897029D01*
X210857857Y-61771959D02*
X209357010Y-62036598D01*
X209334957Y-61911528D02*
X210835804Y-61646888D01*
X210019831Y-57019276D02*
X208518984Y-57283916D01*
X210901964Y-62022100D02*
X210019831Y-57019276D01*
X209401117Y-62286740D02*
X210901964Y-62022100D01*
X208518984Y-57283916D02*
X209401117Y-62286740D01*
D11*
X136525600Y-72866620D02*
X133985600Y-72866620D01*
X151765600Y-70326620D02*
X133985600Y-70326620D01*
X133985600Y-70326620D02*
X133985600Y-103346620D01*
X133985600Y-103346620D02*
X151765600Y-103346620D01*
X151765600Y-103346620D02*
X151765600Y-70326620D01*
D10*
G36*
X148720235Y-78755650D02*
G01*
X148720235Y-78855650D01*
X149220235Y-78855650D01*
X149220235Y-78755650D01*
X148720235Y-78755650D01*
G37*
X148720235Y-78755650D02*
X148720235Y-78855650D01*
X149220235Y-78855650D01*
X149220235Y-78755650D01*
X148720235Y-78755650D01*
G36*
X148720235Y-78755650D02*
G01*
X148720235Y-79055650D01*
X148820235Y-79055650D01*
X148820235Y-78755650D01*
X148720235Y-78755650D01*
G37*
X148720235Y-78755650D02*
X148720235Y-79055650D01*
X148820235Y-79055650D01*
X148820235Y-78755650D01*
X148720235Y-78755650D01*
G36*
X148720235Y-79355650D02*
G01*
X148720235Y-79555650D01*
X148820235Y-79555650D01*
X148820235Y-79355650D01*
X148720235Y-79355650D01*
G37*
X148720235Y-79355650D02*
X148720235Y-79555650D01*
X148820235Y-79555650D01*
X148820235Y-79355650D01*
X148720235Y-79355650D01*
G36*
X149120235Y-78755650D02*
G01*
X149120235Y-79555650D01*
X149220235Y-79555650D01*
X149220235Y-78755650D01*
X149120235Y-78755650D01*
G37*
X149120235Y-78755650D02*
X149120235Y-79555650D01*
X149220235Y-79555650D01*
X149220235Y-78755650D01*
X149120235Y-78755650D01*
G36*
X148920235Y-79155650D02*
G01*
X148920235Y-79255650D01*
X149020235Y-79255650D01*
X149020235Y-79155650D01*
X148920235Y-79155650D01*
G37*
X148920235Y-79155650D02*
X148920235Y-79255650D01*
X149020235Y-79255650D01*
X149020235Y-79155650D01*
X148920235Y-79155650D01*
D11*
X136525600Y-72866620D02*
X136525600Y-75406620D01*
X136525600Y-75406620D02*
X133985600Y-75406620D01*
D10*
X150448010Y-113451110D02*
X150448010Y-118531110D01*
X150448010Y-118531110D02*
X151972010Y-118531110D01*
X151972010Y-118531110D02*
X151972010Y-113451110D01*
X151972010Y-113451110D02*
X150448010Y-113451110D01*
X150448010Y-118150110D02*
X151972010Y-118150110D01*
X151972010Y-118277110D02*
X150448010Y-118277110D01*
X150448010Y-118404110D02*
X151972010Y-118404110D01*
X151972010Y-118023110D02*
X150448010Y-118023110D01*
X150448010Y-117896110D02*
X151972010Y-117896110D01*
X150448010Y-117769110D02*
X151972010Y-117769110D01*
X121398257Y-113431476D02*
X120516124Y-118434300D01*
X120516124Y-118434300D02*
X122016971Y-118698940D01*
X122016971Y-118698940D02*
X122899104Y-113696116D01*
X122899104Y-113696116D02*
X121398257Y-113431476D01*
X120582284Y-118059088D02*
X122083131Y-118323728D01*
X122061078Y-118448798D02*
X120560231Y-118184159D01*
X120538177Y-118309229D02*
X122039024Y-118573869D01*
X122105184Y-118198657D02*
X120604337Y-117934017D01*
X120626391Y-117808947D02*
X122127238Y-118073587D01*
X120648444Y-117683876D02*
X122149291Y-117948516D01*
X103464592Y-105433298D02*
X102582459Y-110436122D01*
X102582459Y-110436122D02*
X104083306Y-110700762D01*
X104083306Y-110700762D02*
X104965439Y-105697938D01*
X104965439Y-105697938D02*
X103464592Y-105433298D01*
X102648619Y-110060910D02*
X104149466Y-110325550D01*
X104127413Y-110450620D02*
X102626566Y-110185981D01*
X102604512Y-110311051D02*
X104105359Y-110575691D01*
X104171519Y-110200479D02*
X102670672Y-109935839D01*
X102692726Y-109810769D02*
X104193573Y-110075409D01*
X102714779Y-109685698D02*
X104215626Y-109950338D01*
X85530928Y-97435120D02*
X84648795Y-102437944D01*
X84648795Y-102437944D02*
X86149642Y-102702584D01*
X86149642Y-102702584D02*
X87031775Y-97699760D01*
X87031775Y-97699760D02*
X85530928Y-97435120D01*
X84714955Y-102062732D02*
X86215802Y-102327372D01*
X86193749Y-102452442D02*
X84692902Y-102187803D01*
X84670848Y-102312873D02*
X86171695Y-102577513D01*
X86237855Y-102202301D02*
X84737008Y-101937661D01*
X84759062Y-101812591D02*
X86259909Y-102077231D01*
X84781115Y-101687520D02*
X86281962Y-101952160D01*
X66150010Y-97644733D02*
X65267877Y-102647557D01*
X65267877Y-102647557D02*
X66768724Y-102912197D01*
X66768724Y-102912197D02*
X67650857Y-97909373D01*
X67650857Y-97909373D02*
X66150010Y-97644733D01*
X65334037Y-102272345D02*
X66834884Y-102536985D01*
X66812831Y-102662055D02*
X65311984Y-102397416D01*
X65289930Y-102522486D02*
X66790777Y-102787126D01*
X66856937Y-102411914D02*
X65356090Y-102147274D01*
X65378144Y-102022204D02*
X66878991Y-102286844D01*
X65400197Y-101897133D02*
X66901044Y-102161773D01*
X46562340Y-99026888D02*
X45680207Y-104029712D01*
X45680207Y-104029712D02*
X47181054Y-104294352D01*
X47181054Y-104294352D02*
X48063187Y-99291528D01*
X48063187Y-99291528D02*
X46562340Y-99026888D01*
X45746367Y-103654500D02*
X47247214Y-103919140D01*
X47225161Y-104044210D02*
X45724314Y-103779571D01*
X45702260Y-103904641D02*
X47203107Y-104169281D01*
X47269267Y-103794069D02*
X45768420Y-103529429D01*
X45790474Y-103404359D02*
X47291321Y-103668999D01*
X45812527Y-103279288D02*
X47313374Y-103543928D01*
X124706267Y-94670810D02*
X123824134Y-99673634D01*
X123824134Y-99673634D02*
X125324981Y-99938274D01*
X125324981Y-99938274D02*
X126207114Y-94935450D01*
X126207114Y-94935450D02*
X124706267Y-94670810D01*
X123890294Y-99298422D02*
X125391141Y-99563062D01*
X125369088Y-99688132D02*
X123868241Y-99423493D01*
X123846187Y-99548563D02*
X125347034Y-99813203D01*
X125413194Y-99437991D02*
X123912347Y-99173351D01*
X123934401Y-99048281D02*
X125435248Y-99312921D01*
X123956454Y-98923210D02*
X125457301Y-99187850D01*
X106772604Y-86672631D02*
X105890471Y-91675455D01*
X105890471Y-91675455D02*
X107391318Y-91940095D01*
X107391318Y-91940095D02*
X108273451Y-86937271D01*
X108273451Y-86937271D02*
X106772604Y-86672631D01*
X105956631Y-91300243D02*
X107457478Y-91564883D01*
X107435425Y-91689953D02*
X105934578Y-91425314D01*
X105912524Y-91550384D02*
X107413371Y-91815024D01*
X107479531Y-91439812D02*
X105978684Y-91175172D01*
X106000738Y-91050102D02*
X107501585Y-91314742D01*
X106022791Y-90925031D02*
X107523638Y-91189671D01*
X88838940Y-78674453D02*
X87956807Y-83677277D01*
X87956807Y-83677277D02*
X89457654Y-83941917D01*
X89457654Y-83941917D02*
X90339787Y-78939093D01*
X90339787Y-78939093D02*
X88838940Y-78674453D01*
X88022967Y-83302065D02*
X89523814Y-83566705D01*
X89501761Y-83691775D02*
X88000914Y-83427136D01*
X87978860Y-83552206D02*
X89479707Y-83816846D01*
X89545867Y-83441634D02*
X88045020Y-83176994D01*
X88067074Y-83051924D02*
X89567921Y-83316564D01*
X88089127Y-82926853D02*
X89589974Y-83191493D01*
X69251271Y-80056608D02*
X68369138Y-85059432D01*
X68369138Y-85059432D02*
X69869985Y-85324072D01*
X69869985Y-85324072D02*
X70752118Y-80321248D01*
X70752118Y-80321248D02*
X69251271Y-80056608D01*
X68435298Y-84684220D02*
X69936145Y-84948860D01*
X69914092Y-85073930D02*
X68413245Y-84809291D01*
X68391191Y-84934361D02*
X69892038Y-85199001D01*
X69958198Y-84823789D02*
X68457351Y-84559149D01*
X68479405Y-84434079D02*
X69980252Y-84698719D01*
X68501458Y-84309008D02*
X70002305Y-84573648D01*
X49663601Y-81438764D02*
X48781468Y-86441588D01*
X48781468Y-86441588D02*
X50282315Y-86706228D01*
X50282315Y-86706228D02*
X51164448Y-81703404D01*
X51164448Y-81703404D02*
X49663601Y-81438764D01*
X48847628Y-86066376D02*
X50348475Y-86331016D01*
X50326422Y-86456086D02*
X48825575Y-86191447D01*
X48803521Y-86316517D02*
X50304368Y-86581157D01*
X50370528Y-86205945D02*
X48869681Y-85941305D01*
X48891735Y-85816235D02*
X50392582Y-86080875D01*
X48913788Y-85691164D02*
X50414635Y-85955804D01*
X128014279Y-75910143D02*
X127132146Y-80912967D01*
X127132146Y-80912967D02*
X128632993Y-81177607D01*
X128632993Y-81177607D02*
X129515126Y-76174783D01*
X129515126Y-76174783D02*
X128014279Y-75910143D01*
X127198306Y-80537755D02*
X128699153Y-80802395D01*
X128677100Y-80927465D02*
X127176253Y-80662826D01*
X127154199Y-80787896D02*
X128655046Y-81052536D01*
X128721206Y-80677324D02*
X127220359Y-80412684D01*
X127242413Y-80287614D02*
X128743260Y-80552254D01*
X127264466Y-80162543D02*
X128765313Y-80427183D01*
X110080614Y-67911965D02*
X109198481Y-72914789D01*
X109198481Y-72914789D02*
X110699328Y-73179429D01*
X110699328Y-73179429D02*
X111581461Y-68176605D01*
X111581461Y-68176605D02*
X110080614Y-67911965D01*
X109264641Y-72539577D02*
X110765488Y-72804217D01*
X110743435Y-72929287D02*
X109242588Y-72664648D01*
X109220534Y-72789718D02*
X110721381Y-73054358D01*
X110787541Y-72679146D02*
X109286694Y-72414506D01*
X109308748Y-72289436D02*
X110809595Y-72554076D01*
X109330801Y-72164365D02*
X110831648Y-72429005D01*
X92146952Y-59913787D02*
X91264819Y-64916611D01*
X91264819Y-64916611D02*
X92765666Y-65181251D01*
X92765666Y-65181251D02*
X93647799Y-60178427D01*
X93647799Y-60178427D02*
X92146952Y-59913787D01*
X91330979Y-64541399D02*
X92831826Y-64806039D01*
X92809773Y-64931109D02*
X91308926Y-64666470D01*
X91286872Y-64791540D02*
X92787719Y-65056180D01*
X92853879Y-64680968D02*
X91353032Y-64416328D01*
X91375086Y-64291258D02*
X92875933Y-64555898D01*
X91397139Y-64166187D02*
X92897986Y-64430827D01*
X72559282Y-61295942D02*
X71677149Y-66298766D01*
X71677149Y-66298766D02*
X73177996Y-66563406D01*
X73177996Y-66563406D02*
X74060129Y-61560582D01*
X74060129Y-61560582D02*
X72559282Y-61295942D01*
X71743309Y-65923554D02*
X73244156Y-66188194D01*
X73222103Y-66313264D02*
X71721256Y-66048625D01*
X71699202Y-66173695D02*
X73200049Y-66438335D01*
X73266209Y-66063123D02*
X71765362Y-65798483D01*
X71787416Y-65673413D02*
X73288263Y-65938053D01*
X71809469Y-65548342D02*
X73310316Y-65812982D01*
X52971613Y-62678097D02*
X52089480Y-67680921D01*
X52089480Y-67680921D02*
X53590327Y-67945561D01*
X53590327Y-67945561D02*
X54472460Y-62942737D01*
X54472460Y-62942737D02*
X52971613Y-62678097D01*
X52155640Y-67305709D02*
X53656487Y-67570349D01*
X53634434Y-67695419D02*
X52133587Y-67430780D01*
X52111533Y-67555850D02*
X53612380Y-67820490D01*
X53678540Y-67445278D02*
X52177693Y-67180638D01*
X52199747Y-67055568D02*
X53700594Y-67320208D01*
X52221800Y-66930497D02*
X53722647Y-67195137D01*
X237308641Y-102898227D02*
X238096487Y-102759308D01*
X238063411Y-102571726D01*
X238006049Y-102465792D01*
X237917786Y-102403989D01*
X237836138Y-102379703D01*
X237679456Y-102368647D01*
X237566907Y-102388493D01*
X237423456Y-102452470D01*
X237355038Y-102503217D01*
X237293236Y-102591480D01*
X237275565Y-102710645D01*
X237308641Y-102898227D01*
X237970799Y-102046495D02*
X237884801Y-101558781D01*
X237630976Y-101874318D01*
X237611130Y-101761768D01*
X237560383Y-101693350D01*
X237516252Y-101662449D01*
X237434604Y-101638163D01*
X237247021Y-101671239D01*
X237178603Y-101721986D01*
X237147702Y-101766117D01*
X237123416Y-101847765D01*
X237163107Y-102072864D01*
X237213854Y-102141282D01*
X237257985Y-102172183D01*
X237798804Y-101071067D02*
X237785574Y-100996034D01*
X237734827Y-100927616D01*
X237690695Y-100896714D01*
X237609047Y-100872428D01*
X237452366Y-100861373D01*
X237264784Y-100894448D01*
X237121333Y-100958426D01*
X237052915Y-101009172D01*
X237022014Y-101053304D01*
X236997728Y-101134952D01*
X237010958Y-101209985D01*
X237061705Y-101278403D01*
X237105837Y-101309304D01*
X237187485Y-101333590D01*
X237344166Y-101344646D01*
X237531748Y-101311570D01*
X237675199Y-101247593D01*
X237743617Y-101196846D01*
X237774518Y-101152715D01*
X237798804Y-101071067D01*
X193513960Y-87649460D02*
X194301806Y-87510541D01*
X194268730Y-87322959D01*
X194211368Y-87217025D01*
X194123105Y-87155222D01*
X194041457Y-87130936D01*
X193884775Y-87119880D01*
X193772226Y-87139726D01*
X193628775Y-87203703D01*
X193560357Y-87254450D01*
X193498555Y-87342713D01*
X193480884Y-87461878D01*
X193513960Y-87649460D01*
X193302274Y-86448932D02*
X193381656Y-86899130D01*
X193341965Y-86674031D02*
X194129812Y-86535113D01*
X194030492Y-86629991D01*
X193968690Y-86718255D01*
X193944404Y-86799903D01*
X193971047Y-85634717D02*
X193997508Y-85784783D01*
X193973222Y-85866431D01*
X193942321Y-85910563D01*
X193843002Y-86005441D01*
X193699551Y-86069419D01*
X193399419Y-86122340D01*
X193317771Y-86098054D01*
X193273639Y-86067152D01*
X193222892Y-85998735D01*
X193196432Y-85848669D01*
X193220718Y-85767021D01*
X193251619Y-85722889D01*
X193320037Y-85672142D01*
X193507619Y-85639066D01*
X193589267Y-85663352D01*
X193633399Y-85694254D01*
X193684146Y-85762671D01*
X193710607Y-85912737D01*
X193686320Y-85994386D01*
X193655419Y-86038517D01*
X193587001Y-86089264D01*
X178888309Y-114408305D02*
X179676155Y-114269386D01*
X179643079Y-114081804D01*
X179585717Y-113975870D01*
X179497454Y-113914067D01*
X179415806Y-113889781D01*
X179259124Y-113878725D01*
X179146575Y-113898571D01*
X179003124Y-113962548D01*
X178934706Y-114013295D01*
X178872904Y-114101558D01*
X178855233Y-114220723D01*
X178888309Y-114408305D01*
X179468819Y-113532287D02*
X179499720Y-113488155D01*
X179524006Y-113406507D01*
X179490930Y-113218925D01*
X179440183Y-113150507D01*
X179396052Y-113119606D01*
X179314404Y-113095320D01*
X179239371Y-113108550D01*
X179133436Y-113165912D01*
X178762620Y-113695492D01*
X178676623Y-113207777D01*
X179345396Y-112393562D02*
X179371857Y-112543628D01*
X179347571Y-112625276D01*
X179316670Y-112669408D01*
X179217351Y-112764286D01*
X179073900Y-112828264D01*
X178773768Y-112881185D01*
X178692120Y-112856899D01*
X178647988Y-112825997D01*
X178597241Y-112757580D01*
X178570781Y-112607514D01*
X178595067Y-112525866D01*
X178625968Y-112481734D01*
X178694386Y-112430987D01*
X178881968Y-112397911D01*
X178963616Y-112422197D01*
X179007748Y-112453099D01*
X179058495Y-112521516D01*
X179084956Y-112671582D01*
X179060669Y-112753231D01*
X179029768Y-112797362D01*
X178961350Y-112848109D01*
X231035293Y-81033437D02*
X231823139Y-80894518D01*
X231790063Y-80706936D01*
X231732701Y-80601002D01*
X231644438Y-80539199D01*
X231562790Y-80514913D01*
X231406108Y-80503857D01*
X231293559Y-80523703D01*
X231150108Y-80587680D01*
X231081690Y-80638427D01*
X231019888Y-80726690D01*
X231002217Y-80845855D01*
X231035293Y-81033437D01*
X230823607Y-79832909D02*
X230902989Y-80283107D01*
X230863298Y-80058008D02*
X231651145Y-79919090D01*
X231551825Y-80013968D01*
X231490023Y-80102232D01*
X231465737Y-80183880D01*
X231194423Y-79303330D02*
X231245170Y-79371747D01*
X231289302Y-79402649D01*
X231370950Y-79426935D01*
X231408466Y-79420320D01*
X231476884Y-79369573D01*
X231507785Y-79325441D01*
X231532071Y-79243793D01*
X231505611Y-79093727D01*
X231454864Y-79025309D01*
X231410732Y-78994408D01*
X231329084Y-78970122D01*
X231291568Y-78976737D01*
X231223150Y-79027484D01*
X231192249Y-79071616D01*
X231167962Y-79153264D01*
X231194423Y-79303330D01*
X231170137Y-79384978D01*
X231139236Y-79429109D01*
X231070818Y-79479856D01*
X230920752Y-79506317D01*
X230839104Y-79482031D01*
X230794972Y-79451129D01*
X230744225Y-79382712D01*
X230717765Y-79232646D01*
X230742051Y-79150998D01*
X230772952Y-79106866D01*
X230841370Y-79056119D01*
X230991436Y-79029658D01*
X231073084Y-79053945D01*
X231117216Y-79084846D01*
X231167962Y-79153264D01*
X214755636Y-98411948D02*
X215543482Y-98273029D01*
X215510406Y-98085447D01*
X215453044Y-97979513D01*
X215364781Y-97917710D01*
X215283133Y-97893424D01*
X215126451Y-97882368D01*
X215013902Y-97902214D01*
X214870451Y-97966191D01*
X214802033Y-98016938D01*
X214740231Y-98105201D01*
X214722560Y-98224366D01*
X214755636Y-98411948D01*
X215336146Y-97535930D02*
X215367047Y-97491798D01*
X215391333Y-97410150D01*
X215358257Y-97222568D01*
X215307510Y-97154150D01*
X215263379Y-97123249D01*
X215181731Y-97098963D01*
X215106698Y-97112193D01*
X215000763Y-97169555D01*
X214629947Y-97699135D01*
X214543950Y-97211420D01*
X214914766Y-96681841D02*
X214965513Y-96750258D01*
X215009645Y-96781160D01*
X215091293Y-96805446D01*
X215128809Y-96798831D01*
X215197227Y-96748084D01*
X215228128Y-96703952D01*
X215252414Y-96622304D01*
X215225954Y-96472238D01*
X215175207Y-96403820D01*
X215131075Y-96372919D01*
X215049427Y-96348633D01*
X215011911Y-96355248D01*
X214943493Y-96405995D01*
X214912592Y-96450127D01*
X214888305Y-96531775D01*
X214914766Y-96681841D01*
X214890480Y-96763489D01*
X214859579Y-96807620D01*
X214791161Y-96858367D01*
X214641095Y-96884828D01*
X214559447Y-96860542D01*
X214515315Y-96829640D01*
X214464568Y-96761223D01*
X214438108Y-96611157D01*
X214462394Y-96529509D01*
X214493295Y-96485377D01*
X214561713Y-96434630D01*
X214711779Y-96408169D01*
X214793427Y-96432456D01*
X214837559Y-96463357D01*
X214888305Y-96531775D01*
X234207380Y-85310102D02*
X234995226Y-85171183D01*
X234962150Y-84983601D01*
X234904788Y-84877667D01*
X234816525Y-84815864D01*
X234734877Y-84791578D01*
X234578195Y-84780522D01*
X234465646Y-84800368D01*
X234322195Y-84864345D01*
X234253777Y-84915092D01*
X234191975Y-85003355D01*
X234174304Y-85122520D01*
X234207380Y-85310102D01*
X233995694Y-84109574D02*
X234075076Y-84559772D01*
X234035385Y-84334673D02*
X234823232Y-84195755D01*
X234723912Y-84290633D01*
X234662110Y-84378897D01*
X234637824Y-84460545D01*
X233929543Y-83734410D02*
X233903082Y-83584344D01*
X233927368Y-83502696D01*
X233958269Y-83458564D01*
X234057589Y-83363685D01*
X234201039Y-83299708D01*
X234501171Y-83246787D01*
X234582819Y-83271073D01*
X234626951Y-83301974D01*
X234677698Y-83370392D01*
X234704158Y-83520458D01*
X234679872Y-83602106D01*
X234648971Y-83646238D01*
X234580553Y-83696985D01*
X234392971Y-83730061D01*
X234311323Y-83705774D01*
X234267191Y-83674873D01*
X234216444Y-83606455D01*
X234189983Y-83456389D01*
X234214270Y-83374741D01*
X234245171Y-83330610D01*
X234313589Y-83279863D01*
X211447624Y-79651282D02*
X212235470Y-79512363D01*
X212202394Y-79324781D01*
X212145032Y-79218847D01*
X212056769Y-79157044D01*
X211975121Y-79132758D01*
X211818439Y-79121702D01*
X211705890Y-79141548D01*
X211562439Y-79205525D01*
X211494021Y-79256272D01*
X211432219Y-79344535D01*
X211414548Y-79463700D01*
X211447624Y-79651282D01*
X211235938Y-78450754D02*
X211315320Y-78900952D01*
X211275629Y-78675853D02*
X212063476Y-78536935D01*
X211964156Y-78631813D01*
X211902354Y-78720077D01*
X211878068Y-78801725D01*
X211977478Y-78049221D02*
X211884866Y-77523990D01*
X211156556Y-78000557D01*
X233929804Y-97449020D02*
X234717650Y-97310101D01*
X234684574Y-97122519D01*
X234627212Y-97016585D01*
X234538949Y-96954782D01*
X234457301Y-96930496D01*
X234300619Y-96919440D01*
X234188070Y-96939286D01*
X234044619Y-97003263D01*
X233976201Y-97054010D01*
X233914399Y-97142273D01*
X233896728Y-97261438D01*
X233929804Y-97449020D01*
X234510314Y-96573002D02*
X234541215Y-96528870D01*
X234565501Y-96447222D01*
X234532425Y-96259640D01*
X234481678Y-96191222D01*
X234437547Y-96160321D01*
X234355899Y-96136035D01*
X234280866Y-96149265D01*
X234174931Y-96206627D01*
X233804115Y-96736207D01*
X233718118Y-96248492D01*
X233651967Y-95873328D02*
X233625506Y-95723262D01*
X233649792Y-95641614D01*
X233680693Y-95597482D01*
X233780013Y-95502603D01*
X233923463Y-95438626D01*
X234223595Y-95385705D01*
X234305243Y-95409991D01*
X234349375Y-95440892D01*
X234400122Y-95509310D01*
X234426582Y-95659376D01*
X234402296Y-95741024D01*
X234371395Y-95785156D01*
X234302977Y-95835903D01*
X234115395Y-95868979D01*
X234033747Y-95844692D01*
X233989615Y-95813791D01*
X233938868Y-95745373D01*
X233912407Y-95595307D01*
X233936694Y-95513659D01*
X233967595Y-95469528D01*
X234036013Y-95418781D01*
X196821972Y-106410127D02*
X197609818Y-106271208D01*
X197576742Y-106083626D01*
X197519380Y-105977692D01*
X197431117Y-105915889D01*
X197349469Y-105891603D01*
X197192787Y-105880547D01*
X197080238Y-105900393D01*
X196936787Y-105964370D01*
X196868369Y-106015117D01*
X196806567Y-106103380D01*
X196788896Y-106222545D01*
X196821972Y-106410127D01*
X197402482Y-105534109D02*
X197433383Y-105489977D01*
X197457669Y-105408329D01*
X197424593Y-105220747D01*
X197373846Y-105152329D01*
X197329715Y-105121428D01*
X197248067Y-105097142D01*
X197173034Y-105110372D01*
X197067099Y-105167734D01*
X196696283Y-105697314D01*
X196610286Y-105209599D01*
X197351826Y-104808066D02*
X197259214Y-104282835D01*
X196530904Y-104759402D01*
X190139797Y-68513629D02*
X190927643Y-68374711D01*
X190894567Y-68187128D01*
X190837205Y-68081194D01*
X190748942Y-68019391D01*
X190667294Y-67995105D01*
X190510613Y-67984049D01*
X190398063Y-68003895D01*
X190254613Y-68067872D01*
X190186195Y-68118619D01*
X190124392Y-68206882D01*
X190106721Y-68326047D01*
X190139797Y-68513629D01*
X190729188Y-67249216D02*
X190755649Y-67399282D01*
X190731363Y-67480930D01*
X190700461Y-67525062D01*
X190601142Y-67619940D01*
X190457691Y-67683917D01*
X190157560Y-67736839D01*
X190075911Y-67712553D01*
X190031780Y-67681651D01*
X189981033Y-67613233D01*
X189954572Y-67463168D01*
X189978858Y-67381519D01*
X190009760Y-67337388D01*
X190078178Y-67286641D01*
X190265760Y-67253565D01*
X190347408Y-67277851D01*
X190391540Y-67308753D01*
X190442287Y-67377170D01*
X190468747Y-67527236D01*
X190444461Y-67608884D01*
X190413560Y-67653016D01*
X190345142Y-67703763D01*
X172206133Y-76511807D02*
X172993979Y-76372889D01*
X172960903Y-76185306D01*
X172903541Y-76079372D01*
X172815278Y-76017569D01*
X172733630Y-75993283D01*
X172576949Y-75982227D01*
X172464399Y-76002073D01*
X172320949Y-76066050D01*
X172252531Y-76116797D01*
X172190728Y-76205060D01*
X172173057Y-76324225D01*
X172206133Y-76511807D01*
X172788909Y-75209878D02*
X172855061Y-75585042D01*
X172486511Y-75688711D01*
X172517412Y-75644579D01*
X172541698Y-75562931D01*
X172508623Y-75375348D01*
X172457876Y-75306931D01*
X172413744Y-75276029D01*
X172332096Y-75251743D01*
X172144514Y-75284819D01*
X172076096Y-75335566D01*
X172045194Y-75379697D01*
X172020908Y-75461346D01*
X172053984Y-75648928D01*
X172104731Y-75717346D01*
X172148863Y-75748247D01*
X175580297Y-95647638D02*
X176368143Y-95508719D01*
X176335067Y-95321137D01*
X176277705Y-95215203D01*
X176189442Y-95153400D01*
X176107794Y-95129114D01*
X175951112Y-95118058D01*
X175838563Y-95137904D01*
X175695112Y-95201881D01*
X175626694Y-95252628D01*
X175564892Y-95340891D01*
X175547221Y-95460056D01*
X175580297Y-95647638D01*
X175368611Y-94447110D02*
X175447993Y-94897308D01*
X175408302Y-94672209D02*
X176196149Y-94533291D01*
X176096829Y-94628169D01*
X176035027Y-94716433D01*
X176010741Y-94798081D01*
X176030769Y-93595379D02*
X176096921Y-93970544D01*
X175728371Y-94074212D01*
X175759273Y-94030080D01*
X175783559Y-93948432D01*
X175750483Y-93760849D01*
X175699736Y-93692432D01*
X175655604Y-93661530D01*
X175573956Y-93637244D01*
X175386374Y-93670320D01*
X175317956Y-93721067D01*
X175287055Y-93765199D01*
X175262769Y-93846847D01*
X175295844Y-94034429D01*
X175346591Y-94102847D01*
X175390723Y-94133748D01*
X227661130Y-61897605D02*
X228448976Y-61758687D01*
X228415900Y-61571104D01*
X228358538Y-61465170D01*
X228270275Y-61403367D01*
X228188627Y-61379081D01*
X228031946Y-61368025D01*
X227919396Y-61387871D01*
X227775946Y-61451848D01*
X227707528Y-61502595D01*
X227645725Y-61590858D01*
X227628054Y-61710023D01*
X227661130Y-61897605D01*
X227952564Y-60917827D02*
X228003311Y-60986245D01*
X228047442Y-61017147D01*
X228129090Y-61041433D01*
X228166607Y-61034818D01*
X228235025Y-60984071D01*
X228265926Y-60939939D01*
X228290212Y-60858291D01*
X228263751Y-60708225D01*
X228213005Y-60639807D01*
X228168873Y-60608906D01*
X228087225Y-60584620D01*
X228049708Y-60591235D01*
X227981291Y-60641982D01*
X227950389Y-60686113D01*
X227926103Y-60767762D01*
X227952564Y-60917827D01*
X227928278Y-60999476D01*
X227897376Y-61043607D01*
X227828959Y-61094354D01*
X227678893Y-61120815D01*
X227597244Y-61096529D01*
X227553113Y-61065627D01*
X227502366Y-60997209D01*
X227475905Y-60847144D01*
X227500191Y-60765495D01*
X227531093Y-60721364D01*
X227599511Y-60670617D01*
X227749576Y-60644156D01*
X227831225Y-60668442D01*
X227875356Y-60699344D01*
X227926103Y-60767762D01*
X230833216Y-66174271D02*
X231621062Y-66035353D01*
X231587986Y-65847770D01*
X231530624Y-65741836D01*
X231442361Y-65680033D01*
X231360713Y-65655747D01*
X231204032Y-65644691D01*
X231091482Y-65664537D01*
X230948032Y-65728514D01*
X230879614Y-65779261D01*
X230817811Y-65867524D01*
X230800140Y-65986689D01*
X230833216Y-66174271D01*
X230687682Y-65348908D02*
X230661222Y-65198843D01*
X230685508Y-65117194D01*
X230716409Y-65073063D01*
X230815728Y-64978184D01*
X230959179Y-64914207D01*
X231259311Y-64861286D01*
X231340959Y-64885572D01*
X231385091Y-64916473D01*
X231435837Y-64984891D01*
X231462298Y-65134957D01*
X231438012Y-65216605D01*
X231407111Y-65260737D01*
X231338693Y-65311484D01*
X231151110Y-65344559D01*
X231069462Y-65320273D01*
X231025331Y-65289372D01*
X230974584Y-65220954D01*
X230948123Y-65070888D01*
X230972409Y-64989240D01*
X231003311Y-64945108D01*
X231071728Y-64894362D01*
X208073460Y-60515450D02*
X208861306Y-60376532D01*
X208828230Y-60188949D01*
X208770868Y-60083015D01*
X208682605Y-60021212D01*
X208600957Y-59996926D01*
X208444276Y-59985870D01*
X208331726Y-60005716D01*
X208188276Y-60069693D01*
X208119858Y-60120440D01*
X208058055Y-60208703D01*
X208040384Y-60327868D01*
X208073460Y-60515450D01*
X208735618Y-59663718D02*
X208643006Y-59138488D01*
X207914696Y-59615054D01*
X148448933Y-79520429D02*
X148334647Y-79558524D01*
X148144171Y-79558524D01*
X148067980Y-79520429D01*
X148029885Y-79482334D01*
X147991790Y-79406143D01*
X147991790Y-79329953D01*
X148029885Y-79253762D01*
X148067980Y-79215667D01*
X148144171Y-79177572D01*
X148296552Y-79139477D01*
X148372742Y-79101381D01*
X148410838Y-79063286D01*
X148448933Y-78987096D01*
X148448933Y-78910905D01*
X148410838Y-78834715D01*
X148372742Y-78796620D01*
X148296552Y-78758524D01*
X148106076Y-78758524D01*
X147991790Y-78796620D01*
X147763219Y-78758524D02*
X147306076Y-78758524D01*
X147534647Y-79558524D02*
X147534647Y-78758524D01*
X141494204Y-73698524D02*
X141037061Y-73698524D01*
X141265632Y-74498524D02*
X141265632Y-73698524D01*
X140846585Y-73698524D02*
X140313251Y-74498524D01*
X140313251Y-73698524D02*
X140846585Y-74498524D01*
X139856108Y-73698524D02*
X139779918Y-73698524D01*
X139703728Y-73736620D01*
X139665632Y-73774715D01*
X139627537Y-73850905D01*
X139589442Y-74003286D01*
X139589442Y-74193762D01*
X139627537Y-74346143D01*
X139665632Y-74422334D01*
X139703728Y-74460429D01*
X139779918Y-74498524D01*
X139856108Y-74498524D01*
X139932299Y-74460429D01*
X139970394Y-74422334D01*
X140008489Y-74346143D01*
X140046585Y-74193762D01*
X140046585Y-74003286D01*
X140008489Y-73850905D01*
X139970394Y-73774715D01*
X139932299Y-73736620D01*
X139856108Y-73698524D01*
X138675156Y-73660429D02*
X139360870Y-74689000D01*
X138408489Y-74498524D02*
X138408489Y-73698524D01*
X138218013Y-73698524D01*
X138103728Y-73736620D01*
X138027537Y-73812810D01*
X137989442Y-73889000D01*
X137951347Y-74041381D01*
X137951347Y-74155667D01*
X137989442Y-74308048D01*
X138027537Y-74384239D01*
X138103728Y-74460429D01*
X138218013Y-74498524D01*
X138408489Y-74498524D01*
X137684680Y-73698524D02*
X137189442Y-73698524D01*
X137456108Y-74003286D01*
X137341823Y-74003286D01*
X137265632Y-74041381D01*
X137227537Y-74079477D01*
X137189442Y-74155667D01*
X137189442Y-74346143D01*
X137227537Y-74422334D01*
X137265632Y-74460429D01*
X137341823Y-74498524D01*
X137570394Y-74498524D01*
X137646585Y-74460429D01*
X137684680Y-74422334D01*
X148660409Y-99479477D02*
X148546123Y-99517572D01*
X148508028Y-99555667D01*
X148469933Y-99631858D01*
X148469933Y-99746143D01*
X148508028Y-99822334D01*
X148546123Y-99860429D01*
X148622314Y-99898524D01*
X148927076Y-99898524D01*
X148927076Y-99098524D01*
X148660409Y-99098524D01*
X148584219Y-99136620D01*
X148546123Y-99174715D01*
X148508028Y-99250905D01*
X148508028Y-99327096D01*
X148546123Y-99403286D01*
X148584219Y-99441381D01*
X148660409Y-99479477D01*
X148927076Y-99479477D01*
X148165171Y-99174715D02*
X148127076Y-99136620D01*
X148050885Y-99098524D01*
X147860409Y-99098524D01*
X147784219Y-99136620D01*
X147746123Y-99174715D01*
X147708028Y-99250905D01*
X147708028Y-99327096D01*
X147746123Y-99441381D01*
X148203266Y-99898524D01*
X147708028Y-99898524D01*
X148603266Y-91859477D02*
X148869933Y-91859477D01*
X148869933Y-92278524D02*
X148869933Y-91478524D01*
X148488980Y-91478524D01*
X148260409Y-91478524D02*
X147727076Y-91478524D01*
X148069933Y-92278524D01*
X148603266Y-89319477D02*
X148869933Y-89319477D01*
X148869933Y-89738524D02*
X148869933Y-88938524D01*
X148488980Y-88938524D01*
X147841361Y-88938524D02*
X147993742Y-88938524D01*
X148069933Y-88976620D01*
X148108028Y-89014715D01*
X148184219Y-89129000D01*
X148222314Y-89281381D01*
X148222314Y-89586143D01*
X148184219Y-89662334D01*
X148146123Y-89700429D01*
X148069933Y-89738524D01*
X147917552Y-89738524D01*
X147841361Y-89700429D01*
X147803266Y-89662334D01*
X147765171Y-89586143D01*
X147765171Y-89395667D01*
X147803266Y-89319477D01*
X147841361Y-89281381D01*
X147917552Y-89243286D01*
X148069933Y-89243286D01*
X148146123Y-89281381D01*
X148184219Y-89319477D01*
X148222314Y-89395667D01*
X148603266Y-86779477D02*
X148869933Y-86779477D01*
X148869933Y-87198524D02*
X148869933Y-86398524D01*
X148488980Y-86398524D01*
X147803266Y-86398524D02*
X148184219Y-86398524D01*
X148222314Y-86779477D01*
X148184219Y-86741381D01*
X148108028Y-86703286D01*
X147917552Y-86703286D01*
X147841361Y-86741381D01*
X147803266Y-86779477D01*
X147765171Y-86855667D01*
X147765171Y-87046143D01*
X147803266Y-87122334D01*
X147841361Y-87160429D01*
X147917552Y-87198524D01*
X148108028Y-87198524D01*
X148184219Y-87160429D01*
X148222314Y-87122334D01*
X148888980Y-74498524D02*
X149155647Y-74117572D01*
X149346123Y-74498524D02*
X149346123Y-73698524D01*
X149041361Y-73698524D01*
X148965171Y-73736620D01*
X148927076Y-73774715D01*
X148888980Y-73850905D01*
X148888980Y-73965191D01*
X148927076Y-74041381D01*
X148965171Y-74079477D01*
X149041361Y-74117572D01*
X149346123Y-74117572D01*
X148584219Y-74269953D02*
X148203266Y-74269953D01*
X148660409Y-74498524D02*
X148393742Y-73698524D01*
X148127076Y-74498524D01*
X147936600Y-73698524D02*
X147746123Y-74498524D01*
X147593742Y-73927096D01*
X147441361Y-74498524D01*
X147250885Y-73698524D01*
X148946123Y-76276620D02*
X149022314Y-76238524D01*
X149136600Y-76238524D01*
X149250885Y-76276620D01*
X149327076Y-76352810D01*
X149365171Y-76429000D01*
X149403266Y-76581381D01*
X149403266Y-76695667D01*
X149365171Y-76848048D01*
X149327076Y-76924239D01*
X149250885Y-77000429D01*
X149136600Y-77038524D01*
X149060409Y-77038524D01*
X148946123Y-77000429D01*
X148908028Y-76962334D01*
X148908028Y-76695667D01*
X149060409Y-76695667D01*
X148565171Y-77038524D02*
X148565171Y-76238524D01*
X148108028Y-77038524D01*
X148108028Y-76238524D01*
X147727076Y-77038524D02*
X147727076Y-76238524D01*
X147536600Y-76238524D01*
X147422314Y-76276620D01*
X147346123Y-76352810D01*
X147308028Y-76429000D01*
X147269933Y-76581381D01*
X147269933Y-76695667D01*
X147308028Y-76848048D01*
X147346123Y-76924239D01*
X147422314Y-77000429D01*
X147536600Y-77038524D01*
X147727076Y-77038524D01*
X149403266Y-81318524D02*
X149136600Y-82118524D01*
X148869933Y-81318524D01*
X148146123Y-82042334D02*
X148184219Y-82080429D01*
X148298504Y-82118524D01*
X148374695Y-82118524D01*
X148488980Y-82080429D01*
X148565171Y-82004239D01*
X148603266Y-81928048D01*
X148641361Y-81775667D01*
X148641361Y-81661381D01*
X148603266Y-81509000D01*
X148565171Y-81432810D01*
X148488980Y-81356620D01*
X148374695Y-81318524D01*
X148298504Y-81318524D01*
X148184219Y-81356620D01*
X148146123Y-81394715D01*
X147346123Y-82042334D02*
X147384219Y-82080429D01*
X147498504Y-82118524D01*
X147574695Y-82118524D01*
X147688980Y-82080429D01*
X147765171Y-82004239D01*
X147803266Y-81928048D01*
X147841361Y-81775667D01*
X147841361Y-81661381D01*
X147803266Y-81509000D01*
X147765171Y-81432810D01*
X147688980Y-81356620D01*
X147574695Y-81318524D01*
X147498504Y-81318524D01*
X147384219Y-81356620D01*
X147346123Y-81394715D01*
X148603266Y-84239477D02*
X148869933Y-84239477D01*
X148869933Y-84658524D02*
X148869933Y-83858524D01*
X148488980Y-83858524D01*
X147841361Y-84125191D02*
X147841361Y-84658524D01*
X148031838Y-83820429D02*
X148222314Y-84391858D01*
X147727076Y-84391858D01*
X148660409Y-94399477D02*
X148546123Y-94437572D01*
X148508028Y-94475667D01*
X148469933Y-94551858D01*
X148469933Y-94666143D01*
X148508028Y-94742334D01*
X148546123Y-94780429D01*
X148622314Y-94818524D01*
X148927076Y-94818524D01*
X148927076Y-94018524D01*
X148660409Y-94018524D01*
X148584219Y-94056620D01*
X148546123Y-94094715D01*
X148508028Y-94170905D01*
X148508028Y-94247096D01*
X148546123Y-94323286D01*
X148584219Y-94361381D01*
X148660409Y-94399477D01*
X148927076Y-94399477D01*
X147708028Y-94818524D02*
X148165171Y-94818524D01*
X147936600Y-94818524D02*
X147936600Y-94018524D01*
X148012790Y-94132810D01*
X148088980Y-94209000D01*
X148165171Y-94247096D01*
X148660409Y-96939477D02*
X148546123Y-96977572D01*
X148508028Y-97015667D01*
X148469933Y-97091858D01*
X148469933Y-97206143D01*
X148508028Y-97282334D01*
X148546123Y-97320429D01*
X148622314Y-97358524D01*
X148927076Y-97358524D01*
X148927076Y-96558524D01*
X148660409Y-96558524D01*
X148584219Y-96596620D01*
X148546123Y-96634715D01*
X148508028Y-96710905D01*
X148508028Y-96787096D01*
X148546123Y-96863286D01*
X148584219Y-96901381D01*
X148660409Y-96939477D01*
X148927076Y-96939477D01*
X148203266Y-96558524D02*
X147708028Y-96558524D01*
X147974695Y-96863286D01*
X147860409Y-96863286D01*
X147784219Y-96901381D01*
X147746123Y-96939477D01*
X147708028Y-97015667D01*
X147708028Y-97206143D01*
X147746123Y-97282334D01*
X147784219Y-97320429D01*
X147860409Y-97358524D01*
X148088980Y-97358524D01*
X148165171Y-97320429D01*
X148203266Y-97282334D01*
X148660409Y-102019477D02*
X148546123Y-102057572D01*
X148508028Y-102095667D01*
X148469933Y-102171858D01*
X148469933Y-102286143D01*
X148508028Y-102362334D01*
X148546123Y-102400429D01*
X148622314Y-102438524D01*
X148927076Y-102438524D01*
X148927076Y-101638524D01*
X148660409Y-101638524D01*
X148584219Y-101676620D01*
X148546123Y-101714715D01*
X148508028Y-101790905D01*
X148508028Y-101867096D01*
X148546123Y-101943286D01*
X148584219Y-101981381D01*
X148660409Y-102019477D01*
X148927076Y-102019477D01*
X147784219Y-101638524D02*
X147936600Y-101638524D01*
X148012790Y-101676620D01*
X148050885Y-101714715D01*
X148127076Y-101829000D01*
X148165171Y-101981381D01*
X148165171Y-102286143D01*
X148127076Y-102362334D01*
X148088980Y-102400429D01*
X148012790Y-102438524D01*
X147860409Y-102438524D01*
X147784219Y-102400429D01*
X147746123Y-102362334D01*
X147708028Y-102286143D01*
X147708028Y-102095667D01*
X147746123Y-102019477D01*
X147784219Y-101981381D01*
X147860409Y-101943286D01*
X148012790Y-101943286D01*
X148088980Y-101981381D01*
X148127076Y-102019477D01*
X148165171Y-102095667D01*
X137738409Y-102019477D02*
X137624123Y-102057572D01*
X137586028Y-102095667D01*
X137547933Y-102171858D01*
X137547933Y-102286143D01*
X137586028Y-102362334D01*
X137624123Y-102400429D01*
X137700314Y-102438524D01*
X138005076Y-102438524D01*
X138005076Y-101638524D01*
X137738409Y-101638524D01*
X137662219Y-101676620D01*
X137624123Y-101714715D01*
X137586028Y-101790905D01*
X137586028Y-101867096D01*
X137624123Y-101943286D01*
X137662219Y-101981381D01*
X137738409Y-102019477D01*
X138005076Y-102019477D01*
X136824123Y-101638524D02*
X137205076Y-101638524D01*
X137243171Y-102019477D01*
X137205076Y-101981381D01*
X137128885Y-101943286D01*
X136938409Y-101943286D01*
X136862219Y-101981381D01*
X136824123Y-102019477D01*
X136786028Y-102095667D01*
X136786028Y-102286143D01*
X136824123Y-102362334D01*
X136862219Y-102400429D01*
X136938409Y-102438524D01*
X137128885Y-102438524D01*
X137205076Y-102400429D01*
X137243171Y-102362334D01*
X137738409Y-99479477D02*
X137624123Y-99517572D01*
X137586028Y-99555667D01*
X137547933Y-99631858D01*
X137547933Y-99746143D01*
X137586028Y-99822334D01*
X137624123Y-99860429D01*
X137700314Y-99898524D01*
X138005076Y-99898524D01*
X138005076Y-99098524D01*
X137738409Y-99098524D01*
X137662219Y-99136620D01*
X137624123Y-99174715D01*
X137586028Y-99250905D01*
X137586028Y-99327096D01*
X137624123Y-99403286D01*
X137662219Y-99441381D01*
X137738409Y-99479477D01*
X138005076Y-99479477D01*
X136862219Y-99365191D02*
X136862219Y-99898524D01*
X137052695Y-99060429D02*
X137243171Y-99631858D01*
X136747933Y-99631858D01*
X137966980Y-96939477D02*
X137700314Y-96939477D01*
X137586028Y-97358524D02*
X137966980Y-97358524D01*
X137966980Y-96558524D01*
X137586028Y-96558524D01*
X136900314Y-96558524D02*
X137052695Y-96558524D01*
X137128885Y-96596620D01*
X137166980Y-96634715D01*
X137243171Y-96749000D01*
X137281266Y-96901381D01*
X137281266Y-97206143D01*
X137243171Y-97282334D01*
X137205076Y-97320429D01*
X137128885Y-97358524D01*
X136976504Y-97358524D01*
X136900314Y-97320429D01*
X136862219Y-97282334D01*
X136824123Y-97206143D01*
X136824123Y-97015667D01*
X136862219Y-96939477D01*
X136900314Y-96901381D01*
X136976504Y-96863286D01*
X137128885Y-96863286D01*
X137205076Y-96901381D01*
X137243171Y-96939477D01*
X137281266Y-97015667D01*
X138005076Y-94818524D02*
X138005076Y-94018524D01*
X137814600Y-94018524D01*
X137700314Y-94056620D01*
X137624123Y-94132810D01*
X137586028Y-94209000D01*
X137547933Y-94361381D01*
X137547933Y-94475667D01*
X137586028Y-94628048D01*
X137624123Y-94704239D01*
X137700314Y-94780429D01*
X137814600Y-94818524D01*
X138005076Y-94818524D01*
X137281266Y-94018524D02*
X136747933Y-94018524D01*
X137090790Y-94818524D01*
X137547933Y-92202334D02*
X137586028Y-92240429D01*
X137700314Y-92278524D01*
X137776504Y-92278524D01*
X137890790Y-92240429D01*
X137966980Y-92164239D01*
X138005076Y-92088048D01*
X138043171Y-91935667D01*
X138043171Y-91821381D01*
X138005076Y-91669000D01*
X137966980Y-91592810D01*
X137890790Y-91516620D01*
X137776504Y-91478524D01*
X137700314Y-91478524D01*
X137586028Y-91516620D01*
X137547933Y-91554715D01*
X136862219Y-91478524D02*
X137014600Y-91478524D01*
X137090790Y-91516620D01*
X137128885Y-91554715D01*
X137205076Y-91669000D01*
X137243171Y-91821381D01*
X137243171Y-92126143D01*
X137205076Y-92202334D01*
X137166980Y-92240429D01*
X137090790Y-92278524D01*
X136938409Y-92278524D01*
X136862219Y-92240429D01*
X136824123Y-92202334D01*
X136786028Y-92126143D01*
X136786028Y-91935667D01*
X136824123Y-91859477D01*
X136862219Y-91821381D01*
X136938409Y-91783286D01*
X137090790Y-91783286D01*
X137166980Y-91821381D01*
X137205076Y-91859477D01*
X137243171Y-91935667D01*
X138005076Y-89738524D02*
X138005076Y-88938524D01*
X137814600Y-88938524D01*
X137700314Y-88976620D01*
X137624123Y-89052810D01*
X137586028Y-89129000D01*
X137547933Y-89281381D01*
X137547933Y-89395667D01*
X137586028Y-89548048D01*
X137624123Y-89624239D01*
X137700314Y-89700429D01*
X137814600Y-89738524D01*
X138005076Y-89738524D01*
X136862219Y-89205191D02*
X136862219Y-89738524D01*
X137052695Y-88900429D02*
X137243171Y-89471858D01*
X136747933Y-89471858D01*
X138024123Y-78816620D02*
X138100314Y-78778524D01*
X138214600Y-78778524D01*
X138328885Y-78816620D01*
X138405076Y-78892810D01*
X138443171Y-78969000D01*
X138481266Y-79121381D01*
X138481266Y-79235667D01*
X138443171Y-79388048D01*
X138405076Y-79464239D01*
X138328885Y-79540429D01*
X138214600Y-79578524D01*
X138138409Y-79578524D01*
X138024123Y-79540429D01*
X137986028Y-79502334D01*
X137986028Y-79235667D01*
X138138409Y-79235667D01*
X137643171Y-79578524D02*
X137643171Y-78778524D01*
X137186028Y-79578524D01*
X137186028Y-78778524D01*
X136805076Y-79578524D02*
X136805076Y-78778524D01*
X136614600Y-78778524D01*
X136500314Y-78816620D01*
X136424123Y-78892810D01*
X136386028Y-78969000D01*
X136347933Y-79121381D01*
X136347933Y-79235667D01*
X136386028Y-79388048D01*
X136424123Y-79464239D01*
X136500314Y-79540429D01*
X136614600Y-79578524D01*
X136805076Y-79578524D01*
X138024123Y-81356620D02*
X138100314Y-81318524D01*
X138214600Y-81318524D01*
X138328885Y-81356620D01*
X138405076Y-81432810D01*
X138443171Y-81509000D01*
X138481266Y-81661381D01*
X138481266Y-81775667D01*
X138443171Y-81928048D01*
X138405076Y-82004239D01*
X138328885Y-82080429D01*
X138214600Y-82118524D01*
X138138409Y-82118524D01*
X138024123Y-82080429D01*
X137986028Y-82042334D01*
X137986028Y-81775667D01*
X138138409Y-81775667D01*
X137643171Y-82118524D02*
X137643171Y-81318524D01*
X137186028Y-82118524D01*
X137186028Y-81318524D01*
X136805076Y-82118524D02*
X136805076Y-81318524D01*
X136614600Y-81318524D01*
X136500314Y-81356620D01*
X136424123Y-81432810D01*
X136386028Y-81509000D01*
X136347933Y-81661381D01*
X136347933Y-81775667D01*
X136386028Y-81928048D01*
X136424123Y-82004239D01*
X136500314Y-82080429D01*
X136614600Y-82118524D01*
X136805076Y-82118524D01*
X138005076Y-84658524D02*
X138005076Y-83858524D01*
X137814600Y-83858524D01*
X137700314Y-83896620D01*
X137624123Y-83972810D01*
X137586028Y-84049000D01*
X137547933Y-84201381D01*
X137547933Y-84315667D01*
X137586028Y-84468048D01*
X137624123Y-84544239D01*
X137700314Y-84620429D01*
X137814600Y-84658524D01*
X138005076Y-84658524D01*
X136786028Y-84658524D02*
X137243171Y-84658524D01*
X137014600Y-84658524D02*
X137014600Y-83858524D01*
X137090790Y-83972810D01*
X137166980Y-84049000D01*
X137243171Y-84087096D01*
X138005076Y-87198524D02*
X138005076Y-86398524D01*
X137814600Y-86398524D01*
X137700314Y-86436620D01*
X137624123Y-86512810D01*
X137586028Y-86589000D01*
X137547933Y-86741381D01*
X137547933Y-86855667D01*
X137586028Y-87008048D01*
X137624123Y-87084239D01*
X137700314Y-87160429D01*
X137814600Y-87198524D01*
X138005076Y-87198524D01*
X137052695Y-86398524D02*
X136976504Y-86398524D01*
X136900314Y-86436620D01*
X136862219Y-86474715D01*
X136824123Y-86550905D01*
X136786028Y-86703286D01*
X136786028Y-86893762D01*
X136824123Y-87046143D01*
X136862219Y-87122334D01*
X136900314Y-87160429D01*
X136976504Y-87198524D01*
X137052695Y-87198524D01*
X137128885Y-87160429D01*
X137166980Y-87122334D01*
X137205076Y-87046143D01*
X137243171Y-86893762D01*
X137243171Y-86703286D01*
X137205076Y-86550905D01*
X137166980Y-86474715D01*
X137128885Y-86436620D01*
X137052695Y-86398524D01*
X138005076Y-77038524D02*
X138005076Y-76238524D01*
X137814600Y-76238524D01*
X137700314Y-76276620D01*
X137624123Y-76352810D01*
X137586028Y-76429000D01*
X137547933Y-76581381D01*
X137547933Y-76695667D01*
X137586028Y-76848048D01*
X137624123Y-76924239D01*
X137700314Y-77000429D01*
X137814600Y-77038524D01*
X138005076Y-77038524D01*
X137243171Y-76314715D02*
X137205076Y-76276620D01*
X137128885Y-76238524D01*
X136938409Y-76238524D01*
X136862219Y-76276620D01*
X136824123Y-76314715D01*
X136786028Y-76390905D01*
X136786028Y-76467096D01*
X136824123Y-76581381D01*
X137281266Y-77038524D01*
X136786028Y-77038524D01*
X150171914Y-114994281D02*
X149371914Y-114994281D01*
X149371914Y-115184757D01*
X149410010Y-115299043D01*
X149486200Y-115375233D01*
X149562390Y-115413329D01*
X149714771Y-115451424D01*
X149829057Y-115451424D01*
X149981438Y-115413329D01*
X150057629Y-115375233D01*
X150133819Y-115299043D01*
X150171914Y-115184757D01*
X150171914Y-114994281D01*
X149448105Y-115756186D02*
X149410010Y-115794281D01*
X149371914Y-115870471D01*
X149371914Y-116060948D01*
X149410010Y-116137138D01*
X149448105Y-116175233D01*
X149524295Y-116213329D01*
X149600486Y-116213329D01*
X149714771Y-116175233D01*
X150171914Y-115718090D01*
X150171914Y-116213329D01*
X149371914Y-116937138D02*
X149371914Y-116556186D01*
X149752867Y-116518090D01*
X149714771Y-116556186D01*
X149676676Y-116632376D01*
X149676676Y-116822852D01*
X149714771Y-116899043D01*
X149752867Y-116937138D01*
X149829057Y-116975233D01*
X150019533Y-116975233D01*
X150095724Y-116937138D01*
X150133819Y-116899043D01*
X150171914Y-116822852D01*
X150171914Y-116632376D01*
X150133819Y-116556186D01*
X150095724Y-116518090D01*
X120858387Y-114903259D02*
X120070541Y-114764341D01*
X120037465Y-114951923D01*
X120055136Y-115071088D01*
X120116938Y-115159351D01*
X120185356Y-115210098D01*
X120328807Y-115274075D01*
X120441357Y-115293921D01*
X120598038Y-115282865D01*
X120679686Y-115258579D01*
X120767949Y-115196776D01*
X120825311Y-115090842D01*
X120858387Y-114903259D01*
X120013270Y-115527901D02*
X119969139Y-115558802D01*
X119918392Y-115627220D01*
X119885316Y-115814802D01*
X119909602Y-115896450D01*
X119940503Y-115940582D01*
X120008921Y-115991329D01*
X120083954Y-116004559D01*
X120203119Y-115986888D01*
X120732699Y-115616072D01*
X120646702Y-116103787D01*
X120002398Y-116686471D02*
X120527628Y-116779084D01*
X119735342Y-116445967D02*
X120331165Y-116357612D01*
X120245168Y-116845327D01*
X102924722Y-106905081D02*
X102136876Y-106766163D01*
X102103800Y-106953745D01*
X102121471Y-107072910D01*
X102183273Y-107161173D01*
X102251691Y-107211920D01*
X102395142Y-107275897D01*
X102507692Y-107295743D01*
X102664373Y-107284687D01*
X102746021Y-107260401D01*
X102834284Y-107198598D01*
X102891646Y-107092664D01*
X102924722Y-106905081D01*
X102079605Y-107529723D02*
X102035474Y-107560624D01*
X101984727Y-107629042D01*
X101951651Y-107816624D01*
X101975937Y-107898272D01*
X102006838Y-107942404D01*
X102075256Y-107993151D01*
X102150289Y-108006381D01*
X102269454Y-107988710D01*
X102799034Y-107617894D01*
X102713037Y-108105609D01*
X101878884Y-108229306D02*
X101792887Y-108717020D01*
X102139325Y-108507326D01*
X102119480Y-108619875D01*
X102143766Y-108701523D01*
X102174667Y-108745655D01*
X102243085Y-108796402D01*
X102430667Y-108829478D01*
X102512315Y-108805192D01*
X102556447Y-108774290D01*
X102607194Y-108705873D01*
X102646885Y-108480774D01*
X102622599Y-108399125D01*
X102591697Y-108354994D01*
X84991058Y-98906903D02*
X84203212Y-98767985D01*
X84170136Y-98955567D01*
X84187807Y-99074732D01*
X84249609Y-99162995D01*
X84318027Y-99213742D01*
X84461478Y-99277719D01*
X84574028Y-99297565D01*
X84730709Y-99286509D01*
X84812357Y-99262223D01*
X84900620Y-99200420D01*
X84957982Y-99094486D01*
X84991058Y-98906903D01*
X84145941Y-99531545D02*
X84101810Y-99562446D01*
X84051063Y-99630864D01*
X84017987Y-99818446D01*
X84042273Y-99900094D01*
X84073174Y-99944226D01*
X84141592Y-99994973D01*
X84216625Y-100008203D01*
X84335790Y-99990532D01*
X84865370Y-99619716D01*
X84779373Y-100107431D01*
X84013638Y-100281874D02*
X83969506Y-100312776D01*
X83918759Y-100381194D01*
X83885684Y-100568776D01*
X83909970Y-100650424D01*
X83940871Y-100694556D01*
X84009289Y-100745303D01*
X84084322Y-100758533D01*
X84203486Y-100740862D01*
X84733066Y-100370046D01*
X84647069Y-100857760D01*
X65610140Y-99116516D02*
X64822294Y-98977598D01*
X64789218Y-99165180D01*
X64806889Y-99284345D01*
X64868691Y-99372608D01*
X64937109Y-99423355D01*
X65080560Y-99487332D01*
X65193110Y-99507178D01*
X65349791Y-99496122D01*
X65431439Y-99471836D01*
X65519702Y-99410033D01*
X65577064Y-99304099D01*
X65610140Y-99116516D01*
X64765023Y-99741158D02*
X64720892Y-99772059D01*
X64670145Y-99840477D01*
X64637069Y-100028059D01*
X64661355Y-100109707D01*
X64692256Y-100153839D01*
X64760674Y-100204586D01*
X64835707Y-100217816D01*
X64954872Y-100200145D01*
X65484452Y-99829329D01*
X65398455Y-100317044D01*
X65266151Y-101067373D02*
X65345533Y-100617176D01*
X65305842Y-100842275D02*
X64517996Y-100703356D01*
X64643776Y-100648169D01*
X64732039Y-100586366D01*
X64782786Y-100517948D01*
X46022470Y-100498671D02*
X45234624Y-100359753D01*
X45201548Y-100547335D01*
X45219219Y-100666500D01*
X45281021Y-100754763D01*
X45349439Y-100805510D01*
X45492890Y-100869487D01*
X45605440Y-100889333D01*
X45762121Y-100878277D01*
X45843769Y-100853991D01*
X45932032Y-100792188D01*
X45989394Y-100686254D01*
X46022470Y-100498671D01*
X45177353Y-101123313D02*
X45133222Y-101154214D01*
X45082475Y-101222632D01*
X45049399Y-101410214D01*
X45073685Y-101491862D01*
X45104586Y-101535994D01*
X45173004Y-101586741D01*
X45248037Y-101599971D01*
X45367202Y-101582300D01*
X45896782Y-101211484D01*
X45810785Y-101699199D01*
X44936941Y-102047995D02*
X44923711Y-102123028D01*
X44947997Y-102204676D01*
X44978898Y-102248807D01*
X45047316Y-102299554D01*
X45190767Y-102363531D01*
X45378349Y-102396607D01*
X45535030Y-102385551D01*
X45616679Y-102361265D01*
X45660810Y-102330364D01*
X45711557Y-102261946D01*
X45724787Y-102186913D01*
X45700501Y-102105265D01*
X45669600Y-102061133D01*
X45601182Y-102010386D01*
X45457731Y-101946409D01*
X45270149Y-101913333D01*
X45113468Y-101924389D01*
X45031820Y-101948675D01*
X44987688Y-101979577D01*
X44936941Y-102047995D01*
X124166397Y-96142593D02*
X123378551Y-96003675D01*
X123345475Y-96191257D01*
X123363146Y-96310422D01*
X123424948Y-96398685D01*
X123493366Y-96449432D01*
X123636817Y-96513409D01*
X123749367Y-96533255D01*
X123906048Y-96522199D01*
X123987696Y-96497913D01*
X124075959Y-96436110D01*
X124133321Y-96330176D01*
X124166397Y-96142593D01*
X123954712Y-97343121D02*
X124034094Y-96892923D01*
X123994403Y-97118022D02*
X123206556Y-96979103D01*
X123332336Y-96923916D01*
X123420599Y-96862113D01*
X123471346Y-96793695D01*
X123310408Y-97925805D02*
X123835638Y-98018418D01*
X123043352Y-97685301D02*
X123639175Y-97596946D01*
X123553178Y-98084661D01*
X106232734Y-88144414D02*
X105444888Y-88005496D01*
X105411812Y-88193078D01*
X105429483Y-88312243D01*
X105491285Y-88400506D01*
X105559703Y-88451253D01*
X105703154Y-88515230D01*
X105815704Y-88535076D01*
X105972385Y-88524020D01*
X106054033Y-88499734D01*
X106142296Y-88437931D01*
X106199658Y-88331997D01*
X106232734Y-88144414D01*
X106021049Y-89344942D02*
X106100431Y-88894744D01*
X106060740Y-89119843D02*
X105272893Y-88980924D01*
X105398673Y-88925737D01*
X105486936Y-88863934D01*
X105537683Y-88795516D01*
X105186896Y-89468639D02*
X105100899Y-89956353D01*
X105447337Y-89746659D01*
X105427492Y-89859208D01*
X105451778Y-89940856D01*
X105482679Y-89984988D01*
X105551097Y-90035735D01*
X105738679Y-90068811D01*
X105820327Y-90044525D01*
X105864459Y-90013623D01*
X105915206Y-89945206D01*
X105954897Y-89720107D01*
X105930611Y-89638458D01*
X105899709Y-89594327D01*
X88299070Y-80146236D02*
X87511224Y-80007318D01*
X87478148Y-80194900D01*
X87495819Y-80314065D01*
X87557621Y-80402328D01*
X87626039Y-80453075D01*
X87769490Y-80517052D01*
X87882040Y-80536898D01*
X88038721Y-80525842D01*
X88120369Y-80501556D01*
X88208632Y-80439753D01*
X88265994Y-80333819D01*
X88299070Y-80146236D01*
X88087385Y-81346764D02*
X88166767Y-80896566D01*
X88127076Y-81121665D02*
X87339229Y-80982746D01*
X87465009Y-80927559D01*
X87553272Y-80865756D01*
X87604019Y-80797338D01*
X87321650Y-81521207D02*
X87277518Y-81552109D01*
X87226771Y-81620527D01*
X87193696Y-81808109D01*
X87217982Y-81889757D01*
X87248883Y-81933889D01*
X87317301Y-81984636D01*
X87392334Y-81997866D01*
X87511498Y-81980195D01*
X88041078Y-81609379D01*
X87955081Y-82097093D01*
X68711401Y-81528391D02*
X67923555Y-81389473D01*
X67890479Y-81577055D01*
X67908150Y-81696220D01*
X67969952Y-81784483D01*
X68038370Y-81835230D01*
X68181821Y-81899207D01*
X68294371Y-81919053D01*
X68451052Y-81907997D01*
X68532700Y-81883711D01*
X68620963Y-81821908D01*
X68678325Y-81715974D01*
X68711401Y-81528391D01*
X68499716Y-82728919D02*
X68579098Y-82278721D01*
X68539407Y-82503820D02*
X67751560Y-82364901D01*
X67877340Y-82309714D01*
X67965603Y-82247911D01*
X68016350Y-82179493D01*
X68367412Y-83479248D02*
X68446794Y-83029051D01*
X68407103Y-83254150D02*
X67619257Y-83115231D01*
X67745037Y-83060044D01*
X67833300Y-82998241D01*
X67884047Y-82929823D01*
X49123731Y-82910547D02*
X48335885Y-82771629D01*
X48302809Y-82959211D01*
X48320480Y-83078376D01*
X48382282Y-83166639D01*
X48450700Y-83217386D01*
X48594151Y-83281363D01*
X48706701Y-83301209D01*
X48863382Y-83290153D01*
X48945030Y-83265867D01*
X49033293Y-83204064D01*
X49090655Y-83098130D01*
X49123731Y-82910547D01*
X48912046Y-84111075D02*
X48991428Y-83660877D01*
X48951737Y-83885976D02*
X48163890Y-83747057D01*
X48289670Y-83691870D01*
X48377933Y-83630067D01*
X48428680Y-83561649D01*
X48038202Y-84459871D02*
X48024972Y-84534904D01*
X48049258Y-84616552D01*
X48080159Y-84660683D01*
X48148577Y-84711430D01*
X48292028Y-84775407D01*
X48479610Y-84808483D01*
X48636291Y-84797427D01*
X48717940Y-84773141D01*
X48762071Y-84742240D01*
X48812818Y-84673822D01*
X48826048Y-84598789D01*
X48801762Y-84517141D01*
X48770861Y-84473009D01*
X48702443Y-84422262D01*
X48558992Y-84358285D01*
X48371410Y-84325209D01*
X48214729Y-84336265D01*
X48133081Y-84360551D01*
X48088949Y-84391453D01*
X48038202Y-84459871D01*
X127408257Y-77757091D02*
X126620411Y-77618173D01*
X126587335Y-77805755D01*
X126605006Y-77924920D01*
X126666809Y-78013183D01*
X126735227Y-78063930D01*
X126878677Y-78127907D01*
X126991227Y-78147752D01*
X127147908Y-78136697D01*
X127229556Y-78112410D01*
X127317819Y-78050608D01*
X127375181Y-77944674D01*
X127408257Y-77757091D01*
X126684571Y-78789973D02*
X127209802Y-78882586D01*
X126417515Y-78549470D02*
X127013338Y-78461115D01*
X126927341Y-78948829D01*
X109474592Y-69758913D02*
X108686746Y-69619995D01*
X108653670Y-69807577D01*
X108671341Y-69926742D01*
X108733144Y-70015005D01*
X108801562Y-70065752D01*
X108945012Y-70129729D01*
X109057562Y-70149574D01*
X109214243Y-70138519D01*
X109295891Y-70114232D01*
X109384154Y-70052430D01*
X109441516Y-69946496D01*
X109474592Y-69758913D01*
X108561058Y-70332808D02*
X108475061Y-70820522D01*
X108821499Y-70610828D01*
X108801653Y-70723377D01*
X108825939Y-70805026D01*
X108856841Y-70849157D01*
X108925258Y-70899904D01*
X109112841Y-70932980D01*
X109194489Y-70908694D01*
X109238621Y-70877792D01*
X109289368Y-70809375D01*
X109329059Y-70584276D01*
X109304772Y-70502628D01*
X109273871Y-70458496D01*
X91540930Y-61760735D02*
X90753084Y-61621817D01*
X90720008Y-61809399D01*
X90737679Y-61928564D01*
X90799482Y-62016827D01*
X90867900Y-62067574D01*
X91011350Y-62131551D01*
X91123900Y-62151396D01*
X91280581Y-62140341D01*
X91362229Y-62116054D01*
X91450492Y-62054252D01*
X91507854Y-61948318D01*
X91540930Y-61760735D01*
X90695814Y-62385377D02*
X90651682Y-62416278D01*
X90600935Y-62484696D01*
X90567859Y-62672278D01*
X90592145Y-62753926D01*
X90623047Y-62798058D01*
X90691465Y-62848805D01*
X90766498Y-62862035D01*
X90885662Y-62844364D01*
X91415242Y-62473548D01*
X91329245Y-62961263D01*
X71953260Y-63142890D02*
X71165414Y-63003972D01*
X71132338Y-63191554D01*
X71150009Y-63310719D01*
X71211812Y-63398982D01*
X71280230Y-63449729D01*
X71423680Y-63513706D01*
X71536230Y-63533551D01*
X71692911Y-63522496D01*
X71774559Y-63498209D01*
X71862822Y-63436407D01*
X71920184Y-63330473D01*
X71953260Y-63142890D01*
X71741575Y-64343418D02*
X71820957Y-63893220D01*
X71781266Y-64118319D02*
X70993420Y-63979400D01*
X71119199Y-63924213D01*
X71207463Y-63862410D01*
X71258210Y-63793992D01*
X52365591Y-64525045D02*
X51577745Y-64386127D01*
X51544669Y-64573709D01*
X51562340Y-64692874D01*
X51624143Y-64781137D01*
X51692561Y-64831884D01*
X51836011Y-64895861D01*
X51948561Y-64915706D01*
X52105242Y-64904651D01*
X52186890Y-64880364D01*
X52275153Y-64818562D01*
X52332515Y-64712628D01*
X52365591Y-64525045D01*
X51412366Y-65324039D02*
X51399135Y-65399072D01*
X51423422Y-65480720D01*
X51454323Y-65524851D01*
X51522741Y-65575598D01*
X51666192Y-65639575D01*
X51853774Y-65672651D01*
X52010455Y-65661595D01*
X52092103Y-65637309D01*
X52136235Y-65606408D01*
X52186982Y-65537990D01*
X52200212Y-65462957D01*
X52175926Y-65381309D01*
X52145025Y-65337177D01*
X52076607Y-65286431D01*
X51933156Y-65222453D01*
X51745574Y-65189378D01*
X51588892Y-65200433D01*
X51507244Y-65224720D01*
X51463113Y-65255621D01*
X51412366Y-65324039D01*
M02*
