M48
; DRILL file {KiCad (5.1.4)-1} date 12/12/2020 2:35:43 PM
; FORMAT={-:-/ absolute / inch / decimal}
; #@! TF.CreationDate,2020-12-12T14:35:43-07:00
; #@! TF.GenerationSoftware,Kicad,Pcbnew,(5.1.4)-1
; #@! TF.FileFunction,NonPlated,1,2,NPTH
FMAT,2
INCH
T1C0.0689
T2C0.1570
%
G90
G05
T1
X7.0302Y-2.7551
X7.4241Y-2.6857
X2.2185Y-3.1638
X2.6124Y-3.2333
X1.4473Y-3.2182
X1.8413Y-3.2877
X2.9897Y-3.1094
X3.3836Y-3.1789
X8.6376Y-3.2333
X9.0315Y-3.1638
X7.1604Y-3.4937
X7.5543Y-3.4243
X9.2786Y-2.5491
X9.6725Y-2.4796
X2.0883Y-3.9024
X2.4822Y-3.9719
X9.539Y-4.0263
X9.9329Y-3.9568
X2.8594Y-3.848
X3.2534Y-3.9175
X3.1199Y-2.3708
X3.5138Y-2.4403
X8.5074Y-2.4947
X8.9013Y-2.4252
X4.2715Y-4.4778
X4.6655Y-4.5472
X4.4018Y-3.7392
X4.7957Y-3.8086
X2.3487Y-2.4252
X2.7427Y-2.4947
X7.2906Y-4.2324
X7.6846Y-4.1629
X7.8665Y-3.1789
X8.2604Y-3.1094
X8.7679Y-3.9719
X9.1618Y-3.9024
X7.7362Y-2.4403
X8.1301Y-2.3708
X7.9967Y-3.9175
X8.3906Y-3.848
X1.3171Y-3.9568
X1.711Y-4.0263
X3.826Y-2.6857
X4.2199Y-2.7551
X3.6957Y-3.4243
X4.0896Y-3.4937
X6.4544Y-3.8086
X6.8483Y-3.7392
X4.532Y-3.0006
X4.9259Y-3.07
X5.425Y-4.5666
X5.825Y-4.5666
X1.5776Y-2.4796
X1.9715Y-2.5491
X6.5846Y-4.5472
X6.9785Y-4.4778
X9.4088Y-3.2877
X9.8027Y-3.2182
X6.3241Y-3.07
X6.718Y-3.0006
X3.5655Y-4.1629
X3.9594Y-4.2324
T2
X8.8346Y-3.1985
X7.3574Y-3.459
X9.4755Y-2.5144
X2.2852Y-3.9372
X9.736Y-3.9916
X3.0564Y-3.8827
X3.3169Y-2.4055
X8.7043Y-2.4599
X4.4685Y-4.5125
X4.5987Y-3.7739
X2.5457Y-2.4599
X7.4876Y-4.1976
X8.0634Y-3.1441
X8.9648Y-3.9372
X7.9332Y-2.4055
X8.1936Y-3.8827
X1.5141Y-3.9916
X4.0229Y-2.7204
X3.8927Y-3.459
X6.6513Y-3.7739
X4.729Y-3.0353
X5.625Y-4.5666
X1.7745Y-2.5144
X6.7816Y-4.5125
X9.6057Y-3.253
X6.5211Y-3.0353
X3.7624Y-4.1976
X7.2271Y-2.7204
X2.4155Y-3.1985
X1.6443Y-3.253
X3.1866Y-3.1441
T0
M30
