G04 #@! TF.GenerationSoftware,KiCad,Pcbnew,(5.1.4)-1*
G04 #@! TF.CreationDate,2021-01-09T12:31:01-07:00*
G04 #@! TF.ProjectId,CS30 Ergo 3,43533330-2045-4726-976f-20332e6b6963,rev?*
G04 #@! TF.SameCoordinates,Original*
G04 #@! TF.FileFunction,Soldermask,Top*
G04 #@! TF.FilePolarity,Negative*
%FSLAX46Y46*%
G04 Gerber Fmt 4.6, Leading zero omitted, Abs format (unit mm)*
G04 Created by KiCad (PCBNEW (5.1.4)-1) date 2021-01-09 12:31:01*
%MOMM*%
%LPD*%
G04 APERTURE LIST*
%ADD10C,0.150000*%
G04 APERTURE END LIST*
D10*
G36*
X163409596Y-119259634D02*
G01*
X163578118Y-119329438D01*
X163729783Y-119430777D01*
X163858764Y-119559758D01*
X163960103Y-119711423D01*
X164029907Y-119879945D01*
X164065492Y-120058846D01*
X164065492Y-120241252D01*
X164029907Y-120420153D01*
X163960103Y-120588675D01*
X163858764Y-120740340D01*
X163729783Y-120869321D01*
X163578118Y-120970660D01*
X163409596Y-121040464D01*
X163230695Y-121076049D01*
X163048289Y-121076049D01*
X162869388Y-121040464D01*
X162700866Y-120970660D01*
X162549201Y-120869321D01*
X162420220Y-120740340D01*
X162318881Y-120588675D01*
X162249077Y-120420153D01*
X162213492Y-120241252D01*
X162213492Y-120058846D01*
X162249077Y-119879945D01*
X162318881Y-119711423D01*
X162420220Y-119559758D01*
X162549201Y-119430777D01*
X162700866Y-119329438D01*
X162869388Y-119259634D01*
X163048289Y-119224049D01*
X163230695Y-119224049D01*
X163409596Y-119259634D01*
X163409596Y-119259634D01*
G37*
G36*
X122881812Y-119259634D02*
G01*
X123050334Y-119329438D01*
X123201999Y-119430777D01*
X123330980Y-119559758D01*
X123432319Y-119711423D01*
X123502123Y-119879945D01*
X123537708Y-120058846D01*
X123537708Y-120241252D01*
X123502123Y-120420153D01*
X123432319Y-120588675D01*
X123330980Y-120740340D01*
X123201999Y-120869321D01*
X123050334Y-120970660D01*
X122881812Y-121040464D01*
X122702911Y-121076049D01*
X122520505Y-121076049D01*
X122341604Y-121040464D01*
X122173082Y-120970660D01*
X122021417Y-120869321D01*
X121892436Y-120740340D01*
X121791097Y-120588675D01*
X121721293Y-120420153D01*
X121685708Y-120241252D01*
X121685708Y-120058846D01*
X121721293Y-119879945D01*
X121791097Y-119711423D01*
X121892436Y-119559758D01*
X122021417Y-119430777D01*
X122173082Y-119329438D01*
X122341604Y-119259634D01*
X122520505Y-119224049D01*
X122702911Y-119224049D01*
X122881812Y-119259634D01*
X122881812Y-119259634D01*
G37*
G36*
X161998504Y-113410094D02*
G01*
X162216504Y-113500393D01*
X162370653Y-113564243D01*
X162705578Y-113788033D01*
X162990407Y-114072862D01*
X163214197Y-114407787D01*
X163214197Y-114407788D01*
X163368346Y-114779936D01*
X163446930Y-115175004D01*
X163446930Y-115577816D01*
X163368346Y-115972884D01*
X163278047Y-116190884D01*
X163214197Y-116345033D01*
X162990407Y-116679958D01*
X162705578Y-116964787D01*
X162370653Y-117188577D01*
X162216504Y-117252427D01*
X161998504Y-117342726D01*
X161603436Y-117421310D01*
X161200624Y-117421310D01*
X160805556Y-117342726D01*
X160587556Y-117252427D01*
X160433407Y-117188577D01*
X160098482Y-116964787D01*
X159813653Y-116679958D01*
X159589863Y-116345033D01*
X159526013Y-116190884D01*
X159435714Y-115972884D01*
X159357130Y-115577816D01*
X159357130Y-115175004D01*
X159435714Y-114779936D01*
X159589863Y-114407788D01*
X159589863Y-114407787D01*
X159813653Y-114072862D01*
X160098482Y-113788033D01*
X160433407Y-113564243D01*
X160587556Y-113500393D01*
X160805556Y-113410094D01*
X161200624Y-113331510D01*
X161603436Y-113331510D01*
X161998504Y-113410094D01*
X161998504Y-113410094D01*
G37*
G36*
X124945644Y-113410094D02*
G01*
X125163644Y-113500393D01*
X125317793Y-113564243D01*
X125652718Y-113788033D01*
X125937547Y-114072862D01*
X126161337Y-114407787D01*
X126161337Y-114407788D01*
X126315486Y-114779936D01*
X126394070Y-115175004D01*
X126394070Y-115577816D01*
X126315486Y-115972884D01*
X126225187Y-116190884D01*
X126161337Y-116345033D01*
X125937547Y-116679958D01*
X125652718Y-116964787D01*
X125317793Y-117188577D01*
X125163644Y-117252427D01*
X124945644Y-117342726D01*
X124550576Y-117421310D01*
X124147764Y-117421310D01*
X123752696Y-117342726D01*
X123534696Y-117252427D01*
X123380547Y-117188577D01*
X123045622Y-116964787D01*
X122760793Y-116679958D01*
X122537003Y-116345033D01*
X122473153Y-116190884D01*
X122382854Y-115972884D01*
X122304270Y-115577816D01*
X122304270Y-115175004D01*
X122382854Y-114779936D01*
X122537003Y-114407788D01*
X122537003Y-114407787D01*
X122760793Y-114072862D01*
X123045622Y-113788033D01*
X123380547Y-113564243D01*
X123534696Y-113500393D01*
X123752696Y-113410094D01*
X124147764Y-113331510D01*
X124550576Y-113331510D01*
X124945644Y-113410094D01*
X124945644Y-113410094D01*
G37*
G36*
X126356736Y-109712356D02*
G01*
X126525258Y-109782160D01*
X126676923Y-109883499D01*
X126805904Y-110012480D01*
X126907243Y-110164145D01*
X126977047Y-110332667D01*
X127012632Y-110511568D01*
X127012632Y-110693974D01*
X126977047Y-110872875D01*
X126907243Y-111041397D01*
X126805904Y-111193062D01*
X126676923Y-111322043D01*
X126525258Y-111423382D01*
X126356736Y-111493186D01*
X126177835Y-111528771D01*
X125995429Y-111528771D01*
X125816528Y-111493186D01*
X125648006Y-111423382D01*
X125496341Y-111322043D01*
X125367360Y-111193062D01*
X125266021Y-111041397D01*
X125196217Y-110872875D01*
X125160632Y-110693974D01*
X125160632Y-110511568D01*
X125196217Y-110332667D01*
X125266021Y-110164145D01*
X125367360Y-110012480D01*
X125496341Y-109883499D01*
X125648006Y-109782160D01*
X125816528Y-109712356D01*
X125995429Y-109676771D01*
X126177835Y-109676771D01*
X126356736Y-109712356D01*
X126356736Y-109712356D01*
G37*
G36*
X159934672Y-109712356D02*
G01*
X160103194Y-109782160D01*
X160254859Y-109883499D01*
X160383840Y-110012480D01*
X160485179Y-110164145D01*
X160554983Y-110332667D01*
X160590568Y-110511568D01*
X160590568Y-110693974D01*
X160554983Y-110872875D01*
X160485179Y-111041397D01*
X160383840Y-111193062D01*
X160254859Y-111322043D01*
X160103194Y-111423382D01*
X159934672Y-111493186D01*
X159755771Y-111528771D01*
X159573365Y-111528771D01*
X159394464Y-111493186D01*
X159225942Y-111423382D01*
X159074277Y-111322043D01*
X158945296Y-111193062D01*
X158843957Y-111041397D01*
X158774153Y-110872875D01*
X158738568Y-110693974D01*
X158738568Y-110511568D01*
X158774153Y-110332667D01*
X158843957Y-110164145D01*
X158945296Y-110012480D01*
X159074277Y-109883499D01*
X159225942Y-109782160D01*
X159394464Y-109712356D01*
X159573365Y-109676771D01*
X159755771Y-109676771D01*
X159934672Y-109712356D01*
X159934672Y-109712356D01*
G37*
G36*
X111491693Y-109707946D02*
G01*
X111660215Y-109777750D01*
X111811880Y-109879089D01*
X111940861Y-110008070D01*
X112042200Y-110159735D01*
X112112004Y-110328257D01*
X112147589Y-110507158D01*
X112147589Y-110689564D01*
X112112004Y-110868465D01*
X112042200Y-111036987D01*
X111940861Y-111188652D01*
X111811880Y-111317633D01*
X111660215Y-111418972D01*
X111491693Y-111488776D01*
X111312792Y-111524361D01*
X111130386Y-111524361D01*
X110951485Y-111488776D01*
X110782963Y-111418972D01*
X110631298Y-111317633D01*
X110502317Y-111188652D01*
X110400978Y-111036987D01*
X110331174Y-110868465D01*
X110295589Y-110689564D01*
X110295589Y-110507158D01*
X110331174Y-110328257D01*
X110400978Y-110159735D01*
X110502317Y-110008070D01*
X110631298Y-109879089D01*
X110782963Y-109777750D01*
X110951485Y-109707946D01*
X111130386Y-109672361D01*
X111312792Y-109672361D01*
X111491693Y-109707946D01*
X111491693Y-109707946D01*
G37*
G36*
X174799715Y-109707946D02*
G01*
X174968237Y-109777750D01*
X175119902Y-109879089D01*
X175248883Y-110008070D01*
X175350222Y-110159735D01*
X175420026Y-110328257D01*
X175455611Y-110507158D01*
X175455611Y-110689564D01*
X175420026Y-110868465D01*
X175350222Y-111036987D01*
X175248883Y-111188652D01*
X175119902Y-111317633D01*
X174968237Y-111418972D01*
X174799715Y-111488776D01*
X174620814Y-111524361D01*
X174438408Y-111524361D01*
X174259507Y-111488776D01*
X174090985Y-111418972D01*
X173939320Y-111317633D01*
X173810339Y-111188652D01*
X173709000Y-111036987D01*
X173639196Y-110868465D01*
X173603611Y-110689564D01*
X173603611Y-110507158D01*
X173639196Y-110328257D01*
X173709000Y-110159735D01*
X173810339Y-110008070D01*
X173939320Y-109879089D01*
X174090985Y-109777750D01*
X174259507Y-109707946D01*
X174438408Y-109672361D01*
X174620814Y-109672361D01*
X174799715Y-109707946D01*
X174799715Y-109707946D01*
G37*
G36*
X107044424Y-106894583D02*
G01*
X107262424Y-106984882D01*
X107416573Y-107048732D01*
X107751498Y-107272522D01*
X108036327Y-107557351D01*
X108260117Y-107892276D01*
X108310475Y-108013851D01*
X108414266Y-108264425D01*
X108492850Y-108659493D01*
X108492850Y-109062305D01*
X108414266Y-109457373D01*
X108325215Y-109672361D01*
X108260117Y-109829522D01*
X108036327Y-110164447D01*
X107751498Y-110449276D01*
X107416573Y-110673066D01*
X107366096Y-110693974D01*
X107044424Y-110827215D01*
X106649356Y-110905799D01*
X106246544Y-110905799D01*
X105851476Y-110827215D01*
X105529804Y-110693974D01*
X105479327Y-110673066D01*
X105144402Y-110449276D01*
X104859573Y-110164447D01*
X104635783Y-109829522D01*
X104570685Y-109672361D01*
X104481634Y-109457373D01*
X104403050Y-109062305D01*
X104403050Y-108659493D01*
X104481634Y-108264425D01*
X104585425Y-108013851D01*
X104635783Y-107892276D01*
X104859573Y-107557351D01*
X105144402Y-107272522D01*
X105479327Y-107048732D01*
X105633476Y-106984882D01*
X105851476Y-106894583D01*
X106246544Y-106815999D01*
X106649356Y-106815999D01*
X107044424Y-106894583D01*
X107044424Y-106894583D01*
G37*
G36*
X179899724Y-106894583D02*
G01*
X180117724Y-106984882D01*
X180271873Y-107048732D01*
X180606798Y-107272522D01*
X180891627Y-107557351D01*
X181115417Y-107892276D01*
X181165775Y-108013851D01*
X181269566Y-108264425D01*
X181348150Y-108659493D01*
X181348150Y-109062305D01*
X181269566Y-109457373D01*
X181180515Y-109672361D01*
X181115417Y-109829522D01*
X180891627Y-110164447D01*
X180606798Y-110449276D01*
X180271873Y-110673066D01*
X180221396Y-110693974D01*
X179899724Y-110827215D01*
X179504656Y-110905799D01*
X179101844Y-110905799D01*
X178706776Y-110827215D01*
X178385104Y-110693974D01*
X178334627Y-110673066D01*
X177999702Y-110449276D01*
X177714873Y-110164447D01*
X177491083Y-109829522D01*
X177425985Y-109672361D01*
X177336934Y-109457373D01*
X177258350Y-109062305D01*
X177258350Y-108659493D01*
X177336934Y-108264425D01*
X177440725Y-108013851D01*
X177491083Y-107892276D01*
X177714873Y-107557351D01*
X177999702Y-107272522D01*
X178334627Y-107048732D01*
X178488776Y-106984882D01*
X178706776Y-106894583D01*
X179101844Y-106815999D01*
X179504656Y-106815999D01*
X179899724Y-106894583D01*
X179899724Y-106894583D01*
G37*
G36*
X101944415Y-106233022D02*
G01*
X102112937Y-106302826D01*
X102264602Y-106404165D01*
X102393583Y-106533146D01*
X102494922Y-106684811D01*
X102564726Y-106853333D01*
X102600311Y-107032234D01*
X102600311Y-107214640D01*
X102564726Y-107393541D01*
X102494922Y-107562063D01*
X102393583Y-107713728D01*
X102264602Y-107842709D01*
X102112937Y-107944048D01*
X101944415Y-108013852D01*
X101765514Y-108049437D01*
X101583108Y-108049437D01*
X101404207Y-108013852D01*
X101235685Y-107944048D01*
X101084020Y-107842709D01*
X100955039Y-107713728D01*
X100853700Y-107562063D01*
X100783896Y-107393541D01*
X100748311Y-107214640D01*
X100748311Y-107032234D01*
X100783896Y-106853333D01*
X100853700Y-106684811D01*
X100955039Y-106533146D01*
X101084020Y-106404165D01*
X101235685Y-106302826D01*
X101404207Y-106233022D01*
X101583108Y-106197437D01*
X101765514Y-106197437D01*
X101944415Y-106233022D01*
X101944415Y-106233022D01*
G37*
G36*
X184346993Y-106233022D02*
G01*
X184515515Y-106302826D01*
X184667180Y-106404165D01*
X184796161Y-106533146D01*
X184897500Y-106684811D01*
X184967304Y-106853333D01*
X185002889Y-107032234D01*
X185002889Y-107214640D01*
X184967304Y-107393541D01*
X184897500Y-107562063D01*
X184796161Y-107713728D01*
X184667180Y-107842709D01*
X184515515Y-107944048D01*
X184346993Y-108013852D01*
X184168092Y-108049437D01*
X183985686Y-108049437D01*
X183806785Y-108013852D01*
X183638263Y-107944048D01*
X183486598Y-107842709D01*
X183357617Y-107713728D01*
X183256278Y-107562063D01*
X183186474Y-107393541D01*
X183150889Y-107214640D01*
X183150889Y-107032234D01*
X183186474Y-106853333D01*
X183256278Y-106684811D01*
X183357617Y-106533146D01*
X183486598Y-106404165D01*
X183638263Y-106302826D01*
X183806785Y-106233022D01*
X183985686Y-106197437D01*
X184168092Y-106197437D01*
X184346993Y-106233022D01*
X184346993Y-106233022D01*
G37*
G36*
X150766083Y-98803695D02*
G01*
X150934840Y-98873596D01*
X151086718Y-98975078D01*
X151215882Y-99104242D01*
X151317364Y-99256120D01*
X151387265Y-99424877D01*
X151422900Y-99604028D01*
X151422900Y-99786692D01*
X151387265Y-99965843D01*
X151317364Y-100134600D01*
X151215882Y-100286478D01*
X151086718Y-100415642D01*
X150934840Y-100517124D01*
X150766083Y-100587025D01*
X150586932Y-100622660D01*
X150404268Y-100622660D01*
X150225117Y-100587025D01*
X150056360Y-100517124D01*
X149904482Y-100415642D01*
X149775318Y-100286478D01*
X149673836Y-100134600D01*
X149603935Y-99965843D01*
X149568300Y-99786692D01*
X149568300Y-99604028D01*
X149603935Y-99424877D01*
X149673836Y-99256120D01*
X149775318Y-99104242D01*
X149904482Y-98975078D01*
X150056360Y-98873596D01*
X150225117Y-98803695D01*
X150404268Y-98768060D01*
X150586932Y-98768060D01*
X150766083Y-98803695D01*
X150766083Y-98803695D01*
G37*
G36*
X135526083Y-98803695D02*
G01*
X135694840Y-98873596D01*
X135846718Y-98975078D01*
X135975882Y-99104242D01*
X136077364Y-99256120D01*
X136147265Y-99424877D01*
X136182900Y-99604028D01*
X136182900Y-99786692D01*
X136147265Y-99965843D01*
X136077364Y-100134600D01*
X135975882Y-100286478D01*
X135846718Y-100415642D01*
X135694840Y-100517124D01*
X135526083Y-100587025D01*
X135346932Y-100622660D01*
X135164268Y-100622660D01*
X134985117Y-100587025D01*
X134816360Y-100517124D01*
X134664482Y-100415642D01*
X134535318Y-100286478D01*
X134433836Y-100134600D01*
X134363935Y-99965843D01*
X134328300Y-99786692D01*
X134328300Y-99604028D01*
X134363935Y-99424877D01*
X134433836Y-99256120D01*
X134535318Y-99104242D01*
X134664482Y-98975078D01*
X134816360Y-98873596D01*
X134985117Y-98803695D01*
X135164268Y-98768060D01*
X135346932Y-98768060D01*
X135526083Y-98803695D01*
X135526083Y-98803695D01*
G37*
G36*
X95219353Y-98717131D02*
G01*
X95387875Y-98786935D01*
X95539540Y-98888274D01*
X95668521Y-99017255D01*
X95769860Y-99168920D01*
X95839664Y-99337442D01*
X95875249Y-99516343D01*
X95875249Y-99698749D01*
X95839664Y-99877650D01*
X95769860Y-100046172D01*
X95668521Y-100197837D01*
X95539540Y-100326818D01*
X95387875Y-100428157D01*
X95219353Y-100497961D01*
X95040452Y-100533546D01*
X94858046Y-100533546D01*
X94679145Y-100497961D01*
X94510623Y-100428157D01*
X94358958Y-100326818D01*
X94229977Y-100197837D01*
X94128638Y-100046172D01*
X94058834Y-99877650D01*
X94023249Y-99698749D01*
X94023249Y-99516343D01*
X94058834Y-99337442D01*
X94128638Y-99168920D01*
X94229977Y-99017255D01*
X94358958Y-98888274D01*
X94510623Y-98786935D01*
X94679145Y-98717131D01*
X94858046Y-98681546D01*
X95040452Y-98681546D01*
X95219353Y-98717131D01*
X95219353Y-98717131D01*
G37*
G36*
X191072057Y-98717130D02*
G01*
X191240579Y-98786934D01*
X191392244Y-98888273D01*
X191521225Y-99017254D01*
X191622564Y-99168919D01*
X191692368Y-99337441D01*
X191727953Y-99516342D01*
X191727953Y-99698748D01*
X191692368Y-99877649D01*
X191622564Y-100046171D01*
X191521225Y-100197836D01*
X191392244Y-100326817D01*
X191240579Y-100428156D01*
X191072057Y-100497960D01*
X190893156Y-100533545D01*
X190710750Y-100533545D01*
X190531849Y-100497960D01*
X190363327Y-100428156D01*
X190211662Y-100326817D01*
X190082681Y-100197836D01*
X189981342Y-100046171D01*
X189911538Y-99877649D01*
X189875953Y-99698748D01*
X189875953Y-99516342D01*
X189911538Y-99337441D01*
X189981342Y-99168919D01*
X190082681Y-99017254D01*
X190211662Y-98888273D01*
X190363327Y-98786934D01*
X190531849Y-98717130D01*
X190710750Y-98681545D01*
X190893156Y-98681545D01*
X191072057Y-98717130D01*
X191072057Y-98717130D01*
G37*
G36*
X90772084Y-95903768D02*
G01*
X90990084Y-95994067D01*
X91144233Y-96057917D01*
X91479158Y-96281707D01*
X91763987Y-96566536D01*
X91987777Y-96901461D01*
X92038134Y-97023035D01*
X92141926Y-97273610D01*
X92220510Y-97668678D01*
X92220510Y-98071490D01*
X92141926Y-98466558D01*
X92052875Y-98681545D01*
X91987777Y-98838707D01*
X91763987Y-99173632D01*
X91479158Y-99458461D01*
X91144233Y-99682251D01*
X90990084Y-99746101D01*
X90772084Y-99836400D01*
X90377016Y-99914984D01*
X89974204Y-99914984D01*
X89579136Y-99836400D01*
X89361136Y-99746101D01*
X89206987Y-99682251D01*
X88872062Y-99458461D01*
X88587233Y-99173632D01*
X88363443Y-98838707D01*
X88298345Y-98681545D01*
X88209294Y-98466558D01*
X88130710Y-98071490D01*
X88130710Y-97668678D01*
X88209294Y-97273610D01*
X88313086Y-97023035D01*
X88363443Y-96901461D01*
X88587233Y-96566536D01*
X88872062Y-96281707D01*
X89206987Y-96057917D01*
X89361136Y-95994067D01*
X89579136Y-95903768D01*
X89974204Y-95825184D01*
X90377016Y-95825184D01*
X90772084Y-95903768D01*
X90772084Y-95903768D01*
G37*
G36*
X196172066Y-95903767D02*
G01*
X196390066Y-95994066D01*
X196544215Y-96057916D01*
X196879140Y-96281706D01*
X197163969Y-96566535D01*
X197387759Y-96901460D01*
X197409204Y-96953233D01*
X197541908Y-97273609D01*
X197620492Y-97668677D01*
X197620492Y-98071489D01*
X197541908Y-98466557D01*
X197541907Y-98466559D01*
X197387759Y-98838706D01*
X197163969Y-99173631D01*
X196879140Y-99458460D01*
X196544215Y-99682250D01*
X196390066Y-99746100D01*
X196172066Y-99836399D01*
X195776998Y-99914983D01*
X195374186Y-99914983D01*
X194979118Y-99836399D01*
X194761118Y-99746100D01*
X194606969Y-99682250D01*
X194272044Y-99458460D01*
X193987215Y-99173631D01*
X193763425Y-98838706D01*
X193609277Y-98466559D01*
X193609276Y-98466557D01*
X193530692Y-98071489D01*
X193530692Y-97668677D01*
X193609276Y-97273609D01*
X193741980Y-96953233D01*
X193763425Y-96901460D01*
X193987215Y-96566535D01*
X194272044Y-96281706D01*
X194606969Y-96057916D01*
X194761118Y-95994066D01*
X194979118Y-95903767D01*
X195374186Y-95825183D01*
X195776998Y-95825183D01*
X196172066Y-95903767D01*
X196172066Y-95903767D01*
G37*
G36*
X135526083Y-96263695D02*
G01*
X135694840Y-96333596D01*
X135846718Y-96435078D01*
X135975882Y-96564242D01*
X136077364Y-96716120D01*
X136147265Y-96884877D01*
X136182900Y-97064028D01*
X136182900Y-97246692D01*
X136147265Y-97425843D01*
X136077364Y-97594600D01*
X135975882Y-97746478D01*
X135846718Y-97875642D01*
X135694840Y-97977124D01*
X135526083Y-98047025D01*
X135346932Y-98082660D01*
X135164268Y-98082660D01*
X134985117Y-98047025D01*
X134816360Y-97977124D01*
X134664482Y-97875642D01*
X134535318Y-97746478D01*
X134433836Y-97594600D01*
X134363935Y-97425843D01*
X134328300Y-97246692D01*
X134328300Y-97064028D01*
X134363935Y-96884877D01*
X134433836Y-96716120D01*
X134535318Y-96564242D01*
X134664482Y-96435078D01*
X134816360Y-96333596D01*
X134985117Y-96263695D01*
X135164268Y-96228060D01*
X135346932Y-96228060D01*
X135526083Y-96263695D01*
X135526083Y-96263695D01*
G37*
G36*
X150766083Y-96263695D02*
G01*
X150934840Y-96333596D01*
X151086718Y-96435078D01*
X151215882Y-96564242D01*
X151317364Y-96716120D01*
X151387265Y-96884877D01*
X151422900Y-97064028D01*
X151422900Y-97246692D01*
X151387265Y-97425843D01*
X151317364Y-97594600D01*
X151215882Y-97746478D01*
X151086718Y-97875642D01*
X150934840Y-97977124D01*
X150766083Y-98047025D01*
X150586932Y-98082660D01*
X150404268Y-98082660D01*
X150225117Y-98047025D01*
X150056360Y-97977124D01*
X149904482Y-97875642D01*
X149775318Y-97746478D01*
X149673836Y-97594600D01*
X149603935Y-97425843D01*
X149568300Y-97246692D01*
X149568300Y-97064028D01*
X149603935Y-96884877D01*
X149673836Y-96716120D01*
X149775318Y-96564242D01*
X149904482Y-96435078D01*
X150056360Y-96333596D01*
X150225117Y-96263695D01*
X150404268Y-96228060D01*
X150586932Y-96228060D01*
X150766083Y-96263695D01*
X150766083Y-96263695D01*
G37*
G36*
X85672075Y-95242207D02*
G01*
X85840597Y-95312011D01*
X85992262Y-95413350D01*
X86121243Y-95542331D01*
X86222582Y-95693996D01*
X86292386Y-95862518D01*
X86327971Y-96041419D01*
X86327971Y-96223825D01*
X86292386Y-96402726D01*
X86222582Y-96571248D01*
X86121243Y-96722913D01*
X85992262Y-96851894D01*
X85840597Y-96953233D01*
X85672075Y-97023037D01*
X85493174Y-97058622D01*
X85310768Y-97058622D01*
X85131867Y-97023037D01*
X84963345Y-96953233D01*
X84811680Y-96851894D01*
X84682699Y-96722913D01*
X84581360Y-96571248D01*
X84511556Y-96402726D01*
X84475971Y-96223825D01*
X84475971Y-96041419D01*
X84511556Y-95862518D01*
X84581360Y-95693996D01*
X84682699Y-95542331D01*
X84811680Y-95413350D01*
X84963345Y-95312011D01*
X85131867Y-95242207D01*
X85310768Y-95206622D01*
X85493174Y-95206622D01*
X85672075Y-95242207D01*
X85672075Y-95242207D01*
G37*
G36*
X200619335Y-95242206D02*
G01*
X200787857Y-95312010D01*
X200939522Y-95413349D01*
X201068503Y-95542330D01*
X201169842Y-95693995D01*
X201239646Y-95862517D01*
X201275231Y-96041418D01*
X201275231Y-96223824D01*
X201239646Y-96402725D01*
X201169842Y-96571247D01*
X201068503Y-96722912D01*
X200939522Y-96851893D01*
X200787857Y-96953232D01*
X200619335Y-97023036D01*
X200440434Y-97058621D01*
X200258028Y-97058621D01*
X200079127Y-97023036D01*
X199910605Y-96953232D01*
X199758940Y-96851893D01*
X199629959Y-96722912D01*
X199528620Y-96571247D01*
X199458816Y-96402725D01*
X199423231Y-96223824D01*
X199423231Y-96041418D01*
X199458816Y-95862517D01*
X199528620Y-95693995D01*
X199629959Y-95542330D01*
X199758940Y-95413349D01*
X199910605Y-95312010D01*
X200079127Y-95242206D01*
X200258028Y-95206621D01*
X200440434Y-95206621D01*
X200619335Y-95242206D01*
X200619335Y-95242206D01*
G37*
G36*
X150766083Y-93723695D02*
G01*
X150934840Y-93793596D01*
X151086718Y-93895078D01*
X151215882Y-94024242D01*
X151317364Y-94176120D01*
X151387265Y-94344877D01*
X151422900Y-94524028D01*
X151422900Y-94706692D01*
X151387265Y-94885843D01*
X151317364Y-95054600D01*
X151215882Y-95206478D01*
X151086718Y-95335642D01*
X150934840Y-95437124D01*
X150766083Y-95507025D01*
X150586932Y-95542660D01*
X150404268Y-95542660D01*
X150225117Y-95507025D01*
X150056360Y-95437124D01*
X149904482Y-95335642D01*
X149775318Y-95206478D01*
X149673836Y-95054600D01*
X149603935Y-94885843D01*
X149568300Y-94706692D01*
X149568300Y-94524028D01*
X149603935Y-94344877D01*
X149673836Y-94176120D01*
X149775318Y-94024242D01*
X149904482Y-93895078D01*
X150056360Y-93793596D01*
X150225117Y-93723695D01*
X150404268Y-93688060D01*
X150586932Y-93688060D01*
X150766083Y-93723695D01*
X150766083Y-93723695D01*
G37*
G36*
X135526083Y-93723695D02*
G01*
X135694840Y-93793596D01*
X135846718Y-93895078D01*
X135975882Y-94024242D01*
X136077364Y-94176120D01*
X136147265Y-94344877D01*
X136182900Y-94524028D01*
X136182900Y-94706692D01*
X136147265Y-94885843D01*
X136077364Y-95054600D01*
X135975882Y-95206478D01*
X135846718Y-95335642D01*
X135694840Y-95437124D01*
X135526083Y-95507025D01*
X135346932Y-95542660D01*
X135164268Y-95542660D01*
X134985117Y-95507025D01*
X134816360Y-95437124D01*
X134664482Y-95335642D01*
X134535318Y-95206478D01*
X134433836Y-95054600D01*
X134363935Y-94885843D01*
X134328300Y-94706692D01*
X134328300Y-94524028D01*
X134363935Y-94344877D01*
X134433836Y-94176120D01*
X134535318Y-94024242D01*
X134664482Y-93895078D01*
X134816360Y-93793596D01*
X134985117Y-93723695D01*
X135164268Y-93688060D01*
X135346932Y-93688060D01*
X135526083Y-93723695D01*
X135526083Y-93723695D01*
G37*
G36*
X118007206Y-91806728D02*
G01*
X118175728Y-91876532D01*
X118327393Y-91977871D01*
X118456374Y-92106852D01*
X118557713Y-92258517D01*
X118627517Y-92427039D01*
X118663102Y-92605940D01*
X118663102Y-92788346D01*
X118627517Y-92967247D01*
X118557713Y-93135769D01*
X118456374Y-93287434D01*
X118327393Y-93416415D01*
X118175728Y-93517754D01*
X118007206Y-93587558D01*
X117828305Y-93623143D01*
X117645899Y-93623143D01*
X117466998Y-93587558D01*
X117298476Y-93517754D01*
X117146811Y-93416415D01*
X117017830Y-93287434D01*
X116916491Y-93135769D01*
X116846687Y-92967247D01*
X116811102Y-92788346D01*
X116811102Y-92605940D01*
X116846687Y-92427039D01*
X116916491Y-92258517D01*
X117017830Y-92106852D01*
X117146811Y-91977871D01*
X117298476Y-91876532D01*
X117466998Y-91806728D01*
X117645899Y-91771143D01*
X117828305Y-91771143D01*
X118007206Y-91806728D01*
X118007206Y-91806728D01*
G37*
G36*
X168284204Y-91806726D02*
G01*
X168452726Y-91876530D01*
X168604391Y-91977869D01*
X168733372Y-92106850D01*
X168834711Y-92258515D01*
X168904515Y-92427037D01*
X168940100Y-92605938D01*
X168940100Y-92788344D01*
X168904515Y-92967245D01*
X168834711Y-93135767D01*
X168733372Y-93287432D01*
X168604391Y-93416413D01*
X168452726Y-93517752D01*
X168284204Y-93587556D01*
X168105303Y-93623141D01*
X167922897Y-93623141D01*
X167743996Y-93587556D01*
X167575474Y-93517752D01*
X167423809Y-93416413D01*
X167294828Y-93287432D01*
X167193489Y-93135767D01*
X167123685Y-92967245D01*
X167088100Y-92788344D01*
X167088100Y-92605938D01*
X167123685Y-92427037D01*
X167193489Y-92258515D01*
X167294828Y-92106850D01*
X167423809Y-91977869D01*
X167575474Y-91876530D01*
X167743996Y-91806726D01*
X167922897Y-91771141D01*
X168105303Y-91771141D01*
X168284204Y-91806726D01*
X168284204Y-91806726D01*
G37*
G36*
X113559937Y-88993365D02*
G01*
X113777937Y-89083664D01*
X113932086Y-89147514D01*
X114267011Y-89371304D01*
X114551840Y-89656133D01*
X114775630Y-89991058D01*
X114831723Y-90126479D01*
X114929779Y-90363207D01*
X115008363Y-90758275D01*
X115008363Y-91161087D01*
X114929779Y-91556155D01*
X114896656Y-91636120D01*
X114775630Y-91928304D01*
X114551840Y-92263229D01*
X114267011Y-92548058D01*
X113932086Y-92771848D01*
X113777937Y-92835698D01*
X113559937Y-92925997D01*
X113164869Y-93004581D01*
X112762057Y-93004581D01*
X112366989Y-92925997D01*
X112148989Y-92835698D01*
X111994840Y-92771848D01*
X111659915Y-92548058D01*
X111375086Y-92263229D01*
X111151296Y-91928304D01*
X111030270Y-91636120D01*
X110997147Y-91556155D01*
X110918563Y-91161087D01*
X110918563Y-90758275D01*
X110997147Y-90363207D01*
X111095203Y-90126479D01*
X111151296Y-89991058D01*
X111375086Y-89656133D01*
X111659915Y-89371304D01*
X111994840Y-89147514D01*
X112148989Y-89083664D01*
X112366989Y-88993365D01*
X112762057Y-88914781D01*
X113164869Y-88914781D01*
X113559937Y-88993365D01*
X113559937Y-88993365D01*
G37*
G36*
X173384213Y-88993363D02*
G01*
X173602213Y-89083662D01*
X173756362Y-89147512D01*
X174091287Y-89371302D01*
X174376116Y-89656131D01*
X174599906Y-89991056D01*
X174621351Y-90042830D01*
X174754055Y-90363205D01*
X174832639Y-90758273D01*
X174832639Y-91161085D01*
X174754055Y-91556153D01*
X174665004Y-91771141D01*
X174599906Y-91928302D01*
X174376116Y-92263227D01*
X174091287Y-92548056D01*
X173756362Y-92771846D01*
X173602213Y-92835696D01*
X173384213Y-92925995D01*
X172989145Y-93004579D01*
X172586333Y-93004579D01*
X172191265Y-92925995D01*
X171973265Y-92835696D01*
X171819116Y-92771846D01*
X171484191Y-92548056D01*
X171199362Y-92263227D01*
X170975572Y-91928302D01*
X170910474Y-91771141D01*
X170821423Y-91556153D01*
X170742839Y-91161085D01*
X170742839Y-90758273D01*
X170821423Y-90363205D01*
X170954127Y-90042830D01*
X170975572Y-89991056D01*
X171199362Y-89656131D01*
X171484191Y-89371302D01*
X171819116Y-89147512D01*
X171973265Y-89083662D01*
X172191265Y-88993363D01*
X172586333Y-88914779D01*
X172989145Y-88914779D01*
X173384213Y-88993363D01*
X173384213Y-88993363D01*
G37*
G36*
X135526083Y-91183695D02*
G01*
X135694840Y-91253596D01*
X135846718Y-91355078D01*
X135975882Y-91484242D01*
X136077364Y-91636120D01*
X136147265Y-91804877D01*
X136182900Y-91984028D01*
X136182900Y-92166692D01*
X136147265Y-92345843D01*
X136077364Y-92514600D01*
X135975882Y-92666478D01*
X135846718Y-92795642D01*
X135694840Y-92897124D01*
X135526083Y-92967025D01*
X135346932Y-93002660D01*
X135164268Y-93002660D01*
X134985117Y-92967025D01*
X134816360Y-92897124D01*
X134664482Y-92795642D01*
X134535318Y-92666478D01*
X134433836Y-92514600D01*
X134363935Y-92345843D01*
X134328300Y-92166692D01*
X134328300Y-91984028D01*
X134363935Y-91804877D01*
X134433836Y-91636120D01*
X134535318Y-91484242D01*
X134664482Y-91355078D01*
X134816360Y-91253596D01*
X134985117Y-91183695D01*
X135164268Y-91148060D01*
X135346932Y-91148060D01*
X135526083Y-91183695D01*
X135526083Y-91183695D01*
G37*
G36*
X150766083Y-91183695D02*
G01*
X150934840Y-91253596D01*
X151086718Y-91355078D01*
X151215882Y-91484242D01*
X151317364Y-91636120D01*
X151387265Y-91804877D01*
X151422900Y-91984028D01*
X151422900Y-92166692D01*
X151387265Y-92345843D01*
X151317364Y-92514600D01*
X151215882Y-92666478D01*
X151086718Y-92795642D01*
X150934840Y-92897124D01*
X150766083Y-92967025D01*
X150586932Y-93002660D01*
X150404268Y-93002660D01*
X150225117Y-92967025D01*
X150056360Y-92897124D01*
X149904482Y-92795642D01*
X149775318Y-92666478D01*
X149673836Y-92514600D01*
X149603935Y-92345843D01*
X149568300Y-92166692D01*
X149568300Y-91984028D01*
X149603935Y-91804877D01*
X149673836Y-91636120D01*
X149775318Y-91484242D01*
X149904482Y-91355078D01*
X150056360Y-91253596D01*
X150225117Y-91183695D01*
X150404268Y-91148060D01*
X150586932Y-91148060D01*
X150766083Y-91183695D01*
X150766083Y-91183695D01*
G37*
G36*
X150766083Y-88643695D02*
G01*
X150934840Y-88713596D01*
X151086718Y-88815078D01*
X151215882Y-88944242D01*
X151317364Y-89096120D01*
X151387265Y-89264877D01*
X151422900Y-89444028D01*
X151422900Y-89626692D01*
X151387265Y-89805843D01*
X151317364Y-89974600D01*
X151215882Y-90126478D01*
X151086718Y-90255642D01*
X150934840Y-90357124D01*
X150766083Y-90427025D01*
X150586932Y-90462660D01*
X150404268Y-90462660D01*
X150225117Y-90427025D01*
X150056360Y-90357124D01*
X149904482Y-90255642D01*
X149775318Y-90126478D01*
X149673836Y-89974600D01*
X149603935Y-89805843D01*
X149568300Y-89626692D01*
X149568300Y-89444028D01*
X149603935Y-89264877D01*
X149673836Y-89096120D01*
X149775318Y-88944242D01*
X149904482Y-88815078D01*
X150056360Y-88713596D01*
X150225117Y-88643695D01*
X150404268Y-88608060D01*
X150586932Y-88608060D01*
X150766083Y-88643695D01*
X150766083Y-88643695D01*
G37*
G36*
X135526083Y-88643695D02*
G01*
X135694840Y-88713596D01*
X135846718Y-88815078D01*
X135975882Y-88944242D01*
X136077364Y-89096120D01*
X136147265Y-89264877D01*
X136182900Y-89444028D01*
X136182900Y-89626692D01*
X136147265Y-89805843D01*
X136077364Y-89974600D01*
X135975882Y-90126478D01*
X135846718Y-90255642D01*
X135694840Y-90357124D01*
X135526083Y-90427025D01*
X135346932Y-90462660D01*
X135164268Y-90462660D01*
X134985117Y-90427025D01*
X134816360Y-90357124D01*
X134664482Y-90255642D01*
X134535318Y-90126478D01*
X134433836Y-89974600D01*
X134363935Y-89805843D01*
X134328300Y-89626692D01*
X134328300Y-89444028D01*
X134363935Y-89264877D01*
X134433836Y-89096120D01*
X134535318Y-88944242D01*
X134664482Y-88815078D01*
X134816360Y-88713596D01*
X134985117Y-88643695D01*
X135164268Y-88608060D01*
X135346932Y-88608060D01*
X135526083Y-88643695D01*
X135526083Y-88643695D01*
G37*
G36*
X108459928Y-88331804D02*
G01*
X108628450Y-88401608D01*
X108780115Y-88502947D01*
X108909096Y-88631928D01*
X109010435Y-88783593D01*
X109080239Y-88952115D01*
X109115824Y-89131016D01*
X109115824Y-89313422D01*
X109080239Y-89492323D01*
X109010435Y-89660845D01*
X108909096Y-89812510D01*
X108780115Y-89941491D01*
X108628450Y-90042830D01*
X108459928Y-90112634D01*
X108281027Y-90148219D01*
X108098621Y-90148219D01*
X107919720Y-90112634D01*
X107751198Y-90042830D01*
X107599533Y-89941491D01*
X107470552Y-89812510D01*
X107369213Y-89660845D01*
X107299409Y-89492323D01*
X107263824Y-89313422D01*
X107263824Y-89131016D01*
X107299409Y-88952115D01*
X107369213Y-88783593D01*
X107470552Y-88631928D01*
X107599533Y-88502947D01*
X107751198Y-88401608D01*
X107919720Y-88331804D01*
X108098621Y-88296219D01*
X108281027Y-88296219D01*
X108459928Y-88331804D01*
X108459928Y-88331804D01*
G37*
G36*
X177831482Y-88331802D02*
G01*
X178000004Y-88401606D01*
X178151669Y-88502945D01*
X178280650Y-88631926D01*
X178381989Y-88783591D01*
X178451793Y-88952113D01*
X178487378Y-89131014D01*
X178487378Y-89313420D01*
X178451793Y-89492321D01*
X178381989Y-89660843D01*
X178280650Y-89812508D01*
X178151669Y-89941489D01*
X178000004Y-90042828D01*
X177831482Y-90112632D01*
X177652581Y-90148217D01*
X177470175Y-90148217D01*
X177291274Y-90112632D01*
X177122752Y-90042828D01*
X176971087Y-89941489D01*
X176842106Y-89812508D01*
X176740767Y-89660843D01*
X176670963Y-89492321D01*
X176635378Y-89313420D01*
X176635378Y-89131014D01*
X176670963Y-88952113D01*
X176740767Y-88783591D01*
X176842106Y-88631926D01*
X176971087Y-88502945D01*
X177122752Y-88401606D01*
X177291274Y-88331802D01*
X177470175Y-88296217D01*
X177652581Y-88296217D01*
X177831482Y-88331802D01*
X177831482Y-88331802D01*
G37*
G36*
X207344398Y-87726314D02*
G01*
X207512920Y-87796118D01*
X207664585Y-87897457D01*
X207793566Y-88026438D01*
X207894905Y-88178103D01*
X207964709Y-88346625D01*
X208000294Y-88525526D01*
X208000294Y-88707932D01*
X207964709Y-88886833D01*
X207894905Y-89055355D01*
X207793566Y-89207020D01*
X207664585Y-89336001D01*
X207512920Y-89437340D01*
X207344398Y-89507144D01*
X207165497Y-89542729D01*
X206983091Y-89542729D01*
X206804190Y-89507144D01*
X206635668Y-89437340D01*
X206484003Y-89336001D01*
X206355022Y-89207020D01*
X206253683Y-89055355D01*
X206183879Y-88886833D01*
X206148294Y-88707932D01*
X206148294Y-88525526D01*
X206183879Y-88346625D01*
X206253683Y-88178103D01*
X206355022Y-88026438D01*
X206484003Y-87897457D01*
X206635668Y-87796118D01*
X206804190Y-87726314D01*
X206983091Y-87690729D01*
X207165497Y-87690729D01*
X207344398Y-87726314D01*
X207344398Y-87726314D01*
G37*
G36*
X78947010Y-87726313D02*
G01*
X79115532Y-87796117D01*
X79267197Y-87897456D01*
X79396178Y-88026437D01*
X79497517Y-88178102D01*
X79567321Y-88346624D01*
X79602906Y-88525525D01*
X79602906Y-88707931D01*
X79567321Y-88886832D01*
X79497517Y-89055354D01*
X79396178Y-89207019D01*
X79267197Y-89336000D01*
X79115532Y-89437339D01*
X78947010Y-89507143D01*
X78768109Y-89542728D01*
X78585703Y-89542728D01*
X78406802Y-89507143D01*
X78238280Y-89437339D01*
X78086615Y-89336000D01*
X77957634Y-89207019D01*
X77856295Y-89055354D01*
X77786491Y-88886832D01*
X77750906Y-88707931D01*
X77750906Y-88525525D01*
X77786491Y-88346624D01*
X77856295Y-88178102D01*
X77957634Y-88026437D01*
X78086615Y-87897456D01*
X78238280Y-87796117D01*
X78406802Y-87726313D01*
X78585703Y-87690728D01*
X78768109Y-87690728D01*
X78947010Y-87726313D01*
X78947010Y-87726313D01*
G37*
G36*
X212444407Y-84912951D02*
G01*
X212662407Y-85003250D01*
X212816556Y-85067100D01*
X213151481Y-85290890D01*
X213436310Y-85575719D01*
X213660100Y-85910644D01*
X213691409Y-85986232D01*
X213814249Y-86282793D01*
X213892833Y-86677861D01*
X213892833Y-87080673D01*
X213814249Y-87475741D01*
X213725198Y-87690728D01*
X213660100Y-87847890D01*
X213436310Y-88182815D01*
X213151481Y-88467644D01*
X212816556Y-88691434D01*
X212662407Y-88755284D01*
X212444407Y-88845583D01*
X212049339Y-88924167D01*
X211646527Y-88924167D01*
X211251459Y-88845583D01*
X211033459Y-88755284D01*
X210879310Y-88691434D01*
X210544385Y-88467644D01*
X210259556Y-88182815D01*
X210035766Y-87847890D01*
X209970668Y-87690728D01*
X209881617Y-87475741D01*
X209803033Y-87080673D01*
X209803033Y-86677861D01*
X209881617Y-86282793D01*
X210004457Y-85986232D01*
X210035766Y-85910644D01*
X210259556Y-85575719D01*
X210544385Y-85290890D01*
X210879310Y-85067100D01*
X211033459Y-85003250D01*
X211251459Y-84912951D01*
X211646527Y-84834367D01*
X212049339Y-84834367D01*
X212444407Y-84912951D01*
X212444407Y-84912951D01*
G37*
G36*
X74499741Y-84912950D02*
G01*
X74649405Y-84974943D01*
X74871890Y-85067099D01*
X75206815Y-85290889D01*
X75491644Y-85575718D01*
X75715434Y-85910643D01*
X75736879Y-85962416D01*
X75869583Y-86282792D01*
X75948167Y-86677860D01*
X75948167Y-87080672D01*
X75869583Y-87475740D01*
X75823713Y-87586479D01*
X75715434Y-87847889D01*
X75491644Y-88182814D01*
X75206815Y-88467643D01*
X74871890Y-88691433D01*
X74717741Y-88755283D01*
X74499741Y-88845582D01*
X74104673Y-88924166D01*
X73701861Y-88924166D01*
X73306793Y-88845582D01*
X73088793Y-88755283D01*
X72934644Y-88691433D01*
X72599719Y-88467643D01*
X72314890Y-88182814D01*
X72091100Y-87847889D01*
X71982821Y-87586479D01*
X71936951Y-87475740D01*
X71858367Y-87080672D01*
X71858367Y-86677860D01*
X71936951Y-86282792D01*
X72069655Y-85962416D01*
X72091100Y-85910643D01*
X72314890Y-85575718D01*
X72599719Y-85290889D01*
X72934644Y-85067099D01*
X73157129Y-84974943D01*
X73306793Y-84912950D01*
X73701861Y-84834366D01*
X74104673Y-84834366D01*
X74499741Y-84912950D01*
X74499741Y-84912950D01*
G37*
G36*
X135526083Y-86103695D02*
G01*
X135694840Y-86173596D01*
X135846718Y-86275078D01*
X135975882Y-86404242D01*
X136077364Y-86556120D01*
X136147265Y-86724877D01*
X136182900Y-86904028D01*
X136182900Y-87086692D01*
X136147265Y-87265843D01*
X136077364Y-87434600D01*
X135975882Y-87586478D01*
X135846718Y-87715642D01*
X135694840Y-87817124D01*
X135526083Y-87887025D01*
X135346932Y-87922660D01*
X135164268Y-87922660D01*
X134985117Y-87887025D01*
X134816360Y-87817124D01*
X134664482Y-87715642D01*
X134535318Y-87586478D01*
X134433836Y-87434600D01*
X134363935Y-87265843D01*
X134328300Y-87086692D01*
X134328300Y-86904028D01*
X134363935Y-86724877D01*
X134433836Y-86556120D01*
X134535318Y-86404242D01*
X134664482Y-86275078D01*
X134816360Y-86173596D01*
X134985117Y-86103695D01*
X135164268Y-86068060D01*
X135346932Y-86068060D01*
X135526083Y-86103695D01*
X135526083Y-86103695D01*
G37*
G36*
X150766083Y-86103695D02*
G01*
X150934840Y-86173596D01*
X151086718Y-86275078D01*
X151215882Y-86404242D01*
X151317364Y-86556120D01*
X151387265Y-86724877D01*
X151422900Y-86904028D01*
X151422900Y-87086692D01*
X151387265Y-87265843D01*
X151317364Y-87434600D01*
X151215882Y-87586478D01*
X151086718Y-87715642D01*
X150934840Y-87817124D01*
X150766083Y-87887025D01*
X150586932Y-87922660D01*
X150404268Y-87922660D01*
X150225117Y-87887025D01*
X150056360Y-87817124D01*
X149904482Y-87715642D01*
X149775318Y-87586478D01*
X149673836Y-87434600D01*
X149603935Y-87265843D01*
X149568300Y-87086692D01*
X149568300Y-86904028D01*
X149603935Y-86724877D01*
X149673836Y-86556120D01*
X149775318Y-86404242D01*
X149904482Y-86275078D01*
X150056360Y-86173596D01*
X150225117Y-86103695D01*
X150404268Y-86068060D01*
X150586932Y-86068060D01*
X150766083Y-86103695D01*
X150766083Y-86103695D01*
G37*
G36*
X59416912Y-85686108D02*
G01*
X59585434Y-85755912D01*
X59737099Y-85857251D01*
X59866080Y-85986232D01*
X59967419Y-86137897D01*
X60037223Y-86306419D01*
X60072808Y-86485320D01*
X60072808Y-86667726D01*
X60037223Y-86846627D01*
X59967419Y-87015149D01*
X59866080Y-87166814D01*
X59737099Y-87295795D01*
X59585434Y-87397134D01*
X59416912Y-87466938D01*
X59238011Y-87502523D01*
X59055605Y-87502523D01*
X58876704Y-87466938D01*
X58708182Y-87397134D01*
X58556517Y-87295795D01*
X58427536Y-87166814D01*
X58326197Y-87015149D01*
X58256393Y-86846627D01*
X58220808Y-86667726D01*
X58220808Y-86485320D01*
X58256393Y-86306419D01*
X58326197Y-86137897D01*
X58427536Y-85986232D01*
X58556517Y-85857251D01*
X58708182Y-85755912D01*
X58876704Y-85686108D01*
X59055605Y-85650523D01*
X59238011Y-85650523D01*
X59416912Y-85686108D01*
X59416912Y-85686108D01*
G37*
G36*
X226874496Y-85686108D02*
G01*
X227043018Y-85755912D01*
X227194683Y-85857251D01*
X227323664Y-85986232D01*
X227425003Y-86137897D01*
X227494807Y-86306419D01*
X227530392Y-86485320D01*
X227530392Y-86667726D01*
X227494807Y-86846627D01*
X227425003Y-87015149D01*
X227323664Y-87166814D01*
X227194683Y-87295795D01*
X227043018Y-87397134D01*
X226874496Y-87466938D01*
X226695595Y-87502523D01*
X226513189Y-87502523D01*
X226334288Y-87466938D01*
X226165766Y-87397134D01*
X226014101Y-87295795D01*
X225885120Y-87166814D01*
X225783781Y-87015149D01*
X225713977Y-86846627D01*
X225678392Y-86667726D01*
X225678392Y-86485320D01*
X225713977Y-86306419D01*
X225783781Y-86137897D01*
X225885120Y-85986232D01*
X226014101Y-85857251D01*
X226165766Y-85755912D01*
X226334288Y-85686108D01*
X226513189Y-85650523D01*
X226695595Y-85650523D01*
X226874496Y-85686108D01*
X226874496Y-85686108D01*
G37*
G36*
X54969643Y-82872745D02*
G01*
X55187643Y-82963044D01*
X55341792Y-83026894D01*
X55676717Y-83250684D01*
X55961546Y-83535513D01*
X56185336Y-83870438D01*
X56216645Y-83946026D01*
X56339485Y-84242587D01*
X56418069Y-84637655D01*
X56418069Y-85040467D01*
X56339485Y-85435535D01*
X56281419Y-85575718D01*
X56185336Y-85807684D01*
X55961546Y-86142609D01*
X55676717Y-86427438D01*
X55341792Y-86651228D01*
X55187643Y-86715078D01*
X54969643Y-86805377D01*
X54574575Y-86883961D01*
X54171763Y-86883961D01*
X53776695Y-86805377D01*
X53558695Y-86715078D01*
X53404546Y-86651228D01*
X53069621Y-86427438D01*
X52784792Y-86142609D01*
X52561002Y-85807684D01*
X52464919Y-85575718D01*
X52406853Y-85435535D01*
X52328269Y-85040467D01*
X52328269Y-84637655D01*
X52406853Y-84242587D01*
X52529693Y-83946026D01*
X52561002Y-83870438D01*
X52784792Y-83535513D01*
X53069621Y-83250684D01*
X53404546Y-83026894D01*
X53558695Y-82963044D01*
X53776695Y-82872745D01*
X54171763Y-82794161D01*
X54574575Y-82794161D01*
X54969643Y-82872745D01*
X54969643Y-82872745D01*
G37*
G36*
X231974505Y-82872745D02*
G01*
X232192505Y-82963044D01*
X232346654Y-83026894D01*
X232681579Y-83250684D01*
X232966408Y-83535513D01*
X233190198Y-83870438D01*
X233221507Y-83946026D01*
X233344347Y-84242587D01*
X233422931Y-84637655D01*
X233422931Y-85040467D01*
X233344347Y-85435535D01*
X233286281Y-85575718D01*
X233190198Y-85807684D01*
X232966408Y-86142609D01*
X232681579Y-86427438D01*
X232346654Y-86651228D01*
X232192505Y-86715078D01*
X231974505Y-86805377D01*
X231579437Y-86883961D01*
X231176625Y-86883961D01*
X230781557Y-86805377D01*
X230563557Y-86715078D01*
X230409408Y-86651228D01*
X230074483Y-86427438D01*
X229789654Y-86142609D01*
X229565864Y-85807684D01*
X229469781Y-85575718D01*
X229411715Y-85435535D01*
X229333131Y-85040467D01*
X229333131Y-84637655D01*
X229411715Y-84242587D01*
X229534555Y-83946026D01*
X229565864Y-83870438D01*
X229789654Y-83535513D01*
X230074483Y-83250684D01*
X230409408Y-83026894D01*
X230563557Y-82963044D01*
X230781557Y-82872745D01*
X231176625Y-82794161D01*
X231579437Y-82794161D01*
X231974505Y-82872745D01*
X231974505Y-82872745D01*
G37*
G36*
X216891676Y-84251390D02*
G01*
X217060198Y-84321194D01*
X217211863Y-84422533D01*
X217340844Y-84551514D01*
X217442183Y-84703179D01*
X217511987Y-84871701D01*
X217547572Y-85050602D01*
X217547572Y-85233008D01*
X217511987Y-85411909D01*
X217442183Y-85580431D01*
X217340844Y-85732096D01*
X217211863Y-85861077D01*
X217060198Y-85962416D01*
X216891676Y-86032220D01*
X216712775Y-86067805D01*
X216530369Y-86067805D01*
X216351468Y-86032220D01*
X216182946Y-85962416D01*
X216031281Y-85861077D01*
X215902300Y-85732096D01*
X215800961Y-85580431D01*
X215731157Y-85411909D01*
X215695572Y-85233008D01*
X215695572Y-85050602D01*
X215731157Y-84871701D01*
X215800961Y-84703179D01*
X215902300Y-84551514D01*
X216031281Y-84422533D01*
X216182946Y-84321194D01*
X216351468Y-84251390D01*
X216530369Y-84215805D01*
X216712775Y-84215805D01*
X216891676Y-84251390D01*
X216891676Y-84251390D01*
G37*
G36*
X69399732Y-84251389D02*
G01*
X69568254Y-84321193D01*
X69719919Y-84422532D01*
X69848900Y-84551513D01*
X69950239Y-84703178D01*
X70020043Y-84871700D01*
X70055628Y-85050601D01*
X70055628Y-85233007D01*
X70020043Y-85411908D01*
X69950239Y-85580430D01*
X69848900Y-85732095D01*
X69719919Y-85861076D01*
X69568254Y-85962415D01*
X69399732Y-86032219D01*
X69220831Y-86067804D01*
X69038425Y-86067804D01*
X68859524Y-86032219D01*
X68691002Y-85962415D01*
X68539337Y-85861076D01*
X68410356Y-85732095D01*
X68309017Y-85580430D01*
X68239213Y-85411908D01*
X68203628Y-85233007D01*
X68203628Y-85050601D01*
X68239213Y-84871700D01*
X68309017Y-84703178D01*
X68410356Y-84551513D01*
X68539337Y-84422532D01*
X68691002Y-84321193D01*
X68859524Y-84251389D01*
X69038425Y-84215804D01*
X69220831Y-84215804D01*
X69399732Y-84251389D01*
X69399732Y-84251389D01*
G37*
G36*
X39886815Y-83645902D02*
G01*
X40055337Y-83715706D01*
X40207002Y-83817045D01*
X40335983Y-83946026D01*
X40437322Y-84097691D01*
X40507126Y-84266213D01*
X40542711Y-84445114D01*
X40542711Y-84627520D01*
X40507126Y-84806421D01*
X40437322Y-84974943D01*
X40335983Y-85126608D01*
X40207002Y-85255589D01*
X40055337Y-85356928D01*
X39886815Y-85426732D01*
X39707914Y-85462317D01*
X39525508Y-85462317D01*
X39346607Y-85426732D01*
X39178085Y-85356928D01*
X39026420Y-85255589D01*
X38897439Y-85126608D01*
X38796100Y-84974943D01*
X38726296Y-84806421D01*
X38690711Y-84627520D01*
X38690711Y-84445114D01*
X38726296Y-84266213D01*
X38796100Y-84097691D01*
X38897439Y-83946026D01*
X39026420Y-83817045D01*
X39178085Y-83715706D01*
X39346607Y-83645902D01*
X39525508Y-83610317D01*
X39707914Y-83610317D01*
X39886815Y-83645902D01*
X39886815Y-83645902D01*
G37*
G36*
X246404593Y-83645902D02*
G01*
X246573115Y-83715706D01*
X246724780Y-83817045D01*
X246853761Y-83946026D01*
X246955100Y-84097691D01*
X247024904Y-84266213D01*
X247060489Y-84445114D01*
X247060489Y-84627520D01*
X247024904Y-84806421D01*
X246955100Y-84974943D01*
X246853761Y-85126608D01*
X246724780Y-85255589D01*
X246573115Y-85356928D01*
X246404593Y-85426732D01*
X246225692Y-85462317D01*
X246043286Y-85462317D01*
X245864385Y-85426732D01*
X245695863Y-85356928D01*
X245544198Y-85255589D01*
X245415217Y-85126608D01*
X245313878Y-84974943D01*
X245244074Y-84806421D01*
X245208489Y-84627520D01*
X245208489Y-84445114D01*
X245244074Y-84266213D01*
X245313878Y-84097691D01*
X245415217Y-83946026D01*
X245544198Y-83817045D01*
X245695863Y-83715706D01*
X245864385Y-83645902D01*
X246043286Y-83610317D01*
X246225692Y-83610317D01*
X246404593Y-83645902D01*
X246404593Y-83645902D01*
G37*
G36*
X135526083Y-83563695D02*
G01*
X135694840Y-83633596D01*
X135846718Y-83735078D01*
X135975882Y-83864242D01*
X136077364Y-84016120D01*
X136147265Y-84184877D01*
X136182900Y-84364028D01*
X136182900Y-84546692D01*
X136147265Y-84725843D01*
X136077364Y-84894600D01*
X135975882Y-85046478D01*
X135846718Y-85175642D01*
X135694840Y-85277124D01*
X135526083Y-85347025D01*
X135346932Y-85382660D01*
X135164268Y-85382660D01*
X134985117Y-85347025D01*
X134816360Y-85277124D01*
X134664482Y-85175642D01*
X134535318Y-85046478D01*
X134433836Y-84894600D01*
X134363935Y-84725843D01*
X134328300Y-84546692D01*
X134328300Y-84364028D01*
X134363935Y-84184877D01*
X134433836Y-84016120D01*
X134535318Y-83864242D01*
X134664482Y-83735078D01*
X134816360Y-83633596D01*
X134985117Y-83563695D01*
X135164268Y-83528060D01*
X135346932Y-83528060D01*
X135526083Y-83563695D01*
X135526083Y-83563695D01*
G37*
G36*
X150766083Y-83563695D02*
G01*
X150934840Y-83633596D01*
X151086718Y-83735078D01*
X151215882Y-83864242D01*
X151317364Y-84016120D01*
X151387265Y-84184877D01*
X151422900Y-84364028D01*
X151422900Y-84546692D01*
X151387265Y-84725843D01*
X151317364Y-84894600D01*
X151215882Y-85046478D01*
X151086718Y-85175642D01*
X150934840Y-85277124D01*
X150766083Y-85347025D01*
X150586932Y-85382660D01*
X150404268Y-85382660D01*
X150225117Y-85347025D01*
X150056360Y-85277124D01*
X149904482Y-85175642D01*
X149775318Y-85046478D01*
X149673836Y-84894600D01*
X149603935Y-84725843D01*
X149568300Y-84546692D01*
X149568300Y-84364028D01*
X149603935Y-84184877D01*
X149673836Y-84016120D01*
X149775318Y-83864242D01*
X149904482Y-83735078D01*
X150056360Y-83633596D01*
X150225117Y-83563695D01*
X150404268Y-83528060D01*
X150586932Y-83528060D01*
X150766083Y-83563695D01*
X150766083Y-83563695D01*
G37*
G36*
X35439546Y-80832539D02*
G01*
X35657546Y-80922838D01*
X35811695Y-80986688D01*
X36146620Y-81210478D01*
X36431449Y-81495307D01*
X36655239Y-81830232D01*
X36698709Y-81935178D01*
X36809388Y-82202381D01*
X36887972Y-82597449D01*
X36887972Y-83000261D01*
X36809388Y-83395329D01*
X36754409Y-83528060D01*
X36655239Y-83767478D01*
X36431449Y-84102403D01*
X36146620Y-84387232D01*
X35811695Y-84611022D01*
X35657546Y-84674872D01*
X35439546Y-84765171D01*
X35044478Y-84843755D01*
X34641666Y-84843755D01*
X34246598Y-84765171D01*
X34028598Y-84674872D01*
X33874449Y-84611022D01*
X33539524Y-84387232D01*
X33254695Y-84102403D01*
X33030905Y-83767478D01*
X32931735Y-83528060D01*
X32876756Y-83395329D01*
X32798172Y-83000261D01*
X32798172Y-82597449D01*
X32876756Y-82202381D01*
X32987435Y-81935178D01*
X33030905Y-81830232D01*
X33254695Y-81495307D01*
X33539524Y-81210478D01*
X33874449Y-80986688D01*
X34028598Y-80922838D01*
X34246598Y-80832539D01*
X34641666Y-80753955D01*
X35044478Y-80753955D01*
X35439546Y-80832539D01*
X35439546Y-80832539D01*
G37*
G36*
X251504602Y-80832539D02*
G01*
X251722602Y-80922838D01*
X251876751Y-80986688D01*
X252211676Y-81210478D01*
X252496505Y-81495307D01*
X252720295Y-81830232D01*
X252763765Y-81935178D01*
X252874444Y-82202381D01*
X252953028Y-82597449D01*
X252953028Y-83000261D01*
X252874444Y-83395329D01*
X252819465Y-83528060D01*
X252720295Y-83767478D01*
X252496505Y-84102403D01*
X252211676Y-84387232D01*
X251876751Y-84611022D01*
X251722602Y-84674872D01*
X251504602Y-84765171D01*
X251109534Y-84843755D01*
X250706722Y-84843755D01*
X250311654Y-84765171D01*
X250093654Y-84674872D01*
X249939505Y-84611022D01*
X249604580Y-84387232D01*
X249319751Y-84102403D01*
X249095961Y-83767478D01*
X248996791Y-83528060D01*
X248941812Y-83395329D01*
X248863228Y-83000261D01*
X248863228Y-82597449D01*
X248941812Y-82202381D01*
X249052491Y-81935178D01*
X249095961Y-81830232D01*
X249319751Y-81495307D01*
X249604580Y-81210478D01*
X249939505Y-80986688D01*
X250093654Y-80922838D01*
X250311654Y-80832539D01*
X250706722Y-80753955D01*
X251109534Y-80753955D01*
X251504602Y-80832539D01*
X251504602Y-80832539D01*
G37*
G36*
X49869634Y-82211184D02*
G01*
X50038156Y-82280988D01*
X50189821Y-82382327D01*
X50318802Y-82511308D01*
X50420141Y-82662973D01*
X50489945Y-82831495D01*
X50525530Y-83010396D01*
X50525530Y-83192802D01*
X50489945Y-83371703D01*
X50420141Y-83540225D01*
X50318802Y-83691890D01*
X50189821Y-83820871D01*
X50038156Y-83922210D01*
X49869634Y-83992014D01*
X49690733Y-84027599D01*
X49508327Y-84027599D01*
X49329426Y-83992014D01*
X49160904Y-83922210D01*
X49009239Y-83820871D01*
X48880258Y-83691890D01*
X48778919Y-83540225D01*
X48709115Y-83371703D01*
X48673530Y-83192802D01*
X48673530Y-83010396D01*
X48709115Y-82831495D01*
X48778919Y-82662973D01*
X48880258Y-82511308D01*
X49009239Y-82382327D01*
X49160904Y-82280988D01*
X49329426Y-82211184D01*
X49508327Y-82175599D01*
X49690733Y-82175599D01*
X49869634Y-82211184D01*
X49869634Y-82211184D01*
G37*
G36*
X236421774Y-82211184D02*
G01*
X236590296Y-82280988D01*
X236741961Y-82382327D01*
X236870942Y-82511308D01*
X236972281Y-82662973D01*
X237042085Y-82831495D01*
X237077670Y-83010396D01*
X237077670Y-83192802D01*
X237042085Y-83371703D01*
X236972281Y-83540225D01*
X236870942Y-83691890D01*
X236741961Y-83820871D01*
X236590296Y-83922210D01*
X236421774Y-83992014D01*
X236242873Y-84027599D01*
X236060467Y-84027599D01*
X235881566Y-83992014D01*
X235713044Y-83922210D01*
X235561379Y-83820871D01*
X235432398Y-83691890D01*
X235331059Y-83540225D01*
X235261255Y-83371703D01*
X235225670Y-83192802D01*
X235225670Y-83010396D01*
X235261255Y-82831495D01*
X235331059Y-82662973D01*
X235432398Y-82511308D01*
X235561379Y-82382327D01*
X235713044Y-82280988D01*
X235881566Y-82211184D01*
X236060467Y-82175599D01*
X236242873Y-82175599D01*
X236421774Y-82211184D01*
X236421774Y-82211184D01*
G37*
G36*
X150766083Y-81023695D02*
G01*
X150934840Y-81093596D01*
X151086718Y-81195078D01*
X151215882Y-81324242D01*
X151317364Y-81476120D01*
X151387265Y-81644877D01*
X151422900Y-81824028D01*
X151422900Y-82006692D01*
X151387265Y-82185843D01*
X151317364Y-82354600D01*
X151215882Y-82506478D01*
X151086718Y-82635642D01*
X150934840Y-82737124D01*
X150766083Y-82807025D01*
X150586932Y-82842660D01*
X150404268Y-82842660D01*
X150225117Y-82807025D01*
X150056360Y-82737124D01*
X149904482Y-82635642D01*
X149775318Y-82506478D01*
X149673836Y-82354600D01*
X149603935Y-82185843D01*
X149568300Y-82006692D01*
X149568300Y-81824028D01*
X149603935Y-81644877D01*
X149673836Y-81476120D01*
X149775318Y-81324242D01*
X149904482Y-81195078D01*
X150056360Y-81093596D01*
X150225117Y-81023695D01*
X150404268Y-80988060D01*
X150586932Y-80988060D01*
X150766083Y-81023695D01*
X150766083Y-81023695D01*
G37*
G36*
X135526083Y-81023695D02*
G01*
X135694840Y-81093596D01*
X135846718Y-81195078D01*
X135975882Y-81324242D01*
X136077364Y-81476120D01*
X136147265Y-81644877D01*
X136182900Y-81824028D01*
X136182900Y-82006692D01*
X136147265Y-82185843D01*
X136077364Y-82354600D01*
X135975882Y-82506478D01*
X135846718Y-82635642D01*
X135694840Y-82737124D01*
X135526083Y-82807025D01*
X135346932Y-82842660D01*
X135164268Y-82842660D01*
X134985117Y-82807025D01*
X134816360Y-82737124D01*
X134664482Y-82635642D01*
X134535318Y-82506478D01*
X134433836Y-82354600D01*
X134363935Y-82185843D01*
X134328300Y-82006692D01*
X134328300Y-81824028D01*
X134363935Y-81644877D01*
X134433836Y-81476120D01*
X134535318Y-81324242D01*
X134664482Y-81195078D01*
X134816360Y-81093596D01*
X134985117Y-81023695D01*
X135164268Y-80988060D01*
X135346932Y-80988060D01*
X135526083Y-81023695D01*
X135526083Y-81023695D01*
G37*
G36*
X184556546Y-80815910D02*
G01*
X184725068Y-80885714D01*
X184876733Y-80987053D01*
X185005714Y-81116034D01*
X185107053Y-81267699D01*
X185176857Y-81436221D01*
X185212442Y-81615122D01*
X185212442Y-81797528D01*
X185176857Y-81976429D01*
X185107053Y-82144951D01*
X185005714Y-82296616D01*
X184876733Y-82425597D01*
X184725068Y-82526936D01*
X184556546Y-82596740D01*
X184377645Y-82632325D01*
X184195239Y-82632325D01*
X184016338Y-82596740D01*
X183847816Y-82526936D01*
X183696151Y-82425597D01*
X183567170Y-82296616D01*
X183465831Y-82144951D01*
X183396027Y-81976429D01*
X183360442Y-81797528D01*
X183360442Y-81615122D01*
X183396027Y-81436221D01*
X183465831Y-81267699D01*
X183567170Y-81116034D01*
X183696151Y-80987053D01*
X183847816Y-80885714D01*
X184016338Y-80815910D01*
X184195239Y-80780325D01*
X184377645Y-80780325D01*
X184556546Y-80815910D01*
X184556546Y-80815910D01*
G37*
G36*
X101734862Y-80815910D02*
G01*
X101903384Y-80885714D01*
X102055049Y-80987053D01*
X102184030Y-81116034D01*
X102285369Y-81267699D01*
X102355173Y-81436221D01*
X102390758Y-81615122D01*
X102390758Y-81797528D01*
X102355173Y-81976429D01*
X102285369Y-82144951D01*
X102184030Y-82296616D01*
X102055049Y-82425597D01*
X101903384Y-82526936D01*
X101734862Y-82596740D01*
X101555961Y-82632325D01*
X101373555Y-82632325D01*
X101194654Y-82596740D01*
X101026132Y-82526936D01*
X100874467Y-82425597D01*
X100745486Y-82296616D01*
X100644147Y-82144951D01*
X100574343Y-81976429D01*
X100538758Y-81797528D01*
X100538758Y-81615122D01*
X100574343Y-81436221D01*
X100644147Y-81267699D01*
X100745486Y-81116034D01*
X100874467Y-80987053D01*
X101026132Y-80885714D01*
X101194654Y-80815910D01*
X101373555Y-80780325D01*
X101555961Y-80780325D01*
X101734862Y-80815910D01*
X101734862Y-80815910D01*
G37*
G36*
X189656555Y-78002547D02*
G01*
X189874555Y-78092846D01*
X190028704Y-78156696D01*
X190363629Y-78380486D01*
X190648458Y-78665315D01*
X190872248Y-79000240D01*
X190915590Y-79104877D01*
X191026397Y-79372389D01*
X191104981Y-79767457D01*
X191104981Y-80170269D01*
X191026397Y-80565337D01*
X191002608Y-80622768D01*
X190872248Y-80937486D01*
X190648458Y-81272411D01*
X190363629Y-81557240D01*
X190028704Y-81781030D01*
X189909919Y-81830232D01*
X189656555Y-81935179D01*
X189261487Y-82013763D01*
X188858675Y-82013763D01*
X188463607Y-81935179D01*
X188210243Y-81830232D01*
X188091458Y-81781030D01*
X187756533Y-81557240D01*
X187471704Y-81272411D01*
X187247914Y-80937486D01*
X187117554Y-80622768D01*
X187093765Y-80565337D01*
X187015181Y-80170269D01*
X187015181Y-79767457D01*
X187093765Y-79372389D01*
X187204572Y-79104877D01*
X187247914Y-79000240D01*
X187471704Y-78665315D01*
X187756533Y-78380486D01*
X188091458Y-78156696D01*
X188245607Y-78092846D01*
X188463607Y-78002547D01*
X188858675Y-77923963D01*
X189261487Y-77923963D01*
X189656555Y-78002547D01*
X189656555Y-78002547D01*
G37*
G36*
X97287593Y-78002547D02*
G01*
X97505593Y-78092846D01*
X97659742Y-78156696D01*
X97994667Y-78380486D01*
X98279496Y-78665315D01*
X98503286Y-79000240D01*
X98546628Y-79104877D01*
X98657435Y-79372389D01*
X98736019Y-79767457D01*
X98736019Y-80170269D01*
X98657435Y-80565337D01*
X98633646Y-80622768D01*
X98503286Y-80937486D01*
X98279496Y-81272411D01*
X97994667Y-81557240D01*
X97659742Y-81781030D01*
X97540957Y-81830232D01*
X97287593Y-81935179D01*
X96892525Y-82013763D01*
X96489713Y-82013763D01*
X96094645Y-81935179D01*
X95841281Y-81830232D01*
X95722496Y-81781030D01*
X95387571Y-81557240D01*
X95102742Y-81272411D01*
X94878952Y-80937486D01*
X94748592Y-80622768D01*
X94724803Y-80565337D01*
X94646219Y-80170269D01*
X94646219Y-79767457D01*
X94724803Y-79372389D01*
X94835610Y-79104877D01*
X94878952Y-79000240D01*
X95102742Y-78665315D01*
X95387571Y-78380486D01*
X95722496Y-78156696D01*
X95876645Y-78092846D01*
X96094645Y-78002547D01*
X96489713Y-77923963D01*
X96892525Y-77923963D01*
X97287593Y-78002547D01*
X97287593Y-78002547D01*
G37*
G36*
X30339537Y-80170978D02*
G01*
X30508059Y-80240782D01*
X30659724Y-80342121D01*
X30788705Y-80471102D01*
X30890044Y-80622767D01*
X30959848Y-80791289D01*
X30995433Y-80970190D01*
X30995433Y-81152596D01*
X30959848Y-81331497D01*
X30890044Y-81500019D01*
X30788705Y-81651684D01*
X30659724Y-81780665D01*
X30508059Y-81882004D01*
X30339537Y-81951808D01*
X30160636Y-81987393D01*
X29978230Y-81987393D01*
X29799329Y-81951808D01*
X29630807Y-81882004D01*
X29479142Y-81780665D01*
X29350161Y-81651684D01*
X29248822Y-81500019D01*
X29179018Y-81331497D01*
X29143433Y-81152596D01*
X29143433Y-80970190D01*
X29179018Y-80791289D01*
X29248822Y-80622767D01*
X29350161Y-80471102D01*
X29479142Y-80342121D01*
X29630807Y-80240782D01*
X29799329Y-80170978D01*
X29978230Y-80135393D01*
X30160636Y-80135393D01*
X30339537Y-80170978D01*
X30339537Y-80170978D01*
G37*
G36*
X255951871Y-80170978D02*
G01*
X256120393Y-80240782D01*
X256272058Y-80342121D01*
X256401039Y-80471102D01*
X256502378Y-80622767D01*
X256572182Y-80791289D01*
X256607767Y-80970190D01*
X256607767Y-81152596D01*
X256572182Y-81331497D01*
X256502378Y-81500019D01*
X256401039Y-81651684D01*
X256272058Y-81780665D01*
X256120393Y-81882004D01*
X255951871Y-81951808D01*
X255772970Y-81987393D01*
X255590564Y-81987393D01*
X255411663Y-81951808D01*
X255243141Y-81882004D01*
X255091476Y-81780665D01*
X254962495Y-81651684D01*
X254861156Y-81500019D01*
X254791352Y-81331497D01*
X254755767Y-81152596D01*
X254755767Y-80970190D01*
X254791352Y-80791289D01*
X254861156Y-80622767D01*
X254962495Y-80471102D01*
X255091476Y-80342121D01*
X255243141Y-80240782D01*
X255411663Y-80170978D01*
X255590564Y-80135393D01*
X255772970Y-80135393D01*
X255951871Y-80170978D01*
X255951871Y-80170978D01*
G37*
G36*
X135526083Y-78483695D02*
G01*
X135694840Y-78553596D01*
X135846718Y-78655078D01*
X135975882Y-78784242D01*
X136077364Y-78936120D01*
X136147265Y-79104877D01*
X136182900Y-79284028D01*
X136182900Y-79466692D01*
X136147265Y-79645843D01*
X136077364Y-79814600D01*
X135975882Y-79966478D01*
X135846718Y-80095642D01*
X135694840Y-80197124D01*
X135526083Y-80267025D01*
X135346932Y-80302660D01*
X135164268Y-80302660D01*
X134985117Y-80267025D01*
X134816360Y-80197124D01*
X134664482Y-80095642D01*
X134535318Y-79966478D01*
X134433836Y-79814600D01*
X134363935Y-79645843D01*
X134328300Y-79466692D01*
X134328300Y-79284028D01*
X134363935Y-79104877D01*
X134433836Y-78936120D01*
X134535318Y-78784242D01*
X134664482Y-78655078D01*
X134816360Y-78553596D01*
X134985117Y-78483695D01*
X135164268Y-78448060D01*
X135346932Y-78448060D01*
X135526083Y-78483695D01*
X135526083Y-78483695D01*
G37*
G36*
X150766083Y-78483695D02*
G01*
X150934840Y-78553596D01*
X151086718Y-78655078D01*
X151215882Y-78784242D01*
X151317364Y-78936120D01*
X151387265Y-79104877D01*
X151422900Y-79284028D01*
X151422900Y-79466692D01*
X151387265Y-79645843D01*
X151317364Y-79814600D01*
X151215882Y-79966478D01*
X151086718Y-80095642D01*
X150934840Y-80197124D01*
X150766083Y-80267025D01*
X150586932Y-80302660D01*
X150404268Y-80302660D01*
X150225117Y-80267025D01*
X150056360Y-80197124D01*
X149904482Y-80095642D01*
X149775318Y-79966478D01*
X149673836Y-79814600D01*
X149603935Y-79645843D01*
X149568300Y-79466692D01*
X149568300Y-79284028D01*
X149603935Y-79104877D01*
X149673836Y-78936120D01*
X149775318Y-78784242D01*
X149904482Y-78655078D01*
X150056360Y-78553596D01*
X150225117Y-78483695D01*
X150404268Y-78448060D01*
X150586932Y-78448060D01*
X150766083Y-78483695D01*
X150766083Y-78483695D01*
G37*
G36*
X194103824Y-77340986D02*
G01*
X194272346Y-77410790D01*
X194424011Y-77512129D01*
X194552992Y-77641110D01*
X194654331Y-77792775D01*
X194724135Y-77961297D01*
X194759720Y-78140198D01*
X194759720Y-78322604D01*
X194724135Y-78501505D01*
X194654331Y-78670027D01*
X194552992Y-78821692D01*
X194424011Y-78950673D01*
X194272346Y-79052012D01*
X194103824Y-79121816D01*
X193924923Y-79157401D01*
X193742517Y-79157401D01*
X193563616Y-79121816D01*
X193395094Y-79052012D01*
X193243429Y-78950673D01*
X193114448Y-78821692D01*
X193013109Y-78670027D01*
X192943305Y-78501505D01*
X192907720Y-78322604D01*
X192907720Y-78140198D01*
X192943305Y-77961297D01*
X193013109Y-77792775D01*
X193114448Y-77641110D01*
X193243429Y-77512129D01*
X193395094Y-77410790D01*
X193563616Y-77340986D01*
X193742517Y-77305401D01*
X193924923Y-77305401D01*
X194103824Y-77340986D01*
X194103824Y-77340986D01*
G37*
G36*
X92187584Y-77340986D02*
G01*
X92356106Y-77410790D01*
X92507771Y-77512129D01*
X92636752Y-77641110D01*
X92738091Y-77792775D01*
X92807895Y-77961297D01*
X92843480Y-78140198D01*
X92843480Y-78322604D01*
X92807895Y-78501505D01*
X92738091Y-78670027D01*
X92636752Y-78821692D01*
X92507771Y-78950673D01*
X92356106Y-79052012D01*
X92187584Y-79121816D01*
X92008683Y-79157401D01*
X91826277Y-79157401D01*
X91647376Y-79121816D01*
X91478854Y-79052012D01*
X91327189Y-78950673D01*
X91198208Y-78821692D01*
X91096869Y-78670027D01*
X91027065Y-78501505D01*
X90991480Y-78322604D01*
X90991480Y-78140198D01*
X91027065Y-77961297D01*
X91096869Y-77792775D01*
X91198208Y-77641110D01*
X91327189Y-77512129D01*
X91478854Y-77410790D01*
X91647376Y-77340986D01*
X91826277Y-77305401D01*
X92008683Y-77305401D01*
X92187584Y-77340986D01*
X92187584Y-77340986D01*
G37*
G36*
X150766083Y-75943695D02*
G01*
X150934840Y-76013596D01*
X151086718Y-76115078D01*
X151215882Y-76244242D01*
X151317364Y-76396120D01*
X151387265Y-76564877D01*
X151422900Y-76744028D01*
X151422900Y-76926692D01*
X151387265Y-77105843D01*
X151317364Y-77274600D01*
X151215882Y-77426478D01*
X151086718Y-77555642D01*
X150934840Y-77657124D01*
X150766083Y-77727025D01*
X150586932Y-77762660D01*
X150404268Y-77762660D01*
X150225117Y-77727025D01*
X150056360Y-77657124D01*
X149904482Y-77555642D01*
X149775318Y-77426478D01*
X149673836Y-77274600D01*
X149603935Y-77105843D01*
X149568300Y-76926692D01*
X149568300Y-76744028D01*
X149603935Y-76564877D01*
X149673836Y-76396120D01*
X149775318Y-76244242D01*
X149904482Y-76115078D01*
X150056360Y-76013596D01*
X150225117Y-75943695D01*
X150404268Y-75908060D01*
X150586932Y-75908060D01*
X150766083Y-75943695D01*
X150766083Y-75943695D01*
G37*
G36*
X135526083Y-75943695D02*
G01*
X135694840Y-76013596D01*
X135846718Y-76115078D01*
X135975882Y-76244242D01*
X136077364Y-76396120D01*
X136147265Y-76564877D01*
X136182900Y-76744028D01*
X136182900Y-76926692D01*
X136147265Y-77105843D01*
X136077364Y-77274600D01*
X135975882Y-77426478D01*
X135846718Y-77555642D01*
X135694840Y-77657124D01*
X135526083Y-77727025D01*
X135346932Y-77762660D01*
X135164268Y-77762660D01*
X134985117Y-77727025D01*
X134816360Y-77657124D01*
X134664482Y-77555642D01*
X134535318Y-77426478D01*
X134433836Y-77274600D01*
X134363935Y-77105843D01*
X134328300Y-76926692D01*
X134328300Y-76744028D01*
X134363935Y-76564877D01*
X134433836Y-76396120D01*
X134535318Y-76244242D01*
X134664482Y-76115078D01*
X134816360Y-76013596D01*
X134985117Y-75943695D01*
X135164268Y-75908060D01*
X135346932Y-75908060D01*
X135526083Y-75943695D01*
X135526083Y-75943695D01*
G37*
G36*
X161768693Y-73905507D02*
G01*
X161937215Y-73975311D01*
X162088880Y-74076650D01*
X162217861Y-74205631D01*
X162319200Y-74357296D01*
X162389004Y-74525818D01*
X162424589Y-74704719D01*
X162424589Y-74887125D01*
X162389004Y-75066026D01*
X162319200Y-75234548D01*
X162217861Y-75386213D01*
X162088880Y-75515194D01*
X161937215Y-75616533D01*
X161768693Y-75686337D01*
X161589792Y-75721922D01*
X161407386Y-75721922D01*
X161228485Y-75686337D01*
X161059963Y-75616533D01*
X160908298Y-75515194D01*
X160779317Y-75386213D01*
X160677978Y-75234548D01*
X160608174Y-75066026D01*
X160572589Y-74887125D01*
X160572589Y-74704719D01*
X160608174Y-74525818D01*
X160677978Y-74357296D01*
X160779317Y-74205631D01*
X160908298Y-74076650D01*
X161059963Y-73975311D01*
X161228485Y-73905507D01*
X161407386Y-73869922D01*
X161589792Y-73869922D01*
X161768693Y-73905507D01*
X161768693Y-73905507D01*
G37*
G36*
X124522715Y-73905507D02*
G01*
X124691237Y-73975311D01*
X124842902Y-74076650D01*
X124971883Y-74205631D01*
X125073222Y-74357296D01*
X125143026Y-74525818D01*
X125178611Y-74704719D01*
X125178611Y-74887125D01*
X125143026Y-75066026D01*
X125073222Y-75234548D01*
X124971883Y-75386213D01*
X124842902Y-75515194D01*
X124691237Y-75616533D01*
X124522715Y-75686337D01*
X124343814Y-75721922D01*
X124161408Y-75721922D01*
X123982507Y-75686337D01*
X123813985Y-75616533D01*
X123662320Y-75515194D01*
X123533339Y-75386213D01*
X123432000Y-75234548D01*
X123362196Y-75066026D01*
X123326611Y-74887125D01*
X123326611Y-74704719D01*
X123362196Y-74525818D01*
X123432000Y-74357296D01*
X123533339Y-74205631D01*
X123662320Y-74076650D01*
X123813985Y-73975311D01*
X123982507Y-73905507D01*
X124161408Y-73869922D01*
X124343814Y-73869922D01*
X124522715Y-73905507D01*
X124522715Y-73905507D01*
G37*
G36*
X135526083Y-73403695D02*
G01*
X135694840Y-73473596D01*
X135846718Y-73575078D01*
X135975882Y-73704242D01*
X136077364Y-73856120D01*
X136147265Y-74024877D01*
X136182900Y-74204028D01*
X136182900Y-74386692D01*
X136147265Y-74565843D01*
X136077364Y-74734600D01*
X135975882Y-74886478D01*
X135846718Y-75015642D01*
X135694840Y-75117124D01*
X135526083Y-75187025D01*
X135346932Y-75222660D01*
X135164268Y-75222660D01*
X134985117Y-75187025D01*
X134816360Y-75117124D01*
X134664482Y-75015642D01*
X134535318Y-74886478D01*
X134433836Y-74734600D01*
X134363935Y-74565843D01*
X134328300Y-74386692D01*
X134328300Y-74204028D01*
X134363935Y-74024877D01*
X134433836Y-73856120D01*
X134535318Y-73704242D01*
X134664482Y-73575078D01*
X134816360Y-73473596D01*
X134985117Y-73403695D01*
X135164268Y-73368060D01*
X135346932Y-73368060D01*
X135526083Y-73403695D01*
X135526083Y-73403695D01*
G37*
G36*
X150766083Y-73403695D02*
G01*
X150934840Y-73473596D01*
X151086718Y-73575078D01*
X151215882Y-73704242D01*
X151317364Y-73856120D01*
X151387265Y-74024877D01*
X151422900Y-74204028D01*
X151422900Y-74386692D01*
X151387265Y-74565843D01*
X151317364Y-74734600D01*
X151215882Y-74886478D01*
X151086718Y-75015642D01*
X150934840Y-75117124D01*
X150766083Y-75187025D01*
X150586932Y-75222660D01*
X150404268Y-75222660D01*
X150225117Y-75187025D01*
X150056360Y-75117124D01*
X149904482Y-75015642D01*
X149775318Y-74886478D01*
X149673836Y-74734600D01*
X149603935Y-74565843D01*
X149568300Y-74386692D01*
X149568300Y-74204028D01*
X149603935Y-74024877D01*
X149673836Y-73856120D01*
X149775318Y-73704242D01*
X149904482Y-73575078D01*
X150056360Y-73473596D01*
X150225117Y-73403695D01*
X150404268Y-73368060D01*
X150586932Y-73368060D01*
X150766083Y-73403695D01*
X150766083Y-73403695D01*
G37*
G36*
X166868702Y-71092144D02*
G01*
X167086702Y-71182443D01*
X167240851Y-71246293D01*
X167575776Y-71470083D01*
X167860605Y-71754912D01*
X168084395Y-72089837D01*
X168127789Y-72194600D01*
X168238544Y-72461986D01*
X168317128Y-72857054D01*
X168317128Y-73259866D01*
X168238544Y-73654934D01*
X168155210Y-73856119D01*
X168084395Y-74027083D01*
X167860605Y-74362008D01*
X167575776Y-74646837D01*
X167240851Y-74870627D01*
X167086702Y-74934477D01*
X166868702Y-75024776D01*
X166473634Y-75103360D01*
X166070822Y-75103360D01*
X165675754Y-75024776D01*
X165457754Y-74934477D01*
X165303605Y-74870627D01*
X164968680Y-74646837D01*
X164683851Y-74362008D01*
X164460061Y-74027083D01*
X164389246Y-73856119D01*
X164305912Y-73654934D01*
X164227328Y-73259866D01*
X164227328Y-72857054D01*
X164305912Y-72461986D01*
X164416667Y-72194600D01*
X164460061Y-72089837D01*
X164683851Y-71754912D01*
X164968680Y-71470083D01*
X165303605Y-71246293D01*
X165457754Y-71182443D01*
X165675754Y-71092144D01*
X166070822Y-71013560D01*
X166473634Y-71013560D01*
X166868702Y-71092144D01*
X166868702Y-71092144D01*
G37*
G36*
X120075446Y-71092144D02*
G01*
X120293446Y-71182443D01*
X120447595Y-71246293D01*
X120782520Y-71470083D01*
X121067349Y-71754912D01*
X121291139Y-72089837D01*
X121334533Y-72194600D01*
X121445288Y-72461986D01*
X121523872Y-72857054D01*
X121523872Y-73259866D01*
X121445288Y-73654934D01*
X121361954Y-73856119D01*
X121291139Y-74027083D01*
X121067349Y-74362008D01*
X120782520Y-74646837D01*
X120447595Y-74870627D01*
X120293446Y-74934477D01*
X120075446Y-75024776D01*
X119680378Y-75103360D01*
X119277566Y-75103360D01*
X118882498Y-75024776D01*
X118664498Y-74934477D01*
X118510349Y-74870627D01*
X118175424Y-74646837D01*
X117890595Y-74362008D01*
X117666805Y-74027083D01*
X117595990Y-73856119D01*
X117512656Y-73654934D01*
X117434072Y-73259866D01*
X117434072Y-72857054D01*
X117512656Y-72461986D01*
X117623411Y-72194600D01*
X117666805Y-72089837D01*
X117890595Y-71754912D01*
X118175424Y-71470083D01*
X118510349Y-71246293D01*
X118664498Y-71182443D01*
X118882498Y-71092144D01*
X119277566Y-71013560D01*
X119680378Y-71013560D01*
X120075446Y-71092144D01*
X120075446Y-71092144D01*
G37*
G36*
X150766083Y-70863695D02*
G01*
X150934840Y-70933596D01*
X151086718Y-71035078D01*
X151215882Y-71164242D01*
X151317364Y-71316120D01*
X151387265Y-71484877D01*
X151422900Y-71664028D01*
X151422900Y-71846692D01*
X151387265Y-72025843D01*
X151317364Y-72194600D01*
X151215882Y-72346478D01*
X151086718Y-72475642D01*
X150934840Y-72577124D01*
X150766083Y-72647025D01*
X150586932Y-72682660D01*
X150404268Y-72682660D01*
X150225117Y-72647025D01*
X150056360Y-72577124D01*
X149904482Y-72475642D01*
X149775318Y-72346478D01*
X149673836Y-72194600D01*
X149603935Y-72025843D01*
X149568300Y-71846692D01*
X149568300Y-71664028D01*
X149603935Y-71484877D01*
X149673836Y-71316120D01*
X149775318Y-71164242D01*
X149904482Y-71035078D01*
X150056360Y-70933596D01*
X150225117Y-70863695D01*
X150404268Y-70828060D01*
X150586932Y-70828060D01*
X150766083Y-70863695D01*
X150766083Y-70863695D01*
G37*
G36*
X136182900Y-72682660D02*
G01*
X134328300Y-72682660D01*
X134328300Y-70828060D01*
X136182900Y-70828060D01*
X136182900Y-72682660D01*
X136182900Y-72682660D01*
G37*
G36*
X171315971Y-70430583D02*
G01*
X171484493Y-70500387D01*
X171636158Y-70601726D01*
X171765139Y-70730707D01*
X171866478Y-70882372D01*
X171936282Y-71050894D01*
X171971867Y-71229795D01*
X171971867Y-71412201D01*
X171936282Y-71591102D01*
X171866478Y-71759624D01*
X171765139Y-71911289D01*
X171636158Y-72040270D01*
X171484493Y-72141609D01*
X171315971Y-72211413D01*
X171137070Y-72246998D01*
X170954664Y-72246998D01*
X170775763Y-72211413D01*
X170607241Y-72141609D01*
X170455576Y-72040270D01*
X170326595Y-71911289D01*
X170225256Y-71759624D01*
X170155452Y-71591102D01*
X170119867Y-71412201D01*
X170119867Y-71229795D01*
X170155452Y-71050894D01*
X170225256Y-70882372D01*
X170326595Y-70730707D01*
X170455576Y-70601726D01*
X170607241Y-70500387D01*
X170775763Y-70430583D01*
X170954664Y-70394998D01*
X171137070Y-70394998D01*
X171315971Y-70430583D01*
X171315971Y-70430583D01*
G37*
G36*
X114975437Y-70430583D02*
G01*
X115143959Y-70500387D01*
X115295624Y-70601726D01*
X115424605Y-70730707D01*
X115525944Y-70882372D01*
X115595748Y-71050894D01*
X115631333Y-71229795D01*
X115631333Y-71412201D01*
X115595748Y-71591102D01*
X115525944Y-71759624D01*
X115424605Y-71911289D01*
X115295624Y-72040270D01*
X115143959Y-72141609D01*
X114975437Y-72211413D01*
X114796536Y-72246998D01*
X114614130Y-72246998D01*
X114435229Y-72211413D01*
X114266707Y-72141609D01*
X114115042Y-72040270D01*
X113986061Y-71911289D01*
X113884722Y-71759624D01*
X113814918Y-71591102D01*
X113779333Y-71412201D01*
X113779333Y-71229795D01*
X113814918Y-71050894D01*
X113884722Y-70882372D01*
X113986061Y-70730707D01*
X114115042Y-70601726D01*
X114266707Y-70500387D01*
X114435229Y-70430583D01*
X114614130Y-70394998D01*
X114796536Y-70394998D01*
X114975437Y-70430583D01*
X114975437Y-70430583D01*
G37*
G36*
X85462521Y-69825093D02*
G01*
X85631043Y-69894897D01*
X85782708Y-69996236D01*
X85911689Y-70125217D01*
X86013028Y-70276882D01*
X86082832Y-70445404D01*
X86118417Y-70624305D01*
X86118417Y-70806711D01*
X86082832Y-70985612D01*
X86013028Y-71154134D01*
X85911689Y-71305799D01*
X85782708Y-71434780D01*
X85631043Y-71536119D01*
X85462521Y-71605923D01*
X85283620Y-71641508D01*
X85101214Y-71641508D01*
X84922313Y-71605923D01*
X84753791Y-71536119D01*
X84602126Y-71434780D01*
X84473145Y-71305799D01*
X84371806Y-71154134D01*
X84302002Y-70985612D01*
X84266417Y-70806711D01*
X84266417Y-70624305D01*
X84302002Y-70445404D01*
X84371806Y-70276882D01*
X84473145Y-70125217D01*
X84602126Y-69996236D01*
X84753791Y-69894897D01*
X84922313Y-69825093D01*
X85101214Y-69789508D01*
X85283620Y-69789508D01*
X85462521Y-69825093D01*
X85462521Y-69825093D01*
G37*
G36*
X200828887Y-69825093D02*
G01*
X200997409Y-69894897D01*
X201149074Y-69996236D01*
X201278055Y-70125217D01*
X201379394Y-70276882D01*
X201449198Y-70445404D01*
X201484783Y-70624305D01*
X201484783Y-70806711D01*
X201449198Y-70985612D01*
X201379394Y-71154134D01*
X201278055Y-71305799D01*
X201149074Y-71434780D01*
X200997409Y-71536119D01*
X200828887Y-71605923D01*
X200649986Y-71641508D01*
X200467580Y-71641508D01*
X200288679Y-71605923D01*
X200120157Y-71536119D01*
X199968492Y-71434780D01*
X199839511Y-71305799D01*
X199738172Y-71154134D01*
X199668368Y-70985612D01*
X199632783Y-70806711D01*
X199632783Y-70624305D01*
X199668368Y-70445404D01*
X199738172Y-70276882D01*
X199839511Y-70125217D01*
X199968492Y-69996236D01*
X200120157Y-69894897D01*
X200288679Y-69825093D01*
X200467580Y-69789508D01*
X200649986Y-69789508D01*
X200828887Y-69825093D01*
X200828887Y-69825093D01*
G37*
G36*
X205928896Y-67011730D02*
G01*
X206146896Y-67102029D01*
X206301045Y-67165879D01*
X206635970Y-67389669D01*
X206920799Y-67674498D01*
X207144589Y-68009423D01*
X207175899Y-68085012D01*
X207298738Y-68381572D01*
X207377322Y-68776640D01*
X207377322Y-69179452D01*
X207298738Y-69574520D01*
X207287644Y-69601303D01*
X207144589Y-69946669D01*
X206920799Y-70281594D01*
X206635970Y-70566423D01*
X206301045Y-70790213D01*
X206146896Y-70854063D01*
X205928896Y-70944362D01*
X205533828Y-71022946D01*
X205131016Y-71022946D01*
X204735948Y-70944362D01*
X204517948Y-70854063D01*
X204363799Y-70790213D01*
X204028874Y-70566423D01*
X203744045Y-70281594D01*
X203520255Y-69946669D01*
X203377200Y-69601303D01*
X203366106Y-69574520D01*
X203287522Y-69179452D01*
X203287522Y-68776640D01*
X203366106Y-68381572D01*
X203488945Y-68085012D01*
X203520255Y-68009423D01*
X203744045Y-67674498D01*
X204028874Y-67389669D01*
X204363799Y-67165879D01*
X204517948Y-67102029D01*
X204735948Y-67011730D01*
X205131016Y-66933146D01*
X205533828Y-66933146D01*
X205928896Y-67011730D01*
X205928896Y-67011730D01*
G37*
G36*
X81015252Y-67011730D02*
G01*
X81233252Y-67102029D01*
X81387401Y-67165879D01*
X81722326Y-67389669D01*
X82007155Y-67674498D01*
X82230945Y-68009423D01*
X82262255Y-68085012D01*
X82385094Y-68381572D01*
X82463678Y-68776640D01*
X82463678Y-69179452D01*
X82385094Y-69574520D01*
X82374000Y-69601303D01*
X82230945Y-69946669D01*
X82007155Y-70281594D01*
X81722326Y-70566423D01*
X81387401Y-70790213D01*
X81233252Y-70854063D01*
X81015252Y-70944362D01*
X80620184Y-71022946D01*
X80217372Y-71022946D01*
X79822304Y-70944362D01*
X79604304Y-70854063D01*
X79450155Y-70790213D01*
X79115230Y-70566423D01*
X78830401Y-70281594D01*
X78606611Y-69946669D01*
X78463556Y-69601303D01*
X78452462Y-69574520D01*
X78373878Y-69179452D01*
X78373878Y-68776640D01*
X78452462Y-68381572D01*
X78575301Y-68085012D01*
X78606611Y-68009423D01*
X78830401Y-67674498D01*
X79115230Y-67389669D01*
X79450155Y-67165879D01*
X79604304Y-67102029D01*
X79822304Y-67011730D01*
X80217372Y-66933146D01*
X80620184Y-66933146D01*
X81015252Y-67011730D01*
X81015252Y-67011730D01*
G37*
G36*
X220358985Y-67784888D02*
G01*
X220527507Y-67854692D01*
X220679172Y-67956031D01*
X220808153Y-68085012D01*
X220909492Y-68236677D01*
X220979296Y-68405199D01*
X221014881Y-68584100D01*
X221014881Y-68766506D01*
X220979296Y-68945407D01*
X220909492Y-69113929D01*
X220808153Y-69265594D01*
X220679172Y-69394575D01*
X220527507Y-69495914D01*
X220358985Y-69565718D01*
X220180084Y-69601303D01*
X219997678Y-69601303D01*
X219818777Y-69565718D01*
X219650255Y-69495914D01*
X219498590Y-69394575D01*
X219369609Y-69265594D01*
X219268270Y-69113929D01*
X219198466Y-68945407D01*
X219162881Y-68766506D01*
X219162881Y-68584100D01*
X219198466Y-68405199D01*
X219268270Y-68236677D01*
X219369609Y-68085012D01*
X219498590Y-67956031D01*
X219650255Y-67854692D01*
X219818777Y-67784888D01*
X219997678Y-67749303D01*
X220180084Y-67749303D01*
X220358985Y-67784888D01*
X220358985Y-67784888D01*
G37*
G36*
X65932423Y-67784888D02*
G01*
X66100945Y-67854692D01*
X66252610Y-67956031D01*
X66381591Y-68085012D01*
X66482930Y-68236677D01*
X66552734Y-68405199D01*
X66588319Y-68584100D01*
X66588319Y-68766506D01*
X66552734Y-68945407D01*
X66482930Y-69113929D01*
X66381591Y-69265594D01*
X66252610Y-69394575D01*
X66100945Y-69495914D01*
X65932423Y-69565718D01*
X65753522Y-69601303D01*
X65571116Y-69601303D01*
X65392215Y-69565718D01*
X65223693Y-69495914D01*
X65072028Y-69394575D01*
X64943047Y-69265594D01*
X64841708Y-69113929D01*
X64771904Y-68945407D01*
X64736319Y-68766506D01*
X64736319Y-68584100D01*
X64771904Y-68405199D01*
X64841708Y-68236677D01*
X64943047Y-68085012D01*
X65072028Y-67956031D01*
X65223693Y-67854692D01*
X65392215Y-67784888D01*
X65571116Y-67749303D01*
X65753522Y-67749303D01*
X65932423Y-67784888D01*
X65932423Y-67784888D01*
G37*
G36*
X225458994Y-64971525D02*
G01*
X225676994Y-65061824D01*
X225831143Y-65125674D01*
X226166068Y-65349464D01*
X226450897Y-65634293D01*
X226674687Y-65969218D01*
X226705996Y-66044806D01*
X226828836Y-66341367D01*
X226907420Y-66736435D01*
X226907420Y-67139247D01*
X226828836Y-67534315D01*
X226817742Y-67561098D01*
X226674687Y-67906464D01*
X226450897Y-68241389D01*
X226166068Y-68526218D01*
X225831143Y-68750008D01*
X225676994Y-68813858D01*
X225458994Y-68904157D01*
X225063926Y-68982741D01*
X224661114Y-68982741D01*
X224266046Y-68904157D01*
X224048046Y-68813858D01*
X223893897Y-68750008D01*
X223558972Y-68526218D01*
X223274143Y-68241389D01*
X223050353Y-67906464D01*
X222907298Y-67561098D01*
X222896204Y-67534315D01*
X222817620Y-67139247D01*
X222817620Y-66736435D01*
X222896204Y-66341367D01*
X223019044Y-66044806D01*
X223050353Y-65969218D01*
X223274143Y-65634293D01*
X223558972Y-65349464D01*
X223893897Y-65125674D01*
X224048046Y-65061824D01*
X224266046Y-64971525D01*
X224661114Y-64892941D01*
X225063926Y-64892941D01*
X225458994Y-64971525D01*
X225458994Y-64971525D01*
G37*
G36*
X61485154Y-64971525D02*
G01*
X61703154Y-65061824D01*
X61857303Y-65125674D01*
X62192228Y-65349464D01*
X62477057Y-65634293D01*
X62700847Y-65969218D01*
X62732156Y-66044806D01*
X62854996Y-66341367D01*
X62933580Y-66736435D01*
X62933580Y-67139247D01*
X62854996Y-67534315D01*
X62843902Y-67561098D01*
X62700847Y-67906464D01*
X62477057Y-68241389D01*
X62192228Y-68526218D01*
X61857303Y-68750008D01*
X61703154Y-68813858D01*
X61485154Y-68904157D01*
X61090086Y-68982741D01*
X60687274Y-68982741D01*
X60292206Y-68904157D01*
X60074206Y-68813858D01*
X59920057Y-68750008D01*
X59585132Y-68526218D01*
X59300303Y-68241389D01*
X59076513Y-67906464D01*
X58933458Y-67561098D01*
X58922364Y-67534315D01*
X58843780Y-67139247D01*
X58843780Y-66736435D01*
X58922364Y-66341367D01*
X59045204Y-66044806D01*
X59076513Y-65969218D01*
X59300303Y-65634293D01*
X59585132Y-65349464D01*
X59920057Y-65125674D01*
X60074206Y-65061824D01*
X60292206Y-64971525D01*
X60687274Y-64892941D01*
X61090086Y-64892941D01*
X61485154Y-64971525D01*
X61485154Y-64971525D01*
G37*
G36*
X75915243Y-66350169D02*
G01*
X76083765Y-66419973D01*
X76235430Y-66521312D01*
X76364411Y-66650293D01*
X76465750Y-66801958D01*
X76535554Y-66970480D01*
X76571139Y-67149381D01*
X76571139Y-67331787D01*
X76535554Y-67510688D01*
X76465750Y-67679210D01*
X76364411Y-67830875D01*
X76235430Y-67959856D01*
X76083765Y-68061195D01*
X75915243Y-68130999D01*
X75736342Y-68166584D01*
X75553936Y-68166584D01*
X75375035Y-68130999D01*
X75206513Y-68061195D01*
X75054848Y-67959856D01*
X74925867Y-67830875D01*
X74824528Y-67679210D01*
X74754724Y-67510688D01*
X74719139Y-67331787D01*
X74719139Y-67149381D01*
X74754724Y-66970480D01*
X74824528Y-66801958D01*
X74925867Y-66650293D01*
X75054848Y-66521312D01*
X75206513Y-66419973D01*
X75375035Y-66350169D01*
X75553936Y-66314584D01*
X75736342Y-66314584D01*
X75915243Y-66350169D01*
X75915243Y-66350169D01*
G37*
G36*
X210376165Y-66350169D02*
G01*
X210544687Y-66419973D01*
X210696352Y-66521312D01*
X210825333Y-66650293D01*
X210926672Y-66801958D01*
X210996476Y-66970480D01*
X211032061Y-67149381D01*
X211032061Y-67331787D01*
X210996476Y-67510688D01*
X210926672Y-67679210D01*
X210825333Y-67830875D01*
X210696352Y-67959856D01*
X210544687Y-68061195D01*
X210376165Y-68130999D01*
X210197264Y-68166584D01*
X210014858Y-68166584D01*
X209835957Y-68130999D01*
X209667435Y-68061195D01*
X209515770Y-67959856D01*
X209386789Y-67830875D01*
X209285450Y-67679210D01*
X209215646Y-67510688D01*
X209180061Y-67331787D01*
X209180061Y-67149381D01*
X209215646Y-66970480D01*
X209285450Y-66801958D01*
X209386789Y-66650293D01*
X209515770Y-66521312D01*
X209667435Y-66419973D01*
X209835957Y-66350169D01*
X210014858Y-66314584D01*
X210197264Y-66314584D01*
X210376165Y-66350169D01*
X210376165Y-66350169D01*
G37*
G36*
X46402326Y-65744683D02*
G01*
X46570848Y-65814487D01*
X46722513Y-65915826D01*
X46851494Y-66044807D01*
X46952833Y-66196472D01*
X47022637Y-66364994D01*
X47058222Y-66543895D01*
X47058222Y-66726301D01*
X47022637Y-66905202D01*
X46952833Y-67073724D01*
X46851494Y-67225389D01*
X46722513Y-67354370D01*
X46570848Y-67455709D01*
X46402326Y-67525513D01*
X46223425Y-67561098D01*
X46041019Y-67561098D01*
X45862118Y-67525513D01*
X45693596Y-67455709D01*
X45541931Y-67354370D01*
X45412950Y-67225389D01*
X45311611Y-67073724D01*
X45241807Y-66905202D01*
X45206222Y-66726301D01*
X45206222Y-66543895D01*
X45241807Y-66364994D01*
X45311611Y-66196472D01*
X45412950Y-66044807D01*
X45541931Y-65915826D01*
X45693596Y-65814487D01*
X45862118Y-65744683D01*
X46041019Y-65709098D01*
X46223425Y-65709098D01*
X46402326Y-65744683D01*
X46402326Y-65744683D01*
G37*
G36*
X239889082Y-65744682D02*
G01*
X240057604Y-65814486D01*
X240209269Y-65915825D01*
X240338250Y-66044806D01*
X240439589Y-66196471D01*
X240509393Y-66364993D01*
X240544978Y-66543894D01*
X240544978Y-66726300D01*
X240509393Y-66905201D01*
X240439589Y-67073723D01*
X240338250Y-67225388D01*
X240209269Y-67354369D01*
X240057604Y-67455708D01*
X239889082Y-67525512D01*
X239710181Y-67561097D01*
X239527775Y-67561097D01*
X239348874Y-67525512D01*
X239180352Y-67455708D01*
X239028687Y-67354369D01*
X238899706Y-67225388D01*
X238798367Y-67073723D01*
X238728563Y-66905201D01*
X238692978Y-66726300D01*
X238692978Y-66543894D01*
X238728563Y-66364993D01*
X238798367Y-66196471D01*
X238899706Y-66044806D01*
X239028687Y-65915825D01*
X239180352Y-65814486D01*
X239348874Y-65744682D01*
X239527775Y-65709097D01*
X239710181Y-65709097D01*
X239889082Y-65744682D01*
X239889082Y-65744682D01*
G37*
G36*
X41955057Y-62931320D02*
G01*
X42173057Y-63021619D01*
X42327206Y-63085469D01*
X42662131Y-63309259D01*
X42946960Y-63594088D01*
X43170750Y-63929013D01*
X43214220Y-64033959D01*
X43324899Y-64301162D01*
X43403483Y-64696230D01*
X43403483Y-65099042D01*
X43324899Y-65494110D01*
X43266833Y-65634293D01*
X43170750Y-65866259D01*
X42946960Y-66201184D01*
X42662131Y-66486013D01*
X42327206Y-66709803D01*
X42173057Y-66773653D01*
X41955057Y-66863952D01*
X41559989Y-66942536D01*
X41157177Y-66942536D01*
X40762109Y-66863952D01*
X40544109Y-66773653D01*
X40389960Y-66709803D01*
X40055035Y-66486013D01*
X39770206Y-66201184D01*
X39546416Y-65866259D01*
X39450333Y-65634293D01*
X39392267Y-65494110D01*
X39313683Y-65099042D01*
X39313683Y-64696230D01*
X39392267Y-64301162D01*
X39502946Y-64033959D01*
X39546416Y-63929013D01*
X39770206Y-63594088D01*
X40055035Y-63309259D01*
X40389960Y-63085469D01*
X40544109Y-63021619D01*
X40762109Y-62931320D01*
X41157177Y-62852736D01*
X41559989Y-62852736D01*
X41955057Y-62931320D01*
X41955057Y-62931320D01*
G37*
G36*
X244989091Y-62931319D02*
G01*
X245207091Y-63021618D01*
X245361240Y-63085468D01*
X245696165Y-63309258D01*
X245980994Y-63594087D01*
X246204784Y-63929012D01*
X246226229Y-63980785D01*
X246358933Y-64301161D01*
X246437517Y-64696229D01*
X246437517Y-65099041D01*
X246358933Y-65494109D01*
X246358932Y-65494111D01*
X246204784Y-65866258D01*
X245980994Y-66201183D01*
X245696165Y-66486012D01*
X245361240Y-66709802D01*
X245207091Y-66773652D01*
X244989091Y-66863951D01*
X244594023Y-66942535D01*
X244191211Y-66942535D01*
X243796143Y-66863951D01*
X243578143Y-66773652D01*
X243423994Y-66709802D01*
X243089069Y-66486012D01*
X242804240Y-66201183D01*
X242580450Y-65866258D01*
X242426302Y-65494111D01*
X242426301Y-65494109D01*
X242347717Y-65099041D01*
X242347717Y-64696229D01*
X242426301Y-64301161D01*
X242559005Y-63980785D01*
X242580450Y-63929012D01*
X242804240Y-63594087D01*
X243089069Y-63309258D01*
X243423994Y-63085468D01*
X243578143Y-63021618D01*
X243796143Y-62931319D01*
X244191211Y-62852735D01*
X244594023Y-62852735D01*
X244989091Y-62931319D01*
X244989091Y-62931319D01*
G37*
G36*
X56385145Y-64309964D02*
G01*
X56553667Y-64379768D01*
X56705332Y-64481107D01*
X56834313Y-64610088D01*
X56935652Y-64761753D01*
X57005456Y-64930275D01*
X57041041Y-65109176D01*
X57041041Y-65291582D01*
X57005456Y-65470483D01*
X56935652Y-65639005D01*
X56834313Y-65790670D01*
X56705332Y-65919651D01*
X56553667Y-66020990D01*
X56385145Y-66090794D01*
X56206244Y-66126379D01*
X56023838Y-66126379D01*
X55844937Y-66090794D01*
X55676415Y-66020990D01*
X55524750Y-65919651D01*
X55395769Y-65790670D01*
X55294430Y-65639005D01*
X55224626Y-65470483D01*
X55189041Y-65291582D01*
X55189041Y-65109176D01*
X55224626Y-64930275D01*
X55294430Y-64761753D01*
X55395769Y-64610088D01*
X55524750Y-64481107D01*
X55676415Y-64379768D01*
X55844937Y-64309964D01*
X56023838Y-64274379D01*
X56206244Y-64274379D01*
X56385145Y-64309964D01*
X56385145Y-64309964D01*
G37*
G36*
X229906263Y-64309964D02*
G01*
X230074785Y-64379768D01*
X230226450Y-64481107D01*
X230355431Y-64610088D01*
X230456770Y-64761753D01*
X230526574Y-64930275D01*
X230562159Y-65109176D01*
X230562159Y-65291582D01*
X230526574Y-65470483D01*
X230456770Y-65639005D01*
X230355431Y-65790670D01*
X230226450Y-65919651D01*
X230074785Y-66020990D01*
X229906263Y-66090794D01*
X229727362Y-66126379D01*
X229544956Y-66126379D01*
X229366055Y-66090794D01*
X229197533Y-66020990D01*
X229045868Y-65919651D01*
X228916887Y-65790670D01*
X228815548Y-65639005D01*
X228745744Y-65470483D01*
X228710159Y-65291582D01*
X228710159Y-65109176D01*
X228745744Y-64930275D01*
X228815548Y-64761753D01*
X228916887Y-64610088D01*
X229045868Y-64481107D01*
X229197533Y-64379768D01*
X229366055Y-64309964D01*
X229544956Y-64274379D01*
X229727362Y-64274379D01*
X229906263Y-64309964D01*
X229906263Y-64309964D01*
G37*
G36*
X178041034Y-62914691D02*
G01*
X178209556Y-62984495D01*
X178361221Y-63085834D01*
X178490202Y-63214815D01*
X178591541Y-63366480D01*
X178661345Y-63535002D01*
X178696930Y-63713903D01*
X178696930Y-63896309D01*
X178661345Y-64075210D01*
X178591541Y-64243732D01*
X178490202Y-64395397D01*
X178361221Y-64524378D01*
X178209556Y-64625717D01*
X178041034Y-64695521D01*
X177862133Y-64731106D01*
X177679727Y-64731106D01*
X177500826Y-64695521D01*
X177332304Y-64625717D01*
X177180639Y-64524378D01*
X177051658Y-64395397D01*
X176950319Y-64243732D01*
X176880515Y-64075210D01*
X176844930Y-63896309D01*
X176844930Y-63713903D01*
X176880515Y-63535002D01*
X176950319Y-63366480D01*
X177051658Y-63214815D01*
X177180639Y-63085834D01*
X177332304Y-62984495D01*
X177500826Y-62914691D01*
X177679727Y-62879106D01*
X177862133Y-62879106D01*
X178041034Y-62914691D01*
X178041034Y-62914691D01*
G37*
G36*
X108250374Y-62914691D02*
G01*
X108418896Y-62984495D01*
X108570561Y-63085834D01*
X108699542Y-63214815D01*
X108800881Y-63366480D01*
X108870685Y-63535002D01*
X108906270Y-63713903D01*
X108906270Y-63896309D01*
X108870685Y-64075210D01*
X108800881Y-64243732D01*
X108699542Y-64395397D01*
X108570561Y-64524378D01*
X108418896Y-64625717D01*
X108250374Y-64695521D01*
X108071473Y-64731106D01*
X107889067Y-64731106D01*
X107710166Y-64695521D01*
X107541644Y-64625717D01*
X107389979Y-64524378D01*
X107260998Y-64395397D01*
X107159659Y-64243732D01*
X107089855Y-64075210D01*
X107054270Y-63896309D01*
X107054270Y-63713903D01*
X107089855Y-63535002D01*
X107159659Y-63366480D01*
X107260998Y-63214815D01*
X107389979Y-63085834D01*
X107541644Y-62984495D01*
X107710166Y-62914691D01*
X107889067Y-62879106D01*
X108071473Y-62879106D01*
X108250374Y-62914691D01*
X108250374Y-62914691D01*
G37*
G36*
X183141043Y-60101328D02*
G01*
X183359043Y-60191627D01*
X183513192Y-60255477D01*
X183848117Y-60479267D01*
X184132946Y-60764096D01*
X184356736Y-61099021D01*
X184407094Y-61220596D01*
X184510885Y-61471170D01*
X184589469Y-61866238D01*
X184589469Y-62269050D01*
X184510885Y-62664118D01*
X184487096Y-62721549D01*
X184356736Y-63036267D01*
X184132946Y-63371192D01*
X183848117Y-63656021D01*
X183513192Y-63879811D01*
X183394407Y-63929013D01*
X183141043Y-64033960D01*
X182745975Y-64112544D01*
X182343163Y-64112544D01*
X181948095Y-64033960D01*
X181694731Y-63929013D01*
X181575946Y-63879811D01*
X181241021Y-63656021D01*
X180956192Y-63371192D01*
X180732402Y-63036267D01*
X180602042Y-62721549D01*
X180578253Y-62664118D01*
X180499669Y-62269050D01*
X180499669Y-61866238D01*
X180578253Y-61471170D01*
X180682044Y-61220596D01*
X180732402Y-61099021D01*
X180956192Y-60764096D01*
X181241021Y-60479267D01*
X181575946Y-60255477D01*
X181730095Y-60191627D01*
X181948095Y-60101328D01*
X182343163Y-60022744D01*
X182745975Y-60022744D01*
X183141043Y-60101328D01*
X183141043Y-60101328D01*
G37*
G36*
X103803105Y-60101328D02*
G01*
X104021105Y-60191627D01*
X104175254Y-60255477D01*
X104510179Y-60479267D01*
X104795008Y-60764096D01*
X105018798Y-61099021D01*
X105069156Y-61220596D01*
X105172947Y-61471170D01*
X105251531Y-61866238D01*
X105251531Y-62269050D01*
X105172947Y-62664118D01*
X105149158Y-62721549D01*
X105018798Y-63036267D01*
X104795008Y-63371192D01*
X104510179Y-63656021D01*
X104175254Y-63879811D01*
X104056469Y-63929013D01*
X103803105Y-64033960D01*
X103408037Y-64112544D01*
X103005225Y-64112544D01*
X102610157Y-64033960D01*
X102356793Y-63929013D01*
X102238008Y-63879811D01*
X101903083Y-63656021D01*
X101618254Y-63371192D01*
X101394464Y-63036267D01*
X101264104Y-62721549D01*
X101240315Y-62664118D01*
X101161731Y-62269050D01*
X101161731Y-61866238D01*
X101240315Y-61471170D01*
X101344106Y-61220596D01*
X101394464Y-61099021D01*
X101618254Y-60764096D01*
X101903083Y-60479267D01*
X102238008Y-60255477D01*
X102392157Y-60191627D01*
X102610157Y-60101328D01*
X103005225Y-60022744D01*
X103408037Y-60022744D01*
X103803105Y-60101328D01*
X103803105Y-60101328D01*
G37*
G36*
X36855048Y-62269759D02*
G01*
X37023570Y-62339563D01*
X37175235Y-62440902D01*
X37304216Y-62569883D01*
X37405555Y-62721548D01*
X37475359Y-62890070D01*
X37510944Y-63068971D01*
X37510944Y-63251377D01*
X37475359Y-63430278D01*
X37405555Y-63598800D01*
X37304216Y-63750465D01*
X37175235Y-63879446D01*
X37023570Y-63980785D01*
X36855048Y-64050589D01*
X36676147Y-64086174D01*
X36493741Y-64086174D01*
X36314840Y-64050589D01*
X36146318Y-63980785D01*
X35994653Y-63879446D01*
X35865672Y-63750465D01*
X35764333Y-63598800D01*
X35694529Y-63430278D01*
X35658944Y-63251377D01*
X35658944Y-63068971D01*
X35694529Y-62890070D01*
X35764333Y-62721548D01*
X35865672Y-62569883D01*
X35994653Y-62440902D01*
X36146318Y-62339563D01*
X36314840Y-62269759D01*
X36493741Y-62234174D01*
X36676147Y-62234174D01*
X36855048Y-62269759D01*
X36855048Y-62269759D01*
G37*
G36*
X249436360Y-62269758D02*
G01*
X249604882Y-62339562D01*
X249756547Y-62440901D01*
X249885528Y-62569882D01*
X249986867Y-62721547D01*
X250056671Y-62890069D01*
X250092256Y-63068970D01*
X250092256Y-63251376D01*
X250056671Y-63430277D01*
X249986867Y-63598799D01*
X249885528Y-63750464D01*
X249756547Y-63879445D01*
X249604882Y-63980784D01*
X249436360Y-64050588D01*
X249257459Y-64086173D01*
X249075053Y-64086173D01*
X248896152Y-64050588D01*
X248727630Y-63980784D01*
X248575965Y-63879445D01*
X248446984Y-63750464D01*
X248345645Y-63598799D01*
X248275841Y-63430277D01*
X248240256Y-63251376D01*
X248240256Y-63068970D01*
X248275841Y-62890069D01*
X248345645Y-62721547D01*
X248446984Y-62569882D01*
X248575965Y-62440901D01*
X248727630Y-62339562D01*
X248896152Y-62269758D01*
X249075053Y-62234173D01*
X249257459Y-62234173D01*
X249436360Y-62269758D01*
X249436360Y-62269758D01*
G37*
G36*
X187588312Y-59439767D02*
G01*
X187756834Y-59509571D01*
X187908499Y-59610910D01*
X188037480Y-59739891D01*
X188138819Y-59891556D01*
X188208623Y-60060078D01*
X188244208Y-60238979D01*
X188244208Y-60421385D01*
X188208623Y-60600286D01*
X188138819Y-60768808D01*
X188037480Y-60920473D01*
X187908499Y-61049454D01*
X187756834Y-61150793D01*
X187588312Y-61220597D01*
X187409411Y-61256182D01*
X187227005Y-61256182D01*
X187048104Y-61220597D01*
X186879582Y-61150793D01*
X186727917Y-61049454D01*
X186598936Y-60920473D01*
X186497597Y-60768808D01*
X186427793Y-60600286D01*
X186392208Y-60421385D01*
X186392208Y-60238979D01*
X186427793Y-60060078D01*
X186497597Y-59891556D01*
X186598936Y-59739891D01*
X186727917Y-59610910D01*
X186879582Y-59509571D01*
X187048104Y-59439767D01*
X187227005Y-59404182D01*
X187409411Y-59404182D01*
X187588312Y-59439767D01*
X187588312Y-59439767D01*
G37*
G36*
X98703096Y-59439767D02*
G01*
X98871618Y-59509571D01*
X99023283Y-59610910D01*
X99152264Y-59739891D01*
X99253603Y-59891556D01*
X99323407Y-60060078D01*
X99358992Y-60238979D01*
X99358992Y-60421385D01*
X99323407Y-60600286D01*
X99253603Y-60768808D01*
X99152264Y-60920473D01*
X99023283Y-61049454D01*
X98871618Y-61150793D01*
X98703096Y-61220597D01*
X98524195Y-61256182D01*
X98341789Y-61256182D01*
X98162888Y-61220597D01*
X97994366Y-61150793D01*
X97842701Y-61049454D01*
X97713720Y-60920473D01*
X97612381Y-60768808D01*
X97542577Y-60600286D01*
X97506992Y-60421385D01*
X97506992Y-60238979D01*
X97542577Y-60060078D01*
X97612381Y-59891556D01*
X97713720Y-59739891D01*
X97842701Y-59610910D01*
X97994366Y-59509571D01*
X98162888Y-59439767D01*
X98341789Y-59404182D01*
X98524195Y-59404182D01*
X98703096Y-59439767D01*
X98703096Y-59439767D01*
G37*
G36*
X194313377Y-51923876D02*
G01*
X194481899Y-51993680D01*
X194633564Y-52095019D01*
X194762545Y-52224000D01*
X194863884Y-52375665D01*
X194933688Y-52544187D01*
X194969273Y-52723088D01*
X194969273Y-52905494D01*
X194933688Y-53084395D01*
X194863884Y-53252917D01*
X194762545Y-53404582D01*
X194633564Y-53533563D01*
X194481899Y-53634902D01*
X194313377Y-53704706D01*
X194134476Y-53740291D01*
X193952070Y-53740291D01*
X193773169Y-53704706D01*
X193604647Y-53634902D01*
X193452982Y-53533563D01*
X193324001Y-53404582D01*
X193222662Y-53252917D01*
X193152858Y-53084395D01*
X193117273Y-52905494D01*
X193117273Y-52723088D01*
X193152858Y-52544187D01*
X193222662Y-52375665D01*
X193324001Y-52224000D01*
X193452982Y-52095019D01*
X193604647Y-51993680D01*
X193773169Y-51923876D01*
X193952070Y-51888291D01*
X194134476Y-51888291D01*
X194313377Y-51923876D01*
X194313377Y-51923876D01*
G37*
G36*
X91978031Y-51923876D02*
G01*
X92146553Y-51993680D01*
X92298218Y-52095019D01*
X92427199Y-52224000D01*
X92528538Y-52375665D01*
X92598342Y-52544187D01*
X92633927Y-52723088D01*
X92633927Y-52905494D01*
X92598342Y-53084395D01*
X92528538Y-53252917D01*
X92427199Y-53404582D01*
X92298218Y-53533563D01*
X92146553Y-53634902D01*
X91978031Y-53704706D01*
X91799130Y-53740291D01*
X91616724Y-53740291D01*
X91437823Y-53704706D01*
X91269301Y-53634902D01*
X91117636Y-53533563D01*
X90988655Y-53404582D01*
X90887316Y-53252917D01*
X90817512Y-53084395D01*
X90781927Y-52905494D01*
X90781927Y-52723088D01*
X90817512Y-52544187D01*
X90887316Y-52375665D01*
X90988655Y-52224000D01*
X91117636Y-52095019D01*
X91269301Y-51993680D01*
X91437823Y-51923876D01*
X91616724Y-51888291D01*
X91799130Y-51888291D01*
X91978031Y-51923876D01*
X91978031Y-51923876D01*
G37*
G36*
X87530762Y-49110513D02*
G01*
X87748762Y-49200812D01*
X87902911Y-49264662D01*
X88237836Y-49488452D01*
X88522665Y-49773281D01*
X88746455Y-50108206D01*
X88777764Y-50183793D01*
X88900604Y-50480355D01*
X88979188Y-50875423D01*
X88979188Y-51278235D01*
X88900604Y-51673303D01*
X88811553Y-51888291D01*
X88746455Y-52045452D01*
X88522665Y-52380377D01*
X88237836Y-52665206D01*
X87902911Y-52888996D01*
X87748762Y-52952846D01*
X87530762Y-53043145D01*
X87135694Y-53121729D01*
X86732882Y-53121729D01*
X86337814Y-53043145D01*
X86119814Y-52952846D01*
X85965665Y-52888996D01*
X85630740Y-52665206D01*
X85345911Y-52380377D01*
X85122121Y-52045452D01*
X85057023Y-51888291D01*
X84967972Y-51673303D01*
X84889388Y-51278235D01*
X84889388Y-50875423D01*
X84967972Y-50480355D01*
X85090812Y-50183793D01*
X85122121Y-50108206D01*
X85345911Y-49773281D01*
X85630740Y-49488452D01*
X85965665Y-49264662D01*
X86119814Y-49200812D01*
X86337814Y-49110513D01*
X86732882Y-49031929D01*
X87135694Y-49031929D01*
X87530762Y-49110513D01*
X87530762Y-49110513D01*
G37*
G36*
X199413386Y-49110513D02*
G01*
X199631386Y-49200812D01*
X199785535Y-49264662D01*
X200120460Y-49488452D01*
X200405289Y-49773281D01*
X200629079Y-50108206D01*
X200660388Y-50183793D01*
X200783228Y-50480355D01*
X200861812Y-50875423D01*
X200861812Y-51278235D01*
X200783228Y-51673303D01*
X200694177Y-51888291D01*
X200629079Y-52045452D01*
X200405289Y-52380377D01*
X200120460Y-52665206D01*
X199785535Y-52888996D01*
X199631386Y-52952846D01*
X199413386Y-53043145D01*
X199018318Y-53121729D01*
X198615506Y-53121729D01*
X198220438Y-53043145D01*
X198002438Y-52952846D01*
X197848289Y-52888996D01*
X197513364Y-52665206D01*
X197228535Y-52380377D01*
X197004745Y-52045452D01*
X196939647Y-51888291D01*
X196850596Y-51673303D01*
X196772012Y-51278235D01*
X196772012Y-50875423D01*
X196850596Y-50480355D01*
X196973436Y-50183793D01*
X197004745Y-50108206D01*
X197228535Y-49773281D01*
X197513364Y-49488452D01*
X197848289Y-49264662D01*
X198002438Y-49200812D01*
X198220438Y-49110513D01*
X198615506Y-49031929D01*
X199018318Y-49031929D01*
X199413386Y-49110513D01*
X199413386Y-49110513D01*
G37*
G36*
X72447934Y-49883669D02*
G01*
X72616456Y-49953473D01*
X72768121Y-50054812D01*
X72897102Y-50183793D01*
X72998441Y-50335458D01*
X73068245Y-50503980D01*
X73103830Y-50682881D01*
X73103830Y-50865287D01*
X73068245Y-51044188D01*
X72998441Y-51212710D01*
X72897102Y-51364375D01*
X72768121Y-51493356D01*
X72616456Y-51594695D01*
X72447934Y-51664499D01*
X72269033Y-51700084D01*
X72086627Y-51700084D01*
X71907726Y-51664499D01*
X71739204Y-51594695D01*
X71587539Y-51493356D01*
X71458558Y-51364375D01*
X71357219Y-51212710D01*
X71287415Y-51044188D01*
X71251830Y-50865287D01*
X71251830Y-50682881D01*
X71287415Y-50503980D01*
X71357219Y-50335458D01*
X71458558Y-50183793D01*
X71587539Y-50054812D01*
X71739204Y-49953473D01*
X71907726Y-49883669D01*
X72086627Y-49848084D01*
X72269033Y-49848084D01*
X72447934Y-49883669D01*
X72447934Y-49883669D01*
G37*
G36*
X213843474Y-49883669D02*
G01*
X214011996Y-49953473D01*
X214163661Y-50054812D01*
X214292642Y-50183793D01*
X214393981Y-50335458D01*
X214463785Y-50503980D01*
X214499370Y-50682881D01*
X214499370Y-50865287D01*
X214463785Y-51044188D01*
X214393981Y-51212710D01*
X214292642Y-51364375D01*
X214163661Y-51493356D01*
X214011996Y-51594695D01*
X213843474Y-51664499D01*
X213664573Y-51700084D01*
X213482167Y-51700084D01*
X213303266Y-51664499D01*
X213134744Y-51594695D01*
X212983079Y-51493356D01*
X212854098Y-51364375D01*
X212752759Y-51212710D01*
X212682955Y-51044188D01*
X212647370Y-50865287D01*
X212647370Y-50682881D01*
X212682955Y-50503980D01*
X212752759Y-50335458D01*
X212854098Y-50183793D01*
X212983079Y-50054812D01*
X213134744Y-49953473D01*
X213303266Y-49883669D01*
X213482167Y-49848084D01*
X213664573Y-49848084D01*
X213843474Y-49883669D01*
X213843474Y-49883669D01*
G37*
G36*
X68000665Y-47070306D02*
G01*
X68218665Y-47160605D01*
X68372814Y-47224455D01*
X68707739Y-47448245D01*
X68992568Y-47733074D01*
X69216358Y-48067999D01*
X69247667Y-48143586D01*
X69370507Y-48440148D01*
X69449091Y-48835216D01*
X69449091Y-49238028D01*
X69370507Y-49633096D01*
X69281456Y-49848084D01*
X69216358Y-50005245D01*
X68992568Y-50340170D01*
X68707739Y-50624999D01*
X68372814Y-50848789D01*
X68308511Y-50875424D01*
X68000665Y-51002938D01*
X67605597Y-51081522D01*
X67202785Y-51081522D01*
X66807717Y-51002938D01*
X66499871Y-50875424D01*
X66435568Y-50848789D01*
X66100643Y-50624999D01*
X65815814Y-50340170D01*
X65592024Y-50005245D01*
X65526926Y-49848084D01*
X65437875Y-49633096D01*
X65359291Y-49238028D01*
X65359291Y-48835216D01*
X65437875Y-48440148D01*
X65560715Y-48143586D01*
X65592024Y-48067999D01*
X65815814Y-47733074D01*
X66100643Y-47448245D01*
X66435568Y-47224455D01*
X66589717Y-47160605D01*
X66807717Y-47070306D01*
X67202785Y-46991722D01*
X67605597Y-46991722D01*
X68000665Y-47070306D01*
X68000665Y-47070306D01*
G37*
G36*
X218943483Y-47070306D02*
G01*
X219161483Y-47160605D01*
X219315632Y-47224455D01*
X219650557Y-47448245D01*
X219935386Y-47733074D01*
X220159176Y-48067999D01*
X220190485Y-48143586D01*
X220313325Y-48440148D01*
X220391909Y-48835216D01*
X220391909Y-49238028D01*
X220313325Y-49633096D01*
X220224274Y-49848084D01*
X220159176Y-50005245D01*
X219935386Y-50340170D01*
X219650557Y-50624999D01*
X219315632Y-50848789D01*
X219251329Y-50875424D01*
X218943483Y-51002938D01*
X218548415Y-51081522D01*
X218145603Y-51081522D01*
X217750535Y-51002938D01*
X217442689Y-50875424D01*
X217378386Y-50848789D01*
X217043461Y-50624999D01*
X216758632Y-50340170D01*
X216534842Y-50005245D01*
X216469744Y-49848084D01*
X216380693Y-49633096D01*
X216302109Y-49238028D01*
X216302109Y-48835216D01*
X216380693Y-48440148D01*
X216503533Y-48143586D01*
X216534842Y-48067999D01*
X216758632Y-47733074D01*
X217043461Y-47448245D01*
X217378386Y-47224455D01*
X217532535Y-47160605D01*
X217750535Y-47070306D01*
X218145603Y-46991722D01*
X218548415Y-46991722D01*
X218943483Y-47070306D01*
X218943483Y-47070306D01*
G37*
G36*
X203860655Y-48448952D02*
G01*
X204029177Y-48518756D01*
X204180842Y-48620095D01*
X204309823Y-48749076D01*
X204411162Y-48900741D01*
X204480966Y-49069263D01*
X204516551Y-49248164D01*
X204516551Y-49430570D01*
X204480966Y-49609471D01*
X204411162Y-49777993D01*
X204309823Y-49929658D01*
X204180842Y-50058639D01*
X204029177Y-50159978D01*
X203860655Y-50229782D01*
X203681754Y-50265367D01*
X203499348Y-50265367D01*
X203320447Y-50229782D01*
X203151925Y-50159978D01*
X203000260Y-50058639D01*
X202871279Y-49929658D01*
X202769940Y-49777993D01*
X202700136Y-49609471D01*
X202664551Y-49430570D01*
X202664551Y-49248164D01*
X202700136Y-49069263D01*
X202769940Y-48900741D01*
X202871279Y-48749076D01*
X203000260Y-48620095D01*
X203151925Y-48518756D01*
X203320447Y-48448952D01*
X203499348Y-48413367D01*
X203681754Y-48413367D01*
X203860655Y-48448952D01*
X203860655Y-48448952D01*
G37*
G36*
X82430753Y-48448952D02*
G01*
X82599275Y-48518756D01*
X82750940Y-48620095D01*
X82879921Y-48749076D01*
X82981260Y-48900741D01*
X83051064Y-49069263D01*
X83086649Y-49248164D01*
X83086649Y-49430570D01*
X83051064Y-49609471D01*
X82981260Y-49777993D01*
X82879921Y-49929658D01*
X82750940Y-50058639D01*
X82599275Y-50159978D01*
X82430753Y-50229782D01*
X82251852Y-50265367D01*
X82069446Y-50265367D01*
X81890545Y-50229782D01*
X81722023Y-50159978D01*
X81570358Y-50058639D01*
X81441377Y-49929658D01*
X81340038Y-49777993D01*
X81270234Y-49609471D01*
X81234649Y-49430570D01*
X81234649Y-49248164D01*
X81270234Y-49069263D01*
X81340038Y-48900741D01*
X81441377Y-48749076D01*
X81570358Y-48620095D01*
X81722023Y-48518756D01*
X81890545Y-48448952D01*
X82069446Y-48413367D01*
X82251852Y-48413367D01*
X82430753Y-48448952D01*
X82430753Y-48448952D01*
G37*
G36*
X52917835Y-47843462D02*
G01*
X53086357Y-47913266D01*
X53238022Y-48014605D01*
X53367003Y-48143586D01*
X53468342Y-48295251D01*
X53538146Y-48463773D01*
X53573731Y-48642674D01*
X53573731Y-48825080D01*
X53538146Y-49003981D01*
X53468342Y-49172503D01*
X53367003Y-49324168D01*
X53238022Y-49453149D01*
X53086357Y-49554488D01*
X52917835Y-49624292D01*
X52738934Y-49659877D01*
X52556528Y-49659877D01*
X52377627Y-49624292D01*
X52209105Y-49554488D01*
X52057440Y-49453149D01*
X51928459Y-49324168D01*
X51827120Y-49172503D01*
X51757316Y-49003981D01*
X51721731Y-48825080D01*
X51721731Y-48642674D01*
X51757316Y-48463773D01*
X51827120Y-48295251D01*
X51928459Y-48143586D01*
X52057440Y-48014605D01*
X52209105Y-47913266D01*
X52377627Y-47843462D01*
X52556528Y-47807877D01*
X52738934Y-47807877D01*
X52917835Y-47843462D01*
X52917835Y-47843462D01*
G37*
G36*
X233373573Y-47843462D02*
G01*
X233542095Y-47913266D01*
X233693760Y-48014605D01*
X233822741Y-48143586D01*
X233924080Y-48295251D01*
X233993884Y-48463773D01*
X234029469Y-48642674D01*
X234029469Y-48825080D01*
X233993884Y-49003981D01*
X233924080Y-49172503D01*
X233822741Y-49324168D01*
X233693760Y-49453149D01*
X233542095Y-49554488D01*
X233373573Y-49624292D01*
X233194672Y-49659877D01*
X233012266Y-49659877D01*
X232833365Y-49624292D01*
X232664843Y-49554488D01*
X232513178Y-49453149D01*
X232384197Y-49324168D01*
X232282858Y-49172503D01*
X232213054Y-49003981D01*
X232177469Y-48825080D01*
X232177469Y-48642674D01*
X232213054Y-48463773D01*
X232282858Y-48295251D01*
X232384197Y-48143586D01*
X232513178Y-48014605D01*
X232664843Y-47913266D01*
X232833365Y-47843462D01*
X233012266Y-47807877D01*
X233194672Y-47807877D01*
X233373573Y-47843462D01*
X233373573Y-47843462D01*
G37*
G36*
X48470566Y-45030099D02*
G01*
X48688566Y-45120398D01*
X48842715Y-45184248D01*
X49177640Y-45408038D01*
X49462469Y-45692867D01*
X49686259Y-46027792D01*
X49736617Y-46149367D01*
X49840408Y-46399941D01*
X49918992Y-46795009D01*
X49918992Y-47197821D01*
X49840408Y-47592889D01*
X49751357Y-47807877D01*
X49686259Y-47965038D01*
X49462469Y-48299963D01*
X49177640Y-48584792D01*
X48842715Y-48808582D01*
X48778412Y-48835217D01*
X48470566Y-48962731D01*
X48075498Y-49041315D01*
X47672686Y-49041315D01*
X47277618Y-48962731D01*
X46969772Y-48835217D01*
X46905469Y-48808582D01*
X46570544Y-48584792D01*
X46285715Y-48299963D01*
X46061925Y-47965038D01*
X45996827Y-47807877D01*
X45907776Y-47592889D01*
X45829192Y-47197821D01*
X45829192Y-46795009D01*
X45907776Y-46399941D01*
X46011567Y-46149367D01*
X46061925Y-46027792D01*
X46285715Y-45692867D01*
X46570544Y-45408038D01*
X46905469Y-45184248D01*
X47059618Y-45120398D01*
X47277618Y-45030099D01*
X47672686Y-44951515D01*
X48075498Y-44951515D01*
X48470566Y-45030099D01*
X48470566Y-45030099D01*
G37*
G36*
X238473582Y-45030099D02*
G01*
X238691582Y-45120398D01*
X238845731Y-45184248D01*
X239180656Y-45408038D01*
X239465485Y-45692867D01*
X239689275Y-46027792D01*
X239739633Y-46149367D01*
X239843424Y-46399941D01*
X239922008Y-46795009D01*
X239922008Y-47197821D01*
X239843424Y-47592889D01*
X239754373Y-47807877D01*
X239689275Y-47965038D01*
X239465485Y-48299963D01*
X239180656Y-48584792D01*
X238845731Y-48808582D01*
X238781428Y-48835217D01*
X238473582Y-48962731D01*
X238078514Y-49041315D01*
X237675702Y-49041315D01*
X237280634Y-48962731D01*
X236972788Y-48835217D01*
X236908485Y-48808582D01*
X236573560Y-48584792D01*
X236288731Y-48299963D01*
X236064941Y-47965038D01*
X235999843Y-47807877D01*
X235910792Y-47592889D01*
X235832208Y-47197821D01*
X235832208Y-46795009D01*
X235910792Y-46399941D01*
X236014583Y-46149367D01*
X236064941Y-46027792D01*
X236288731Y-45692867D01*
X236573560Y-45408038D01*
X236908485Y-45184248D01*
X237062634Y-45120398D01*
X237280634Y-45030099D01*
X237675702Y-44951515D01*
X238078514Y-44951515D01*
X238473582Y-45030099D01*
X238473582Y-45030099D01*
G37*
G36*
X62900656Y-46408745D02*
G01*
X63069178Y-46478549D01*
X63220843Y-46579888D01*
X63349824Y-46708869D01*
X63451163Y-46860534D01*
X63520967Y-47029056D01*
X63556552Y-47207957D01*
X63556552Y-47390363D01*
X63520967Y-47569264D01*
X63451163Y-47737786D01*
X63349824Y-47889451D01*
X63220843Y-48018432D01*
X63069178Y-48119771D01*
X62900656Y-48189575D01*
X62721755Y-48225160D01*
X62539349Y-48225160D01*
X62360448Y-48189575D01*
X62191926Y-48119771D01*
X62040261Y-48018432D01*
X61911280Y-47889451D01*
X61809941Y-47737786D01*
X61740137Y-47569264D01*
X61704552Y-47390363D01*
X61704552Y-47207957D01*
X61740137Y-47029056D01*
X61809941Y-46860534D01*
X61911280Y-46708869D01*
X62040261Y-46579888D01*
X62191926Y-46478549D01*
X62360448Y-46408745D01*
X62539349Y-46373160D01*
X62721755Y-46373160D01*
X62900656Y-46408745D01*
X62900656Y-46408745D01*
G37*
G36*
X223390752Y-46408745D02*
G01*
X223559274Y-46478549D01*
X223710939Y-46579888D01*
X223839920Y-46708869D01*
X223941259Y-46860534D01*
X224011063Y-47029056D01*
X224046648Y-47207957D01*
X224046648Y-47390363D01*
X224011063Y-47569264D01*
X223941259Y-47737786D01*
X223839920Y-47889451D01*
X223710939Y-48018432D01*
X223559274Y-48119771D01*
X223390752Y-48189575D01*
X223211851Y-48225160D01*
X223029445Y-48225160D01*
X222850544Y-48189575D01*
X222682022Y-48119771D01*
X222530357Y-48018432D01*
X222401376Y-47889451D01*
X222300037Y-47737786D01*
X222230233Y-47569264D01*
X222194648Y-47390363D01*
X222194648Y-47207957D01*
X222230233Y-47029056D01*
X222300037Y-46860534D01*
X222401376Y-46708869D01*
X222530357Y-46579888D01*
X222682022Y-46478549D01*
X222850544Y-46408745D01*
X223029445Y-46373160D01*
X223211851Y-46373160D01*
X223390752Y-46408745D01*
X223390752Y-46408745D01*
G37*
G36*
X43370557Y-44368538D02*
G01*
X43539079Y-44438342D01*
X43690744Y-44539681D01*
X43819725Y-44668662D01*
X43921064Y-44820327D01*
X43990868Y-44988849D01*
X44026453Y-45167750D01*
X44026453Y-45350156D01*
X43990868Y-45529057D01*
X43921064Y-45697579D01*
X43819725Y-45849244D01*
X43690744Y-45978225D01*
X43539079Y-46079564D01*
X43370557Y-46149368D01*
X43191656Y-46184953D01*
X43009250Y-46184953D01*
X42830349Y-46149368D01*
X42661827Y-46079564D01*
X42510162Y-45978225D01*
X42381181Y-45849244D01*
X42279842Y-45697579D01*
X42210038Y-45529057D01*
X42174453Y-45350156D01*
X42174453Y-45167750D01*
X42210038Y-44988849D01*
X42279842Y-44820327D01*
X42381181Y-44668662D01*
X42510162Y-44539681D01*
X42661827Y-44438342D01*
X42830349Y-44368538D01*
X43009250Y-44332953D01*
X43191656Y-44332953D01*
X43370557Y-44368538D01*
X43370557Y-44368538D01*
G37*
G36*
X242920851Y-44368538D02*
G01*
X243089373Y-44438342D01*
X243241038Y-44539681D01*
X243370019Y-44668662D01*
X243471358Y-44820327D01*
X243541162Y-44988849D01*
X243576747Y-45167750D01*
X243576747Y-45350156D01*
X243541162Y-45529057D01*
X243471358Y-45697579D01*
X243370019Y-45849244D01*
X243241038Y-45978225D01*
X243089373Y-46079564D01*
X242920851Y-46149368D01*
X242741950Y-46184953D01*
X242559544Y-46184953D01*
X242380643Y-46149368D01*
X242212121Y-46079564D01*
X242060456Y-45978225D01*
X241931475Y-45849244D01*
X241830136Y-45697579D01*
X241760332Y-45529057D01*
X241724747Y-45350156D01*
X241724747Y-45167750D01*
X241760332Y-44988849D01*
X241830136Y-44820327D01*
X241931475Y-44668662D01*
X242060456Y-44539681D01*
X242212121Y-44438342D01*
X242380643Y-44368538D01*
X242559544Y-44332953D01*
X242741950Y-44332953D01*
X242920851Y-44368538D01*
X242920851Y-44368538D01*
G37*
M02*
