G04 #@! TF.GenerationSoftware,KiCad,Pcbnew,(5.1.4)-1*
G04 #@! TF.CreationDate,2021-01-04T11:43:55-07:00*
G04 #@! TF.ProjectId,CS30 Ergo,43533330-2045-4726-976f-2e6b69636164,rev?*
G04 #@! TF.SameCoordinates,Original*
G04 #@! TF.FileFunction,Copper,L1,Top*
G04 #@! TF.FilePolarity,Positive*
%FSLAX46Y46*%
G04 Gerber Fmt 4.6, Leading zero omitted, Abs format (unit mm)*
G04 Created by KiCad (PCBNEW (5.1.4)-1) date 2021-01-04 11:43:55*
%MOMM*%
%LPD*%
G04 APERTURE LIST*
%ADD10C,2.250000*%
%ADD11C,1.600000*%
%ADD12C,0.150000*%
%ADD13C,1.752600*%
%ADD14R,1.752600X1.752600*%
%ADD15R,1.600000X1.600000*%
%ADD16C,0.800000*%
%ADD17C,0.250000*%
G04 APERTURE END LIST*
D10*
X243100861Y-99546094D03*
X248913324Y-95942016D03*
X223513191Y-98163939D03*
X229325654Y-94559861D03*
X185991859Y-104779963D03*
X191804322Y-101175885D03*
X168058195Y-112778141D03*
X173870658Y-109174063D03*
X203925522Y-96781784D03*
X209737985Y-93177706D03*
X220205180Y-79403273D03*
X226017643Y-75799195D03*
X239792849Y-80785428D03*
X245605312Y-77181350D03*
X179375835Y-67258630D03*
X185188298Y-63654552D03*
X182683847Y-86019296D03*
X188496310Y-82415218D03*
X164750183Y-94017475D03*
X170562646Y-90413397D03*
X200617510Y-78021118D03*
X206429973Y-74417040D03*
X236484839Y-62024761D03*
X242297302Y-58420683D03*
X197309499Y-59260452D03*
X203121962Y-55656374D03*
X216897168Y-60642606D03*
X222709631Y-57038528D03*
X161442172Y-75256808D03*
X167254635Y-71652730D03*
D11*
X242006040Y-93855343D03*
X249687540Y-92500887D03*
D12*
G36*
X249038612Y-93427652D02*
G01*
X248760775Y-91851959D01*
X250336468Y-91574122D01*
X250614305Y-93149815D01*
X249038612Y-93427652D01*
X249038612Y-93427652D01*
G37*
D11*
X194407594Y-82571103D03*
X195762050Y-90252603D03*
D12*
G36*
X194835285Y-89603675D02*
G01*
X196410978Y-89325838D01*
X196688815Y-90901531D01*
X195113122Y-91179368D01*
X194835285Y-89603675D01*
X194835285Y-89603675D01*
G37*
D11*
X179575192Y-108157406D03*
X180929648Y-115838906D03*
D12*
G36*
X180002883Y-115189978D02*
G01*
X181578576Y-114912141D01*
X181856413Y-116487834D01*
X180280720Y-116765671D01*
X180002883Y-115189978D01*
X180002883Y-115189978D01*
G37*
D11*
X231928927Y-75955080D03*
X233283383Y-83636580D03*
D12*
G36*
X232356618Y-82987652D02*
G01*
X233932311Y-82709815D01*
X234210148Y-84285508D01*
X232634455Y-84563345D01*
X232356618Y-82987652D01*
X232356618Y-82987652D01*
G37*
D11*
X215649270Y-93333591D03*
X217003726Y-101015091D03*
D12*
G36*
X216076961Y-100366163D02*
G01*
X217652654Y-100088326D01*
X217930491Y-101664019D01*
X216354798Y-101941856D01*
X216076961Y-100366163D01*
X216076961Y-100366163D01*
G37*
D11*
X241592538Y-91510259D03*
X249274038Y-90155803D03*
D12*
G36*
X248625110Y-91082568D02*
G01*
X248347273Y-89506875D01*
X249922966Y-89229038D01*
X250200803Y-90804731D01*
X248625110Y-91082568D01*
X248625110Y-91082568D01*
G37*
D11*
X212341258Y-74572925D03*
X213695714Y-82254425D03*
D12*
G36*
X212768949Y-81605497D02*
G01*
X214344642Y-81327660D01*
X214622479Y-82903353D01*
X213046786Y-83181190D01*
X212768949Y-81605497D01*
X212768949Y-81605497D01*
G37*
D11*
X235236939Y-94715746D03*
X236591395Y-102397246D03*
D12*
G36*
X235664630Y-101748318D02*
G01*
X237240323Y-101470481D01*
X237518160Y-103046174D01*
X235942467Y-103324011D01*
X235664630Y-101748318D01*
X235664630Y-101748318D01*
G37*
D11*
X197508855Y-100159228D03*
X198863311Y-107840728D03*
D12*
G36*
X197936546Y-107191800D02*
G01*
X199512239Y-106913963D01*
X199790076Y-108489656D01*
X198214383Y-108767493D01*
X197936546Y-107191800D01*
X197936546Y-107191800D01*
G37*
D11*
X191099583Y-63810437D03*
X192454039Y-71491937D03*
D12*
G36*
X191527274Y-70843009D02*
G01*
X193102967Y-70565172D01*
X193380804Y-72140865D01*
X191805111Y-72418702D01*
X191527274Y-70843009D01*
X191527274Y-70843009D01*
G37*
D11*
X173165919Y-71808615D03*
X174520375Y-79490115D03*
D12*
G36*
X173593610Y-78841187D02*
G01*
X175169303Y-78563350D01*
X175447140Y-80139043D01*
X173871447Y-80416880D01*
X173593610Y-78841187D01*
X173593610Y-78841187D01*
G37*
D11*
X176473931Y-90569281D03*
X177828387Y-98250781D03*
D12*
G36*
X176901622Y-97601853D02*
G01*
X178477315Y-97324016D01*
X178755152Y-98899709D01*
X177179459Y-99177546D01*
X176901622Y-97601853D01*
X176901622Y-97601853D01*
G37*
D11*
X228620916Y-57194413D03*
X229975372Y-64875913D03*
D12*
G36*
X229048607Y-64226985D02*
G01*
X230624300Y-63949148D01*
X230902137Y-65524841D01*
X229326444Y-65802678D01*
X229048607Y-64226985D01*
X229048607Y-64226985D01*
G37*
D11*
X238284527Y-72749593D03*
X245966027Y-71395137D03*
D12*
G36*
X245317099Y-72321902D02*
G01*
X245039262Y-70746209D01*
X246614955Y-70468372D01*
X246892792Y-72044065D01*
X245317099Y-72321902D01*
X245317099Y-72321902D01*
G37*
D11*
X209033246Y-55812258D03*
X210387702Y-63493758D03*
D12*
G36*
X209460937Y-62844830D02*
G01*
X211036630Y-62566993D01*
X211314467Y-64142686D01*
X209738774Y-64420523D01*
X209460937Y-62844830D01*
X209460937Y-62844830D01*
G37*
D10*
X120191378Y-91295531D03*
X113496783Y-92694277D03*
D13*
X150495600Y-74136620D03*
X135255600Y-102076620D03*
X150495600Y-76676620D03*
X150495600Y-79216620D03*
X150495600Y-81756620D03*
X150495600Y-84296620D03*
X150495600Y-86836620D03*
X150495600Y-89376620D03*
X150495600Y-91916620D03*
X150495600Y-94456620D03*
X150495600Y-96996620D03*
X150495600Y-99536620D03*
X150495600Y-102076620D03*
X135255600Y-99536620D03*
X135255600Y-96996620D03*
X135255600Y-94456620D03*
X135255600Y-91916620D03*
X135255600Y-89376620D03*
X135255600Y-86836620D03*
X135255600Y-84296620D03*
X135255600Y-81756620D03*
X135255600Y-79216620D03*
X135255600Y-76676620D03*
D14*
X135255600Y-74136620D03*
D10*
X145415600Y-112792370D03*
X139065600Y-115332370D03*
X116883365Y-110056196D03*
X110188770Y-111454942D03*
X98949703Y-102058018D03*
X92255108Y-103456764D03*
X81016038Y-94059838D03*
X74321443Y-95458584D03*
X61428369Y-95441994D03*
X54733774Y-96840740D03*
X41840699Y-96824149D03*
X35146104Y-98222895D03*
X102257713Y-83297351D03*
X95563118Y-84696097D03*
X84324050Y-75299173D03*
X77629455Y-76697919D03*
X64736380Y-76681328D03*
X58041785Y-78080074D03*
X45148711Y-78063484D03*
X38454116Y-79462230D03*
X123499388Y-72534863D03*
X116804793Y-73933609D03*
X105565725Y-64536685D03*
X98871130Y-65935431D03*
X87632061Y-56538507D03*
X80937466Y-57937253D03*
X68044392Y-57920661D03*
X61349797Y-59319407D03*
X48456721Y-59302816D03*
X41762126Y-60701562D03*
D15*
X151210010Y-120581740D03*
D11*
X151210010Y-112781740D03*
X121030386Y-119905958D03*
D12*
G36*
X120381458Y-118979193D02*
G01*
X121957151Y-119257030D01*
X121679314Y-120832723D01*
X120103621Y-120554886D01*
X120381458Y-118979193D01*
X120381458Y-118979193D01*
G37*
D11*
X122384842Y-112224458D03*
X103096721Y-111907780D03*
D12*
G36*
X102447793Y-110981015D02*
G01*
X104023486Y-111258852D01*
X103745649Y-112834545D01*
X102169956Y-112556708D01*
X102447793Y-110981015D01*
X102447793Y-110981015D01*
G37*
D11*
X104451177Y-104226280D03*
X85163057Y-103909602D03*
D12*
G36*
X84514129Y-102982837D02*
G01*
X86089822Y-103260674D01*
X85811985Y-104836367D01*
X84236292Y-104558530D01*
X84514129Y-102982837D01*
X84514129Y-102982837D01*
G37*
D11*
X86517513Y-96228102D03*
X65782139Y-104119215D03*
D12*
G36*
X65133211Y-103192450D02*
G01*
X66708904Y-103470287D01*
X66431067Y-105045980D01*
X64855374Y-104768143D01*
X65133211Y-103192450D01*
X65133211Y-103192450D01*
G37*
D11*
X67136595Y-96437715D03*
X46194469Y-105501370D03*
D12*
G36*
X45545541Y-104574605D02*
G01*
X47121234Y-104852442D01*
X46843397Y-106428135D01*
X45267704Y-106150298D01*
X45545541Y-104574605D01*
X45545541Y-104574605D01*
G37*
D11*
X47548925Y-97819870D03*
X124338396Y-101145292D03*
D12*
G36*
X123689468Y-100218527D02*
G01*
X125265161Y-100496364D01*
X124987324Y-102072057D01*
X123411631Y-101794220D01*
X123689468Y-100218527D01*
X123689468Y-100218527D01*
G37*
D11*
X125692852Y-93463792D03*
X106404733Y-93147113D03*
D12*
G36*
X105755805Y-92220348D02*
G01*
X107331498Y-92498185D01*
X107053661Y-94073878D01*
X105477968Y-93796041D01*
X105755805Y-92220348D01*
X105755805Y-92220348D01*
G37*
D11*
X107759189Y-85465613D03*
X88471069Y-85148935D03*
D12*
G36*
X87822141Y-84222170D02*
G01*
X89397834Y-84500007D01*
X89119997Y-86075700D01*
X87544304Y-85797863D01*
X87822141Y-84222170D01*
X87822141Y-84222170D01*
G37*
D11*
X89825525Y-77467435D03*
X68883400Y-86531090D03*
D12*
G36*
X68234472Y-85604325D02*
G01*
X69810165Y-85882162D01*
X69532328Y-87457855D01*
X67956635Y-87180018D01*
X68234472Y-85604325D01*
X68234472Y-85604325D01*
G37*
D11*
X70237856Y-78849590D03*
X49295730Y-87913246D03*
D12*
G36*
X48646802Y-86986481D02*
G01*
X50222495Y-87264318D01*
X49944658Y-88840011D01*
X48368965Y-88562174D01*
X48646802Y-86986481D01*
X48646802Y-86986481D01*
G37*
D11*
X50650186Y-80231746D03*
X127646408Y-82384625D03*
D12*
G36*
X126997480Y-81457860D02*
G01*
X128573173Y-81735697D01*
X128295336Y-83311390D01*
X126719643Y-83033553D01*
X126997480Y-81457860D01*
X126997480Y-81457860D01*
G37*
D11*
X129000864Y-74703125D03*
X109712743Y-74386447D03*
D12*
G36*
X109063815Y-73459682D02*
G01*
X110639508Y-73737519D01*
X110361671Y-75313212D01*
X108785978Y-75035375D01*
X109063815Y-73459682D01*
X109063815Y-73459682D01*
G37*
D11*
X111067199Y-66704947D03*
X91779081Y-66388269D03*
D12*
G36*
X91130153Y-65461504D02*
G01*
X92705846Y-65739341D01*
X92428009Y-67315034D01*
X90852316Y-67037197D01*
X91130153Y-65461504D01*
X91130153Y-65461504D01*
G37*
D11*
X93133537Y-58706769D03*
X72191411Y-67770425D03*
D12*
G36*
X71542483Y-66843660D02*
G01*
X73118176Y-67121497D01*
X72840339Y-68697190D01*
X71264646Y-68419353D01*
X71542483Y-66843660D01*
X71542483Y-66843660D01*
G37*
D11*
X73545867Y-60088925D03*
X52603742Y-69152579D03*
D12*
G36*
X51954814Y-68225814D02*
G01*
X53530507Y-68503651D01*
X53252670Y-70079344D01*
X51676977Y-69801507D01*
X51954814Y-68225814D01*
X51954814Y-68225814D01*
G37*
D11*
X53958198Y-61471079D03*
D16*
X41762126Y-76154220D03*
X61349797Y-74772062D03*
X80937466Y-73389908D03*
X98871130Y-81388085D03*
X116804793Y-89386267D03*
X163000000Y-92267292D03*
X181000000Y-84335449D03*
X199000000Y-76403608D03*
X218022167Y-77220260D03*
X234100000Y-75092579D03*
D17*
X70809257Y-69152579D02*
X72191411Y-67770425D01*
X52603742Y-69152579D02*
X70809257Y-69152579D01*
X90396925Y-67770425D02*
X91779081Y-66388269D01*
X72191411Y-67770425D02*
X90396925Y-67770425D01*
X99777259Y-74386447D02*
X91779081Y-66388269D01*
X109712743Y-74386447D02*
X99777259Y-74386447D01*
X117710921Y-82384625D02*
X109712743Y-74386447D01*
X127646408Y-82384625D02*
X117710921Y-82384625D01*
X204606242Y-63493758D02*
X210387702Y-63493758D01*
X192454039Y-71491937D02*
X196608063Y-71491937D01*
X196608063Y-71491937D02*
X204606242Y-63493758D01*
X180909885Y-79490115D02*
X174520375Y-79490115D01*
X192454039Y-71491937D02*
X188908063Y-71491937D01*
X188908063Y-71491937D02*
X180909885Y-79490115D01*
X212093944Y-65200000D02*
X210387702Y-63493758D01*
X229975372Y-64875913D02*
X229651285Y-65200000D01*
X229651285Y-65200000D02*
X212093944Y-65200000D01*
X242070890Y-67500000D02*
X245966027Y-71395137D01*
X229975372Y-64875913D02*
X232599459Y-67500000D01*
X232599459Y-67500000D02*
X242070890Y-67500000D01*
X155302105Y-79490115D02*
X150495600Y-84296620D01*
X174520375Y-79490115D02*
X155302105Y-79490115D01*
X128407692Y-83145909D02*
X127646408Y-82384625D01*
X130759704Y-85497921D02*
X128407692Y-83145909D01*
X149294299Y-85497921D02*
X130759704Y-85497921D01*
X150495600Y-84296620D02*
X149294299Y-85497921D01*
X67501244Y-87913246D02*
X68883400Y-86531090D01*
X49295730Y-87913246D02*
X67501244Y-87913246D01*
X87088914Y-86531090D02*
X88471069Y-85148935D01*
X68883400Y-86531090D02*
X87088914Y-86531090D01*
X114402912Y-101145292D02*
X106404733Y-93147113D01*
X124338396Y-101145292D02*
X114402912Y-101145292D01*
X96469247Y-93147113D02*
X88471069Y-85148935D01*
X106404733Y-93147113D02*
X96469247Y-93147113D01*
X182949219Y-98250781D02*
X177828387Y-98250781D01*
X195762050Y-90252603D02*
X190947397Y-90252603D01*
X190947397Y-90252603D02*
X182949219Y-98250781D01*
X209745575Y-82254425D02*
X213695714Y-82254425D01*
X195762050Y-90252603D02*
X201747397Y-90252603D01*
X201747397Y-90252603D02*
X209745575Y-82254425D01*
X215441289Y-84000000D02*
X213695714Y-82254425D01*
X233283383Y-83636580D02*
X232919963Y-84000000D01*
X232919963Y-84000000D02*
X215441289Y-84000000D01*
X245518235Y-86400000D02*
X249274038Y-90155803D01*
X233283383Y-83636580D02*
X236046803Y-86400000D01*
X236046803Y-86400000D02*
X245518235Y-86400000D01*
X176542548Y-99536620D02*
X150495600Y-99536620D01*
X177828387Y-98250781D02*
X176542548Y-99536620D01*
X124683688Y-100800000D02*
X124338396Y-101145292D01*
X150495600Y-99536620D02*
X149232220Y-100800000D01*
X149232220Y-100800000D02*
X124683688Y-100800000D01*
X64399984Y-105501370D02*
X65782139Y-104119215D01*
X46194469Y-105501370D02*
X64399984Y-105501370D01*
X84953444Y-104119215D02*
X85163057Y-103909602D01*
X65782139Y-104119215D02*
X84953444Y-104119215D01*
X93161235Y-111907780D02*
X85163057Y-103909602D01*
X103096721Y-111907780D02*
X93161235Y-111907780D01*
X111094899Y-119905958D02*
X103096721Y-111907780D01*
X121030386Y-119905958D02*
X111094899Y-119905958D01*
X181690932Y-115077622D02*
X180929648Y-115838906D01*
X185868554Y-110900000D02*
X181690932Y-115077622D01*
X195804039Y-110900000D02*
X185868554Y-110900000D01*
X198863311Y-107840728D02*
X195804039Y-110900000D01*
X216091385Y-101015091D02*
X217003726Y-101015091D01*
X211984909Y-101015091D02*
X216091385Y-101015091D01*
X198863311Y-107840728D02*
X205159272Y-107840728D01*
X205159272Y-107840728D02*
X211984909Y-101015091D01*
X218888635Y-102900000D02*
X217003726Y-101015091D01*
X236591395Y-102397246D02*
X236088641Y-102900000D01*
X236088641Y-102900000D02*
X218888635Y-102900000D01*
X246487754Y-92500887D02*
X236591395Y-102397246D01*
X249687540Y-92500887D02*
X246487754Y-92500887D01*
X176186814Y-120581740D02*
X180929648Y-115838906D01*
X151210010Y-120581740D02*
X176186814Y-120581740D01*
X150160010Y-120581740D02*
X151210010Y-120581740D01*
X121030386Y-119905958D02*
X121706168Y-120581740D01*
X121706168Y-120581740D02*
X150160010Y-120581740D01*
X45716368Y-72199978D02*
X41762126Y-76154220D01*
X134505993Y-87586227D02*
X117995459Y-87586227D01*
X117995459Y-87586227D02*
X110447286Y-80038054D01*
X135255600Y-86836620D02*
X134505993Y-87586227D01*
X110447286Y-80038054D02*
X99910874Y-80038054D01*
X99910874Y-80038054D02*
X92072800Y-72199978D01*
X92072800Y-72199978D02*
X45716368Y-72199978D01*
X110260886Y-80488065D02*
X117809056Y-88036236D01*
X134379301Y-88500321D02*
X135255600Y-89376620D01*
X63471870Y-72649989D02*
X91886400Y-72649989D01*
X99724475Y-80488065D02*
X110260886Y-80488065D01*
X61349797Y-74772062D02*
X63471870Y-72649989D01*
X91886400Y-72649989D02*
X99724475Y-80488065D01*
X133915217Y-88036237D02*
X134379301Y-88500321D01*
X117809056Y-88036236D02*
X133915217Y-88036237D01*
X134379301Y-91040321D02*
X135255600Y-91916620D01*
X131825227Y-88486247D02*
X134379301Y-91040321D01*
X117622657Y-88486247D02*
X131825227Y-88486247D01*
X99538076Y-80938076D02*
X110074486Y-80938076D01*
X91700000Y-73100000D02*
X99538076Y-80938076D01*
X81227374Y-73100000D02*
X91700000Y-73100000D01*
X110074486Y-80938076D02*
X117622657Y-88486247D01*
X80937466Y-73389908D02*
X81227374Y-73100000D01*
X134379301Y-93580321D02*
X135255600Y-94456620D01*
X129735237Y-88936257D02*
X134379301Y-93580321D01*
X117436257Y-88936257D02*
X129735237Y-88936257D01*
X98871130Y-81388085D02*
X109888085Y-81388085D01*
X109888085Y-81388085D02*
X117436257Y-88936257D01*
X127645247Y-89386267D02*
X135255600Y-96996620D01*
X116804793Y-89386267D02*
X127645247Y-89386267D01*
X155224928Y-92267292D02*
X150495600Y-96996620D01*
X163000000Y-92267292D02*
X155224928Y-92267292D01*
X160852220Y-84100000D02*
X150495600Y-94456620D01*
X181000000Y-84335449D02*
X180764551Y-84100000D01*
X180764551Y-84100000D02*
X160852220Y-84100000D01*
X151371899Y-91040321D02*
X150495600Y-91916620D01*
X158812220Y-83600000D02*
X151371899Y-91040321D01*
X184900000Y-83600000D02*
X158812220Y-83600000D01*
X199000000Y-76403608D02*
X192096392Y-76403608D01*
X192096392Y-76403608D02*
X184900000Y-83600000D01*
X156722228Y-83149992D02*
X151371899Y-88500321D01*
X151371899Y-88500321D02*
X150495600Y-89376620D01*
X184713598Y-83149992D02*
X156722228Y-83149992D01*
X191913578Y-75950011D02*
X184713598Y-83149992D01*
X198186400Y-75950011D02*
X191913578Y-75950011D01*
X213601907Y-72800000D02*
X201336411Y-72800000D01*
X201336411Y-72800000D02*
X198186400Y-75950011D01*
X218022167Y-77220260D02*
X213601907Y-72800000D01*
X151371899Y-85960321D02*
X150495600Y-86836620D01*
X154632239Y-82699981D02*
X151371899Y-85960321D01*
X231357410Y-72349989D02*
X201050011Y-72349989D01*
X234100000Y-75092579D02*
X231357410Y-72349989D01*
X201050011Y-72349989D02*
X197900000Y-75500000D01*
X197900000Y-75500000D02*
X191727179Y-75500000D01*
X191727179Y-75500000D02*
X184527198Y-82699981D01*
X184527198Y-82699981D02*
X154632239Y-82699981D01*
M02*
