G04 #@! TF.GenerationSoftware,KiCad,Pcbnew,(5.1.4)-1*
G04 #@! TF.CreationDate,2021-02-14T17:08:46-07:00*
G04 #@! TF.ProjectId,ONI-Kyan Shakotan,4f4e492d-4b79-4616-9e20-5368616b6f74,rev?*
G04 #@! TF.SameCoordinates,Original*
G04 #@! TF.FileFunction,Soldermask,Top*
G04 #@! TF.FilePolarity,Negative*
%FSLAX46Y46*%
G04 Gerber Fmt 4.6, Leading zero omitted, Abs format (unit mm)*
G04 Created by KiCad (PCBNEW (5.1.4)-1) date 2021-02-14 17:08:46*
%MOMM*%
%LPD*%
G04 APERTURE LIST*
%ADD10C,0.150000*%
G04 APERTURE END LIST*
D10*
G36*
X164523844Y-130817172D02*
G01*
X164673144Y-130846869D01*
X164837116Y-130914789D01*
X164984686Y-131013392D01*
X165110185Y-131138891D01*
X165208788Y-131286461D01*
X165276708Y-131450433D01*
X165311332Y-131624504D01*
X165311332Y-131801986D01*
X165276708Y-131976057D01*
X165208788Y-132140029D01*
X165110185Y-132287599D01*
X164984686Y-132413098D01*
X164837116Y-132511701D01*
X164673144Y-132579621D01*
X164523844Y-132609318D01*
X164499074Y-132614245D01*
X164321590Y-132614245D01*
X164296820Y-132609318D01*
X164147520Y-132579621D01*
X163983548Y-132511701D01*
X163835978Y-132413098D01*
X163710479Y-132287599D01*
X163611876Y-132140029D01*
X163543956Y-131976057D01*
X163509332Y-131801986D01*
X163509332Y-131624504D01*
X163543956Y-131450433D01*
X163611876Y-131286461D01*
X163710479Y-131138891D01*
X163835978Y-131013392D01*
X163983548Y-130914789D01*
X164147520Y-130846869D01*
X164296820Y-130817172D01*
X164321590Y-130812245D01*
X164499074Y-130812245D01*
X164523844Y-130817172D01*
X164523844Y-130817172D01*
G37*
G36*
X121453180Y-130817171D02*
G01*
X121602480Y-130846868D01*
X121766452Y-130914788D01*
X121914022Y-131013391D01*
X122039521Y-131138890D01*
X122138124Y-131286460D01*
X122206044Y-131450432D01*
X122240668Y-131624503D01*
X122240668Y-131801985D01*
X122206044Y-131976056D01*
X122138124Y-132140028D01*
X122039521Y-132287598D01*
X121914022Y-132413097D01*
X121766452Y-132511700D01*
X121602480Y-132579620D01*
X121453180Y-132609317D01*
X121428410Y-132614244D01*
X121250926Y-132614244D01*
X121226156Y-132609317D01*
X121076856Y-132579620D01*
X120912884Y-132511700D01*
X120765314Y-132413097D01*
X120639815Y-132287598D01*
X120541212Y-132140028D01*
X120473292Y-131976056D01*
X120438668Y-131801985D01*
X120438668Y-131624503D01*
X120473292Y-131450432D01*
X120541212Y-131286460D01*
X120639815Y-131138890D01*
X120765314Y-131013391D01*
X120912884Y-130914788D01*
X121076856Y-130846868D01*
X121226156Y-130817171D01*
X121250926Y-130812244D01*
X121428410Y-130812244D01*
X121453180Y-130817171D01*
X121453180Y-130817171D01*
G37*
G36*
X167637628Y-128173062D02*
G01*
X167756102Y-128222136D01*
X167862726Y-128293380D01*
X167953403Y-128384057D01*
X168024647Y-128490681D01*
X168073721Y-128609155D01*
X168098738Y-128734927D01*
X168098738Y-128863163D01*
X168073721Y-128988935D01*
X168024647Y-129107409D01*
X167953403Y-129214033D01*
X167862726Y-129304710D01*
X167756102Y-129375954D01*
X167756101Y-129375955D01*
X167756100Y-129375955D01*
X167637628Y-129425028D01*
X167511857Y-129450045D01*
X167383619Y-129450045D01*
X167257848Y-129425028D01*
X167139376Y-129375955D01*
X167139375Y-129375955D01*
X167139374Y-129375954D01*
X167032750Y-129304710D01*
X166942073Y-129214033D01*
X166870829Y-129107409D01*
X166821755Y-128988935D01*
X166796738Y-128863163D01*
X166796738Y-128734927D01*
X166821755Y-128609155D01*
X166870829Y-128490681D01*
X166942073Y-128384057D01*
X167032750Y-128293380D01*
X167139374Y-128222136D01*
X167257848Y-128173062D01*
X167383619Y-128148045D01*
X167511857Y-128148045D01*
X167637628Y-128173062D01*
X167637628Y-128173062D01*
G37*
G36*
X161272985Y-125793861D02*
G01*
X161385748Y-125816291D01*
X161517741Y-125870964D01*
X161704408Y-125948284D01*
X161991196Y-126139910D01*
X162235091Y-126383805D01*
X162426717Y-126670593D01*
X162504037Y-126857260D01*
X162558710Y-126989252D01*
X162558710Y-126989254D01*
X162626000Y-127327541D01*
X162626000Y-127672461D01*
X162558710Y-128010748D01*
X162426717Y-128329409D01*
X162235091Y-128616197D01*
X161991196Y-128860092D01*
X161704408Y-129051718D01*
X161569962Y-129107407D01*
X161385748Y-129183711D01*
X161272985Y-129206141D01*
X161047460Y-129251001D01*
X160702540Y-129251001D01*
X160477015Y-129206141D01*
X160364252Y-129183711D01*
X160180038Y-129107407D01*
X160045592Y-129051718D01*
X159758804Y-128860092D01*
X159514909Y-128616197D01*
X159323283Y-128329409D01*
X159191290Y-128010748D01*
X159124000Y-127672461D01*
X159124000Y-127327541D01*
X159191290Y-126989254D01*
X159191291Y-126989252D01*
X159245963Y-126857260D01*
X159323283Y-126670593D01*
X159514909Y-126383805D01*
X159758804Y-126139910D01*
X160045592Y-125948284D01*
X160232259Y-125870964D01*
X160364252Y-125816291D01*
X160477015Y-125793861D01*
X160702540Y-125749001D01*
X161047460Y-125749001D01*
X161272985Y-125793861D01*
X161272985Y-125793861D01*
G37*
G36*
X125272985Y-125793860D02*
G01*
X125385748Y-125816290D01*
X125517741Y-125870963D01*
X125704408Y-125948283D01*
X125991196Y-126139909D01*
X126235091Y-126383804D01*
X126426717Y-126670592D01*
X126558710Y-126989253D01*
X126626000Y-127327540D01*
X126626000Y-127672460D01*
X126581140Y-127897985D01*
X126558710Y-128010748D01*
X126504037Y-128142741D01*
X126426717Y-128329408D01*
X126235091Y-128616196D01*
X125991196Y-128860091D01*
X125704408Y-129051717D01*
X125569955Y-129107409D01*
X125385748Y-129183710D01*
X125272985Y-129206140D01*
X125047460Y-129251000D01*
X124702540Y-129251000D01*
X124477015Y-129206140D01*
X124364252Y-129183710D01*
X124180045Y-129107409D01*
X124045592Y-129051717D01*
X123758804Y-128860091D01*
X123514909Y-128616196D01*
X123323283Y-128329408D01*
X123245963Y-128142741D01*
X123191290Y-128010748D01*
X123168860Y-127897985D01*
X123124000Y-127672460D01*
X123124000Y-127327540D01*
X123191290Y-126989253D01*
X123323283Y-126670592D01*
X123514909Y-126383804D01*
X123758804Y-126139909D01*
X124045592Y-125948283D01*
X124232259Y-125870963D01*
X124364252Y-125816290D01*
X124477015Y-125793860D01*
X124702540Y-125749000D01*
X125047460Y-125749000D01*
X125272985Y-125793860D01*
X125272985Y-125793860D01*
G37*
G36*
X157453180Y-122390684D02*
G01*
X157602480Y-122420381D01*
X157766452Y-122488301D01*
X157914022Y-122586904D01*
X158039521Y-122712403D01*
X158138124Y-122859973D01*
X158206044Y-123023945D01*
X158240668Y-123198016D01*
X158240668Y-123375498D01*
X158206044Y-123549569D01*
X158138124Y-123713541D01*
X158039521Y-123861111D01*
X157914022Y-123986610D01*
X157766452Y-124085213D01*
X157602480Y-124153133D01*
X157453180Y-124182830D01*
X157428410Y-124187757D01*
X157250926Y-124187757D01*
X157226156Y-124182830D01*
X157076856Y-124153133D01*
X156912884Y-124085213D01*
X156765314Y-123986610D01*
X156639815Y-123861111D01*
X156541212Y-123713541D01*
X156473292Y-123549569D01*
X156438668Y-123375498D01*
X156438668Y-123198016D01*
X156473292Y-123023945D01*
X156541212Y-122859973D01*
X156639815Y-122712403D01*
X156765314Y-122586904D01*
X156912884Y-122488301D01*
X157076856Y-122420381D01*
X157226156Y-122390684D01*
X157250926Y-122385757D01*
X157428410Y-122385757D01*
X157453180Y-122390684D01*
X157453180Y-122390684D01*
G37*
G36*
X128523844Y-122390683D02*
G01*
X128673144Y-122420380D01*
X128837116Y-122488300D01*
X128984686Y-122586903D01*
X129110185Y-122712402D01*
X129208788Y-122859972D01*
X129276708Y-123023944D01*
X129311332Y-123198015D01*
X129311332Y-123375497D01*
X129276708Y-123549568D01*
X129208788Y-123713540D01*
X129110185Y-123861110D01*
X128984686Y-123986609D01*
X128837116Y-124085212D01*
X128673144Y-124153132D01*
X128523844Y-124182829D01*
X128499074Y-124187756D01*
X128321590Y-124187756D01*
X128296820Y-124182829D01*
X128147520Y-124153132D01*
X127983548Y-124085212D01*
X127835978Y-123986609D01*
X127710479Y-123861110D01*
X127611876Y-123713540D01*
X127543956Y-123549568D01*
X127509332Y-123375497D01*
X127509332Y-123198015D01*
X127543956Y-123023944D01*
X127611876Y-122859972D01*
X127710479Y-122712402D01*
X127835978Y-122586903D01*
X127983548Y-122488300D01*
X128147520Y-122420380D01*
X128296820Y-122390683D01*
X128321590Y-122385756D01*
X128499074Y-122385756D01*
X128523844Y-122390683D01*
X128523844Y-122390683D01*
G37*
G36*
X125202855Y-120175557D02*
G01*
X125321329Y-120224631D01*
X125427953Y-120295875D01*
X125518630Y-120386552D01*
X125589874Y-120493176D01*
X125638948Y-120611650D01*
X125663965Y-120737422D01*
X125663965Y-120865658D01*
X125638948Y-120991430D01*
X125589874Y-121109904D01*
X125518630Y-121216528D01*
X125427953Y-121307205D01*
X125321329Y-121378449D01*
X125321328Y-121378450D01*
X125321327Y-121378450D01*
X125202855Y-121427523D01*
X125077084Y-121452540D01*
X124948846Y-121452540D01*
X124823075Y-121427523D01*
X124704603Y-121378450D01*
X124704602Y-121378450D01*
X124704601Y-121378449D01*
X124597977Y-121307205D01*
X124507300Y-121216528D01*
X124436056Y-121109904D01*
X124386982Y-120991430D01*
X124361965Y-120865658D01*
X124361965Y-120737422D01*
X124386982Y-120611650D01*
X124436056Y-120493176D01*
X124507300Y-120386552D01*
X124597977Y-120295875D01*
X124704601Y-120224631D01*
X124823075Y-120175557D01*
X124948846Y-120150540D01*
X125077084Y-120150540D01*
X125202855Y-120175557D01*
X125202855Y-120175557D01*
G37*
G36*
X113502001Y-110468110D02*
G01*
X113651301Y-110497807D01*
X113815273Y-110565727D01*
X113962843Y-110664330D01*
X114088342Y-110789829D01*
X114186945Y-110937399D01*
X114254865Y-111101371D01*
X114281260Y-111234070D01*
X114289489Y-111275439D01*
X114289489Y-111452924D01*
X114254865Y-111626995D01*
X114186945Y-111790967D01*
X114088342Y-111938537D01*
X113962843Y-112064036D01*
X113815273Y-112162639D01*
X113651301Y-112230559D01*
X113502001Y-112260256D01*
X113477231Y-112265183D01*
X113299747Y-112265183D01*
X113274977Y-112260256D01*
X113125677Y-112230559D01*
X112961705Y-112162639D01*
X112814135Y-112064036D01*
X112688636Y-111938537D01*
X112590033Y-111790967D01*
X112522113Y-111626995D01*
X112487489Y-111452924D01*
X112487489Y-111275442D01*
X112487490Y-111275439D01*
X112495718Y-111234070D01*
X112522113Y-111101371D01*
X112590033Y-110937399D01*
X112688636Y-110789829D01*
X112814135Y-110664330D01*
X112961705Y-110565727D01*
X113125677Y-110497807D01*
X113274977Y-110468110D01*
X113299747Y-110463183D01*
X113477231Y-110463183D01*
X113502001Y-110468110D01*
X113502001Y-110468110D01*
G37*
G36*
X172475025Y-110468108D02*
G01*
X172624325Y-110497805D01*
X172788297Y-110565725D01*
X172935867Y-110664328D01*
X173061366Y-110789827D01*
X173159969Y-110937397D01*
X173227889Y-111101369D01*
X173257586Y-111250669D01*
X173262513Y-111275439D01*
X173262513Y-111452923D01*
X173257586Y-111477693D01*
X173227889Y-111626993D01*
X173159969Y-111790965D01*
X173061366Y-111938535D01*
X172935867Y-112064034D01*
X172788297Y-112162637D01*
X172624325Y-112230557D01*
X172475025Y-112260254D01*
X172450255Y-112265181D01*
X172272771Y-112265181D01*
X172248001Y-112260254D01*
X172098701Y-112230557D01*
X171934729Y-112162637D01*
X171787159Y-112064034D01*
X171661660Y-111938535D01*
X171563057Y-111790965D01*
X171495137Y-111626993D01*
X171465440Y-111477693D01*
X171460513Y-111452923D01*
X171460513Y-111275439D01*
X171465440Y-111250669D01*
X171495137Y-111101369D01*
X171563057Y-110937397D01*
X171661660Y-110789827D01*
X171787159Y-110664328D01*
X171934729Y-110565725D01*
X172098701Y-110497805D01*
X172248001Y-110468108D01*
X172272771Y-110463181D01*
X172450255Y-110463181D01*
X172475025Y-110468108D01*
X172475025Y-110468108D01*
G37*
G36*
X108618165Y-107776932D02*
G01*
X108730928Y-107799362D01*
X108862921Y-107854035D01*
X109049588Y-107931355D01*
X109336376Y-108122981D01*
X109580271Y-108366876D01*
X109771897Y-108653664D01*
X109849217Y-108840331D01*
X109903890Y-108972323D01*
X109903890Y-108972325D01*
X109971180Y-109310610D01*
X109971180Y-109655530D01*
X109903891Y-109993817D01*
X109903890Y-109993819D01*
X109771897Y-110312480D01*
X109580271Y-110599268D01*
X109336376Y-110843163D01*
X109049588Y-111034789D01*
X108862921Y-111112109D01*
X108730928Y-111166782D01*
X108618165Y-111189212D01*
X108392640Y-111234072D01*
X108047720Y-111234072D01*
X107822195Y-111189212D01*
X107709432Y-111166782D01*
X107577439Y-111112109D01*
X107390772Y-111034789D01*
X107103984Y-110843163D01*
X106860089Y-110599268D01*
X106668463Y-110312480D01*
X106536470Y-109993819D01*
X106536470Y-109993817D01*
X106469180Y-109655530D01*
X106469180Y-109310614D01*
X106469181Y-109310610D01*
X106536470Y-108972325D01*
X106536471Y-108972323D01*
X106591143Y-108840331D01*
X106668463Y-108653664D01*
X106860089Y-108366876D01*
X107103984Y-108122981D01*
X107390772Y-107931355D01*
X107577439Y-107854035D01*
X107709432Y-107799362D01*
X107822195Y-107776932D01*
X108047720Y-107732072D01*
X108392640Y-107732072D01*
X108618165Y-107776932D01*
X108618165Y-107776932D01*
G37*
G36*
X177927807Y-107776930D02*
G01*
X178040570Y-107799360D01*
X178172563Y-107854033D01*
X178359230Y-107931353D01*
X178646018Y-108122979D01*
X178889913Y-108366874D01*
X179081539Y-108653662D01*
X179158859Y-108840329D01*
X179213532Y-108972322D01*
X179235962Y-109085085D01*
X179280822Y-109310610D01*
X179280822Y-109655530D01*
X179235962Y-109881055D01*
X179213532Y-109993818D01*
X179213531Y-109993820D01*
X179081539Y-110312478D01*
X178889913Y-110599266D01*
X178646018Y-110843161D01*
X178359230Y-111034787D01*
X178198481Y-111101371D01*
X178040570Y-111166780D01*
X177927807Y-111189210D01*
X177702282Y-111234070D01*
X177357362Y-111234070D01*
X177131837Y-111189210D01*
X177019074Y-111166780D01*
X176861163Y-111101371D01*
X176700414Y-111034787D01*
X176413626Y-110843161D01*
X176169731Y-110599266D01*
X175978105Y-110312478D01*
X175846113Y-109993820D01*
X175846112Y-109993818D01*
X175823682Y-109881055D01*
X175778822Y-109655530D01*
X175778822Y-109310610D01*
X175823682Y-109085085D01*
X175846112Y-108972322D01*
X175900785Y-108840329D01*
X175978105Y-108653662D01*
X176169731Y-108366874D01*
X176413626Y-108122979D01*
X176700414Y-107931353D01*
X176887081Y-107854033D01*
X177019074Y-107799360D01*
X177131837Y-107776930D01*
X177357362Y-107732070D01*
X177702282Y-107732070D01*
X177927807Y-107776930D01*
X177927807Y-107776930D01*
G37*
G36*
X103165383Y-106705888D02*
G01*
X103314683Y-106735585D01*
X103478655Y-106803505D01*
X103626225Y-106902108D01*
X103751724Y-107027607D01*
X103850327Y-107175177D01*
X103918247Y-107339149D01*
X103947944Y-107488449D01*
X103952871Y-107513217D01*
X103952871Y-107690702D01*
X103918247Y-107864773D01*
X103850327Y-108028745D01*
X103751724Y-108176315D01*
X103626225Y-108301814D01*
X103478655Y-108400417D01*
X103314683Y-108468337D01*
X103165383Y-108498034D01*
X103140613Y-108502961D01*
X102963129Y-108502961D01*
X102938359Y-108498034D01*
X102789059Y-108468337D01*
X102625087Y-108400417D01*
X102477517Y-108301814D01*
X102352018Y-108176315D01*
X102253415Y-108028745D01*
X102185495Y-107864773D01*
X102150871Y-107690702D01*
X102150871Y-107513220D01*
X102150872Y-107513217D01*
X102155798Y-107488449D01*
X102185495Y-107339149D01*
X102253415Y-107175177D01*
X102352018Y-107027607D01*
X102477517Y-106902108D01*
X102625087Y-106803505D01*
X102789059Y-106735585D01*
X102938359Y-106705888D01*
X102963129Y-106700961D01*
X103140613Y-106700961D01*
X103165383Y-106705888D01*
X103165383Y-106705888D01*
G37*
G36*
X182811643Y-106705886D02*
G01*
X182960943Y-106735583D01*
X183124915Y-106803503D01*
X183272485Y-106902106D01*
X183397984Y-107027605D01*
X183496587Y-107175175D01*
X183564507Y-107339147D01*
X183594204Y-107488447D01*
X183599131Y-107513217D01*
X183599131Y-107690701D01*
X183594204Y-107715471D01*
X183564507Y-107864771D01*
X183496587Y-108028743D01*
X183397984Y-108176313D01*
X183272485Y-108301812D01*
X183124915Y-108400415D01*
X182960943Y-108468335D01*
X182811643Y-108498032D01*
X182786873Y-108502959D01*
X182609389Y-108502959D01*
X182584619Y-108498032D01*
X182435319Y-108468335D01*
X182271347Y-108400415D01*
X182123777Y-108301812D01*
X181998278Y-108176313D01*
X181899675Y-108028743D01*
X181831755Y-107864771D01*
X181802058Y-107715471D01*
X181797131Y-107690701D01*
X181797131Y-107513217D01*
X181802058Y-107488447D01*
X181831755Y-107339147D01*
X181899675Y-107175175D01*
X181998278Y-107027605D01*
X182123777Y-106902106D01*
X182271347Y-106803503D01*
X182435319Y-106735583D01*
X182584619Y-106705886D01*
X182609389Y-106700959D01*
X182786873Y-106700959D01*
X182811643Y-106705886D01*
X182811643Y-106705886D01*
G37*
G36*
X153949000Y-106560272D02*
G01*
X150596872Y-106560272D01*
X150594598Y-106537185D01*
X150587485Y-106513736D01*
X150575934Y-106492125D01*
X150560389Y-106473183D01*
X150541447Y-106457638D01*
X150519836Y-106446087D01*
X150496387Y-106438974D01*
X150472001Y-106436572D01*
X150403668Y-106436572D01*
X150224517Y-106400937D01*
X150055760Y-106331036D01*
X149903882Y-106229554D01*
X149774718Y-106100390D01*
X149673236Y-105948512D01*
X149603335Y-105779755D01*
X149567700Y-105600604D01*
X149567700Y-105417940D01*
X149603335Y-105238789D01*
X149673236Y-105070032D01*
X149774718Y-104918154D01*
X149903882Y-104788990D01*
X150055760Y-104687508D01*
X150224517Y-104617607D01*
X150403668Y-104581972D01*
X150472001Y-104581972D01*
X150496387Y-104579570D01*
X150519836Y-104572457D01*
X150541447Y-104560906D01*
X150560389Y-104545361D01*
X150575934Y-104526419D01*
X150587485Y-104504808D01*
X150594598Y-104481359D01*
X150596872Y-104458272D01*
X153949000Y-104458272D01*
X153949000Y-106560272D01*
X153949000Y-106560272D01*
G37*
G36*
X135155402Y-104481359D02*
G01*
X135162515Y-104504808D01*
X135174066Y-104526419D01*
X135189611Y-104545361D01*
X135208553Y-104560906D01*
X135230164Y-104572457D01*
X135253613Y-104579570D01*
X135277999Y-104581972D01*
X135346332Y-104581972D01*
X135525483Y-104617607D01*
X135694240Y-104687508D01*
X135846118Y-104788990D01*
X135975282Y-104918154D01*
X136076764Y-105070032D01*
X136146665Y-105238789D01*
X136182300Y-105417940D01*
X136182300Y-105600604D01*
X136146665Y-105779755D01*
X136076764Y-105948512D01*
X135975282Y-106100390D01*
X135846118Y-106229554D01*
X135694240Y-106331036D01*
X135525483Y-106400937D01*
X135346332Y-106436572D01*
X135277999Y-106436572D01*
X135253613Y-106438974D01*
X135230164Y-106446087D01*
X135208553Y-106457638D01*
X135189611Y-106473183D01*
X135174066Y-106492125D01*
X135162515Y-106513736D01*
X135155402Y-106537185D01*
X135153128Y-106560272D01*
X131801000Y-106560272D01*
X131801000Y-104458272D01*
X135153128Y-104458272D01*
X135155402Y-104481359D01*
X135155402Y-104481359D01*
G37*
G36*
X135155402Y-101941359D02*
G01*
X135162515Y-101964808D01*
X135174066Y-101986419D01*
X135189611Y-102005361D01*
X135208553Y-102020906D01*
X135230164Y-102032457D01*
X135253613Y-102039570D01*
X135277999Y-102041972D01*
X135346332Y-102041972D01*
X135525483Y-102077607D01*
X135694240Y-102147508D01*
X135846118Y-102248990D01*
X135975282Y-102378154D01*
X136076764Y-102530032D01*
X136146665Y-102698789D01*
X136182300Y-102877940D01*
X136182300Y-103060604D01*
X136146665Y-103239755D01*
X136076764Y-103408512D01*
X135975282Y-103560390D01*
X135846118Y-103689554D01*
X135694240Y-103791036D01*
X135525483Y-103860937D01*
X135346332Y-103896572D01*
X135277999Y-103896572D01*
X135253613Y-103898974D01*
X135230164Y-103906087D01*
X135208553Y-103917638D01*
X135189611Y-103933183D01*
X135174066Y-103952125D01*
X135162515Y-103973736D01*
X135155402Y-103997185D01*
X135153128Y-104020272D01*
X131801000Y-104020272D01*
X131801000Y-101918272D01*
X135153128Y-101918272D01*
X135155402Y-101941359D01*
X135155402Y-101941359D01*
G37*
G36*
X153949000Y-104020272D02*
G01*
X150596872Y-104020272D01*
X150594598Y-103997185D01*
X150587485Y-103973736D01*
X150575934Y-103952125D01*
X150560389Y-103933183D01*
X150541447Y-103917638D01*
X150519836Y-103906087D01*
X150496387Y-103898974D01*
X150472001Y-103896572D01*
X150403668Y-103896572D01*
X150224517Y-103860937D01*
X150055760Y-103791036D01*
X149903882Y-103689554D01*
X149774718Y-103560390D01*
X149673236Y-103408512D01*
X149603335Y-103239755D01*
X149567700Y-103060604D01*
X149567700Y-102877940D01*
X149603335Y-102698789D01*
X149673236Y-102530032D01*
X149774718Y-102378154D01*
X149903882Y-102248990D01*
X150055760Y-102147508D01*
X150224517Y-102077607D01*
X150403668Y-102041972D01*
X150472001Y-102041972D01*
X150496387Y-102039570D01*
X150519836Y-102032457D01*
X150541447Y-102020906D01*
X150560389Y-102005361D01*
X150575934Y-101986419D01*
X150587485Y-101964808D01*
X150594598Y-101941359D01*
X150596872Y-101918272D01*
X153949000Y-101918272D01*
X153949000Y-104020272D01*
X153949000Y-104020272D01*
G37*
G36*
X98041121Y-100318054D02*
G01*
X98190421Y-100347751D01*
X98354393Y-100415671D01*
X98501963Y-100514274D01*
X98627462Y-100639773D01*
X98726065Y-100787343D01*
X98793985Y-100951315D01*
X98828609Y-101125386D01*
X98828609Y-101302868D01*
X98793985Y-101476939D01*
X98726065Y-101640911D01*
X98627462Y-101788481D01*
X98501963Y-101913980D01*
X98354393Y-102012583D01*
X98190421Y-102080503D01*
X98041121Y-102110200D01*
X98016351Y-102115127D01*
X97838867Y-102115127D01*
X97814097Y-102110200D01*
X97664797Y-102080503D01*
X97500825Y-102012583D01*
X97353255Y-101913980D01*
X97227756Y-101788481D01*
X97129153Y-101640911D01*
X97061233Y-101476939D01*
X97026609Y-101302868D01*
X97026609Y-101125386D01*
X97061233Y-100951315D01*
X97129153Y-100787343D01*
X97227756Y-100639773D01*
X97353255Y-100514274D01*
X97500825Y-100415671D01*
X97664797Y-100347751D01*
X97814097Y-100318054D01*
X97838867Y-100313127D01*
X98016351Y-100313127D01*
X98041121Y-100318054D01*
X98041121Y-100318054D01*
G37*
G36*
X187935905Y-100318053D02*
G01*
X188085205Y-100347750D01*
X188249177Y-100415670D01*
X188396747Y-100514273D01*
X188522246Y-100639772D01*
X188620849Y-100787342D01*
X188688769Y-100951314D01*
X188723393Y-101125385D01*
X188723393Y-101302867D01*
X188688769Y-101476938D01*
X188620849Y-101640910D01*
X188522246Y-101788480D01*
X188396747Y-101913979D01*
X188249177Y-102012582D01*
X188085205Y-102080502D01*
X187935905Y-102110199D01*
X187911135Y-102115126D01*
X187733651Y-102115126D01*
X187708881Y-102110199D01*
X187559581Y-102080502D01*
X187395609Y-102012582D01*
X187248039Y-101913979D01*
X187122540Y-101788480D01*
X187023937Y-101640910D01*
X186956017Y-101476938D01*
X186921393Y-101302867D01*
X186921393Y-101125385D01*
X186956017Y-100951314D01*
X187023937Y-100787342D01*
X187122540Y-100639772D01*
X187248039Y-100514273D01*
X187395609Y-100415670D01*
X187559581Y-100347750D01*
X187708881Y-100318053D01*
X187733651Y-100313126D01*
X187911135Y-100313126D01*
X187935905Y-100318053D01*
X187935905Y-100318053D01*
G37*
G36*
X135155402Y-99401359D02*
G01*
X135162515Y-99424808D01*
X135174066Y-99446419D01*
X135189611Y-99465361D01*
X135208553Y-99480906D01*
X135230164Y-99492457D01*
X135253613Y-99499570D01*
X135277999Y-99501972D01*
X135346332Y-99501972D01*
X135525483Y-99537607D01*
X135694240Y-99607508D01*
X135846118Y-99708990D01*
X135975282Y-99838154D01*
X136076764Y-99990032D01*
X136146665Y-100158789D01*
X136182300Y-100337940D01*
X136182300Y-100520604D01*
X136146665Y-100699755D01*
X136076764Y-100868512D01*
X135975282Y-101020390D01*
X135846118Y-101149554D01*
X135694240Y-101251036D01*
X135525483Y-101320937D01*
X135346332Y-101356572D01*
X135277999Y-101356572D01*
X135253613Y-101358974D01*
X135230164Y-101366087D01*
X135208553Y-101377638D01*
X135189611Y-101393183D01*
X135174066Y-101412125D01*
X135162515Y-101433736D01*
X135155402Y-101457185D01*
X135153128Y-101480272D01*
X131801000Y-101480272D01*
X131801000Y-99378272D01*
X135153128Y-99378272D01*
X135155402Y-99401359D01*
X135155402Y-99401359D01*
G37*
G36*
X153949000Y-101480272D02*
G01*
X150596872Y-101480272D01*
X150594598Y-101457185D01*
X150587485Y-101433736D01*
X150575934Y-101412125D01*
X150560389Y-101393183D01*
X150541447Y-101377638D01*
X150519836Y-101366087D01*
X150496387Y-101358974D01*
X150472001Y-101356572D01*
X150403668Y-101356572D01*
X150224517Y-101320937D01*
X150055760Y-101251036D01*
X149903882Y-101149554D01*
X149774718Y-101020390D01*
X149673236Y-100868512D01*
X149603335Y-100699755D01*
X149567700Y-100520604D01*
X149567700Y-100337940D01*
X149603335Y-100158789D01*
X149673236Y-99990032D01*
X149774718Y-99838154D01*
X149903882Y-99708990D01*
X150055760Y-99607508D01*
X150224517Y-99537607D01*
X150403668Y-99501972D01*
X150472001Y-99501972D01*
X150496387Y-99499570D01*
X150519836Y-99492457D01*
X150541447Y-99480906D01*
X150560389Y-99465361D01*
X150575934Y-99446419D01*
X150587485Y-99424808D01*
X150594598Y-99401359D01*
X150596872Y-99378272D01*
X153949000Y-99378272D01*
X153949000Y-101480272D01*
X153949000Y-101480272D01*
G37*
G36*
X93116629Y-97618789D02*
G01*
X93270048Y-97649306D01*
X93402041Y-97703979D01*
X93588708Y-97781299D01*
X93875496Y-97972925D01*
X94119391Y-98216820D01*
X94311017Y-98503608D01*
X94354901Y-98609554D01*
X94443010Y-98822268D01*
X94446067Y-98837638D01*
X94510300Y-99160556D01*
X94510300Y-99505476D01*
X94443010Y-99843763D01*
X94311017Y-100162424D01*
X94119391Y-100449212D01*
X93875496Y-100693107D01*
X93588708Y-100884733D01*
X93402041Y-100962053D01*
X93270048Y-101016726D01*
X93157285Y-101039156D01*
X92931760Y-101084016D01*
X92586840Y-101084016D01*
X92361315Y-101039156D01*
X92248552Y-101016726D01*
X92116559Y-100962053D01*
X91929892Y-100884733D01*
X91643104Y-100693107D01*
X91399209Y-100449212D01*
X91207583Y-100162424D01*
X91075590Y-99843763D01*
X91008300Y-99505476D01*
X91008300Y-99160556D01*
X91072533Y-98837638D01*
X91075590Y-98822268D01*
X91163699Y-98609554D01*
X91207583Y-98503608D01*
X91399209Y-98216820D01*
X91643104Y-97972925D01*
X91929892Y-97781299D01*
X92116559Y-97703979D01*
X92248552Y-97649306D01*
X92401971Y-97618789D01*
X92586840Y-97582016D01*
X92931760Y-97582016D01*
X93116629Y-97618789D01*
X93116629Y-97618789D01*
G37*
G36*
X193348036Y-97618789D02*
G01*
X193501450Y-97649305D01*
X193633443Y-97703978D01*
X193820110Y-97781298D01*
X194106898Y-97972924D01*
X194350793Y-98216819D01*
X194542419Y-98503607D01*
X194542419Y-98503608D01*
X194674412Y-98822267D01*
X194684329Y-98872125D01*
X194741702Y-99160555D01*
X194741702Y-99505475D01*
X194735310Y-99537607D01*
X194674412Y-99843763D01*
X194619739Y-99975756D01*
X194542419Y-100162423D01*
X194350793Y-100449211D01*
X194106898Y-100693106D01*
X193820110Y-100884732D01*
X193659361Y-100951316D01*
X193501450Y-101016725D01*
X193388687Y-101039155D01*
X193163162Y-101084015D01*
X192818242Y-101084015D01*
X192592717Y-101039155D01*
X192479954Y-101016725D01*
X192322043Y-100951316D01*
X192161294Y-100884732D01*
X191874506Y-100693106D01*
X191630611Y-100449211D01*
X191438985Y-100162423D01*
X191361665Y-99975756D01*
X191306992Y-99843763D01*
X191246094Y-99537607D01*
X191239702Y-99505475D01*
X191239702Y-99160555D01*
X191297075Y-98872125D01*
X191306992Y-98822267D01*
X191438985Y-98503608D01*
X191438985Y-98503607D01*
X191630611Y-98216819D01*
X191874506Y-97972924D01*
X192161294Y-97781298D01*
X192347961Y-97703978D01*
X192479954Y-97649305D01*
X192633368Y-97618789D01*
X192818242Y-97582015D01*
X193163162Y-97582015D01*
X193348036Y-97618789D01*
X193348036Y-97618789D01*
G37*
G36*
X135155402Y-96861359D02*
G01*
X135162515Y-96884808D01*
X135174066Y-96906419D01*
X135189611Y-96925361D01*
X135208553Y-96940906D01*
X135230164Y-96952457D01*
X135253613Y-96959570D01*
X135277999Y-96961972D01*
X135346332Y-96961972D01*
X135525483Y-96997607D01*
X135694240Y-97067508D01*
X135846118Y-97168990D01*
X135975282Y-97298154D01*
X136076764Y-97450032D01*
X136146665Y-97618789D01*
X136182300Y-97797940D01*
X136182300Y-97980604D01*
X136146665Y-98159755D01*
X136076764Y-98328512D01*
X135975282Y-98480390D01*
X135846118Y-98609554D01*
X135694240Y-98711036D01*
X135525483Y-98780937D01*
X135346332Y-98816572D01*
X135277999Y-98816572D01*
X135253613Y-98818974D01*
X135230164Y-98826087D01*
X135208553Y-98837638D01*
X135189611Y-98853183D01*
X135174066Y-98872125D01*
X135162515Y-98893736D01*
X135155402Y-98917185D01*
X135153128Y-98940272D01*
X131801000Y-98940272D01*
X131801000Y-96838272D01*
X135153128Y-96838272D01*
X135155402Y-96861359D01*
X135155402Y-96861359D01*
G37*
G36*
X153949000Y-98940272D02*
G01*
X150596872Y-98940272D01*
X150594598Y-98917185D01*
X150587485Y-98893736D01*
X150575934Y-98872125D01*
X150560389Y-98853183D01*
X150541447Y-98837638D01*
X150519836Y-98826087D01*
X150496387Y-98818974D01*
X150472001Y-98816572D01*
X150403668Y-98816572D01*
X150224517Y-98780937D01*
X150055760Y-98711036D01*
X149903882Y-98609554D01*
X149774718Y-98480390D01*
X149673236Y-98328512D01*
X149603335Y-98159755D01*
X149567700Y-97980604D01*
X149567700Y-97797940D01*
X149603335Y-97618789D01*
X149673236Y-97450032D01*
X149774718Y-97298154D01*
X149903882Y-97168990D01*
X150055760Y-97067508D01*
X150224517Y-96997607D01*
X150403668Y-96961972D01*
X150472001Y-96961972D01*
X150496387Y-96959570D01*
X150519836Y-96952457D01*
X150541447Y-96940906D01*
X150560389Y-96925361D01*
X150575934Y-96906419D01*
X150587485Y-96884808D01*
X150594598Y-96861359D01*
X150596872Y-96838272D01*
X153949000Y-96838272D01*
X153949000Y-98940272D01*
X153949000Y-98940272D01*
G37*
G36*
X87704503Y-96555832D02*
G01*
X87853803Y-96585529D01*
X88017775Y-96653449D01*
X88165345Y-96752052D01*
X88290844Y-96877551D01*
X88389447Y-97025121D01*
X88457367Y-97189093D01*
X88491991Y-97363164D01*
X88491991Y-97540646D01*
X88457367Y-97714717D01*
X88389447Y-97878689D01*
X88290844Y-98026259D01*
X88165345Y-98151758D01*
X88017775Y-98250361D01*
X87853803Y-98318281D01*
X87704503Y-98347978D01*
X87679733Y-98352905D01*
X87502249Y-98352905D01*
X87477479Y-98347978D01*
X87328179Y-98318281D01*
X87164207Y-98250361D01*
X87016637Y-98151758D01*
X86891138Y-98026259D01*
X86792535Y-97878689D01*
X86724615Y-97714717D01*
X86689991Y-97540646D01*
X86689991Y-97363164D01*
X86724615Y-97189093D01*
X86792535Y-97025121D01*
X86891138Y-96877551D01*
X87016637Y-96752052D01*
X87164207Y-96653449D01*
X87328179Y-96585529D01*
X87477479Y-96555832D01*
X87502249Y-96550905D01*
X87679733Y-96550905D01*
X87704503Y-96555832D01*
X87704503Y-96555832D01*
G37*
G36*
X198272523Y-96555831D02*
G01*
X198421823Y-96585528D01*
X198585795Y-96653448D01*
X198733365Y-96752051D01*
X198858864Y-96877550D01*
X198957467Y-97025120D01*
X199025387Y-97189092D01*
X199060011Y-97363163D01*
X199060011Y-97540645D01*
X199025387Y-97714716D01*
X198957467Y-97878688D01*
X198858864Y-98026258D01*
X198733365Y-98151757D01*
X198585795Y-98250360D01*
X198421823Y-98318280D01*
X198272523Y-98347977D01*
X198247753Y-98352904D01*
X198070269Y-98352904D01*
X198045499Y-98347977D01*
X197896199Y-98318280D01*
X197732227Y-98250360D01*
X197584657Y-98151757D01*
X197459158Y-98026258D01*
X197360555Y-97878688D01*
X197292635Y-97714716D01*
X197258011Y-97540645D01*
X197258011Y-97363163D01*
X197292635Y-97189092D01*
X197360555Y-97025120D01*
X197459158Y-96877550D01*
X197584657Y-96752051D01*
X197732227Y-96653448D01*
X197896199Y-96585528D01*
X198045499Y-96555831D01*
X198070269Y-96550904D01*
X198247753Y-96550904D01*
X198272523Y-96555831D01*
X198272523Y-96555831D01*
G37*
G36*
X153949000Y-96400272D02*
G01*
X150596872Y-96400272D01*
X150594598Y-96377185D01*
X150587485Y-96353736D01*
X150575934Y-96332125D01*
X150560389Y-96313183D01*
X150541447Y-96297638D01*
X150519836Y-96286087D01*
X150496387Y-96278974D01*
X150472001Y-96276572D01*
X150403668Y-96276572D01*
X150224517Y-96240937D01*
X150055760Y-96171036D01*
X149903882Y-96069554D01*
X149774718Y-95940390D01*
X149673236Y-95788512D01*
X149603335Y-95619755D01*
X149567700Y-95440604D01*
X149567700Y-95257940D01*
X149603335Y-95078789D01*
X149673236Y-94910032D01*
X149774718Y-94758154D01*
X149903882Y-94628990D01*
X150055760Y-94527508D01*
X150224517Y-94457607D01*
X150403668Y-94421972D01*
X150472001Y-94421972D01*
X150496387Y-94419570D01*
X150519836Y-94412457D01*
X150541447Y-94400906D01*
X150560389Y-94385361D01*
X150575934Y-94366419D01*
X150587485Y-94344808D01*
X150594598Y-94321359D01*
X150596872Y-94298272D01*
X153949000Y-94298272D01*
X153949000Y-96400272D01*
X153949000Y-96400272D01*
G37*
G36*
X135155402Y-94321359D02*
G01*
X135162515Y-94344808D01*
X135174066Y-94366419D01*
X135189611Y-94385361D01*
X135208553Y-94400906D01*
X135230164Y-94412457D01*
X135253613Y-94419570D01*
X135277999Y-94421972D01*
X135346332Y-94421972D01*
X135525483Y-94457607D01*
X135694240Y-94527508D01*
X135846118Y-94628990D01*
X135975282Y-94758154D01*
X136076764Y-94910032D01*
X136146665Y-95078789D01*
X136182300Y-95257940D01*
X136182300Y-95440604D01*
X136146665Y-95619755D01*
X136076764Y-95788512D01*
X135975282Y-95940390D01*
X135846118Y-96069554D01*
X135694240Y-96171036D01*
X135525483Y-96240937D01*
X135346332Y-96276572D01*
X135277999Y-96276572D01*
X135253613Y-96278974D01*
X135230164Y-96286087D01*
X135208553Y-96297638D01*
X135189611Y-96313183D01*
X135174066Y-96332125D01*
X135162515Y-96353736D01*
X135155402Y-96377185D01*
X135153128Y-96400272D01*
X131801000Y-96400272D01*
X131801000Y-94298272D01*
X135153128Y-94298272D01*
X135155402Y-94321359D01*
X135155402Y-94321359D01*
G37*
G36*
X119316343Y-94493336D02*
G01*
X119465643Y-94523033D01*
X119629615Y-94590953D01*
X119777185Y-94689556D01*
X119902684Y-94815055D01*
X120001287Y-94962625D01*
X120069207Y-95126597D01*
X120103831Y-95300668D01*
X120103831Y-95478150D01*
X120069207Y-95652221D01*
X120001287Y-95816193D01*
X119902684Y-95963763D01*
X119777185Y-96089262D01*
X119629615Y-96187865D01*
X119465643Y-96255785D01*
X119316343Y-96285482D01*
X119291573Y-96290409D01*
X119114089Y-96290409D01*
X119089319Y-96285482D01*
X118940019Y-96255785D01*
X118776047Y-96187865D01*
X118628477Y-96089262D01*
X118502978Y-95963763D01*
X118404375Y-95816193D01*
X118336455Y-95652221D01*
X118301831Y-95478150D01*
X118301831Y-95300668D01*
X118336455Y-95126597D01*
X118404375Y-94962625D01*
X118502978Y-94815055D01*
X118628477Y-94689556D01*
X118776047Y-94590953D01*
X118940019Y-94523033D01*
X119089319Y-94493336D01*
X119114089Y-94488409D01*
X119291573Y-94488409D01*
X119316343Y-94493336D01*
X119316343Y-94493336D01*
G37*
G36*
X166660683Y-94493336D02*
G01*
X166809983Y-94523033D01*
X166973955Y-94590953D01*
X167121525Y-94689556D01*
X167247024Y-94815055D01*
X167345627Y-94962625D01*
X167413547Y-95126597D01*
X167448171Y-95300668D01*
X167448171Y-95478150D01*
X167413547Y-95652221D01*
X167345627Y-95816193D01*
X167247024Y-95963763D01*
X167121525Y-96089262D01*
X166973955Y-96187865D01*
X166809983Y-96255785D01*
X166660683Y-96285482D01*
X166635913Y-96290409D01*
X166458429Y-96290409D01*
X166433659Y-96285482D01*
X166284359Y-96255785D01*
X166120387Y-96187865D01*
X165972817Y-96089262D01*
X165847318Y-95963763D01*
X165748715Y-95816193D01*
X165680795Y-95652221D01*
X165646171Y-95478150D01*
X165646171Y-95300668D01*
X165680795Y-95126597D01*
X165748715Y-94962625D01*
X165847318Y-94815055D01*
X165972817Y-94689556D01*
X166120387Y-94590953D01*
X166284359Y-94523033D01*
X166433659Y-94493336D01*
X166458429Y-94488409D01*
X166635913Y-94488409D01*
X166660683Y-94493336D01*
X166660683Y-94493336D01*
G37*
G36*
X172113465Y-91802158D02*
G01*
X172226228Y-91824588D01*
X172341794Y-91872457D01*
X172544888Y-91956581D01*
X172831676Y-92148207D01*
X173075571Y-92392102D01*
X173267197Y-92678890D01*
X173283372Y-92717941D01*
X173359034Y-92900604D01*
X173399190Y-92997551D01*
X173466480Y-93335838D01*
X173466480Y-93680758D01*
X173399190Y-94019045D01*
X173267197Y-94337706D01*
X173075571Y-94624494D01*
X172831676Y-94868389D01*
X172544888Y-95060015D01*
X172358221Y-95137335D01*
X172226228Y-95192008D01*
X172113465Y-95214438D01*
X171887940Y-95259298D01*
X171543020Y-95259298D01*
X171317495Y-95214438D01*
X171204732Y-95192008D01*
X171072739Y-95137335D01*
X170886072Y-95060015D01*
X170599284Y-94868389D01*
X170355389Y-94624494D01*
X170163763Y-94337706D01*
X170031770Y-94019045D01*
X169964480Y-93680758D01*
X169964480Y-93335838D01*
X170031770Y-92997551D01*
X170071927Y-92900604D01*
X170147588Y-92717941D01*
X170163763Y-92678890D01*
X170355389Y-92392102D01*
X170599284Y-92148207D01*
X170886072Y-91956581D01*
X171089166Y-91872457D01*
X171204732Y-91824588D01*
X171317495Y-91802158D01*
X171543020Y-91757298D01*
X171887940Y-91757298D01*
X172113465Y-91802158D01*
X172113465Y-91802158D01*
G37*
G36*
X114432507Y-91802158D02*
G01*
X114545270Y-91824588D01*
X114660836Y-91872457D01*
X114863930Y-91956581D01*
X115150718Y-92148207D01*
X115394613Y-92392102D01*
X115586239Y-92678890D01*
X115602414Y-92717941D01*
X115678076Y-92900604D01*
X115718232Y-92997551D01*
X115785522Y-93335838D01*
X115785522Y-93680758D01*
X115718232Y-94019045D01*
X115586239Y-94337706D01*
X115394613Y-94624494D01*
X115150718Y-94868389D01*
X114863930Y-95060015D01*
X114677263Y-95137335D01*
X114545270Y-95192008D01*
X114432507Y-95214438D01*
X114206982Y-95259298D01*
X113862062Y-95259298D01*
X113636537Y-95214438D01*
X113523774Y-95192008D01*
X113391781Y-95137335D01*
X113205114Y-95060015D01*
X112918326Y-94868389D01*
X112674431Y-94624494D01*
X112482805Y-94337706D01*
X112350812Y-94019045D01*
X112283522Y-93680758D01*
X112283522Y-93335838D01*
X112350812Y-92997551D01*
X112390969Y-92900604D01*
X112466630Y-92717941D01*
X112482805Y-92678890D01*
X112674431Y-92392102D01*
X112918326Y-92148207D01*
X113205114Y-91956581D01*
X113408208Y-91872457D01*
X113523774Y-91824588D01*
X113636537Y-91802158D01*
X113862062Y-91757298D01*
X114206982Y-91757298D01*
X114432507Y-91802158D01*
X114432507Y-91802158D01*
G37*
G36*
X135155402Y-91781359D02*
G01*
X135162515Y-91804808D01*
X135174066Y-91826419D01*
X135189611Y-91845361D01*
X135208553Y-91860906D01*
X135230164Y-91872457D01*
X135253613Y-91879570D01*
X135277999Y-91881972D01*
X135346332Y-91881972D01*
X135525483Y-91917607D01*
X135694240Y-91987508D01*
X135846118Y-92088990D01*
X135975282Y-92218154D01*
X136076764Y-92370032D01*
X136146665Y-92538789D01*
X136182300Y-92717940D01*
X136182300Y-92900604D01*
X136146665Y-93079755D01*
X136076764Y-93248512D01*
X135975282Y-93400390D01*
X135846118Y-93529554D01*
X135694240Y-93631036D01*
X135525483Y-93700937D01*
X135346332Y-93736572D01*
X135277999Y-93736572D01*
X135253613Y-93738974D01*
X135230164Y-93746087D01*
X135208553Y-93757638D01*
X135189611Y-93773183D01*
X135174066Y-93792125D01*
X135162515Y-93813736D01*
X135155402Y-93837185D01*
X135153128Y-93860272D01*
X131801000Y-93860272D01*
X131801000Y-91758272D01*
X135153128Y-91758272D01*
X135155402Y-91781359D01*
X135155402Y-91781359D01*
G37*
G36*
X153949000Y-93860272D02*
G01*
X150596872Y-93860272D01*
X150594598Y-93837185D01*
X150587485Y-93813736D01*
X150575934Y-93792125D01*
X150560389Y-93773183D01*
X150541447Y-93757638D01*
X150519836Y-93746087D01*
X150496387Y-93738974D01*
X150472001Y-93736572D01*
X150403668Y-93736572D01*
X150224517Y-93700937D01*
X150055760Y-93631036D01*
X149903882Y-93529554D01*
X149774718Y-93400390D01*
X149673236Y-93248512D01*
X149603335Y-93079755D01*
X149567700Y-92900604D01*
X149567700Y-92717940D01*
X149603335Y-92538789D01*
X149673236Y-92370032D01*
X149774718Y-92218154D01*
X149903882Y-92088990D01*
X150055760Y-91987508D01*
X150224517Y-91917607D01*
X150403668Y-91881972D01*
X150472001Y-91881972D01*
X150496387Y-91879570D01*
X150519836Y-91872457D01*
X150541447Y-91860906D01*
X150560389Y-91845361D01*
X150575934Y-91826419D01*
X150587485Y-91804808D01*
X150594598Y-91781359D01*
X150596872Y-91758272D01*
X153949000Y-91758272D01*
X153949000Y-93860272D01*
X153949000Y-93860272D01*
G37*
G36*
X108979725Y-90731114D02*
G01*
X109129025Y-90760811D01*
X109292997Y-90828731D01*
X109440567Y-90927334D01*
X109566066Y-91052833D01*
X109664669Y-91200403D01*
X109732589Y-91364375D01*
X109767213Y-91538446D01*
X109767213Y-91715928D01*
X109732589Y-91889999D01*
X109664669Y-92053971D01*
X109566066Y-92201541D01*
X109440567Y-92327040D01*
X109292997Y-92425643D01*
X109129025Y-92493563D01*
X108979725Y-92523260D01*
X108954955Y-92528187D01*
X108777471Y-92528187D01*
X108752701Y-92523260D01*
X108603401Y-92493563D01*
X108439429Y-92425643D01*
X108291859Y-92327040D01*
X108166360Y-92201541D01*
X108067757Y-92053971D01*
X107999837Y-91889999D01*
X107965213Y-91715928D01*
X107965213Y-91538446D01*
X107999837Y-91364375D01*
X108067757Y-91200403D01*
X108166360Y-91052833D01*
X108291859Y-90927334D01*
X108439429Y-90828731D01*
X108603401Y-90760811D01*
X108752701Y-90731114D01*
X108777471Y-90726187D01*
X108954955Y-90726187D01*
X108979725Y-90731114D01*
X108979725Y-90731114D01*
G37*
G36*
X176997301Y-90731114D02*
G01*
X177146601Y-90760811D01*
X177310573Y-90828731D01*
X177458143Y-90927334D01*
X177583642Y-91052833D01*
X177682245Y-91200403D01*
X177750165Y-91364375D01*
X177784789Y-91538446D01*
X177784789Y-91715928D01*
X177750165Y-91889999D01*
X177682245Y-92053971D01*
X177583642Y-92201541D01*
X177458143Y-92327040D01*
X177310573Y-92425643D01*
X177146601Y-92493563D01*
X176997301Y-92523260D01*
X176972531Y-92528187D01*
X176795047Y-92528187D01*
X176770277Y-92523260D01*
X176620977Y-92493563D01*
X176457005Y-92425643D01*
X176309435Y-92327040D01*
X176183936Y-92201541D01*
X176085333Y-92053971D01*
X176017413Y-91889999D01*
X175982789Y-91715928D01*
X175982789Y-91538446D01*
X176017413Y-91364375D01*
X176085333Y-91200403D01*
X176183936Y-91052833D01*
X176309435Y-90927334D01*
X176457005Y-90828731D01*
X176620977Y-90760811D01*
X176770277Y-90731114D01*
X176795047Y-90726187D01*
X176972531Y-90726187D01*
X176997301Y-90731114D01*
X176997301Y-90731114D01*
G37*
G36*
X203396787Y-90167998D02*
G01*
X203546087Y-90197695D01*
X203710059Y-90265615D01*
X203857629Y-90364218D01*
X203983128Y-90489717D01*
X204081731Y-90637287D01*
X204149651Y-90801259D01*
X204176046Y-90933960D01*
X204184275Y-90975327D01*
X204184275Y-91152812D01*
X204149651Y-91326883D01*
X204081731Y-91490855D01*
X203983128Y-91638425D01*
X203857629Y-91763924D01*
X203710059Y-91862527D01*
X203546087Y-91930447D01*
X203396787Y-91960144D01*
X203372017Y-91965071D01*
X203194533Y-91965071D01*
X203169763Y-91960144D01*
X203020463Y-91930447D01*
X202856491Y-91862527D01*
X202708921Y-91763924D01*
X202583422Y-91638425D01*
X202484819Y-91490855D01*
X202416899Y-91326883D01*
X202382275Y-91152812D01*
X202382275Y-90975330D01*
X202382276Y-90975327D01*
X202390504Y-90933960D01*
X202416899Y-90801259D01*
X202484819Y-90637287D01*
X202583422Y-90489717D01*
X202708921Y-90364218D01*
X202856491Y-90265615D01*
X203020463Y-90197695D01*
X203169763Y-90167998D01*
X203194533Y-90163071D01*
X203372017Y-90163071D01*
X203396787Y-90167998D01*
X203396787Y-90167998D01*
G37*
G36*
X82580237Y-90167995D02*
G01*
X82729537Y-90197692D01*
X82893509Y-90265612D01*
X83041079Y-90364215D01*
X83166578Y-90489714D01*
X83265181Y-90637284D01*
X83333101Y-90801256D01*
X83346112Y-90866670D01*
X83367725Y-90975326D01*
X83367725Y-91152810D01*
X83367724Y-91152813D01*
X83333101Y-91326880D01*
X83265181Y-91490852D01*
X83166578Y-91638422D01*
X83041079Y-91763921D01*
X82893509Y-91862524D01*
X82729537Y-91930444D01*
X82580237Y-91960141D01*
X82555467Y-91965068D01*
X82377983Y-91965068D01*
X82353213Y-91960141D01*
X82203913Y-91930444D01*
X82039941Y-91862524D01*
X81892371Y-91763921D01*
X81766872Y-91638422D01*
X81668269Y-91490852D01*
X81600349Y-91326880D01*
X81565726Y-91152813D01*
X81565725Y-91152810D01*
X81565725Y-90975326D01*
X81587338Y-90866670D01*
X81600349Y-90801256D01*
X81668269Y-90637284D01*
X81766872Y-90489714D01*
X81892371Y-90364215D01*
X82039941Y-90265612D01*
X82203913Y-90197692D01*
X82353213Y-90167995D01*
X82377983Y-90163068D01*
X82555467Y-90163068D01*
X82580237Y-90167995D01*
X82580237Y-90167995D01*
G37*
G36*
X135155402Y-89241359D02*
G01*
X135162515Y-89264808D01*
X135174066Y-89286419D01*
X135189611Y-89305361D01*
X135208553Y-89320906D01*
X135230164Y-89332457D01*
X135253613Y-89339570D01*
X135277999Y-89341972D01*
X135346332Y-89341972D01*
X135525483Y-89377607D01*
X135694240Y-89447508D01*
X135846118Y-89548990D01*
X135975282Y-89678154D01*
X136076764Y-89830032D01*
X136146665Y-89998789D01*
X136182300Y-90177940D01*
X136182300Y-90360604D01*
X136146665Y-90539755D01*
X136076764Y-90708512D01*
X135975282Y-90860390D01*
X135846118Y-90989554D01*
X135694240Y-91091036D01*
X135525483Y-91160937D01*
X135346332Y-91196572D01*
X135277999Y-91196572D01*
X135253613Y-91198974D01*
X135230164Y-91206087D01*
X135208553Y-91217638D01*
X135189611Y-91233183D01*
X135174066Y-91252125D01*
X135162515Y-91273736D01*
X135155402Y-91297185D01*
X135153128Y-91320272D01*
X131801000Y-91320272D01*
X131801000Y-89218272D01*
X135153128Y-89218272D01*
X135155402Y-89241359D01*
X135155402Y-89241359D01*
G37*
G36*
X153949000Y-91320272D02*
G01*
X150596872Y-91320272D01*
X150594598Y-91297185D01*
X150587485Y-91273736D01*
X150575934Y-91252125D01*
X150560389Y-91233183D01*
X150541447Y-91217638D01*
X150519836Y-91206087D01*
X150496387Y-91198974D01*
X150472001Y-91196572D01*
X150403668Y-91196572D01*
X150224517Y-91160937D01*
X150055760Y-91091036D01*
X149903882Y-90989554D01*
X149774718Y-90860390D01*
X149673236Y-90708512D01*
X149603335Y-90539755D01*
X149567700Y-90360604D01*
X149567700Y-90177940D01*
X149603335Y-89998789D01*
X149673236Y-89830032D01*
X149774718Y-89678154D01*
X149903882Y-89548990D01*
X150055760Y-89447508D01*
X150224517Y-89377607D01*
X150403668Y-89341972D01*
X150472001Y-89341972D01*
X150496387Y-89339570D01*
X150519836Y-89332457D01*
X150541447Y-89320906D01*
X150560389Y-89305361D01*
X150575934Y-89286419D01*
X150587485Y-89264808D01*
X150594598Y-89241359D01*
X150596872Y-89218272D01*
X153949000Y-89218272D01*
X153949000Y-91320272D01*
X153949000Y-91320272D01*
G37*
G36*
X208758921Y-87458789D02*
G01*
X208962332Y-87499250D01*
X209053920Y-87537187D01*
X209280992Y-87631243D01*
X209567780Y-87822869D01*
X209811675Y-88066764D01*
X210003301Y-88353552D01*
X210043066Y-88449554D01*
X210135293Y-88672209D01*
X210135294Y-88672213D01*
X210202584Y-89010500D01*
X210202584Y-89355420D01*
X210184266Y-89447508D01*
X210135295Y-89693705D01*
X210135294Y-89693707D01*
X210003301Y-90012368D01*
X209811675Y-90299156D01*
X209567780Y-90543051D01*
X209280992Y-90734677D01*
X209094325Y-90811997D01*
X208962332Y-90866670D01*
X208849569Y-90889100D01*
X208624044Y-90933960D01*
X208279124Y-90933960D01*
X208053599Y-90889100D01*
X207940836Y-90866670D01*
X207808843Y-90811997D01*
X207622176Y-90734677D01*
X207335388Y-90543051D01*
X207091493Y-90299156D01*
X206899867Y-90012368D01*
X206767874Y-89693707D01*
X206767874Y-89693705D01*
X206718902Y-89447508D01*
X206700584Y-89355420D01*
X206700584Y-89010500D01*
X206767874Y-88672213D01*
X206767876Y-88672209D01*
X206860102Y-88449554D01*
X206899867Y-88353552D01*
X207091493Y-88066764D01*
X207335388Y-87822869D01*
X207622176Y-87631243D01*
X207849248Y-87537187D01*
X207940836Y-87499250D01*
X208144247Y-87458789D01*
X208279124Y-87431960D01*
X208624044Y-87431960D01*
X208758921Y-87458789D01*
X208758921Y-87458789D01*
G37*
G36*
X77696401Y-87476817D02*
G01*
X77809164Y-87499247D01*
X77885919Y-87531040D01*
X78127824Y-87631240D01*
X78414612Y-87822866D01*
X78658507Y-88066761D01*
X78850133Y-88353549D01*
X78900282Y-88474621D01*
X78982126Y-88672209D01*
X78982127Y-88672213D01*
X79049416Y-89010497D01*
X79049416Y-89355417D01*
X79025479Y-89475753D01*
X78982126Y-89693705D01*
X78979578Y-89699856D01*
X78850133Y-90012365D01*
X78658507Y-90299153D01*
X78414612Y-90543048D01*
X78127824Y-90734674D01*
X77967073Y-90801259D01*
X77809164Y-90866667D01*
X77696401Y-90889097D01*
X77470876Y-90933957D01*
X77125956Y-90933957D01*
X76900431Y-90889097D01*
X76787668Y-90866667D01*
X76629759Y-90801259D01*
X76469008Y-90734674D01*
X76182220Y-90543048D01*
X75938325Y-90299153D01*
X75746699Y-90012365D01*
X75617254Y-89699856D01*
X75614706Y-89693705D01*
X75571353Y-89475753D01*
X75547416Y-89355417D01*
X75547416Y-89010497D01*
X75614705Y-88672213D01*
X75614706Y-88672209D01*
X75696550Y-88474621D01*
X75746699Y-88353549D01*
X75938325Y-88066761D01*
X76182220Y-87822866D01*
X76469008Y-87631240D01*
X76710913Y-87531040D01*
X76787668Y-87499247D01*
X76900431Y-87476817D01*
X77125956Y-87431957D01*
X77470876Y-87431957D01*
X77696401Y-87476817D01*
X77696401Y-87476817D01*
G37*
G36*
X64193924Y-88001698D02*
G01*
X64361484Y-88035027D01*
X64525456Y-88102947D01*
X64673026Y-88201550D01*
X64798525Y-88327049D01*
X64897128Y-88474619D01*
X64965048Y-88638591D01*
X64991443Y-88771292D01*
X64999672Y-88812659D01*
X64999672Y-88990144D01*
X64965048Y-89164215D01*
X64897128Y-89328187D01*
X64798525Y-89475757D01*
X64673026Y-89601256D01*
X64525456Y-89699859D01*
X64361484Y-89767779D01*
X64212184Y-89797476D01*
X64187414Y-89802403D01*
X64009930Y-89802403D01*
X63985160Y-89797476D01*
X63835860Y-89767779D01*
X63671888Y-89699859D01*
X63524318Y-89601256D01*
X63398819Y-89475757D01*
X63300216Y-89328187D01*
X63232296Y-89164215D01*
X63197672Y-88990144D01*
X63197672Y-88812662D01*
X63197673Y-88812659D01*
X63205901Y-88771292D01*
X63232296Y-88638591D01*
X63300216Y-88474619D01*
X63398819Y-88327049D01*
X63524318Y-88201550D01*
X63671888Y-88102947D01*
X63835860Y-88035027D01*
X64003420Y-88001698D01*
X64009930Y-88000403D01*
X64187414Y-88000403D01*
X64193924Y-88001698D01*
X64193924Y-88001698D01*
G37*
G36*
X221746593Y-88001698D02*
G01*
X221914138Y-88035024D01*
X222078110Y-88102944D01*
X222225680Y-88201547D01*
X222351179Y-88327046D01*
X222449782Y-88474616D01*
X222517702Y-88638588D01*
X222541292Y-88757185D01*
X222552326Y-88812658D01*
X222552326Y-88990142D01*
X222552325Y-88990145D01*
X222517702Y-89164212D01*
X222449782Y-89328184D01*
X222351179Y-89475754D01*
X222225680Y-89601253D01*
X222078110Y-89699856D01*
X221914138Y-89767776D01*
X221764838Y-89797473D01*
X221740068Y-89802400D01*
X221562584Y-89802400D01*
X221537814Y-89797473D01*
X221388514Y-89767776D01*
X221224542Y-89699856D01*
X221076972Y-89601253D01*
X220951473Y-89475754D01*
X220852870Y-89328184D01*
X220784950Y-89164212D01*
X220750327Y-88990145D01*
X220750326Y-88990142D01*
X220750326Y-88812658D01*
X220761360Y-88757185D01*
X220784950Y-88638588D01*
X220852870Y-88474616D01*
X220951473Y-88327046D01*
X221076972Y-88201547D01*
X221224542Y-88102944D01*
X221388514Y-88035024D01*
X221556059Y-88001698D01*
X221562584Y-88000400D01*
X221740068Y-88000400D01*
X221746593Y-88001698D01*
X221746593Y-88001698D01*
G37*
G36*
X153949000Y-88780272D02*
G01*
X150596872Y-88780272D01*
X150594598Y-88757185D01*
X150587485Y-88733736D01*
X150575934Y-88712125D01*
X150560389Y-88693183D01*
X150541447Y-88677638D01*
X150519836Y-88666087D01*
X150496387Y-88658974D01*
X150472001Y-88656572D01*
X150403668Y-88656572D01*
X150224517Y-88620937D01*
X150055760Y-88551036D01*
X149903882Y-88449554D01*
X149774718Y-88320390D01*
X149673236Y-88168512D01*
X149603335Y-87999755D01*
X149567700Y-87820604D01*
X149567700Y-87637940D01*
X149603335Y-87458789D01*
X149673236Y-87290032D01*
X149774718Y-87138154D01*
X149903882Y-87008990D01*
X150055760Y-86907508D01*
X150224517Y-86837607D01*
X150403668Y-86801972D01*
X150472001Y-86801972D01*
X150496387Y-86799570D01*
X150519836Y-86792457D01*
X150541447Y-86780906D01*
X150560389Y-86765361D01*
X150575934Y-86746419D01*
X150587485Y-86724808D01*
X150594598Y-86701359D01*
X150596872Y-86678272D01*
X153949000Y-86678272D01*
X153949000Y-88780272D01*
X153949000Y-88780272D01*
G37*
G36*
X135155402Y-86701359D02*
G01*
X135162515Y-86724808D01*
X135174066Y-86746419D01*
X135189611Y-86765361D01*
X135208553Y-86780906D01*
X135230164Y-86792457D01*
X135253613Y-86799570D01*
X135277999Y-86801972D01*
X135346332Y-86801972D01*
X135525483Y-86837607D01*
X135694240Y-86907508D01*
X135846118Y-87008990D01*
X135975282Y-87138154D01*
X136076764Y-87290032D01*
X136146665Y-87458789D01*
X136182300Y-87637940D01*
X136182300Y-87820604D01*
X136146665Y-87999755D01*
X136076764Y-88168512D01*
X135975282Y-88320390D01*
X135846118Y-88449554D01*
X135694240Y-88551036D01*
X135525483Y-88620937D01*
X135346332Y-88656572D01*
X135277999Y-88656572D01*
X135253613Y-88658974D01*
X135230164Y-88666087D01*
X135208553Y-88677638D01*
X135189611Y-88693183D01*
X135174066Y-88712125D01*
X135162515Y-88733736D01*
X135155402Y-88757185D01*
X135153128Y-88780272D01*
X131801000Y-88780272D01*
X131801000Y-86678272D01*
X135153128Y-86678272D01*
X135155402Y-86701359D01*
X135155402Y-86701359D01*
G37*
G36*
X59328348Y-85314152D02*
G01*
X59441111Y-85336582D01*
X59517849Y-85368368D01*
X59759771Y-85468575D01*
X60046559Y-85660201D01*
X60290454Y-85904096D01*
X60482080Y-86190884D01*
X60532226Y-86311949D01*
X60614073Y-86509544D01*
X60632462Y-86601993D01*
X60681363Y-86847832D01*
X60681363Y-87192752D01*
X60657427Y-87313084D01*
X60614073Y-87531040D01*
X60583394Y-87605106D01*
X60482080Y-87849700D01*
X60290454Y-88136488D01*
X60046559Y-88380383D01*
X59759771Y-88572009D01*
X59573104Y-88649329D01*
X59441111Y-88704002D01*
X59328348Y-88726432D01*
X59102823Y-88771292D01*
X58757903Y-88771292D01*
X58532378Y-88726432D01*
X58419615Y-88704002D01*
X58287622Y-88649329D01*
X58100955Y-88572009D01*
X57814167Y-88380383D01*
X57570272Y-88136488D01*
X57378646Y-87849700D01*
X57277332Y-87605106D01*
X57246653Y-87531040D01*
X57203299Y-87313084D01*
X57179363Y-87192752D01*
X57179363Y-86847832D01*
X57228264Y-86601993D01*
X57246653Y-86509544D01*
X57328500Y-86311949D01*
X57378646Y-86190884D01*
X57570272Y-85904096D01*
X57814167Y-85660201D01*
X58100955Y-85468575D01*
X58342877Y-85368368D01*
X58419615Y-85336582D01*
X58532378Y-85314152D01*
X58757903Y-85269292D01*
X59102823Y-85269292D01*
X59328348Y-85314152D01*
X59328348Y-85314152D01*
G37*
G36*
X227217620Y-85314149D02*
G01*
X227330383Y-85336579D01*
X227407128Y-85368368D01*
X227649043Y-85468572D01*
X227935831Y-85660198D01*
X228179726Y-85904093D01*
X228371352Y-86190881D01*
X228382465Y-86217711D01*
X228503345Y-86509541D01*
X228503346Y-86509545D01*
X228570635Y-86847829D01*
X228570635Y-87192749D01*
X228566585Y-87213108D01*
X228503345Y-87531037D01*
X228472664Y-87605107D01*
X228371352Y-87849697D01*
X228179726Y-88136485D01*
X227935831Y-88380380D01*
X227649043Y-88572006D01*
X227488292Y-88638591D01*
X227330383Y-88703999D01*
X227217620Y-88726429D01*
X226992095Y-88771289D01*
X226647175Y-88771289D01*
X226421650Y-88726429D01*
X226308887Y-88703999D01*
X226150978Y-88638591D01*
X225990227Y-88572006D01*
X225703439Y-88380380D01*
X225459544Y-88136485D01*
X225267918Y-87849697D01*
X225166606Y-87605107D01*
X225135925Y-87531037D01*
X225072685Y-87213108D01*
X225068635Y-87192749D01*
X225068635Y-86847829D01*
X225135924Y-86509545D01*
X225135925Y-86509541D01*
X225256805Y-86217711D01*
X225267918Y-86190881D01*
X225459544Y-85904093D01*
X225703439Y-85660198D01*
X225990227Y-85468572D01*
X226232142Y-85368368D01*
X226308887Y-85336579D01*
X226421650Y-85314149D01*
X226647175Y-85269289D01*
X226992095Y-85269289D01*
X227217620Y-85314149D01*
X227217620Y-85314149D01*
G37*
G36*
X213733405Y-86405776D02*
G01*
X213882705Y-86435473D01*
X214046677Y-86503393D01*
X214194247Y-86601996D01*
X214319746Y-86727495D01*
X214418349Y-86875065D01*
X214486269Y-87039037D01*
X214505984Y-87138154D01*
X214520893Y-87213105D01*
X214520893Y-87390590D01*
X214486269Y-87564661D01*
X214418349Y-87728633D01*
X214319746Y-87876203D01*
X214194247Y-88001702D01*
X214046677Y-88100305D01*
X213882705Y-88168225D01*
X213733405Y-88197922D01*
X213708635Y-88202849D01*
X213531151Y-88202849D01*
X213506381Y-88197922D01*
X213357081Y-88168225D01*
X213193109Y-88100305D01*
X213045539Y-88001702D01*
X212920040Y-87876203D01*
X212821437Y-87728633D01*
X212753517Y-87564661D01*
X212718893Y-87390590D01*
X212718893Y-87213108D01*
X212718894Y-87213105D01*
X212733802Y-87138154D01*
X212753517Y-87039037D01*
X212821437Y-86875065D01*
X212920040Y-86727495D01*
X213045539Y-86601996D01*
X213193109Y-86503393D01*
X213357081Y-86435473D01*
X213506381Y-86405776D01*
X213531151Y-86400849D01*
X213708635Y-86400849D01*
X213733405Y-86405776D01*
X213733405Y-86405776D01*
G37*
G36*
X72243619Y-86405773D02*
G01*
X72392919Y-86435470D01*
X72556891Y-86503390D01*
X72704461Y-86601993D01*
X72829960Y-86727492D01*
X72928563Y-86875062D01*
X72996483Y-87039034D01*
X73021641Y-87165515D01*
X73031107Y-87213104D01*
X73031107Y-87390588D01*
X73031106Y-87390591D01*
X72996483Y-87564658D01*
X72928563Y-87728630D01*
X72829960Y-87876200D01*
X72704461Y-88001699D01*
X72556891Y-88100302D01*
X72392919Y-88168222D01*
X72243619Y-88197919D01*
X72218849Y-88202846D01*
X72041365Y-88202846D01*
X72016595Y-88197919D01*
X71867295Y-88168222D01*
X71703323Y-88100302D01*
X71555753Y-88001699D01*
X71430254Y-87876200D01*
X71331651Y-87728630D01*
X71263731Y-87564658D01*
X71229108Y-87390591D01*
X71229107Y-87390588D01*
X71229107Y-87213104D01*
X71238573Y-87165515D01*
X71263731Y-87039034D01*
X71331651Y-86875062D01*
X71430254Y-86727492D01*
X71555753Y-86601993D01*
X71703323Y-86503390D01*
X71867295Y-86435470D01*
X72016595Y-86405773D01*
X72041365Y-86400846D01*
X72218849Y-86400846D01*
X72243619Y-86405773D01*
X72243619Y-86405773D01*
G37*
G36*
X45844130Y-85842658D02*
G01*
X45993430Y-85872355D01*
X46157402Y-85940275D01*
X46304972Y-86038878D01*
X46430471Y-86164377D01*
X46529074Y-86311947D01*
X46596994Y-86475919D01*
X46631618Y-86649990D01*
X46631618Y-86827472D01*
X46596994Y-87001543D01*
X46529074Y-87165515D01*
X46430471Y-87313085D01*
X46304972Y-87438584D01*
X46157402Y-87537187D01*
X45993430Y-87605107D01*
X45844130Y-87634804D01*
X45819360Y-87639731D01*
X45641876Y-87639731D01*
X45617106Y-87634804D01*
X45467806Y-87605107D01*
X45303834Y-87537187D01*
X45156264Y-87438584D01*
X45030765Y-87313085D01*
X44932162Y-87165515D01*
X44864242Y-87001543D01*
X44829618Y-86827472D01*
X44829618Y-86649990D01*
X44864242Y-86475919D01*
X44932162Y-86311947D01*
X45030765Y-86164377D01*
X45156264Y-86038878D01*
X45303834Y-85940275D01*
X45467806Y-85872355D01*
X45617106Y-85842658D01*
X45641876Y-85837731D01*
X45819360Y-85837731D01*
X45844130Y-85842658D01*
X45844130Y-85842658D01*
G37*
G36*
X240132894Y-85842658D02*
G01*
X240282194Y-85872355D01*
X240446166Y-85940275D01*
X240593736Y-86038878D01*
X240719235Y-86164377D01*
X240817838Y-86311947D01*
X240885758Y-86475919D01*
X240920382Y-86649990D01*
X240920382Y-86827472D01*
X240885758Y-87001543D01*
X240817838Y-87165515D01*
X240719235Y-87313085D01*
X240593736Y-87438584D01*
X240446166Y-87537187D01*
X240282194Y-87605107D01*
X240132894Y-87634804D01*
X240108124Y-87639731D01*
X239930640Y-87639731D01*
X239905870Y-87634804D01*
X239756570Y-87605107D01*
X239592598Y-87537187D01*
X239445028Y-87438584D01*
X239319529Y-87313085D01*
X239220926Y-87165515D01*
X239153006Y-87001543D01*
X239118382Y-86827472D01*
X239118382Y-86649990D01*
X239153006Y-86475919D01*
X239220926Y-86311947D01*
X239319529Y-86164377D01*
X239445028Y-86038878D01*
X239592598Y-85940275D01*
X239756570Y-85872355D01*
X239905870Y-85842658D01*
X239930640Y-85837731D01*
X240108124Y-85837731D01*
X240132894Y-85842658D01*
X240132894Y-85842658D01*
G37*
G36*
X245585676Y-83151480D02*
G01*
X245698439Y-83173910D01*
X245830432Y-83228583D01*
X246017099Y-83305903D01*
X246303887Y-83497529D01*
X246547782Y-83741424D01*
X246739408Y-84028212D01*
X246784996Y-84138272D01*
X246868855Y-84340725D01*
X246871401Y-84346873D01*
X246938691Y-84685160D01*
X246938691Y-85030080D01*
X246914715Y-85150613D01*
X246871401Y-85368368D01*
X246857474Y-85401990D01*
X246739408Y-85687028D01*
X246547782Y-85973816D01*
X246303887Y-86217711D01*
X246017099Y-86409337D01*
X245830432Y-86486657D01*
X245698439Y-86541330D01*
X245585676Y-86563760D01*
X245360151Y-86608620D01*
X245015231Y-86608620D01*
X244789706Y-86563760D01*
X244676943Y-86541330D01*
X244544950Y-86486657D01*
X244358283Y-86409337D01*
X244071495Y-86217711D01*
X243827600Y-85973816D01*
X243635974Y-85687028D01*
X243517908Y-85401990D01*
X243503981Y-85368368D01*
X243460667Y-85150613D01*
X243436691Y-85030080D01*
X243436691Y-84685160D01*
X243503981Y-84346873D01*
X243506528Y-84340725D01*
X243590386Y-84138272D01*
X243635974Y-84028212D01*
X243827600Y-83741424D01*
X244071495Y-83497529D01*
X244358283Y-83305903D01*
X244544950Y-83228583D01*
X244676943Y-83173910D01*
X244789706Y-83151480D01*
X245015231Y-83106620D01*
X245360151Y-83106620D01*
X245585676Y-83151480D01*
X245585676Y-83151480D01*
G37*
G36*
X40960294Y-83151480D02*
G01*
X41073057Y-83173910D01*
X41205050Y-83228583D01*
X41391717Y-83305903D01*
X41678505Y-83497529D01*
X41922400Y-83741424D01*
X42114026Y-84028212D01*
X42159614Y-84138272D01*
X42243473Y-84340725D01*
X42246019Y-84346873D01*
X42313309Y-84685160D01*
X42313309Y-85030080D01*
X42289333Y-85150613D01*
X42246019Y-85368368D01*
X42232092Y-85401990D01*
X42114026Y-85687028D01*
X41922400Y-85973816D01*
X41678505Y-86217711D01*
X41391717Y-86409337D01*
X41205050Y-86486657D01*
X41073057Y-86541330D01*
X40960294Y-86563760D01*
X40734769Y-86608620D01*
X40389849Y-86608620D01*
X40164324Y-86563760D01*
X40051561Y-86541330D01*
X39919568Y-86486657D01*
X39732901Y-86409337D01*
X39446113Y-86217711D01*
X39202218Y-85973816D01*
X39010592Y-85687028D01*
X38892526Y-85401990D01*
X38878599Y-85368368D01*
X38835285Y-85150613D01*
X38811309Y-85030080D01*
X38811309Y-84685160D01*
X38878599Y-84346873D01*
X38881146Y-84340725D01*
X38965004Y-84138272D01*
X39010592Y-84028212D01*
X39202218Y-83741424D01*
X39446113Y-83497529D01*
X39732901Y-83305903D01*
X39919568Y-83228583D01*
X40051561Y-83173910D01*
X40164324Y-83151480D01*
X40389849Y-83106620D01*
X40734769Y-83106620D01*
X40960294Y-83151480D01*
X40960294Y-83151480D01*
G37*
G36*
X153949000Y-86240272D02*
G01*
X150596872Y-86240272D01*
X150594598Y-86217185D01*
X150587485Y-86193736D01*
X150575934Y-86172125D01*
X150560389Y-86153183D01*
X150541447Y-86137638D01*
X150519836Y-86126087D01*
X150496387Y-86118974D01*
X150472001Y-86116572D01*
X150403668Y-86116572D01*
X150224517Y-86080937D01*
X150055760Y-86011036D01*
X149903882Y-85909554D01*
X149774718Y-85780390D01*
X149673236Y-85628512D01*
X149603335Y-85459755D01*
X149567700Y-85280604D01*
X149567700Y-85097940D01*
X149603335Y-84918789D01*
X149673236Y-84750032D01*
X149774718Y-84598154D01*
X149903882Y-84468990D01*
X150055760Y-84367508D01*
X150224517Y-84297607D01*
X150403668Y-84261972D01*
X150472001Y-84261972D01*
X150496387Y-84259570D01*
X150519836Y-84252457D01*
X150541447Y-84240906D01*
X150560389Y-84225361D01*
X150575934Y-84206419D01*
X150587485Y-84184808D01*
X150594598Y-84161359D01*
X150596872Y-84138272D01*
X153949000Y-84138272D01*
X153949000Y-86240272D01*
X153949000Y-86240272D01*
G37*
G36*
X135155402Y-84161359D02*
G01*
X135162515Y-84184808D01*
X135174066Y-84206419D01*
X135189611Y-84225361D01*
X135208553Y-84240906D01*
X135230164Y-84252457D01*
X135253613Y-84259570D01*
X135277999Y-84261972D01*
X135346332Y-84261972D01*
X135525483Y-84297607D01*
X135694240Y-84367508D01*
X135846118Y-84468990D01*
X135975282Y-84598154D01*
X136076764Y-84750032D01*
X136146665Y-84918789D01*
X136182300Y-85097940D01*
X136182300Y-85280604D01*
X136146665Y-85459755D01*
X136076764Y-85628512D01*
X135975282Y-85780390D01*
X135846118Y-85909554D01*
X135694240Y-86011036D01*
X135525483Y-86080937D01*
X135346332Y-86116572D01*
X135277999Y-86116572D01*
X135253613Y-86118974D01*
X135230164Y-86126087D01*
X135208553Y-86137638D01*
X135189611Y-86153183D01*
X135174066Y-86172125D01*
X135162515Y-86193736D01*
X135155402Y-86217185D01*
X135153128Y-86240272D01*
X131801000Y-86240272D01*
X131801000Y-84138272D01*
X135153128Y-84138272D01*
X135155402Y-84161359D01*
X135155402Y-84161359D01*
G37*
G36*
X103855461Y-84343281D02*
G01*
X104004761Y-84372978D01*
X104168733Y-84440898D01*
X104316303Y-84539501D01*
X104441802Y-84665000D01*
X104540405Y-84812570D01*
X104608325Y-84976542D01*
X104632472Y-85097940D01*
X104642949Y-85150612D01*
X104642949Y-85328096D01*
X104641261Y-85336582D01*
X104608325Y-85502166D01*
X104540405Y-85666138D01*
X104441802Y-85813708D01*
X104316303Y-85939207D01*
X104168733Y-86037810D01*
X104004761Y-86105730D01*
X103855461Y-86135427D01*
X103830691Y-86140354D01*
X103653207Y-86140354D01*
X103628437Y-86135427D01*
X103479137Y-86105730D01*
X103315165Y-86037810D01*
X103167595Y-85939207D01*
X103042096Y-85813708D01*
X102943493Y-85666138D01*
X102875573Y-85502166D01*
X102842637Y-85336582D01*
X102840949Y-85328096D01*
X102840949Y-85150612D01*
X102851426Y-85097940D01*
X102875573Y-84976542D01*
X102943493Y-84812570D01*
X103042096Y-84665000D01*
X103167595Y-84539501D01*
X103315165Y-84440898D01*
X103479137Y-84372978D01*
X103628437Y-84343281D01*
X103653207Y-84338354D01*
X103830691Y-84338354D01*
X103855461Y-84343281D01*
X103855461Y-84343281D01*
G37*
G36*
X182121562Y-84343281D02*
G01*
X182270862Y-84372978D01*
X182434834Y-84440898D01*
X182582404Y-84539501D01*
X182707903Y-84665000D01*
X182806506Y-84812570D01*
X182874426Y-84976542D01*
X182898573Y-85097940D01*
X182909050Y-85150612D01*
X182909050Y-85328096D01*
X182907362Y-85336582D01*
X182874426Y-85502166D01*
X182806506Y-85666138D01*
X182707903Y-85813708D01*
X182582404Y-85939207D01*
X182434834Y-86037810D01*
X182270862Y-86105730D01*
X182121562Y-86135427D01*
X182096792Y-86140354D01*
X181919308Y-86140354D01*
X181894538Y-86135427D01*
X181745238Y-86105730D01*
X181581266Y-86037810D01*
X181433696Y-85939207D01*
X181308197Y-85813708D01*
X181209594Y-85666138D01*
X181141674Y-85502166D01*
X181108738Y-85336582D01*
X181107050Y-85328096D01*
X181107050Y-85150612D01*
X181117527Y-85097940D01*
X181141674Y-84976542D01*
X181209594Y-84812570D01*
X181308197Y-84665000D01*
X181433696Y-84539501D01*
X181581266Y-84440898D01*
X181745238Y-84372978D01*
X181894538Y-84343281D01*
X181919308Y-84338354D01*
X182096792Y-84338354D01*
X182121562Y-84343281D01*
X182121562Y-84343281D01*
G37*
G36*
X53864495Y-84240906D02*
G01*
X54024866Y-84272805D01*
X54188838Y-84340725D01*
X54336408Y-84439328D01*
X54461907Y-84564827D01*
X54560510Y-84712397D01*
X54628430Y-84876369D01*
X54648355Y-84976542D01*
X54663054Y-85050437D01*
X54663054Y-85227922D01*
X54628430Y-85401993D01*
X54560510Y-85565965D01*
X54461907Y-85713535D01*
X54336408Y-85839034D01*
X54188838Y-85937637D01*
X54024866Y-86005557D01*
X53875566Y-86035254D01*
X53850796Y-86040181D01*
X53673312Y-86040181D01*
X53648542Y-86035254D01*
X53499242Y-86005557D01*
X53335270Y-85937637D01*
X53187700Y-85839034D01*
X53062201Y-85713535D01*
X52963598Y-85565965D01*
X52895678Y-85401993D01*
X52861054Y-85227922D01*
X52861054Y-85050440D01*
X52861055Y-85050437D01*
X52875753Y-84976542D01*
X52895678Y-84876369D01*
X52963598Y-84712397D01*
X53062201Y-84564827D01*
X53187700Y-84439328D01*
X53335270Y-84340725D01*
X53499242Y-84272805D01*
X53659613Y-84240906D01*
X53673312Y-84238181D01*
X53850796Y-84238181D01*
X53864495Y-84240906D01*
X53864495Y-84240906D01*
G37*
G36*
X232090400Y-84240906D02*
G01*
X232250756Y-84272802D01*
X232414728Y-84340722D01*
X232562298Y-84439325D01*
X232687797Y-84564824D01*
X232786400Y-84712394D01*
X232854320Y-84876366D01*
X232874246Y-84976543D01*
X232888944Y-85050436D01*
X232888944Y-85227920D01*
X232888943Y-85227923D01*
X232854320Y-85401990D01*
X232786400Y-85565962D01*
X232687797Y-85713532D01*
X232562298Y-85839031D01*
X232414728Y-85937634D01*
X232250756Y-86005554D01*
X232101456Y-86035251D01*
X232076686Y-86040178D01*
X231899202Y-86040178D01*
X231874432Y-86035251D01*
X231725132Y-86005554D01*
X231561160Y-85937634D01*
X231413590Y-85839031D01*
X231288091Y-85713532D01*
X231189488Y-85565962D01*
X231121568Y-85401990D01*
X231086945Y-85227923D01*
X231086944Y-85227920D01*
X231086944Y-85050436D01*
X231101642Y-84976543D01*
X231121568Y-84876366D01*
X231189488Y-84712394D01*
X231288091Y-84564824D01*
X231413590Y-84439325D01*
X231561160Y-84340722D01*
X231725132Y-84272802D01*
X231885488Y-84240906D01*
X231899202Y-84238178D01*
X232076686Y-84238178D01*
X232090400Y-84240906D01*
X232090400Y-84240906D01*
G37*
G36*
X187574344Y-81652103D02*
G01*
X187687107Y-81674533D01*
X187819100Y-81729206D01*
X188005767Y-81806526D01*
X188292555Y-81998152D01*
X188536450Y-82242047D01*
X188728076Y-82528835D01*
X188740132Y-82557941D01*
X188860069Y-82847495D01*
X188868080Y-82887768D01*
X188927359Y-83185783D01*
X188927359Y-83530703D01*
X188898385Y-83676362D01*
X188860069Y-83868991D01*
X188805396Y-84000984D01*
X188728076Y-84187651D01*
X188536450Y-84474439D01*
X188292555Y-84718334D01*
X188005767Y-84909960D01*
X187819100Y-84987280D01*
X187687107Y-85041953D01*
X187574344Y-85064383D01*
X187348819Y-85109243D01*
X187003899Y-85109243D01*
X186778374Y-85064383D01*
X186665611Y-85041953D01*
X186533618Y-84987280D01*
X186346951Y-84909960D01*
X186060163Y-84718334D01*
X185816268Y-84474439D01*
X185624642Y-84187651D01*
X185547322Y-84000984D01*
X185492649Y-83868991D01*
X185454333Y-83676362D01*
X185425359Y-83530703D01*
X185425359Y-83185783D01*
X185484638Y-82887768D01*
X185492649Y-82847495D01*
X185612586Y-82557941D01*
X185624642Y-82528835D01*
X185816268Y-82242047D01*
X186060163Y-81998152D01*
X186346951Y-81806526D01*
X186533618Y-81729206D01*
X186665611Y-81674533D01*
X186778374Y-81652103D01*
X187003899Y-81607243D01*
X187348819Y-81607243D01*
X187574344Y-81652103D01*
X187574344Y-81652103D01*
G37*
G36*
X98971625Y-81652103D02*
G01*
X99084388Y-81674533D01*
X99216381Y-81729206D01*
X99403048Y-81806526D01*
X99689836Y-81998152D01*
X99933731Y-82242047D01*
X100125357Y-82528835D01*
X100137413Y-82557941D01*
X100257350Y-82847495D01*
X100265361Y-82887768D01*
X100324640Y-83185783D01*
X100324640Y-83530703D01*
X100295666Y-83676362D01*
X100257350Y-83868991D01*
X100202677Y-84000984D01*
X100125357Y-84187651D01*
X99933731Y-84474439D01*
X99689836Y-84718334D01*
X99403048Y-84909960D01*
X99216381Y-84987280D01*
X99084388Y-85041953D01*
X98971625Y-85064383D01*
X98746100Y-85109243D01*
X98401180Y-85109243D01*
X98175655Y-85064383D01*
X98062892Y-85041953D01*
X97930899Y-84987280D01*
X97744232Y-84909960D01*
X97457444Y-84718334D01*
X97213549Y-84474439D01*
X97021923Y-84187651D01*
X96944603Y-84000984D01*
X96889930Y-83868991D01*
X96851614Y-83676362D01*
X96822640Y-83530703D01*
X96822640Y-83185783D01*
X96881919Y-82887768D01*
X96889930Y-82847495D01*
X97009867Y-82557941D01*
X97021923Y-82528835D01*
X97213549Y-82242047D01*
X97457444Y-81998152D01*
X97744232Y-81806526D01*
X97930899Y-81729206D01*
X98062892Y-81674533D01*
X98175655Y-81652103D01*
X98401180Y-81607243D01*
X98746100Y-81607243D01*
X98971625Y-81652103D01*
X98971625Y-81652103D01*
G37*
G36*
X35507512Y-82080436D02*
G01*
X35656812Y-82110133D01*
X35820784Y-82178053D01*
X35968354Y-82276656D01*
X36093853Y-82402155D01*
X36192456Y-82549725D01*
X36260376Y-82713697D01*
X36295000Y-82887768D01*
X36295000Y-83065250D01*
X36260376Y-83239321D01*
X36192456Y-83403293D01*
X36093853Y-83550863D01*
X35968354Y-83676362D01*
X35820784Y-83774965D01*
X35656812Y-83842885D01*
X35507512Y-83872582D01*
X35482742Y-83877509D01*
X35305258Y-83877509D01*
X35280488Y-83872582D01*
X35131188Y-83842885D01*
X34967216Y-83774965D01*
X34819646Y-83676362D01*
X34694147Y-83550863D01*
X34595544Y-83403293D01*
X34527624Y-83239321D01*
X34493000Y-83065250D01*
X34493000Y-82887768D01*
X34527624Y-82713697D01*
X34595544Y-82549725D01*
X34694147Y-82402155D01*
X34819646Y-82276656D01*
X34967216Y-82178053D01*
X35131188Y-82110133D01*
X35280488Y-82080436D01*
X35305258Y-82075509D01*
X35482742Y-82075509D01*
X35507512Y-82080436D01*
X35507512Y-82080436D01*
G37*
G36*
X250469512Y-82080436D02*
G01*
X250618812Y-82110133D01*
X250782784Y-82178053D01*
X250930354Y-82276656D01*
X251055853Y-82402155D01*
X251154456Y-82549725D01*
X251222376Y-82713697D01*
X251257000Y-82887768D01*
X251257000Y-83065250D01*
X251222376Y-83239321D01*
X251154456Y-83403293D01*
X251055853Y-83550863D01*
X250930354Y-83676362D01*
X250782784Y-83774965D01*
X250618812Y-83842885D01*
X250469512Y-83872582D01*
X250444742Y-83877509D01*
X250267258Y-83877509D01*
X250242488Y-83872582D01*
X250093188Y-83842885D01*
X249929216Y-83774965D01*
X249781646Y-83676362D01*
X249656147Y-83550863D01*
X249557544Y-83403293D01*
X249489624Y-83239321D01*
X249455000Y-83065250D01*
X249455000Y-82887768D01*
X249489624Y-82713697D01*
X249557544Y-82549725D01*
X249656147Y-82402155D01*
X249781646Y-82276656D01*
X249929216Y-82178053D01*
X250093188Y-82110133D01*
X250242488Y-82080436D01*
X250267258Y-82075509D01*
X250444742Y-82075509D01*
X250469512Y-82080436D01*
X250469512Y-82080436D01*
G37*
G36*
X135155402Y-81621359D02*
G01*
X135162515Y-81644808D01*
X135174066Y-81666419D01*
X135189611Y-81685361D01*
X135208553Y-81700906D01*
X135230164Y-81712457D01*
X135253613Y-81719570D01*
X135277999Y-81721972D01*
X135346332Y-81721972D01*
X135525483Y-81757607D01*
X135694240Y-81827508D01*
X135846118Y-81928990D01*
X135975282Y-82058154D01*
X136076764Y-82210032D01*
X136146665Y-82378789D01*
X136182300Y-82557940D01*
X136182300Y-82740604D01*
X136146665Y-82919755D01*
X136076764Y-83088512D01*
X135975282Y-83240390D01*
X135846118Y-83369554D01*
X135694240Y-83471036D01*
X135525483Y-83540937D01*
X135346332Y-83576572D01*
X135277999Y-83576572D01*
X135253613Y-83578974D01*
X135230164Y-83586087D01*
X135208553Y-83597638D01*
X135189611Y-83613183D01*
X135174066Y-83632125D01*
X135162515Y-83653736D01*
X135155402Y-83677185D01*
X135153128Y-83700272D01*
X131801000Y-83700272D01*
X131801000Y-81598272D01*
X135153128Y-81598272D01*
X135155402Y-81621359D01*
X135155402Y-81621359D01*
G37*
G36*
X153949000Y-83700272D02*
G01*
X150596872Y-83700272D01*
X150594598Y-83677185D01*
X150587485Y-83653736D01*
X150575934Y-83632125D01*
X150560389Y-83613183D01*
X150541447Y-83597638D01*
X150519836Y-83586087D01*
X150496387Y-83578974D01*
X150472001Y-83576572D01*
X150403668Y-83576572D01*
X150224517Y-83540937D01*
X150055760Y-83471036D01*
X149903882Y-83369554D01*
X149774718Y-83240390D01*
X149673236Y-83088512D01*
X149603335Y-82919755D01*
X149567700Y-82740604D01*
X149567700Y-82557940D01*
X149603335Y-82378789D01*
X149673236Y-82210032D01*
X149774718Y-82058154D01*
X149903882Y-81928990D01*
X150055760Y-81827508D01*
X150224517Y-81757607D01*
X150403668Y-81721972D01*
X150472001Y-81721972D01*
X150496387Y-81719570D01*
X150519836Y-81712457D01*
X150541447Y-81700906D01*
X150560389Y-81685361D01*
X150575934Y-81666419D01*
X150587485Y-81644808D01*
X150594598Y-81621359D01*
X150596872Y-81598272D01*
X153949000Y-81598272D01*
X153949000Y-83700272D01*
X153949000Y-83700272D01*
G37*
G36*
X93518843Y-80581059D02*
G01*
X93668143Y-80610756D01*
X93832115Y-80678676D01*
X93979685Y-80777279D01*
X94105184Y-80902778D01*
X94203787Y-81050348D01*
X94271707Y-81214320D01*
X94306331Y-81388391D01*
X94306331Y-81565873D01*
X94271707Y-81739944D01*
X94203787Y-81903916D01*
X94105184Y-82051486D01*
X93979685Y-82176985D01*
X93832115Y-82275588D01*
X93668143Y-82343508D01*
X93518843Y-82373205D01*
X93494073Y-82378132D01*
X93316589Y-82378132D01*
X93291819Y-82373205D01*
X93142519Y-82343508D01*
X92978547Y-82275588D01*
X92830977Y-82176985D01*
X92705478Y-82051486D01*
X92606875Y-81903916D01*
X92538955Y-81739944D01*
X92504331Y-81565873D01*
X92504331Y-81388391D01*
X92538955Y-81214320D01*
X92606875Y-81050348D01*
X92705478Y-80902778D01*
X92830977Y-80777279D01*
X92978547Y-80678676D01*
X93142519Y-80610756D01*
X93291819Y-80581059D01*
X93316589Y-80576132D01*
X93494073Y-80576132D01*
X93518843Y-80581059D01*
X93518843Y-80581059D01*
G37*
G36*
X192458180Y-80581059D02*
G01*
X192607480Y-80610756D01*
X192771452Y-80678676D01*
X192919022Y-80777279D01*
X193044521Y-80902778D01*
X193143124Y-81050348D01*
X193211044Y-81214320D01*
X193245668Y-81388391D01*
X193245668Y-81565873D01*
X193211044Y-81739944D01*
X193143124Y-81903916D01*
X193044521Y-82051486D01*
X192919022Y-82176985D01*
X192771452Y-82275588D01*
X192607480Y-82343508D01*
X192458180Y-82373205D01*
X192433410Y-82378132D01*
X192255926Y-82378132D01*
X192231156Y-82373205D01*
X192081856Y-82343508D01*
X191917884Y-82275588D01*
X191770314Y-82176985D01*
X191644815Y-82051486D01*
X191546212Y-81903916D01*
X191478292Y-81739944D01*
X191443668Y-81565873D01*
X191443668Y-81388391D01*
X191478292Y-81214320D01*
X191546212Y-81050348D01*
X191644815Y-80902778D01*
X191770314Y-80777279D01*
X191917884Y-80678676D01*
X192081856Y-80610756D01*
X192231156Y-80581059D01*
X192255926Y-80576132D01*
X192433410Y-80576132D01*
X192458180Y-80581059D01*
X192458180Y-80581059D01*
G37*
G36*
X153949000Y-81160272D02*
G01*
X150596872Y-81160272D01*
X150594598Y-81137185D01*
X150587485Y-81113736D01*
X150575934Y-81092125D01*
X150560389Y-81073183D01*
X150541447Y-81057638D01*
X150519836Y-81046087D01*
X150496387Y-81038974D01*
X150472001Y-81036572D01*
X150403668Y-81036572D01*
X150224517Y-81000937D01*
X150055760Y-80931036D01*
X149903882Y-80829554D01*
X149774718Y-80700390D01*
X149673236Y-80548512D01*
X149603335Y-80379755D01*
X149567700Y-80200604D01*
X149567700Y-80017940D01*
X149603335Y-79838789D01*
X149673236Y-79670032D01*
X149774718Y-79518154D01*
X149903882Y-79388990D01*
X150055760Y-79287508D01*
X150224517Y-79217607D01*
X150403668Y-79181972D01*
X150472001Y-79181972D01*
X150496387Y-79179570D01*
X150519836Y-79172457D01*
X150541447Y-79160906D01*
X150560389Y-79145361D01*
X150575934Y-79126419D01*
X150587485Y-79104808D01*
X150594598Y-79081359D01*
X150596872Y-79058272D01*
X153949000Y-79058272D01*
X153949000Y-81160272D01*
X153949000Y-81160272D01*
G37*
G36*
X135155402Y-79081359D02*
G01*
X135162515Y-79104808D01*
X135174066Y-79126419D01*
X135189611Y-79145361D01*
X135208553Y-79160906D01*
X135230164Y-79172457D01*
X135253613Y-79179570D01*
X135277999Y-79181972D01*
X135346332Y-79181972D01*
X135525483Y-79217607D01*
X135694240Y-79287508D01*
X135846118Y-79388990D01*
X135975282Y-79518154D01*
X136076764Y-79670032D01*
X136146665Y-79838789D01*
X136182300Y-80017940D01*
X136182300Y-80200604D01*
X136146665Y-80379755D01*
X136076764Y-80548512D01*
X135975282Y-80700390D01*
X135846118Y-80829554D01*
X135694240Y-80931036D01*
X135525483Y-81000937D01*
X135346332Y-81036572D01*
X135277999Y-81036572D01*
X135253613Y-81038974D01*
X135230164Y-81046087D01*
X135208553Y-81057638D01*
X135189611Y-81073183D01*
X135174066Y-81092125D01*
X135162515Y-81113736D01*
X135155402Y-81137185D01*
X135153128Y-81160272D01*
X131801000Y-81160272D01*
X131801000Y-79058272D01*
X135153128Y-79058272D01*
X135155402Y-79081359D01*
X135155402Y-79081359D01*
G37*
G36*
X125126051Y-78517638D02*
G01*
X125279987Y-78548257D01*
X125443959Y-78616177D01*
X125591529Y-78714780D01*
X125717028Y-78840279D01*
X125815631Y-78987849D01*
X125883551Y-79151821D01*
X125896636Y-79217607D01*
X125918175Y-79325889D01*
X125918175Y-79503374D01*
X125883551Y-79677445D01*
X125815631Y-79841417D01*
X125717028Y-79988987D01*
X125591529Y-80114486D01*
X125443959Y-80213089D01*
X125279987Y-80281009D01*
X125130687Y-80310706D01*
X125105917Y-80315633D01*
X124928433Y-80315633D01*
X124903663Y-80310706D01*
X124754363Y-80281009D01*
X124590391Y-80213089D01*
X124442821Y-80114486D01*
X124317322Y-79988987D01*
X124218719Y-79841417D01*
X124150799Y-79677445D01*
X124116175Y-79503374D01*
X124116175Y-79325892D01*
X124116176Y-79325889D01*
X124137714Y-79217607D01*
X124150799Y-79151821D01*
X124218719Y-78987849D01*
X124317322Y-78840279D01*
X124442821Y-78714780D01*
X124590391Y-78616177D01*
X124754363Y-78548257D01*
X124908299Y-78517638D01*
X124928433Y-78513633D01*
X125105917Y-78513633D01*
X125126051Y-78517638D01*
X125126051Y-78517638D01*
G37*
G36*
X160841712Y-78517638D02*
G01*
X160995638Y-78548255D01*
X161159610Y-78616175D01*
X161307180Y-78714778D01*
X161432679Y-78840277D01*
X161531282Y-78987847D01*
X161599202Y-79151819D01*
X161626192Y-79287509D01*
X161633826Y-79325889D01*
X161633826Y-79503373D01*
X161630886Y-79518153D01*
X161599202Y-79677443D01*
X161531282Y-79841415D01*
X161432679Y-79988985D01*
X161307180Y-80114484D01*
X161159610Y-80213087D01*
X160995638Y-80281007D01*
X160846338Y-80310704D01*
X160821568Y-80315631D01*
X160644084Y-80315631D01*
X160619314Y-80310704D01*
X160470014Y-80281007D01*
X160306042Y-80213087D01*
X160158472Y-80114484D01*
X160032973Y-79988985D01*
X159934370Y-79841415D01*
X159866450Y-79677443D01*
X159834766Y-79518153D01*
X159831826Y-79503373D01*
X159831826Y-79325889D01*
X159839460Y-79287509D01*
X159866450Y-79151819D01*
X159934370Y-78987847D01*
X160032973Y-78840277D01*
X160158472Y-78714778D01*
X160306042Y-78616175D01*
X160470014Y-78548255D01*
X160623940Y-78517638D01*
X160644084Y-78513631D01*
X160821568Y-78513631D01*
X160841712Y-78517638D01*
X160841712Y-78517638D01*
G37*
G36*
X120246851Y-75827382D02*
G01*
X120359614Y-75849812D01*
X120451209Y-75887752D01*
X120678274Y-75981805D01*
X120965062Y-76173431D01*
X121208957Y-76417326D01*
X121400583Y-76704114D01*
X121460592Y-76848990D01*
X121532576Y-77022773D01*
X121532576Y-77022775D01*
X121599866Y-77361060D01*
X121599866Y-77705980D01*
X121532577Y-78044267D01*
X121532576Y-78044269D01*
X121400583Y-78362930D01*
X121208957Y-78649718D01*
X120965062Y-78893613D01*
X120678274Y-79085239D01*
X120495597Y-79160906D01*
X120359614Y-79217232D01*
X120246851Y-79239662D01*
X120021326Y-79284522D01*
X119676406Y-79284522D01*
X119450881Y-79239662D01*
X119338118Y-79217232D01*
X119202135Y-79160906D01*
X119019458Y-79085239D01*
X118732670Y-78893613D01*
X118488775Y-78649718D01*
X118297149Y-78362930D01*
X118165156Y-78044269D01*
X118165156Y-78044267D01*
X118097866Y-77705980D01*
X118097866Y-77361064D01*
X118097867Y-77361060D01*
X118165156Y-77022775D01*
X118165157Y-77022773D01*
X118237140Y-76848990D01*
X118297149Y-76704114D01*
X118488775Y-76417326D01*
X118732670Y-76173431D01*
X119019458Y-75981805D01*
X119246523Y-75887752D01*
X119338118Y-75849812D01*
X119450881Y-75827382D01*
X119676406Y-75782522D01*
X120021326Y-75782522D01*
X120246851Y-75827382D01*
X120246851Y-75827382D01*
G37*
G36*
X166299120Y-75827380D02*
G01*
X166411883Y-75849810D01*
X166503483Y-75887752D01*
X166730543Y-75981803D01*
X167017331Y-76173429D01*
X167261226Y-76417324D01*
X167452852Y-76704112D01*
X167530172Y-76890779D01*
X167584845Y-77022772D01*
X167606180Y-77130031D01*
X167652135Y-77361060D01*
X167652135Y-77705980D01*
X167625525Y-77839755D01*
X167584845Y-78044268D01*
X167584844Y-78044270D01*
X167452852Y-78362928D01*
X167261226Y-78649716D01*
X167017331Y-78893611D01*
X166730543Y-79085237D01*
X166569794Y-79151821D01*
X166411883Y-79217230D01*
X166299120Y-79239660D01*
X166073595Y-79284520D01*
X165728675Y-79284520D01*
X165503150Y-79239660D01*
X165390387Y-79217230D01*
X165232476Y-79151821D01*
X165071727Y-79085237D01*
X164784939Y-78893611D01*
X164541044Y-78649716D01*
X164349418Y-78362928D01*
X164217426Y-78044270D01*
X164217425Y-78044268D01*
X164176745Y-77839755D01*
X164150135Y-77705980D01*
X164150135Y-77361060D01*
X164196090Y-77130031D01*
X164217425Y-77022772D01*
X164272098Y-76890779D01*
X164349418Y-76704112D01*
X164541044Y-76417324D01*
X164784939Y-76173429D01*
X165071727Y-75981803D01*
X165298787Y-75887752D01*
X165390387Y-75849810D01*
X165503150Y-75827380D01*
X165728675Y-75782520D01*
X166073595Y-75782520D01*
X166299120Y-75827380D01*
X166299120Y-75827380D01*
G37*
G36*
X153949000Y-78620272D02*
G01*
X150596872Y-78620272D01*
X150594598Y-78597185D01*
X150587485Y-78573736D01*
X150575934Y-78552125D01*
X150560389Y-78533183D01*
X150541447Y-78517638D01*
X150519836Y-78506087D01*
X150496387Y-78498974D01*
X150472001Y-78496572D01*
X150403668Y-78496572D01*
X150224517Y-78460937D01*
X150055760Y-78391036D01*
X149903882Y-78289554D01*
X149774718Y-78160390D01*
X149673236Y-78008512D01*
X149603335Y-77839755D01*
X149567700Y-77660604D01*
X149567700Y-77477940D01*
X149603335Y-77298789D01*
X149673236Y-77130032D01*
X149774718Y-76978154D01*
X149903882Y-76848990D01*
X150055760Y-76747508D01*
X150224517Y-76677607D01*
X150403668Y-76641972D01*
X150472001Y-76641972D01*
X150496387Y-76639570D01*
X150519836Y-76632457D01*
X150541447Y-76620906D01*
X150560389Y-76605361D01*
X150575934Y-76586419D01*
X150587485Y-76564808D01*
X150594598Y-76541359D01*
X150596872Y-76518272D01*
X153949000Y-76518272D01*
X153949000Y-78620272D01*
X153949000Y-78620272D01*
G37*
G36*
X135155402Y-76541359D02*
G01*
X135162515Y-76564808D01*
X135174066Y-76586419D01*
X135189611Y-76605361D01*
X135208553Y-76620906D01*
X135230164Y-76632457D01*
X135253613Y-76639570D01*
X135277999Y-76641972D01*
X136182300Y-76641972D01*
X136182300Y-78496572D01*
X135277999Y-78496572D01*
X135253613Y-78498974D01*
X135230164Y-78506087D01*
X135208553Y-78517638D01*
X135189611Y-78533183D01*
X135174066Y-78552125D01*
X135162515Y-78573736D01*
X135155402Y-78597185D01*
X135153128Y-78620272D01*
X131801000Y-78620272D01*
X131801000Y-76518272D01*
X135153128Y-76518272D01*
X135155402Y-76541359D01*
X135155402Y-76541359D01*
G37*
G36*
X114794069Y-74756338D02*
G01*
X114943369Y-74786035D01*
X115107341Y-74853955D01*
X115254911Y-74952558D01*
X115380410Y-75078057D01*
X115479013Y-75225627D01*
X115546933Y-75389599D01*
X115572091Y-75516080D01*
X115581557Y-75563667D01*
X115581557Y-75741152D01*
X115546933Y-75915223D01*
X115479013Y-76079195D01*
X115380410Y-76226765D01*
X115254911Y-76352264D01*
X115107341Y-76450867D01*
X114943369Y-76518787D01*
X114794069Y-76548484D01*
X114769299Y-76553411D01*
X114591815Y-76553411D01*
X114567045Y-76548484D01*
X114417745Y-76518787D01*
X114253773Y-76450867D01*
X114106203Y-76352264D01*
X113980704Y-76226765D01*
X113882101Y-76079195D01*
X113814181Y-75915223D01*
X113779557Y-75741152D01*
X113779557Y-75563670D01*
X113779558Y-75563667D01*
X113789023Y-75516080D01*
X113814181Y-75389599D01*
X113882101Y-75225627D01*
X113980704Y-75078057D01*
X114106203Y-74952558D01*
X114253773Y-74853955D01*
X114417745Y-74786035D01*
X114567045Y-74756338D01*
X114591815Y-74751411D01*
X114769299Y-74751411D01*
X114794069Y-74756338D01*
X114794069Y-74756338D01*
G37*
G36*
X171182956Y-74756336D02*
G01*
X171332256Y-74786033D01*
X171496228Y-74853953D01*
X171643798Y-74952556D01*
X171769297Y-75078055D01*
X171867900Y-75225625D01*
X171935820Y-75389597D01*
X171960978Y-75516078D01*
X171970444Y-75563667D01*
X171970444Y-75741151D01*
X171965517Y-75765921D01*
X171935820Y-75915221D01*
X171867900Y-76079193D01*
X171769297Y-76226763D01*
X171643798Y-76352262D01*
X171496228Y-76450865D01*
X171332256Y-76518785D01*
X171182956Y-76548482D01*
X171158186Y-76553409D01*
X170980702Y-76553409D01*
X170955932Y-76548482D01*
X170806632Y-76518785D01*
X170642660Y-76450865D01*
X170495090Y-76352262D01*
X170369591Y-76226763D01*
X170270988Y-76079193D01*
X170203068Y-75915221D01*
X170173371Y-75765921D01*
X170168444Y-75741151D01*
X170168444Y-75563667D01*
X170177910Y-75516078D01*
X170203068Y-75389597D01*
X170270988Y-75225625D01*
X170369591Y-75078055D01*
X170495090Y-74952556D01*
X170642660Y-74853953D01*
X170806632Y-74786033D01*
X170955932Y-74756336D01*
X170980702Y-74751409D01*
X171158186Y-74751409D01*
X171182956Y-74756336D01*
X171182956Y-74756336D01*
G37*
G36*
X88394579Y-74193223D02*
G01*
X88543879Y-74222920D01*
X88707851Y-74290840D01*
X88855421Y-74389443D01*
X88980920Y-74514942D01*
X89079523Y-74662512D01*
X89147443Y-74826484D01*
X89182067Y-75000555D01*
X89182067Y-75178037D01*
X89147443Y-75352108D01*
X89079523Y-75516080D01*
X88980920Y-75663650D01*
X88855421Y-75789149D01*
X88707851Y-75887752D01*
X88543879Y-75955672D01*
X88394579Y-75985369D01*
X88369809Y-75990296D01*
X88192325Y-75990296D01*
X88167555Y-75985369D01*
X88018255Y-75955672D01*
X87854283Y-75887752D01*
X87706713Y-75789149D01*
X87581214Y-75663650D01*
X87482611Y-75516080D01*
X87414691Y-75352108D01*
X87380067Y-75178037D01*
X87380067Y-75000555D01*
X87414691Y-74826484D01*
X87482611Y-74662512D01*
X87581214Y-74514942D01*
X87706713Y-74389443D01*
X87854283Y-74290840D01*
X88018255Y-74222920D01*
X88167555Y-74193223D01*
X88192325Y-74188296D01*
X88369809Y-74188296D01*
X88394579Y-74193223D01*
X88394579Y-74193223D01*
G37*
G36*
X197582446Y-74193223D02*
G01*
X197731746Y-74222920D01*
X197895718Y-74290840D01*
X198043288Y-74389443D01*
X198168787Y-74514942D01*
X198267390Y-74662512D01*
X198335310Y-74826484D01*
X198369934Y-75000555D01*
X198369934Y-75178037D01*
X198335310Y-75352108D01*
X198267390Y-75516080D01*
X198168787Y-75663650D01*
X198043288Y-75789149D01*
X197895718Y-75887752D01*
X197731746Y-75955672D01*
X197582446Y-75985369D01*
X197557676Y-75990296D01*
X197380192Y-75990296D01*
X197355422Y-75985369D01*
X197206122Y-75955672D01*
X197042150Y-75887752D01*
X196894580Y-75789149D01*
X196769081Y-75663650D01*
X196670478Y-75516080D01*
X196602558Y-75352108D01*
X196567934Y-75178037D01*
X196567934Y-75000555D01*
X196602558Y-74826484D01*
X196670478Y-74662512D01*
X196769081Y-74514942D01*
X196894580Y-74389443D01*
X197042150Y-74290840D01*
X197206122Y-74222920D01*
X197355422Y-74193223D01*
X197380192Y-74188296D01*
X197557676Y-74188296D01*
X197582446Y-74193223D01*
X197582446Y-74193223D01*
G37*
G36*
X203035228Y-71502045D02*
G01*
X203147991Y-71524475D01*
X203239579Y-71562412D01*
X203466651Y-71656468D01*
X203753439Y-71848094D01*
X203997334Y-72091989D01*
X204188960Y-72378777D01*
X204239107Y-72499843D01*
X204307027Y-72663816D01*
X204320953Y-72697438D01*
X204384194Y-73015368D01*
X204388243Y-73035727D01*
X204388243Y-73380643D01*
X204320953Y-73718933D01*
X204290272Y-73793003D01*
X204188960Y-74037593D01*
X203997334Y-74324381D01*
X203753439Y-74568276D01*
X203466651Y-74759902D01*
X203279984Y-74837222D01*
X203147991Y-74891895D01*
X203035228Y-74914325D01*
X202809703Y-74959185D01*
X202464783Y-74959185D01*
X202239258Y-74914325D01*
X202126495Y-74891895D01*
X201994502Y-74837222D01*
X201807835Y-74759902D01*
X201521047Y-74568276D01*
X201277152Y-74324381D01*
X201085526Y-74037593D01*
X200984214Y-73793003D01*
X200953533Y-73718933D01*
X200886243Y-73380643D01*
X200886243Y-73035727D01*
X200890293Y-73015368D01*
X200953533Y-72697438D01*
X200967460Y-72663816D01*
X201035379Y-72499843D01*
X201085526Y-72378777D01*
X201277152Y-72091989D01*
X201521047Y-71848094D01*
X201807835Y-71656468D01*
X202034907Y-71562412D01*
X202126495Y-71524475D01*
X202239258Y-71502045D01*
X202464783Y-71457185D01*
X202809703Y-71457185D01*
X203035228Y-71502045D01*
X203035228Y-71502045D01*
G37*
G36*
X83510743Y-71502045D02*
G01*
X83623506Y-71524475D01*
X83715094Y-71562412D01*
X83942166Y-71656468D01*
X84228954Y-71848094D01*
X84472849Y-72091989D01*
X84664475Y-72378777D01*
X84714622Y-72499843D01*
X84782542Y-72663816D01*
X84796468Y-72697438D01*
X84859709Y-73015368D01*
X84863758Y-73035727D01*
X84863758Y-73380643D01*
X84796468Y-73718933D01*
X84765787Y-73793003D01*
X84664475Y-74037593D01*
X84472849Y-74324381D01*
X84228954Y-74568276D01*
X83942166Y-74759902D01*
X83755499Y-74837222D01*
X83623506Y-74891895D01*
X83510743Y-74914325D01*
X83285218Y-74959185D01*
X82940298Y-74959185D01*
X82714773Y-74914325D01*
X82602010Y-74891895D01*
X82470017Y-74837222D01*
X82283350Y-74759902D01*
X81996562Y-74568276D01*
X81752667Y-74324381D01*
X81561041Y-74037593D01*
X81459729Y-73793003D01*
X81429048Y-73718933D01*
X81361758Y-73380643D01*
X81361758Y-73035727D01*
X81365808Y-73015368D01*
X81429048Y-72697438D01*
X81442975Y-72663816D01*
X81510894Y-72499843D01*
X81561041Y-72378777D01*
X81752667Y-72091989D01*
X81996562Y-71848094D01*
X82283350Y-71656468D01*
X82510422Y-71562412D01*
X82602010Y-71524475D01*
X82714773Y-71502045D01*
X82940298Y-71457185D01*
X83285218Y-71457185D01*
X83510743Y-71502045D01*
X83510743Y-71502045D01*
G37*
G36*
X70008283Y-72026926D02*
G01*
X70175828Y-72060252D01*
X70339800Y-72128172D01*
X70487370Y-72226775D01*
X70612869Y-72352274D01*
X70711472Y-72499844D01*
X70779392Y-72663816D01*
X70814016Y-72837887D01*
X70814016Y-73015369D01*
X70779392Y-73189440D01*
X70711472Y-73353412D01*
X70612869Y-73500982D01*
X70487370Y-73626481D01*
X70339800Y-73725084D01*
X70175828Y-73793004D01*
X70026528Y-73822701D01*
X70001758Y-73827628D01*
X69824274Y-73827628D01*
X69799504Y-73822701D01*
X69650204Y-73793004D01*
X69486232Y-73725084D01*
X69338662Y-73626481D01*
X69213163Y-73500982D01*
X69114560Y-73353412D01*
X69046640Y-73189440D01*
X69012016Y-73015369D01*
X69012016Y-72837887D01*
X69046640Y-72663816D01*
X69114560Y-72499844D01*
X69213163Y-72352274D01*
X69338662Y-72226775D01*
X69486232Y-72128172D01*
X69650204Y-72060252D01*
X69817749Y-72026926D01*
X69824274Y-72025628D01*
X70001758Y-72025628D01*
X70008283Y-72026926D01*
X70008283Y-72026926D01*
G37*
G36*
X215932256Y-72026926D02*
G01*
X216099796Y-72060251D01*
X216263768Y-72128171D01*
X216411338Y-72226774D01*
X216536837Y-72352273D01*
X216635440Y-72499843D01*
X216703360Y-72663815D01*
X216737984Y-72837886D01*
X216737984Y-73015368D01*
X216703360Y-73189439D01*
X216635440Y-73353411D01*
X216536837Y-73500981D01*
X216411338Y-73626480D01*
X216263768Y-73725083D01*
X216099796Y-73793003D01*
X215950496Y-73822700D01*
X215925726Y-73827627D01*
X215748242Y-73827627D01*
X215723472Y-73822700D01*
X215574172Y-73793003D01*
X215410200Y-73725083D01*
X215262630Y-73626480D01*
X215137131Y-73500981D01*
X215038528Y-73353411D01*
X214970608Y-73189439D01*
X214935984Y-73015368D01*
X214935984Y-72837886D01*
X214970608Y-72663815D01*
X215038528Y-72499843D01*
X215137131Y-72352273D01*
X215262630Y-72226774D01*
X215410200Y-72128171D01*
X215574172Y-72060251D01*
X215741712Y-72026926D01*
X215748242Y-72025627D01*
X215925726Y-72025627D01*
X215932256Y-72026926D01*
X215932256Y-72026926D01*
G37*
G36*
X65142692Y-69339377D02*
G01*
X65255455Y-69361807D01*
X65332193Y-69393593D01*
X65574115Y-69493800D01*
X65860903Y-69685426D01*
X66104798Y-69929321D01*
X66296424Y-70216109D01*
X66346570Y-70337174D01*
X66428417Y-70534769D01*
X66446807Y-70627221D01*
X66495707Y-70873056D01*
X66495707Y-71217975D01*
X66428417Y-71556265D01*
X66397738Y-71630331D01*
X66296424Y-71874925D01*
X66104798Y-72161713D01*
X65860903Y-72405608D01*
X65574115Y-72597234D01*
X65387448Y-72674554D01*
X65255455Y-72729227D01*
X65142692Y-72751657D01*
X64917167Y-72796517D01*
X64572247Y-72796517D01*
X64346722Y-72751657D01*
X64233959Y-72729227D01*
X64101966Y-72674554D01*
X63915299Y-72597234D01*
X63628511Y-72405608D01*
X63384616Y-72161713D01*
X63192990Y-71874925D01*
X63091676Y-71630331D01*
X63060997Y-71556265D01*
X62993707Y-71217975D01*
X62993707Y-70873059D01*
X62993708Y-70873056D01*
X63042607Y-70627221D01*
X63060997Y-70534769D01*
X63142844Y-70337174D01*
X63192990Y-70216109D01*
X63384616Y-69929321D01*
X63628511Y-69685426D01*
X63915299Y-69493800D01*
X64157221Y-69393593D01*
X64233959Y-69361807D01*
X64346722Y-69339377D01*
X64572247Y-69294517D01*
X64917167Y-69294517D01*
X65142692Y-69339377D01*
X65142692Y-69339377D01*
G37*
G36*
X221403278Y-69339376D02*
G01*
X221516041Y-69361806D01*
X221592779Y-69393592D01*
X221834701Y-69493799D01*
X222121489Y-69685425D01*
X222365384Y-69929320D01*
X222557010Y-70216108D01*
X222557010Y-70216109D01*
X222686456Y-70528618D01*
X222689003Y-70534769D01*
X222756293Y-70873056D01*
X222756293Y-71217976D01*
X222732357Y-71338309D01*
X222689003Y-71556264D01*
X222675076Y-71589886D01*
X222557010Y-71874924D01*
X222365384Y-72161712D01*
X222121489Y-72405607D01*
X221834701Y-72597233D01*
X221673952Y-72663817D01*
X221516041Y-72729226D01*
X221403278Y-72751656D01*
X221177753Y-72796516D01*
X220832833Y-72796516D01*
X220607308Y-72751656D01*
X220494545Y-72729226D01*
X220336634Y-72663817D01*
X220175885Y-72597233D01*
X219889097Y-72405607D01*
X219645202Y-72161712D01*
X219453576Y-71874924D01*
X219335510Y-71589886D01*
X219321583Y-71556264D01*
X219278229Y-71338309D01*
X219254293Y-71217976D01*
X219254293Y-70873056D01*
X219321583Y-70534769D01*
X219324131Y-70528618D01*
X219453576Y-70216109D01*
X219453576Y-70216108D01*
X219645202Y-69929320D01*
X219889097Y-69685425D01*
X220175885Y-69493799D01*
X220417807Y-69393592D01*
X220494545Y-69361806D01*
X220607308Y-69339376D01*
X220832833Y-69294516D01*
X221177753Y-69294516D01*
X221403278Y-69339376D01*
X221403278Y-69339376D01*
G37*
G36*
X78057961Y-70431001D02*
G01*
X78207261Y-70460698D01*
X78371233Y-70528618D01*
X78518803Y-70627221D01*
X78644302Y-70752720D01*
X78742905Y-70900290D01*
X78810825Y-71064262D01*
X78845449Y-71238333D01*
X78845449Y-71415815D01*
X78810825Y-71589886D01*
X78742905Y-71753858D01*
X78644302Y-71901428D01*
X78518803Y-72026927D01*
X78371233Y-72125530D01*
X78207261Y-72193450D01*
X78057961Y-72223147D01*
X78033191Y-72228074D01*
X77855707Y-72228074D01*
X77830937Y-72223147D01*
X77681637Y-72193450D01*
X77517665Y-72125530D01*
X77370095Y-72026927D01*
X77244596Y-71901428D01*
X77145993Y-71753858D01*
X77078073Y-71589886D01*
X77043449Y-71415815D01*
X77043449Y-71238333D01*
X77078073Y-71064262D01*
X77145993Y-70900290D01*
X77244596Y-70752720D01*
X77370095Y-70627221D01*
X77517665Y-70528618D01*
X77681637Y-70460698D01*
X77830937Y-70431001D01*
X77855707Y-70426074D01*
X78033191Y-70426074D01*
X78057961Y-70431001D01*
X78057961Y-70431001D01*
G37*
G36*
X207919064Y-70431001D02*
G01*
X208068364Y-70460698D01*
X208232336Y-70528618D01*
X208379906Y-70627221D01*
X208505405Y-70752720D01*
X208604008Y-70900290D01*
X208671928Y-71064262D01*
X208706552Y-71238333D01*
X208706552Y-71415815D01*
X208671928Y-71589886D01*
X208604008Y-71753858D01*
X208505405Y-71901428D01*
X208379906Y-72026927D01*
X208232336Y-72125530D01*
X208068364Y-72193450D01*
X207919064Y-72223147D01*
X207894294Y-72228074D01*
X207716810Y-72228074D01*
X207692040Y-72223147D01*
X207542740Y-72193450D01*
X207378768Y-72125530D01*
X207231198Y-72026927D01*
X207105699Y-71901428D01*
X207007096Y-71753858D01*
X206939176Y-71589886D01*
X206904552Y-71415815D01*
X206904552Y-71238333D01*
X206939176Y-71064262D01*
X207007096Y-70900290D01*
X207105699Y-70752720D01*
X207231198Y-70627221D01*
X207378768Y-70528618D01*
X207542740Y-70460698D01*
X207692040Y-70431001D01*
X207716810Y-70426074D01*
X207894294Y-70426074D01*
X207919064Y-70431001D01*
X207919064Y-70431001D01*
G37*
G36*
X51658476Y-69867883D02*
G01*
X51807776Y-69897580D01*
X51971748Y-69965500D01*
X52119318Y-70064103D01*
X52244817Y-70189602D01*
X52343420Y-70337172D01*
X52411340Y-70501144D01*
X52445964Y-70675215D01*
X52445964Y-70852697D01*
X52411340Y-71026768D01*
X52343420Y-71190740D01*
X52244817Y-71338310D01*
X52119318Y-71463809D01*
X51971748Y-71562412D01*
X51807776Y-71630332D01*
X51658476Y-71660029D01*
X51633706Y-71664956D01*
X51456222Y-71664956D01*
X51431452Y-71660029D01*
X51282152Y-71630332D01*
X51118180Y-71562412D01*
X50970610Y-71463809D01*
X50845111Y-71338310D01*
X50746508Y-71190740D01*
X50678588Y-71026768D01*
X50643964Y-70852697D01*
X50643964Y-70675215D01*
X50678588Y-70501144D01*
X50746508Y-70337172D01*
X50845111Y-70189602D01*
X50970610Y-70064103D01*
X51118180Y-69965500D01*
X51282152Y-69897580D01*
X51431452Y-69867883D01*
X51456222Y-69862956D01*
X51633706Y-69862956D01*
X51658476Y-69867883D01*
X51658476Y-69867883D01*
G37*
G36*
X234318549Y-69867883D02*
G01*
X234467849Y-69897580D01*
X234631821Y-69965500D01*
X234779391Y-70064103D01*
X234904890Y-70189602D01*
X235003493Y-70337172D01*
X235071413Y-70501144D01*
X235106037Y-70675215D01*
X235106037Y-70852697D01*
X235071413Y-71026768D01*
X235003493Y-71190740D01*
X234904890Y-71338310D01*
X234779391Y-71463809D01*
X234631821Y-71562412D01*
X234467849Y-71630332D01*
X234318549Y-71660029D01*
X234293779Y-71664956D01*
X234116295Y-71664956D01*
X234091525Y-71660029D01*
X233942225Y-71630332D01*
X233778253Y-71562412D01*
X233630683Y-71463809D01*
X233505184Y-71338310D01*
X233406581Y-71190740D01*
X233338661Y-71026768D01*
X233304037Y-70852697D01*
X233304037Y-70675215D01*
X233338661Y-70501144D01*
X233406581Y-70337172D01*
X233505184Y-70189602D01*
X233630683Y-70064103D01*
X233778253Y-69965500D01*
X233942225Y-69897580D01*
X234091525Y-69867883D01*
X234116295Y-69862956D01*
X234293779Y-69862956D01*
X234318549Y-69867883D01*
X234318549Y-69867883D01*
G37*
G36*
X46774640Y-67176705D02*
G01*
X46887403Y-67199135D01*
X46916064Y-67211007D01*
X47206063Y-67331128D01*
X47492851Y-67522754D01*
X47736746Y-67766649D01*
X47928372Y-68053437D01*
X47994412Y-68212873D01*
X48057819Y-68365950D01*
X48060365Y-68372098D01*
X48127655Y-68710385D01*
X48127655Y-69055305D01*
X48123605Y-69075664D01*
X48066688Y-69361807D01*
X48060365Y-69393592D01*
X47928372Y-69712253D01*
X47736746Y-69999041D01*
X47492851Y-70242936D01*
X47206063Y-70434562D01*
X47019396Y-70511882D01*
X46887403Y-70566555D01*
X46774640Y-70588985D01*
X46549115Y-70633845D01*
X46204195Y-70633845D01*
X45978670Y-70588985D01*
X45865907Y-70566555D01*
X45733914Y-70511882D01*
X45547247Y-70434562D01*
X45260459Y-70242936D01*
X45016564Y-69999041D01*
X44824938Y-69712253D01*
X44692945Y-69393592D01*
X44686623Y-69361807D01*
X44629705Y-69075664D01*
X44625655Y-69055305D01*
X44625655Y-68710385D01*
X44692945Y-68372098D01*
X44695492Y-68365950D01*
X44758898Y-68212873D01*
X44824938Y-68053437D01*
X45016564Y-67766649D01*
X45260459Y-67522754D01*
X45547247Y-67331128D01*
X45837246Y-67211007D01*
X45865907Y-67199135D01*
X45978670Y-67176705D01*
X46204195Y-67131845D01*
X46549115Y-67131845D01*
X46774640Y-67176705D01*
X46774640Y-67176705D01*
G37*
G36*
X239771331Y-67176705D02*
G01*
X239884094Y-67199135D01*
X239912755Y-67211007D01*
X240202754Y-67331128D01*
X240489542Y-67522754D01*
X240733437Y-67766649D01*
X240925063Y-68053437D01*
X240991103Y-68212873D01*
X241054510Y-68365950D01*
X241057056Y-68372098D01*
X241124346Y-68710385D01*
X241124346Y-69055305D01*
X241120296Y-69075664D01*
X241063379Y-69361807D01*
X241057056Y-69393592D01*
X240925063Y-69712253D01*
X240733437Y-69999041D01*
X240489542Y-70242936D01*
X240202754Y-70434562D01*
X240016087Y-70511882D01*
X239884094Y-70566555D01*
X239771331Y-70588985D01*
X239545806Y-70633845D01*
X239200886Y-70633845D01*
X238975361Y-70588985D01*
X238862598Y-70566555D01*
X238730605Y-70511882D01*
X238543938Y-70434562D01*
X238257150Y-70242936D01*
X238013255Y-69999041D01*
X237821629Y-69712253D01*
X237689636Y-69393592D01*
X237683314Y-69361807D01*
X237626396Y-69075664D01*
X237622346Y-69055305D01*
X237622346Y-68710385D01*
X237689636Y-68372098D01*
X237692183Y-68365950D01*
X237755589Y-68212873D01*
X237821629Y-68053437D01*
X238013255Y-67766649D01*
X238257150Y-67522754D01*
X238543938Y-67331128D01*
X238833937Y-67211007D01*
X238862598Y-67199135D01*
X238975361Y-67176705D01*
X239200886Y-67131845D01*
X239545806Y-67131845D01*
X239771331Y-67176705D01*
X239771331Y-67176705D01*
G37*
G36*
X109669802Y-68368503D02*
G01*
X109819102Y-68398200D01*
X109983074Y-68466120D01*
X110130644Y-68564723D01*
X110256143Y-68690222D01*
X110354746Y-68837792D01*
X110422666Y-69001764D01*
X110437365Y-69075664D01*
X110457290Y-69175834D01*
X110457290Y-69353318D01*
X110455601Y-69361807D01*
X110422666Y-69527388D01*
X110354746Y-69691360D01*
X110256143Y-69838930D01*
X110130644Y-69964429D01*
X109983074Y-70063032D01*
X109819102Y-70130952D01*
X109669802Y-70160649D01*
X109645032Y-70165576D01*
X109467548Y-70165576D01*
X109442778Y-70160649D01*
X109293478Y-70130952D01*
X109129506Y-70063032D01*
X108981936Y-69964429D01*
X108856437Y-69838930D01*
X108757834Y-69691360D01*
X108689914Y-69527388D01*
X108656979Y-69361807D01*
X108655290Y-69353318D01*
X108655290Y-69175834D01*
X108675215Y-69075664D01*
X108689914Y-69001764D01*
X108757834Y-68837792D01*
X108856437Y-68690222D01*
X108981936Y-68564723D01*
X109129506Y-68466120D01*
X109293478Y-68398200D01*
X109442778Y-68368503D01*
X109467548Y-68363576D01*
X109645032Y-68363576D01*
X109669802Y-68368503D01*
X109669802Y-68368503D01*
G37*
G36*
X176307222Y-68368503D02*
G01*
X176456522Y-68398200D01*
X176620494Y-68466120D01*
X176768064Y-68564723D01*
X176893563Y-68690222D01*
X176992166Y-68837792D01*
X177060086Y-69001764D01*
X177074785Y-69075664D01*
X177094710Y-69175834D01*
X177094710Y-69353318D01*
X177093021Y-69361807D01*
X177060086Y-69527388D01*
X176992166Y-69691360D01*
X176893563Y-69838930D01*
X176768064Y-69964429D01*
X176620494Y-70063032D01*
X176456522Y-70130952D01*
X176307222Y-70160649D01*
X176282452Y-70165576D01*
X176104968Y-70165576D01*
X176080198Y-70160649D01*
X175930898Y-70130952D01*
X175766926Y-70063032D01*
X175619356Y-69964429D01*
X175493857Y-69838930D01*
X175395254Y-69691360D01*
X175327334Y-69527388D01*
X175294399Y-69361807D01*
X175292710Y-69353318D01*
X175292710Y-69175834D01*
X175312635Y-69075664D01*
X175327334Y-69001764D01*
X175395254Y-68837792D01*
X175493857Y-68690222D01*
X175619356Y-68564723D01*
X175766926Y-68466120D01*
X175930898Y-68398200D01*
X176080198Y-68368503D01*
X176104968Y-68363576D01*
X176282452Y-68363576D01*
X176307222Y-68368503D01*
X176307222Y-68368503D01*
G37*
G36*
X59689910Y-68268333D02*
G01*
X59839210Y-68298030D01*
X60003182Y-68365950D01*
X60150752Y-68464553D01*
X60276251Y-68590052D01*
X60374854Y-68737622D01*
X60442774Y-68901594D01*
X60477398Y-69075665D01*
X60477398Y-69253147D01*
X60442774Y-69427218D01*
X60374854Y-69591190D01*
X60276251Y-69738760D01*
X60150752Y-69864259D01*
X60003182Y-69962862D01*
X59839210Y-70030782D01*
X59689910Y-70060479D01*
X59665140Y-70065406D01*
X59487656Y-70065406D01*
X59462886Y-70060479D01*
X59313586Y-70030782D01*
X59149614Y-69962862D01*
X59002044Y-69864259D01*
X58876545Y-69738760D01*
X58777942Y-69591190D01*
X58710022Y-69427218D01*
X58675398Y-69253147D01*
X58675398Y-69075665D01*
X58710022Y-68901594D01*
X58777942Y-68737622D01*
X58876545Y-68590052D01*
X59002044Y-68464553D01*
X59149614Y-68365950D01*
X59313586Y-68298030D01*
X59462886Y-68268333D01*
X59487656Y-68263406D01*
X59665140Y-68263406D01*
X59689910Y-68268333D01*
X59689910Y-68268333D01*
G37*
G36*
X226287114Y-68268332D02*
G01*
X226436414Y-68298029D01*
X226600386Y-68365949D01*
X226747956Y-68464552D01*
X226873455Y-68590051D01*
X226972058Y-68737621D01*
X227039978Y-68901593D01*
X227059903Y-69001765D01*
X227072914Y-69067175D01*
X227074602Y-69075664D01*
X227074602Y-69253146D01*
X227039978Y-69427217D01*
X226972058Y-69591189D01*
X226873455Y-69738759D01*
X226747956Y-69864258D01*
X226600386Y-69962861D01*
X226436414Y-70030781D01*
X226287114Y-70060478D01*
X226262344Y-70065405D01*
X226084860Y-70065405D01*
X226060090Y-70060478D01*
X225910790Y-70030781D01*
X225746818Y-69962861D01*
X225599248Y-69864258D01*
X225473749Y-69738759D01*
X225375146Y-69591189D01*
X225307226Y-69427217D01*
X225272602Y-69253146D01*
X225272602Y-69075664D01*
X225274291Y-69067175D01*
X225287301Y-69001765D01*
X225307226Y-68901593D01*
X225375146Y-68737621D01*
X225473749Y-68590051D01*
X225599248Y-68464552D01*
X225746818Y-68365949D01*
X225910790Y-68298029D01*
X226060090Y-68268332D01*
X226084860Y-68263405D01*
X226262344Y-68263405D01*
X226287114Y-68268332D01*
X226287114Y-68268332D01*
G37*
G36*
X104785966Y-65677325D02*
G01*
X104898729Y-65699755D01*
X105030722Y-65754428D01*
X105217389Y-65831748D01*
X105504177Y-66023374D01*
X105748072Y-66267269D01*
X105939698Y-66554057D01*
X106071691Y-66872718D01*
X106138981Y-67211005D01*
X106138981Y-67555925D01*
X106071691Y-67894212D01*
X105939698Y-68212873D01*
X105748072Y-68499661D01*
X105504177Y-68743556D01*
X105217389Y-68935182D01*
X105030722Y-69012502D01*
X104898729Y-69067175D01*
X104785966Y-69089605D01*
X104560441Y-69134465D01*
X104215521Y-69134465D01*
X103989996Y-69089605D01*
X103877233Y-69067175D01*
X103745240Y-69012502D01*
X103558573Y-68935182D01*
X103271785Y-68743556D01*
X103027890Y-68499661D01*
X102836264Y-68212873D01*
X102704271Y-67894212D01*
X102636981Y-67555925D01*
X102636981Y-67211005D01*
X102704271Y-66872718D01*
X102836264Y-66554057D01*
X103027890Y-66267269D01*
X103271785Y-66023374D01*
X103558573Y-65831748D01*
X103745240Y-65754428D01*
X103877233Y-65699755D01*
X103989996Y-65677325D01*
X104215521Y-65632465D01*
X104560441Y-65632465D01*
X104785966Y-65677325D01*
X104785966Y-65677325D01*
G37*
G36*
X181760004Y-65677325D02*
G01*
X181872767Y-65699755D01*
X182004760Y-65754428D01*
X182191427Y-65831748D01*
X182478215Y-66023374D01*
X182722110Y-66267269D01*
X182913736Y-66554057D01*
X183045729Y-66872718D01*
X183113019Y-67211005D01*
X183113019Y-67555925D01*
X183045729Y-67894212D01*
X182913736Y-68212873D01*
X182722110Y-68499661D01*
X182478215Y-68743556D01*
X182191427Y-68935182D01*
X182004760Y-69012502D01*
X181872767Y-69067175D01*
X181760004Y-69089605D01*
X181534479Y-69134465D01*
X181189559Y-69134465D01*
X180964034Y-69089605D01*
X180851271Y-69067175D01*
X180719278Y-69012502D01*
X180532611Y-68935182D01*
X180245823Y-68743556D01*
X180001928Y-68499661D01*
X179810302Y-68212873D01*
X179678309Y-67894212D01*
X179611019Y-67555925D01*
X179611019Y-67211005D01*
X179678309Y-66872718D01*
X179810302Y-66554057D01*
X180001928Y-66267269D01*
X180245823Y-66023374D01*
X180532611Y-65831748D01*
X180719278Y-65754428D01*
X180851271Y-65699755D01*
X180964034Y-65677325D01*
X181189559Y-65632465D01*
X181534479Y-65632465D01*
X181760004Y-65677325D01*
X181760004Y-65677325D01*
G37*
G36*
X41321858Y-66105661D02*
G01*
X41471158Y-66135358D01*
X41635130Y-66203278D01*
X41782700Y-66301881D01*
X41908199Y-66427380D01*
X42006802Y-66574950D01*
X42074722Y-66738922D01*
X42109346Y-66912993D01*
X42109346Y-67090475D01*
X42074722Y-67264546D01*
X42006802Y-67428518D01*
X41908199Y-67576088D01*
X41782700Y-67701587D01*
X41635130Y-67800190D01*
X41471158Y-67868110D01*
X41321858Y-67897807D01*
X41297088Y-67902734D01*
X41119604Y-67902734D01*
X41094834Y-67897807D01*
X40945534Y-67868110D01*
X40781562Y-67800190D01*
X40633992Y-67701587D01*
X40508493Y-67576088D01*
X40409890Y-67428518D01*
X40341970Y-67264546D01*
X40307346Y-67090475D01*
X40307346Y-66912993D01*
X40341970Y-66738922D01*
X40409890Y-66574950D01*
X40508493Y-66427380D01*
X40633992Y-66301881D01*
X40781562Y-66203278D01*
X40945534Y-66135358D01*
X41094834Y-66105661D01*
X41119604Y-66100734D01*
X41297088Y-66100734D01*
X41321858Y-66105661D01*
X41321858Y-66105661D01*
G37*
G36*
X244655167Y-66105661D02*
G01*
X244804467Y-66135358D01*
X244968439Y-66203278D01*
X245116009Y-66301881D01*
X245241508Y-66427380D01*
X245340111Y-66574950D01*
X245408031Y-66738922D01*
X245442655Y-66912993D01*
X245442655Y-67090475D01*
X245408031Y-67264546D01*
X245340111Y-67428518D01*
X245241508Y-67576088D01*
X245116009Y-67701587D01*
X244968439Y-67800190D01*
X244804467Y-67868110D01*
X244655167Y-67897807D01*
X244630397Y-67902734D01*
X244452913Y-67902734D01*
X244428143Y-67897807D01*
X244278843Y-67868110D01*
X244114871Y-67800190D01*
X243967301Y-67701587D01*
X243841802Y-67576088D01*
X243743199Y-67428518D01*
X243675279Y-67264546D01*
X243640655Y-67090475D01*
X243640655Y-66912993D01*
X243675279Y-66738922D01*
X243743199Y-66574950D01*
X243841802Y-66427380D01*
X243967301Y-66301881D01*
X244114871Y-66203278D01*
X244278843Y-66135358D01*
X244428143Y-66105661D01*
X244452913Y-66100734D01*
X244630397Y-66100734D01*
X244655167Y-66105661D01*
X244655167Y-66105661D01*
G37*
G36*
X99333184Y-64606281D02*
G01*
X99482484Y-64635978D01*
X99646456Y-64703898D01*
X99794026Y-64802501D01*
X99919525Y-64928000D01*
X100018128Y-65075570D01*
X100086048Y-65239542D01*
X100120672Y-65413613D01*
X100120672Y-65591095D01*
X100086048Y-65765166D01*
X100018128Y-65929138D01*
X99919525Y-66076708D01*
X99794026Y-66202207D01*
X99646456Y-66300810D01*
X99482484Y-66368730D01*
X99333184Y-66398427D01*
X99308414Y-66403354D01*
X99130930Y-66403354D01*
X99106160Y-66398427D01*
X98956860Y-66368730D01*
X98792888Y-66300810D01*
X98645318Y-66202207D01*
X98519819Y-66076708D01*
X98421216Y-65929138D01*
X98353296Y-65765166D01*
X98318672Y-65591095D01*
X98318672Y-65413613D01*
X98353296Y-65239542D01*
X98421216Y-65075570D01*
X98519819Y-64928000D01*
X98645318Y-64802501D01*
X98792888Y-64703898D01*
X98956860Y-64635978D01*
X99106160Y-64606281D01*
X99130930Y-64601354D01*
X99308414Y-64601354D01*
X99333184Y-64606281D01*
X99333184Y-64606281D01*
G37*
G36*
X186643840Y-64606281D02*
G01*
X186793140Y-64635978D01*
X186957112Y-64703898D01*
X187104682Y-64802501D01*
X187230181Y-64928000D01*
X187328784Y-65075570D01*
X187396704Y-65239542D01*
X187431328Y-65413613D01*
X187431328Y-65591095D01*
X187396704Y-65765166D01*
X187328784Y-65929138D01*
X187230181Y-66076708D01*
X187104682Y-66202207D01*
X186957112Y-66300810D01*
X186793140Y-66368730D01*
X186643840Y-66398427D01*
X186619070Y-66403354D01*
X186441586Y-66403354D01*
X186416816Y-66398427D01*
X186267516Y-66368730D01*
X186103544Y-66300810D01*
X185955974Y-66202207D01*
X185830475Y-66076708D01*
X185731872Y-65929138D01*
X185663952Y-65765166D01*
X185629328Y-65591095D01*
X185629328Y-65413613D01*
X185663952Y-65239542D01*
X185731872Y-65075570D01*
X185830475Y-64928000D01*
X185955974Y-64802501D01*
X186103544Y-64703898D01*
X186267516Y-64635978D01*
X186416816Y-64606281D01*
X186441586Y-64601354D01*
X186619070Y-64601354D01*
X186643840Y-64606281D01*
X186643840Y-64606281D01*
G37*
G36*
X94208922Y-58218450D02*
G01*
X94358222Y-58248147D01*
X94522194Y-58316067D01*
X94669764Y-58414670D01*
X94795263Y-58540169D01*
X94893866Y-58687739D01*
X94961786Y-58851711D01*
X94988181Y-58984410D01*
X94996410Y-59025779D01*
X94996410Y-59203264D01*
X94961786Y-59377335D01*
X94893866Y-59541307D01*
X94795263Y-59688877D01*
X94669764Y-59814376D01*
X94522194Y-59912979D01*
X94358222Y-59980899D01*
X94208922Y-60010596D01*
X94184152Y-60015523D01*
X94006668Y-60015523D01*
X93981898Y-60010596D01*
X93832598Y-59980899D01*
X93668626Y-59912979D01*
X93521056Y-59814376D01*
X93395557Y-59688877D01*
X93296954Y-59541307D01*
X93229034Y-59377335D01*
X93194410Y-59203264D01*
X93194410Y-59025782D01*
X93194411Y-59025779D01*
X93202639Y-58984410D01*
X93229034Y-58851711D01*
X93296954Y-58687739D01*
X93395557Y-58540169D01*
X93521056Y-58414670D01*
X93668626Y-58316067D01*
X93832598Y-58248147D01*
X93981898Y-58218450D01*
X94006668Y-58213523D01*
X94184152Y-58213523D01*
X94208922Y-58218450D01*
X94208922Y-58218450D01*
G37*
G36*
X191768102Y-58218448D02*
G01*
X191917402Y-58248145D01*
X192081374Y-58316065D01*
X192228944Y-58414668D01*
X192354443Y-58540167D01*
X192453046Y-58687737D01*
X192520966Y-58851709D01*
X192550663Y-59001009D01*
X192555590Y-59025779D01*
X192555590Y-59203263D01*
X192550663Y-59228033D01*
X192520966Y-59377333D01*
X192453046Y-59541305D01*
X192354443Y-59688875D01*
X192228944Y-59814374D01*
X192081374Y-59912977D01*
X191917402Y-59980897D01*
X191768102Y-60010594D01*
X191743332Y-60015521D01*
X191565848Y-60015521D01*
X191541078Y-60010594D01*
X191391778Y-59980897D01*
X191227806Y-59912977D01*
X191080236Y-59814374D01*
X190954737Y-59688875D01*
X190856134Y-59541305D01*
X190788214Y-59377333D01*
X190758517Y-59228033D01*
X190753590Y-59203263D01*
X190753590Y-59025779D01*
X190758517Y-59001009D01*
X190788214Y-58851709D01*
X190856134Y-58687737D01*
X190954737Y-58540167D01*
X191080236Y-58414668D01*
X191227806Y-58316065D01*
X191391778Y-58248145D01*
X191541078Y-58218448D01*
X191565848Y-58213521D01*
X191743332Y-58213521D01*
X191768102Y-58218448D01*
X191768102Y-58218448D01*
G37*
G36*
X89325086Y-55527272D02*
G01*
X89437849Y-55549702D01*
X89529434Y-55587638D01*
X89756509Y-55681695D01*
X90043297Y-55873321D01*
X90287192Y-56117216D01*
X90478818Y-56404004D01*
X90528964Y-56525069D01*
X90610811Y-56722663D01*
X90610811Y-56722665D01*
X90678101Y-57060950D01*
X90678101Y-57405870D01*
X90610811Y-57744160D01*
X90565789Y-57852853D01*
X90478818Y-58062820D01*
X90287192Y-58349608D01*
X90043297Y-58593503D01*
X89756509Y-58785129D01*
X89569842Y-58862449D01*
X89437849Y-58917122D01*
X89325086Y-58939552D01*
X89099561Y-58984412D01*
X88754641Y-58984412D01*
X88529116Y-58939552D01*
X88416353Y-58917122D01*
X88284360Y-58862449D01*
X88097693Y-58785129D01*
X87810905Y-58593503D01*
X87567010Y-58349608D01*
X87375384Y-58062820D01*
X87288413Y-57852853D01*
X87243391Y-57744160D01*
X87176101Y-57405870D01*
X87176101Y-57060954D01*
X87176102Y-57060950D01*
X87243391Y-56722665D01*
X87243392Y-56722663D01*
X87325238Y-56525069D01*
X87375384Y-56404004D01*
X87567010Y-56117216D01*
X87810905Y-55873321D01*
X88097693Y-55681695D01*
X88324768Y-55587638D01*
X88416353Y-55549702D01*
X88529116Y-55527272D01*
X88754641Y-55482412D01*
X89099561Y-55482412D01*
X89325086Y-55527272D01*
X89325086Y-55527272D01*
G37*
G36*
X197220884Y-55527270D02*
G01*
X197333647Y-55549700D01*
X197425232Y-55587636D01*
X197652307Y-55681693D01*
X197939095Y-55873319D01*
X198182990Y-56117214D01*
X198374616Y-56404002D01*
X198424763Y-56525069D01*
X198506609Y-56722662D01*
X198512932Y-56754452D01*
X198573899Y-57060950D01*
X198573899Y-57405870D01*
X198549962Y-57526206D01*
X198506609Y-57744158D01*
X198506608Y-57744160D01*
X198374616Y-58062818D01*
X198182990Y-58349606D01*
X197939095Y-58593501D01*
X197652307Y-58785127D01*
X197491558Y-58851711D01*
X197333647Y-58917120D01*
X197220884Y-58939550D01*
X196995359Y-58984410D01*
X196650439Y-58984410D01*
X196424914Y-58939550D01*
X196312151Y-58917120D01*
X196154240Y-58851711D01*
X195993491Y-58785127D01*
X195706703Y-58593501D01*
X195462808Y-58349606D01*
X195271182Y-58062818D01*
X195139190Y-57744160D01*
X195139189Y-57744158D01*
X195095836Y-57526206D01*
X195071899Y-57405870D01*
X195071899Y-57060950D01*
X195132866Y-56754452D01*
X195139189Y-56722662D01*
X195221035Y-56525069D01*
X195271182Y-56404002D01*
X195462808Y-56117214D01*
X195706703Y-55873319D01*
X195993491Y-55681693D01*
X196220566Y-55587636D01*
X196312151Y-55549700D01*
X196424914Y-55527270D01*
X196650439Y-55482410D01*
X196995359Y-55482410D01*
X197220884Y-55527270D01*
X197220884Y-55527270D01*
G37*
G36*
X210117910Y-56052151D02*
G01*
X210285455Y-56085477D01*
X210449427Y-56153397D01*
X210596997Y-56252000D01*
X210722496Y-56377499D01*
X210821099Y-56525069D01*
X210889019Y-56689041D01*
X210923643Y-56863112D01*
X210923643Y-57040594D01*
X210889019Y-57214665D01*
X210821099Y-57378637D01*
X210722496Y-57526207D01*
X210596997Y-57651706D01*
X210449427Y-57750309D01*
X210285455Y-57818229D01*
X210136155Y-57847926D01*
X210111385Y-57852853D01*
X209933901Y-57852853D01*
X209909131Y-57847926D01*
X209759831Y-57818229D01*
X209595859Y-57750309D01*
X209448289Y-57651706D01*
X209322790Y-57526207D01*
X209224187Y-57378637D01*
X209156267Y-57214665D01*
X209121643Y-57040594D01*
X209121643Y-56863112D01*
X209156267Y-56689041D01*
X209224187Y-56525069D01*
X209322790Y-56377499D01*
X209448289Y-56252000D01*
X209595859Y-56153397D01*
X209759831Y-56085477D01*
X209927376Y-56052151D01*
X209933901Y-56050853D01*
X210111385Y-56050853D01*
X210117910Y-56052151D01*
X210117910Y-56052151D01*
G37*
G36*
X75822622Y-56052151D02*
G01*
X75990167Y-56085477D01*
X76154139Y-56153397D01*
X76301709Y-56252000D01*
X76427208Y-56377499D01*
X76525811Y-56525069D01*
X76593731Y-56689041D01*
X76628355Y-56863112D01*
X76628355Y-57040594D01*
X76593731Y-57214665D01*
X76525811Y-57378637D01*
X76427208Y-57526207D01*
X76301709Y-57651706D01*
X76154139Y-57750309D01*
X75990167Y-57818229D01*
X75840867Y-57847926D01*
X75816097Y-57852853D01*
X75638613Y-57852853D01*
X75613843Y-57847926D01*
X75464543Y-57818229D01*
X75300571Y-57750309D01*
X75153001Y-57651706D01*
X75027502Y-57526207D01*
X74928899Y-57378637D01*
X74860979Y-57214665D01*
X74826355Y-57040594D01*
X74826355Y-56863112D01*
X74860979Y-56689041D01*
X74928899Y-56525069D01*
X75027502Y-56377499D01*
X75153001Y-56252000D01*
X75300571Y-56153397D01*
X75464543Y-56085477D01*
X75632088Y-56052151D01*
X75638613Y-56050853D01*
X75816097Y-56050853D01*
X75822622Y-56052151D01*
X75822622Y-56052151D01*
G37*
G36*
X70957031Y-53364602D02*
G01*
X71069794Y-53387032D01*
X71146532Y-53418818D01*
X71388454Y-53519025D01*
X71675242Y-53710651D01*
X71919137Y-53954546D01*
X72110763Y-54241334D01*
X72121875Y-54268161D01*
X72228828Y-54526368D01*
X72242756Y-54559995D01*
X72310046Y-54898282D01*
X72310046Y-55243202D01*
X72286110Y-55363533D01*
X72242756Y-55581490D01*
X72228829Y-55615112D01*
X72110763Y-55900150D01*
X71919137Y-56186938D01*
X71675242Y-56430833D01*
X71388454Y-56622459D01*
X71201787Y-56699779D01*
X71069794Y-56754452D01*
X70957031Y-56776882D01*
X70731506Y-56821742D01*
X70386586Y-56821742D01*
X70161061Y-56776882D01*
X70048298Y-56754452D01*
X69916305Y-56699779D01*
X69729638Y-56622459D01*
X69442850Y-56430833D01*
X69198955Y-56186938D01*
X69007329Y-55900150D01*
X68889263Y-55615112D01*
X68875336Y-55581490D01*
X68831982Y-55363533D01*
X68808046Y-55243202D01*
X68808046Y-54898282D01*
X68875336Y-54559995D01*
X68889265Y-54526368D01*
X68996217Y-54268161D01*
X69007329Y-54241334D01*
X69198955Y-53954546D01*
X69442850Y-53710651D01*
X69729638Y-53519025D01*
X69971560Y-53418818D01*
X70048298Y-53387032D01*
X70161061Y-53364602D01*
X70386586Y-53319742D01*
X70731506Y-53319742D01*
X70957031Y-53364602D01*
X70957031Y-53364602D01*
G37*
G36*
X215588937Y-53364602D02*
G01*
X215701700Y-53387032D01*
X215778438Y-53418818D01*
X216020360Y-53519025D01*
X216307148Y-53710651D01*
X216551043Y-53954546D01*
X216742669Y-54241334D01*
X216753781Y-54268161D01*
X216860734Y-54526368D01*
X216874662Y-54559995D01*
X216941952Y-54898282D01*
X216941952Y-55243202D01*
X216918016Y-55363533D01*
X216874662Y-55581490D01*
X216860735Y-55615112D01*
X216742669Y-55900150D01*
X216551043Y-56186938D01*
X216307148Y-56430833D01*
X216020360Y-56622459D01*
X215833693Y-56699779D01*
X215701700Y-56754452D01*
X215588937Y-56776882D01*
X215363412Y-56821742D01*
X215018492Y-56821742D01*
X214792967Y-56776882D01*
X214680204Y-56754452D01*
X214548211Y-56699779D01*
X214361544Y-56622459D01*
X214074756Y-56430833D01*
X213830861Y-56186938D01*
X213639235Y-55900150D01*
X213521169Y-55615112D01*
X213507242Y-55581490D01*
X213463888Y-55363533D01*
X213439952Y-55243202D01*
X213439952Y-54898282D01*
X213507242Y-54559995D01*
X213521171Y-54526368D01*
X213628123Y-54268161D01*
X213639235Y-54241334D01*
X213830861Y-53954546D01*
X214074756Y-53710651D01*
X214361544Y-53519025D01*
X214603466Y-53418818D01*
X214680204Y-53387032D01*
X214792967Y-53364602D01*
X215018492Y-53319742D01*
X215363412Y-53319742D01*
X215588937Y-53364602D01*
X215588937Y-53364602D01*
G37*
G36*
X83872304Y-54456228D02*
G01*
X84021604Y-54485925D01*
X84185576Y-54553845D01*
X84333146Y-54652448D01*
X84458645Y-54777947D01*
X84557248Y-54925517D01*
X84625168Y-55089489D01*
X84650324Y-55215962D01*
X84659792Y-55263557D01*
X84659792Y-55441042D01*
X84625168Y-55615113D01*
X84557248Y-55779085D01*
X84458645Y-55926655D01*
X84333146Y-56052154D01*
X84185576Y-56150757D01*
X84021604Y-56218677D01*
X83872304Y-56248374D01*
X83847534Y-56253301D01*
X83670050Y-56253301D01*
X83645280Y-56248374D01*
X83495980Y-56218677D01*
X83332008Y-56150757D01*
X83184438Y-56052154D01*
X83058939Y-55926655D01*
X82960336Y-55779085D01*
X82892416Y-55615113D01*
X82857792Y-55441042D01*
X82857792Y-55263560D01*
X82857793Y-55263557D01*
X82867260Y-55215962D01*
X82892416Y-55089489D01*
X82960336Y-54925517D01*
X83058939Y-54777947D01*
X83184438Y-54652448D01*
X83332008Y-54553845D01*
X83495980Y-54485925D01*
X83645280Y-54456228D01*
X83670050Y-54451301D01*
X83847534Y-54451301D01*
X83872304Y-54456228D01*
X83872304Y-54456228D01*
G37*
G36*
X202104720Y-54456226D02*
G01*
X202254020Y-54485923D01*
X202417992Y-54553843D01*
X202565562Y-54652446D01*
X202691061Y-54777945D01*
X202789664Y-54925515D01*
X202857584Y-55089487D01*
X202887281Y-55238787D01*
X202892208Y-55263557D01*
X202892208Y-55441041D01*
X202887281Y-55465811D01*
X202857584Y-55615111D01*
X202789664Y-55779083D01*
X202691061Y-55926653D01*
X202565562Y-56052152D01*
X202417992Y-56150755D01*
X202254020Y-56218675D01*
X202104720Y-56248372D01*
X202079950Y-56253299D01*
X201902466Y-56253299D01*
X201877696Y-56248372D01*
X201728396Y-56218675D01*
X201564424Y-56150755D01*
X201416854Y-56052152D01*
X201291355Y-55926653D01*
X201192752Y-55779083D01*
X201124832Y-55615111D01*
X201095135Y-55465811D01*
X201090208Y-55441041D01*
X201090208Y-55263557D01*
X201095135Y-55238787D01*
X201124832Y-55089487D01*
X201192752Y-54925515D01*
X201291355Y-54777945D01*
X201416854Y-54652446D01*
X201564424Y-54553843D01*
X201728396Y-54485923D01*
X201877696Y-54456226D01*
X201902466Y-54451299D01*
X202079950Y-54451299D01*
X202104720Y-54456226D01*
X202104720Y-54456226D01*
G37*
G36*
X228485976Y-53889483D02*
G01*
X228653506Y-53922806D01*
X228817478Y-53990726D01*
X228965048Y-54089329D01*
X229090547Y-54214828D01*
X229189150Y-54362398D01*
X229257070Y-54526370D01*
X229282148Y-54652448D01*
X229291694Y-54700438D01*
X229291694Y-54877923D01*
X229257070Y-55051994D01*
X229189150Y-55215966D01*
X229090547Y-55363536D01*
X228965048Y-55489035D01*
X228817478Y-55587638D01*
X228653506Y-55655558D01*
X228504206Y-55685255D01*
X228479436Y-55690182D01*
X228301952Y-55690182D01*
X228277182Y-55685255D01*
X228127882Y-55655558D01*
X227963910Y-55587638D01*
X227816340Y-55489035D01*
X227690841Y-55363536D01*
X227592238Y-55215966D01*
X227524318Y-55051994D01*
X227489694Y-54877923D01*
X227489694Y-54700441D01*
X227489695Y-54700438D01*
X227499240Y-54652448D01*
X227524318Y-54526370D01*
X227592238Y-54362398D01*
X227690841Y-54214828D01*
X227816340Y-54089329D01*
X227963910Y-53990726D01*
X228127882Y-53922806D01*
X228295412Y-53889483D01*
X228301952Y-53888182D01*
X228479436Y-53888182D01*
X228485976Y-53889483D01*
X228485976Y-53889483D01*
G37*
G36*
X57472815Y-53893107D02*
G01*
X57622115Y-53922804D01*
X57786087Y-53990724D01*
X57933657Y-54089327D01*
X58059156Y-54214826D01*
X58157759Y-54362396D01*
X58225679Y-54526368D01*
X58255376Y-54675668D01*
X58260303Y-54700438D01*
X58260303Y-54877922D01*
X58256253Y-54898282D01*
X58225679Y-55051992D01*
X58157759Y-55215964D01*
X58059156Y-55363534D01*
X57933657Y-55489033D01*
X57786087Y-55587636D01*
X57622115Y-55655556D01*
X57472815Y-55685253D01*
X57448045Y-55690180D01*
X57270561Y-55690180D01*
X57245791Y-55685253D01*
X57096491Y-55655556D01*
X56932519Y-55587636D01*
X56784949Y-55489033D01*
X56659450Y-55363534D01*
X56560847Y-55215964D01*
X56492927Y-55051992D01*
X56462353Y-54898282D01*
X56458303Y-54877922D01*
X56458303Y-54700438D01*
X56463230Y-54675668D01*
X56492927Y-54526368D01*
X56560847Y-54362396D01*
X56659450Y-54214826D01*
X56784949Y-54089327D01*
X56932519Y-53990724D01*
X57096491Y-53922804D01*
X57245791Y-53893107D01*
X57270561Y-53888180D01*
X57448045Y-53888180D01*
X57472815Y-53893107D01*
X57472815Y-53893107D01*
G37*
G36*
X233956988Y-51201931D02*
G01*
X234069751Y-51224361D01*
X234201744Y-51279034D01*
X234388411Y-51356354D01*
X234675199Y-51547980D01*
X234919094Y-51791875D01*
X235110720Y-52078663D01*
X235188040Y-52265330D01*
X235242713Y-52397322D01*
X235242713Y-52397324D01*
X235310003Y-52735611D01*
X235310003Y-53080531D01*
X235305953Y-53100890D01*
X235242714Y-53418816D01*
X235242713Y-53418818D01*
X235110720Y-53737479D01*
X234919094Y-54024267D01*
X234675199Y-54268162D01*
X234388411Y-54459788D01*
X234201744Y-54537108D01*
X234069751Y-54591781D01*
X233956988Y-54614211D01*
X233731463Y-54659071D01*
X233386543Y-54659071D01*
X233161018Y-54614211D01*
X233048255Y-54591781D01*
X232916262Y-54537108D01*
X232729595Y-54459788D01*
X232442807Y-54268162D01*
X232198912Y-54024267D01*
X232007286Y-53737479D01*
X231875293Y-53418818D01*
X231875293Y-53418816D01*
X231812053Y-53100890D01*
X231808003Y-53080531D01*
X231808003Y-52735611D01*
X231875293Y-52397324D01*
X231875294Y-52397322D01*
X231929966Y-52265330D01*
X232007286Y-52078663D01*
X232198912Y-51791875D01*
X232442807Y-51547980D01*
X232729595Y-51356354D01*
X232916262Y-51279034D01*
X233048255Y-51224361D01*
X233161018Y-51201931D01*
X233386543Y-51157071D01*
X233731463Y-51157071D01*
X233956988Y-51201931D01*
X233956988Y-51201931D01*
G37*
G36*
X52588979Y-51201929D02*
G01*
X52701742Y-51224359D01*
X52833735Y-51279032D01*
X53020402Y-51356352D01*
X53307190Y-51547978D01*
X53551085Y-51791873D01*
X53742711Y-52078661D01*
X53820031Y-52265328D01*
X53874704Y-52397321D01*
X53893095Y-52489778D01*
X53941994Y-52735609D01*
X53941994Y-53080529D01*
X53937944Y-53100889D01*
X53874704Y-53418817D01*
X53833196Y-53519025D01*
X53742711Y-53737477D01*
X53551085Y-54024265D01*
X53307190Y-54268160D01*
X53020402Y-54459786D01*
X52859653Y-54526370D01*
X52701742Y-54591779D01*
X52588979Y-54614209D01*
X52363454Y-54659069D01*
X52018534Y-54659069D01*
X51793009Y-54614209D01*
X51680246Y-54591779D01*
X51522335Y-54526370D01*
X51361586Y-54459786D01*
X51074798Y-54268160D01*
X50830903Y-54024265D01*
X50639277Y-53737477D01*
X50548792Y-53519025D01*
X50507284Y-53418817D01*
X50444044Y-53100889D01*
X50439994Y-53080529D01*
X50439994Y-52735609D01*
X50488893Y-52489778D01*
X50507284Y-52397321D01*
X50561957Y-52265328D01*
X50639277Y-52078661D01*
X50830903Y-51791873D01*
X51074798Y-51547978D01*
X51361586Y-51356352D01*
X51548253Y-51279032D01*
X51680246Y-51224359D01*
X51793009Y-51201929D01*
X52018534Y-51157069D01*
X52363454Y-51157069D01*
X52588979Y-51201929D01*
X52588979Y-51201929D01*
G37*
G36*
X65504249Y-52293558D02*
G01*
X65653549Y-52323255D01*
X65817521Y-52391175D01*
X65965091Y-52489778D01*
X66090590Y-52615277D01*
X66189193Y-52762847D01*
X66257113Y-52926819D01*
X66291737Y-53100890D01*
X66291737Y-53278372D01*
X66257113Y-53452443D01*
X66189193Y-53616415D01*
X66090590Y-53763985D01*
X65965091Y-53889484D01*
X65817521Y-53988087D01*
X65653549Y-54056007D01*
X65504249Y-54085704D01*
X65479479Y-54090631D01*
X65301995Y-54090631D01*
X65277225Y-54085704D01*
X65127925Y-54056007D01*
X64963953Y-53988087D01*
X64816383Y-53889484D01*
X64690884Y-53763985D01*
X64592281Y-53616415D01*
X64524361Y-53452443D01*
X64489737Y-53278372D01*
X64489737Y-53100890D01*
X64524361Y-52926819D01*
X64592281Y-52762847D01*
X64690884Y-52615277D01*
X64816383Y-52489778D01*
X64963953Y-52391175D01*
X65127925Y-52323255D01*
X65277225Y-52293558D01*
X65301995Y-52288631D01*
X65479479Y-52288631D01*
X65504249Y-52293558D01*
X65504249Y-52293558D01*
G37*
G36*
X220472773Y-52293558D02*
G01*
X220622073Y-52323255D01*
X220786045Y-52391175D01*
X220933615Y-52489778D01*
X221059114Y-52615277D01*
X221157717Y-52762847D01*
X221225637Y-52926819D01*
X221260261Y-53100890D01*
X221260261Y-53278372D01*
X221225637Y-53452443D01*
X221157717Y-53616415D01*
X221059114Y-53763985D01*
X220933615Y-53889484D01*
X220786045Y-53988087D01*
X220622073Y-54056007D01*
X220472773Y-54085704D01*
X220448003Y-54090631D01*
X220270519Y-54090631D01*
X220245749Y-54085704D01*
X220096449Y-54056007D01*
X219932477Y-53988087D01*
X219784907Y-53889484D01*
X219659408Y-53763985D01*
X219560805Y-53616415D01*
X219492885Y-53452443D01*
X219458261Y-53278372D01*
X219458261Y-53100890D01*
X219492885Y-52926819D01*
X219560805Y-52762847D01*
X219659408Y-52615277D01*
X219784907Y-52489778D01*
X219932477Y-52391175D01*
X220096449Y-52323255D01*
X220245749Y-52293558D01*
X220270519Y-52288631D01*
X220448003Y-52288631D01*
X220472773Y-52293558D01*
X220472773Y-52293558D01*
G37*
G36*
X238840824Y-50130887D02*
G01*
X238990124Y-50160584D01*
X239154096Y-50228504D01*
X239301666Y-50327107D01*
X239427165Y-50452606D01*
X239525768Y-50600176D01*
X239593688Y-50764148D01*
X239623385Y-50913448D01*
X239628312Y-50938216D01*
X239628312Y-51115701D01*
X239593688Y-51289772D01*
X239525768Y-51453744D01*
X239427165Y-51601314D01*
X239301666Y-51726813D01*
X239154096Y-51825416D01*
X238990124Y-51893336D01*
X238840824Y-51923033D01*
X238816054Y-51927960D01*
X238638570Y-51927960D01*
X238613800Y-51923033D01*
X238464500Y-51893336D01*
X238300528Y-51825416D01*
X238152958Y-51726813D01*
X238027459Y-51601314D01*
X237928856Y-51453744D01*
X237860936Y-51289772D01*
X237826312Y-51115701D01*
X237826312Y-50938219D01*
X237826313Y-50938216D01*
X237831239Y-50913448D01*
X237860936Y-50764148D01*
X237928856Y-50600176D01*
X238027459Y-50452606D01*
X238152958Y-50327107D01*
X238300528Y-50228504D01*
X238464500Y-50160584D01*
X238613800Y-50130887D01*
X238638570Y-50125960D01*
X238816054Y-50125960D01*
X238840824Y-50130887D01*
X238840824Y-50130887D01*
G37*
G36*
X47136197Y-50130885D02*
G01*
X47285497Y-50160582D01*
X47449469Y-50228502D01*
X47597039Y-50327105D01*
X47722538Y-50452604D01*
X47821141Y-50600174D01*
X47889061Y-50764146D01*
X47918758Y-50913446D01*
X47923685Y-50938216D01*
X47923685Y-51115700D01*
X47918758Y-51140470D01*
X47889061Y-51289770D01*
X47821141Y-51453742D01*
X47722538Y-51601312D01*
X47597039Y-51726811D01*
X47449469Y-51825414D01*
X47285497Y-51893334D01*
X47136197Y-51923031D01*
X47111427Y-51927958D01*
X46933943Y-51927958D01*
X46909173Y-51923031D01*
X46759873Y-51893334D01*
X46595901Y-51825414D01*
X46448331Y-51726811D01*
X46322832Y-51601312D01*
X46224229Y-51453742D01*
X46156309Y-51289770D01*
X46126612Y-51140470D01*
X46121685Y-51115700D01*
X46121685Y-50938216D01*
X46126612Y-50913446D01*
X46156309Y-50764146D01*
X46224229Y-50600174D01*
X46322832Y-50452604D01*
X46448331Y-50327105D01*
X46595901Y-50228502D01*
X46759873Y-50160582D01*
X46909173Y-50130885D01*
X46933943Y-50125958D01*
X47111427Y-50125958D01*
X47136197Y-50130885D01*
X47136197Y-50130885D01*
G37*
M02*
