M48
; DRILL file {KiCad (5.1.4)-1} date 2/14/2021 5:08:49 PM
; FORMAT={-:-/ absolute / inch / decimal}
; #@! TF.CreationDate,2021-02-14T17:08:49-07:00
; #@! TF.GenerationSoftware,Kicad,Pcbnew,(5.1.4)-1
; #@! TF.FileFunction,Plated,1,2,PTH
FMAT,2
INCH
T1C0.0430
T2C0.0472
%
G90
G05
T1
X5.325Y-3.0539
X5.325Y-3.1539
X5.325Y-3.2539
X5.325Y-3.3539
X5.325Y-3.4539
X5.325Y-3.5539
X5.325Y-3.6539
X5.325Y-3.7539
X5.325Y-3.8539
X5.325Y-3.9539
X5.325Y-4.0539
X5.325Y-4.1539
X5.925Y-3.0539
X5.925Y-3.1539
X5.925Y-3.2539
X5.925Y-3.3539
X5.925Y-3.4539
X5.925Y-3.5539
X5.925Y-3.6539
X5.925Y-3.7539
X5.925Y-3.8539
X5.925Y-3.9539
X5.925Y-4.0539
X5.925Y-4.1539
T2
X4.2534Y-3.7547
X4.4101Y-3.8997
X8.0729Y-3.7191
X8.2862Y-3.7294
X2.5418Y-2.2414
X2.6985Y-2.3864
X2.3129Y-2.8703
X2.4696Y-3.0153
X7.0064Y-2.8608
X7.2197Y-2.8712
X3.6447Y-3.3551
X3.8014Y-3.5001
X3.8736Y-2.7261
X4.0303Y-2.8712
X6.6266Y-3.8893
X6.8399Y-3.8997
X7.844Y-3.0901
X8.0573Y-3.1005
X2.0839Y-3.4993
X2.2406Y-3.6443
X3.2649Y-2.3265
X3.4216Y-2.4716
X9.5192Y-3.5488
X9.7325Y-3.5591
X7.2353Y-3.4897
X7.4486Y-3.5001
X6.3977Y-3.2604
X6.611Y-3.2708
X1.5897Y-2.7852
X1.7464Y-2.9302
X9.0614Y-2.2909
X9.2747Y-2.3013
X3.4158Y-3.984
X3.5725Y-4.129
X6.8556Y-4.5183
X7.0688Y-4.5286
X4.9044Y-5.2666
X5.0943Y-5.169
X4.0245Y-4.3836
X4.1812Y-4.5286
X1.8186Y-2.1563
X1.9753Y-2.3013
X8.7961Y-3.6339
X9.0094Y-3.6443
X9.2903Y-2.9198
X9.5036Y-2.9302
X4.4823Y-3.1258
X4.639Y-3.2708
X3.036Y-2.9555
X3.1927Y-3.1005
X7.6151Y-2.4612
X7.8284Y-2.4716
X8.3383Y-2.3761
X8.5515Y-2.3864
X8.5672Y-3.005
X8.7804Y-3.0153
X7.4642Y-4.1187
X7.6775Y-4.129
X2.8071Y-3.5844
X2.9638Y-3.7294
X6.0925Y-4.9651
X6.1557Y-5.169
X1.3608Y-3.4141
X1.5175Y-3.5591
T0
M30
