G04 #@! TF.GenerationSoftware,KiCad,Pcbnew,(5.1.4)-1*
G04 #@! TF.CreationDate,2021-02-14T17:08:46-07:00*
G04 #@! TF.ProjectId,ONI-Kyan Shakotan,4f4e492d-4b79-4616-9e20-5368616b6f74,rev?*
G04 #@! TF.SameCoordinates,Original*
G04 #@! TF.FileFunction,Profile,NP*
%FSLAX46Y46*%
G04 Gerber Fmt 4.6, Leading zero omitted, Abs format (unit mm)*
G04 Created by KiCad (PCBNEW (5.1.4)-1) date 2021-02-14 17:08:46*
%MOMM*%
%LPD*%
G04 APERTURE LIST*
%ADD10C,0.050000*%
G04 APERTURE END LIST*
D10*
X125601290Y-139858095D02*
X160148711Y-139858095D01*
X96991290Y-114018096D02*
G75*
G03X97221290Y-114708094I609999J-179999D01*
G01*
X97221289Y-114708095D02*
X125601290Y-139858095D01*
X97967341Y-111338277D02*
X96991289Y-114018095D01*
X188758710Y-114018096D02*
G75*
G02X188528710Y-114708094I-609999J-179999D01*
G01*
X188528711Y-114708095D02*
X160148711Y-139858095D01*
X97369667Y-110056563D02*
G75*
G02X97967339Y-111338275I-342020J-939692D01*
G01*
X97369668Y-110056564D02*
X82334587Y-104584241D01*
X187782660Y-111338276D02*
G75*
G02X188380334Y-110056566I939692J342018D01*
G01*
X187782660Y-111338277D02*
X188758711Y-114018095D01*
X203415413Y-104584242D02*
X188380334Y-110056566D01*
X115238494Y-66809980D02*
G75*
G02X114640819Y-65528263I342021J939696D01*
G01*
X114812692Y-62132238D02*
G75*
G02X115410368Y-63413952I-342019J-939695D01*
G01*
X99777616Y-56659915D02*
G75*
G02X99179941Y-55378206I342017J939692D01*
G01*
X99351811Y-51982185D02*
G75*
G02X99949485Y-53263895I-342018J-939692D01*
G01*
X83035018Y-47107538D02*
G75*
G02X84316729Y-46509861I939694J-342017D01*
G01*
X82265475Y-49221842D02*
G75*
G02X80983759Y-49819516I-939695J342021D01*
G01*
X64666965Y-44944864D02*
G75*
G02X65948680Y-44347193I939693J-342022D01*
G01*
X63897419Y-47059178D02*
G75*
G02X62615705Y-47656844I-939690J342024D01*
G01*
X46298910Y-42782195D02*
G75*
G02X47580626Y-42184523I939694J-342022D01*
G01*
X30137595Y-90108847D02*
G75*
G02X29539925Y-88827133I342022J939692D01*
G01*
X46454393Y-94983497D02*
G75*
G02X45172681Y-95581169I-939692J342020D01*
G01*
X47223937Y-92869187D02*
G75*
G02X48505652Y-92271514I939694J-342021D01*
G01*
X64822445Y-97146164D02*
G75*
G02X63540734Y-97743839I-939693J342018D01*
G01*
X65591992Y-95031856D02*
G75*
G02X66873704Y-94434184I939692J-342020D01*
G01*
X81908786Y-99906506D02*
G75*
G02X82506459Y-101188219I-342020J-939693D01*
G01*
X82334592Y-104584241D02*
G75*
G02X81736913Y-103302530I342016J939695D01*
G01*
X171109181Y-65528259D02*
G75*
G02X170511505Y-66809975I-939696J-342020D01*
G01*
X170339636Y-63413954D02*
G75*
G02X170937305Y-62132241I939691J342022D01*
G01*
X186570058Y-55378206D02*
G75*
G02X185972387Y-56659917I-939691J-342020D01*
G01*
X185800510Y-53263897D02*
G75*
G02X186398186Y-51982181I939696J342020D01*
G01*
X201433268Y-46509861D02*
G75*
G02X202714981Y-47107534I342020J-939693D01*
G01*
X204766244Y-49819514D02*
G75*
G02X203484528Y-49221846I-342024J939692D01*
G01*
X219801325Y-44347193D02*
G75*
G02X221083035Y-44944867I342018J-939692D01*
G01*
X223134292Y-47656844D02*
G75*
G02X221852581Y-47059175I-342021J939690D01*
G01*
X238169377Y-42184525D02*
G75*
G02X239451088Y-42782197I342019J-939692D01*
G01*
X256210076Y-88827129D02*
G75*
G02X255612403Y-90108848I-939696J-342023D01*
G01*
X240577321Y-95581172D02*
G75*
G02X239295607Y-94983498I-342020J939694D01*
G01*
X237244347Y-92271514D02*
G75*
G02X238526062Y-92869187I342021J-939694D01*
G01*
X222209270Y-97743840D02*
G75*
G02X220927554Y-97146168I-342022J939694D01*
G01*
X218876295Y-94434187D02*
G75*
G02X220158008Y-95031858I342021J-939692D01*
G01*
X203243540Y-101188221D02*
G75*
G02X203841215Y-99906508I939694J342019D01*
G01*
X204013093Y-103302530D02*
G75*
G02X203415413Y-104584242I-939696J-342016D01*
G01*
X154536732Y-72624316D02*
X131213269Y-72624316D01*
X203243541Y-101188221D02*
X204013087Y-103302527D01*
X218876296Y-94434185D02*
X203841215Y-99906508D01*
X220927554Y-97146168D02*
X220158008Y-95031858D01*
X237244349Y-92271515D02*
X222209267Y-97743839D01*
X239295607Y-94983498D02*
X238526062Y-92869187D01*
X255612403Y-90108848D02*
X240577321Y-95581169D01*
X239451088Y-42782195D02*
X256210075Y-88827134D01*
X223134294Y-47656847D02*
X238169376Y-42184524D01*
X221083035Y-44944867D02*
X221852581Y-47059175D01*
X204766240Y-49819516D02*
X219801323Y-44347192D01*
X202714981Y-47107534D02*
X203484528Y-49221846D01*
X186398186Y-51982181D02*
X201433268Y-46509863D01*
X186570060Y-55378206D02*
X185800514Y-53263897D01*
X170937305Y-62132241D02*
X185972387Y-56659917D01*
X171109179Y-65528261D02*
X170339634Y-63413954D01*
X154536732Y-72624316D02*
X170511505Y-66809975D01*
X115238495Y-66809977D02*
X131213269Y-72624316D01*
X115410368Y-63413952D02*
X114640819Y-65528263D01*
X99777613Y-56659918D02*
X114812695Y-62132239D01*
X99949485Y-53263895D02*
X99179941Y-55378206D01*
X84316729Y-46509861D02*
X99351814Y-51982184D01*
X82265472Y-49221842D02*
X83035018Y-47107536D01*
X65948680Y-44347193D02*
X80983759Y-49819516D01*
X63897419Y-47059176D02*
X64666965Y-44944869D01*
X47580626Y-42184523D02*
X62615705Y-47656844D01*
X29539925Y-88827133D02*
X46298913Y-42782195D01*
X45172681Y-95581169D02*
X30137598Y-90108847D01*
X47223938Y-92869187D02*
X46454394Y-94983498D01*
X63540734Y-97743839D02*
X48505652Y-92271514D01*
X65591992Y-95031857D02*
X64822447Y-97146164D01*
X81908785Y-99906508D02*
X66873704Y-94434184D01*
X81736913Y-103302530D02*
X82506459Y-101188219D01*
M02*
