M48
; DRILL file {KiCad (5.1.4)-1} date 2/14/2021 5:08:49 PM
; FORMAT={-:-/ absolute / inch / decimal}
; #@! TF.CreationDate,2021-02-14T17:08:49-07:00
; #@! TF.GenerationSoftware,Kicad,Pcbnew,(5.1.4)-1
; #@! TF.FileFunction,NonPlated,1,2,NPTH
FMAT,2
INCH
T1C0.0472
T2C0.0669
T3C0.1339
%
G90
G05
T1
X4.9218Y-4.756
X6.5924Y-5.0708
T2
X8.2686Y-2.2422
X8.6756Y-2.0941
X8.4975Y-2.8711
X8.9045Y-2.723
X7.3946Y-3.9848
X7.8015Y-3.8367
X2.8398Y-3.4371
X3.2467Y-3.5852
X6.1945Y-4.8538
X6.4728Y-5.1856
X1.3935Y-3.2668
X1.8004Y-3.4149
X4.2861Y-3.6074
X4.693Y-3.7555
X8.0033Y-3.5852
X8.4102Y-3.4371
X2.5744Y-2.0941
X2.9814Y-2.2422
X2.3455Y-2.723
X2.7525Y-2.8711
X6.9368Y-2.727
X7.3437Y-2.5788
X3.6774Y-3.2078
X4.0843Y-3.3559
X3.9063Y-2.5788
X4.3132Y-2.727
X6.557Y-3.7555
X6.9639Y-3.6074
X7.7744Y-2.9563
X8.1813Y-2.8082
X2.1166Y-3.3519
X2.5236Y-3.5001
X3.2976Y-2.1792
X3.7045Y-2.3273
X9.4496Y-3.4149
X9.8565Y-3.2668
X7.1657Y-3.3559
X7.5726Y-3.2078
X6.3281Y-3.1266
X6.735Y-2.9784
X1.6224Y-2.6379
X2.0293Y-2.786
X8.9918Y-2.1571
X9.3987Y-2.0089
X3.4485Y-3.8367
X3.8554Y-3.9848
X6.7859Y-4.3844
X7.1928Y-4.2363
X4.7772Y-5.1856
X5.0555Y-4.8538
X4.0572Y-4.2363
X4.4641Y-4.3844
X1.8513Y-2.0089
X2.2582Y-2.1571
X8.7264Y-3.5001
X9.1334Y-3.3519
X9.2207Y-2.786
X9.6276Y-2.6379
X4.515Y-2.9784
X4.9219Y-3.1266
X3.0687Y-2.8082
X3.4756Y-2.9563
X7.5455Y-2.3273
X7.9524Y-2.1792
T3
X9.1952Y-2.083
X3.6519Y-3.9107
X6.9894Y-4.3104
X4.9163Y-5.0197
X4.2606Y-4.3104
X2.0548Y-2.083
X8.9299Y-3.426
X9.4241Y-2.7119
X4.7185Y-3.0525
X3.2722Y-2.8822
X7.7489Y-2.2533
X8.4721Y-2.1681
X8.701Y-2.7971
X7.5981Y-3.9107
X3.0432Y-3.5111
X6.3337Y-5.0197
X1.5969Y-3.3409
X4.4895Y-3.6814
X8.2068Y-3.5111
X2.7779Y-2.1681
X2.549Y-2.7971
X7.1402Y-2.6529
X3.8809Y-3.2818
X4.1098Y-2.6529
X6.7605Y-3.6814
X7.9778Y-2.8822
X2.3201Y-3.426
X3.5011Y-2.2533
X9.6531Y-3.3409
X7.3691Y-3.2818
X6.5315Y-3.0525
X1.8259Y-2.7119
T0
M30
