G04 #@! TF.GenerationSoftware,KiCad,Pcbnew,(5.1.4)-1*
G04 #@! TF.CreationDate,2021-02-14T17:08:46-07:00*
G04 #@! TF.ProjectId,ONI-Kyan Shakotan,4f4e492d-4b79-4616-9e20-5368616b6f74,rev?*
G04 #@! TF.SameCoordinates,Original*
G04 #@! TF.FileFunction,Legend,Bot*
G04 #@! TF.FilePolarity,Positive*
%FSLAX46Y46*%
G04 Gerber Fmt 4.6, Leading zero omitted, Abs format (unit mm)*
G04 Created by KiCad (PCBNEW (5.1.4)-1) date 2021-02-14 17:08:46*
%MOMM*%
%LPD*%
G04 APERTURE LIST*
%ADD10C,0.125000*%
%ADD11C,0.175000*%
%ADD12C,0.381000*%
%ADD13C,0.150000*%
%ADD14C,0.010000*%
%ADD15C,0.120000*%
G04 APERTURE END LIST*
D10*
X149442265Y-131941666D02*
X149308932Y-131941666D01*
X149242265Y-131975000D01*
X149175599Y-132041666D01*
X149142265Y-132175000D01*
X149142265Y-132408333D01*
X149175599Y-132541666D01*
X149242265Y-132608333D01*
X149308932Y-132641666D01*
X149442265Y-132641666D01*
X149508932Y-132608333D01*
X149575599Y-132541666D01*
X149608932Y-132408333D01*
X149608932Y-132175000D01*
X149575599Y-132041666D01*
X149508932Y-131975000D01*
X149442265Y-131941666D01*
X148842265Y-132641666D02*
X148842265Y-131941666D01*
X148442265Y-132641666D01*
X148442265Y-131941666D01*
X148108932Y-132641666D02*
X148108932Y-131941666D01*
X147775599Y-132375000D02*
X147242265Y-132375000D01*
X146908932Y-132641666D02*
X146908932Y-131941666D01*
X146508932Y-132641666D02*
X146808932Y-132241666D01*
X146508932Y-131941666D02*
X146908932Y-132341666D01*
X146275599Y-132175000D02*
X146108932Y-132641666D01*
X145942265Y-132175000D02*
X146108932Y-132641666D01*
X146175599Y-132808333D01*
X146208932Y-132841666D01*
X146275599Y-132875000D01*
X145375599Y-132641666D02*
X145375599Y-132275000D01*
X145408932Y-132208333D01*
X145475599Y-132175000D01*
X145608932Y-132175000D01*
X145675599Y-132208333D01*
X145375599Y-132608333D02*
X145442265Y-132641666D01*
X145608932Y-132641666D01*
X145675599Y-132608333D01*
X145708932Y-132541666D01*
X145708932Y-132475000D01*
X145675599Y-132408333D01*
X145608932Y-132375000D01*
X145442265Y-132375000D01*
X145375599Y-132341666D01*
X145042265Y-132175000D02*
X145042265Y-132641666D01*
X145042265Y-132241666D02*
X145008932Y-132208333D01*
X144942265Y-132175000D01*
X144842265Y-132175000D01*
X144775599Y-132208333D01*
X144742265Y-132275000D01*
X144742265Y-132641666D01*
X143908932Y-132608333D02*
X143808932Y-132641666D01*
X143642265Y-132641666D01*
X143575599Y-132608333D01*
X143542265Y-132575000D01*
X143508932Y-132508333D01*
X143508932Y-132441666D01*
X143542265Y-132375000D01*
X143575599Y-132341666D01*
X143642265Y-132308333D01*
X143775599Y-132275000D01*
X143842265Y-132241666D01*
X143875599Y-132208333D01*
X143908932Y-132141666D01*
X143908932Y-132075000D01*
X143875599Y-132008333D01*
X143842265Y-131975000D01*
X143775599Y-131941666D01*
X143608932Y-131941666D01*
X143508932Y-131975000D01*
X143208932Y-132641666D02*
X143208932Y-131941666D01*
X142908932Y-132641666D02*
X142908932Y-132275000D01*
X142942265Y-132208333D01*
X143008932Y-132175000D01*
X143108932Y-132175000D01*
X143175599Y-132208333D01*
X143208932Y-132241666D01*
X142275599Y-132641666D02*
X142275599Y-132275000D01*
X142308932Y-132208333D01*
X142375599Y-132175000D01*
X142508932Y-132175000D01*
X142575599Y-132208333D01*
X142275599Y-132608333D02*
X142342265Y-132641666D01*
X142508932Y-132641666D01*
X142575599Y-132608333D01*
X142608932Y-132541666D01*
X142608932Y-132475000D01*
X142575599Y-132408333D01*
X142508932Y-132375000D01*
X142342265Y-132375000D01*
X142275599Y-132341666D01*
X141942265Y-132641666D02*
X141942265Y-131941666D01*
X141875599Y-132375000D02*
X141675599Y-132641666D01*
X141675599Y-132175000D02*
X141942265Y-132441666D01*
X141275599Y-132641666D02*
X141342265Y-132608333D01*
X141375599Y-132575000D01*
X141408932Y-132508333D01*
X141408932Y-132308333D01*
X141375599Y-132241666D01*
X141342265Y-132208333D01*
X141275599Y-132175000D01*
X141175599Y-132175000D01*
X141108932Y-132208333D01*
X141075599Y-132241666D01*
X141042265Y-132308333D01*
X141042265Y-132508333D01*
X141075599Y-132575000D01*
X141108932Y-132608333D01*
X141175599Y-132641666D01*
X141275599Y-132641666D01*
X140842265Y-132175000D02*
X140575599Y-132175000D01*
X140742265Y-131941666D02*
X140742265Y-132541666D01*
X140708932Y-132608333D01*
X140642265Y-132641666D01*
X140575599Y-132641666D01*
X140042265Y-132641666D02*
X140042265Y-132275000D01*
X140075599Y-132208333D01*
X140142265Y-132175000D01*
X140275599Y-132175000D01*
X140342265Y-132208333D01*
X140042265Y-132608333D02*
X140108932Y-132641666D01*
X140275599Y-132641666D01*
X140342265Y-132608333D01*
X140375599Y-132541666D01*
X140375599Y-132475000D01*
X140342265Y-132408333D01*
X140275599Y-132375000D01*
X140108932Y-132375000D01*
X140042265Y-132341666D01*
X139708932Y-132175000D02*
X139708932Y-132641666D01*
X139708932Y-132241666D02*
X139675599Y-132208333D01*
X139608932Y-132175000D01*
X139508932Y-132175000D01*
X139442265Y-132208333D01*
X139408932Y-132275000D01*
X139408932Y-132641666D01*
X138542265Y-132641666D02*
X138542265Y-131941666D01*
X138308932Y-132441666D01*
X138075599Y-131941666D01*
X138075599Y-132641666D01*
X137742265Y-132641666D02*
X137742265Y-131941666D01*
X137342265Y-132641666D02*
X137642265Y-132241666D01*
X137342265Y-131941666D02*
X137742265Y-132341666D01*
X137042265Y-132375000D02*
X136508932Y-132375000D01*
X136175599Y-132641666D02*
X136175599Y-131941666D01*
X149692265Y-133816666D02*
X149692265Y-133116666D01*
X149525599Y-133116666D01*
X149425599Y-133150000D01*
X149358932Y-133216666D01*
X149325599Y-133283333D01*
X149292265Y-133416666D01*
X149292265Y-133516666D01*
X149325599Y-133650000D01*
X149358932Y-133716666D01*
X149425599Y-133783333D01*
X149525599Y-133816666D01*
X149692265Y-133816666D01*
X148725599Y-133783333D02*
X148792265Y-133816666D01*
X148925599Y-133816666D01*
X148992265Y-133783333D01*
X149025599Y-133716666D01*
X149025599Y-133450000D01*
X148992265Y-133383333D01*
X148925599Y-133350000D01*
X148792265Y-133350000D01*
X148725599Y-133383333D01*
X148692265Y-133450000D01*
X148692265Y-133516666D01*
X149025599Y-133583333D01*
X148425599Y-133783333D02*
X148358932Y-133816666D01*
X148225599Y-133816666D01*
X148158932Y-133783333D01*
X148125599Y-133716666D01*
X148125599Y-133683333D01*
X148158932Y-133616666D01*
X148225599Y-133583333D01*
X148325599Y-133583333D01*
X148392265Y-133550000D01*
X148425599Y-133483333D01*
X148425599Y-133450000D01*
X148392265Y-133383333D01*
X148325599Y-133350000D01*
X148225599Y-133350000D01*
X148158932Y-133383333D01*
X147825599Y-133816666D02*
X147825599Y-133350000D01*
X147825599Y-133116666D02*
X147858932Y-133150000D01*
X147825599Y-133183333D01*
X147792265Y-133150000D01*
X147825599Y-133116666D01*
X147825599Y-133183333D01*
X147192265Y-133350000D02*
X147192265Y-133916666D01*
X147225599Y-133983333D01*
X147258932Y-134016666D01*
X147325599Y-134050000D01*
X147425599Y-134050000D01*
X147492265Y-134016666D01*
X147192265Y-133783333D02*
X147258932Y-133816666D01*
X147392265Y-133816666D01*
X147458932Y-133783333D01*
X147492265Y-133750000D01*
X147525599Y-133683333D01*
X147525599Y-133483333D01*
X147492265Y-133416666D01*
X147458932Y-133383333D01*
X147392265Y-133350000D01*
X147258932Y-133350000D01*
X147192265Y-133383333D01*
X146858932Y-133350000D02*
X146858932Y-133816666D01*
X146858932Y-133416666D02*
X146825599Y-133383333D01*
X146758932Y-133350000D01*
X146658932Y-133350000D01*
X146592265Y-133383333D01*
X146558932Y-133450000D01*
X146558932Y-133816666D01*
X145958932Y-133783333D02*
X146025599Y-133816666D01*
X146158932Y-133816666D01*
X146225599Y-133783333D01*
X146258932Y-133716666D01*
X146258932Y-133450000D01*
X146225599Y-133383333D01*
X146158932Y-133350000D01*
X146025599Y-133350000D01*
X145958932Y-133383333D01*
X145925599Y-133450000D01*
X145925599Y-133516666D01*
X146258932Y-133583333D01*
X145325599Y-133816666D02*
X145325599Y-133116666D01*
X145325599Y-133783333D02*
X145392265Y-133816666D01*
X145525599Y-133816666D01*
X145592265Y-133783333D01*
X145625599Y-133750000D01*
X145658932Y-133683333D01*
X145658932Y-133483333D01*
X145625599Y-133416666D01*
X145592265Y-133383333D01*
X145525599Y-133350000D01*
X145392265Y-133350000D01*
X145325599Y-133383333D01*
X144458932Y-133816666D02*
X144458932Y-133116666D01*
X144458932Y-133383333D02*
X144392265Y-133350000D01*
X144258932Y-133350000D01*
X144192265Y-133383333D01*
X144158932Y-133416666D01*
X144125599Y-133483333D01*
X144125599Y-133683333D01*
X144158932Y-133750000D01*
X144192265Y-133783333D01*
X144258932Y-133816666D01*
X144392265Y-133816666D01*
X144458932Y-133783333D01*
X143892265Y-133350000D02*
X143725599Y-133816666D01*
X143558932Y-133350000D02*
X143725599Y-133816666D01*
X143792265Y-133983333D01*
X143825599Y-134016666D01*
X143892265Y-134050000D01*
X142858932Y-133350000D02*
X142592265Y-133350000D01*
X142758932Y-133816666D02*
X142758932Y-133216666D01*
X142725599Y-133150000D01*
X142658932Y-133116666D01*
X142592265Y-133116666D01*
X142258932Y-133816666D02*
X142325599Y-133783333D01*
X142358932Y-133750000D01*
X142392265Y-133683333D01*
X142392265Y-133483333D01*
X142358932Y-133416666D01*
X142325599Y-133383333D01*
X142258932Y-133350000D01*
X142158932Y-133350000D01*
X142092265Y-133383333D01*
X142058932Y-133416666D01*
X142025599Y-133483333D01*
X142025599Y-133683333D01*
X142058932Y-133750000D01*
X142092265Y-133783333D01*
X142158932Y-133816666D01*
X142258932Y-133816666D01*
X141725599Y-133816666D02*
X141725599Y-133350000D01*
X141725599Y-133483333D02*
X141692265Y-133416666D01*
X141658932Y-133383333D01*
X141592265Y-133350000D01*
X141525599Y-133350000D01*
X141292265Y-133816666D02*
X141292265Y-133116666D01*
X141292265Y-133383333D02*
X141225599Y-133350000D01*
X141092265Y-133350000D01*
X141025599Y-133383333D01*
X140992265Y-133416666D01*
X140958932Y-133483333D01*
X140958932Y-133683333D01*
X140992265Y-133750000D01*
X141025599Y-133783333D01*
X141092265Y-133816666D01*
X141225599Y-133816666D01*
X141292265Y-133783333D01*
X140658932Y-133816666D02*
X140658932Y-133350000D01*
X140658932Y-133116666D02*
X140692265Y-133150000D01*
X140658932Y-133183333D01*
X140625599Y-133150000D01*
X140658932Y-133116666D01*
X140658932Y-133183333D01*
X140058932Y-133783333D02*
X140125599Y-133816666D01*
X140258932Y-133816666D01*
X140325599Y-133783333D01*
X140358932Y-133716666D01*
X140358932Y-133450000D01*
X140325599Y-133383333D01*
X140258932Y-133350000D01*
X140125599Y-133350000D01*
X140058932Y-133383333D01*
X140025599Y-133450000D01*
X140025599Y-133516666D01*
X140358932Y-133583333D01*
X139725599Y-133816666D02*
X139725599Y-133116666D01*
X139425599Y-133816666D02*
X139425599Y-133450000D01*
X139458932Y-133383333D01*
X139525599Y-133350000D01*
X139625599Y-133350000D01*
X139692265Y-133383333D01*
X139725599Y-133416666D01*
X138792265Y-133350000D02*
X138792265Y-133816666D01*
X139092265Y-133350000D02*
X139092265Y-133716666D01*
X139058932Y-133783333D01*
X138992265Y-133816666D01*
X138892265Y-133816666D01*
X138825599Y-133783333D01*
X138792265Y-133750000D01*
X138458932Y-133350000D02*
X138458932Y-133816666D01*
X138458932Y-133416666D02*
X138425599Y-133383333D01*
X138358932Y-133350000D01*
X138258932Y-133350000D01*
X138192265Y-133383333D01*
X138158932Y-133450000D01*
X138158932Y-133816666D01*
X137525599Y-133816666D02*
X137525599Y-133116666D01*
X137525599Y-133783333D02*
X137592265Y-133816666D01*
X137725599Y-133816666D01*
X137792265Y-133783333D01*
X137825599Y-133750000D01*
X137858932Y-133683333D01*
X137858932Y-133483333D01*
X137825599Y-133416666D01*
X137792265Y-133383333D01*
X137725599Y-133350000D01*
X137592265Y-133350000D01*
X137525599Y-133383333D01*
X137192265Y-133816666D02*
X137192265Y-133350000D01*
X137192265Y-133116666D02*
X137225599Y-133150000D01*
X137192265Y-133183333D01*
X137158932Y-133150000D01*
X137192265Y-133116666D01*
X137192265Y-133183333D01*
X136592265Y-133783333D02*
X136658932Y-133816666D01*
X136792265Y-133816666D01*
X136858932Y-133783333D01*
X136892265Y-133716666D01*
X136892265Y-133450000D01*
X136858932Y-133383333D01*
X136792265Y-133350000D01*
X136658932Y-133350000D01*
X136592265Y-133383333D01*
X136558932Y-133450000D01*
X136558932Y-133516666D01*
X136892265Y-133583333D01*
X144075599Y-134358333D02*
X144042265Y-134325000D01*
X143975599Y-134291666D01*
X143808932Y-134291666D01*
X143742265Y-134325000D01*
X143708932Y-134358333D01*
X143675599Y-134425000D01*
X143675599Y-134491666D01*
X143708932Y-134591666D01*
X144108932Y-134991666D01*
X143675599Y-134991666D01*
X143242265Y-134291666D02*
X143175599Y-134291666D01*
X143108932Y-134325000D01*
X143075599Y-134358333D01*
X143042265Y-134425000D01*
X143008932Y-134558333D01*
X143008932Y-134725000D01*
X143042265Y-134858333D01*
X143075599Y-134925000D01*
X143108932Y-134958333D01*
X143175599Y-134991666D01*
X143242265Y-134991666D01*
X143308932Y-134958333D01*
X143342265Y-134925000D01*
X143375599Y-134858333D01*
X143408932Y-134725000D01*
X143408932Y-134558333D01*
X143375599Y-134425000D01*
X143342265Y-134358333D01*
X143308932Y-134325000D01*
X143242265Y-134291666D01*
X142742265Y-134358333D02*
X142708932Y-134325000D01*
X142642265Y-134291666D01*
X142475599Y-134291666D01*
X142408932Y-134325000D01*
X142375599Y-134358333D01*
X142342265Y-134425000D01*
X142342265Y-134491666D01*
X142375599Y-134591666D01*
X142775599Y-134991666D01*
X142342265Y-134991666D01*
X141675599Y-134991666D02*
X142075599Y-134991666D01*
X141875599Y-134991666D02*
X141875599Y-134291666D01*
X141942265Y-134391666D01*
X142008932Y-134458333D01*
X142075599Y-134491666D01*
D11*
X147494048Y-75136296D02*
X147494048Y-75743439D01*
X147541667Y-75864868D01*
X147636905Y-75945820D01*
X147779762Y-75986296D01*
X147875001Y-75986296D01*
X146541667Y-75986296D02*
X147017858Y-75986296D01*
X147017858Y-75136296D01*
X145636905Y-75905344D02*
X145684524Y-75945820D01*
X145827381Y-75986296D01*
X145922620Y-75986296D01*
X146065477Y-75945820D01*
X146160715Y-75864868D01*
X146208334Y-75783915D01*
X146255953Y-75622011D01*
X146255953Y-75500582D01*
X146208334Y-75338677D01*
X146160715Y-75257725D01*
X146065477Y-75176773D01*
X145922620Y-75136296D01*
X145827381Y-75136296D01*
X145684524Y-75176773D01*
X145636905Y-75217249D01*
X144922620Y-75136296D02*
X144922620Y-75743439D01*
X144970239Y-75864868D01*
X145065477Y-75945820D01*
X145208334Y-75986296D01*
X145303572Y-75986296D01*
X143970239Y-75986296D02*
X144446429Y-75986296D01*
X144446429Y-75136296D01*
X143065477Y-75905344D02*
X143113096Y-75945820D01*
X143255953Y-75986296D01*
X143351191Y-75986296D01*
X143494048Y-75945820D01*
X143589286Y-75864868D01*
X143636905Y-75783915D01*
X143684524Y-75622011D01*
X143684524Y-75500582D01*
X143636905Y-75338677D01*
X143589286Y-75257725D01*
X143494048Y-75176773D01*
X143351191Y-75136296D01*
X143255953Y-75136296D01*
X143113096Y-75176773D01*
X143065477Y-75217249D01*
X142351191Y-75136296D02*
X142351191Y-75743439D01*
X142398810Y-75864868D01*
X142494048Y-75945820D01*
X142636905Y-75986296D01*
X142732143Y-75986296D01*
X141398810Y-75986296D02*
X141875001Y-75986296D01*
X141875001Y-75136296D01*
X140494048Y-75905344D02*
X140541667Y-75945820D01*
X140684524Y-75986296D01*
X140779762Y-75986296D01*
X140922620Y-75945820D01*
X141017858Y-75864868D01*
X141065477Y-75783915D01*
X141113096Y-75622011D01*
X141113096Y-75500582D01*
X141065477Y-75338677D01*
X141017858Y-75257725D01*
X140922620Y-75176773D01*
X140779762Y-75136296D01*
X140684524Y-75136296D01*
X140541667Y-75176773D01*
X140494048Y-75217249D01*
X139779762Y-75136296D02*
X139779762Y-75743439D01*
X139827381Y-75864868D01*
X139922620Y-75945820D01*
X140065477Y-75986296D01*
X140160715Y-75986296D01*
X138827381Y-75986296D02*
X139303572Y-75986296D01*
X139303572Y-75136296D01*
X137922620Y-75905344D02*
X137970239Y-75945820D01*
X138113096Y-75986296D01*
X138208334Y-75986296D01*
X138351191Y-75945820D01*
X138446429Y-75864868D01*
X138494048Y-75783915D01*
X138541667Y-75622011D01*
X138541667Y-75500582D01*
X138494048Y-75338677D01*
X138446429Y-75257725D01*
X138351191Y-75176773D01*
X138208334Y-75136296D01*
X138113096Y-75136296D01*
X137970239Y-75176773D01*
X137922620Y-75217249D01*
D12*
X136525000Y-78839272D02*
X133985000Y-78839272D01*
X136525000Y-76299272D02*
X136525000Y-78839272D01*
D13*
G36*
X148919635Y-82588302D02*
G01*
X148919635Y-82688302D01*
X149019635Y-82688302D01*
X149019635Y-82588302D01*
X148919635Y-82588302D01*
G37*
X148919635Y-82588302D02*
X148919635Y-82688302D01*
X149019635Y-82688302D01*
X149019635Y-82588302D01*
X148919635Y-82588302D01*
G36*
X149119635Y-82188302D02*
G01*
X149119635Y-82988302D01*
X149219635Y-82988302D01*
X149219635Y-82188302D01*
X149119635Y-82188302D01*
G37*
X149119635Y-82188302D02*
X149119635Y-82988302D01*
X149219635Y-82988302D01*
X149219635Y-82188302D01*
X149119635Y-82188302D01*
G36*
X148719635Y-82788302D02*
G01*
X148719635Y-82988302D01*
X148819635Y-82988302D01*
X148819635Y-82788302D01*
X148719635Y-82788302D01*
G37*
X148719635Y-82788302D02*
X148719635Y-82988302D01*
X148819635Y-82988302D01*
X148819635Y-82788302D01*
X148719635Y-82788302D01*
G36*
X148719635Y-82188302D02*
G01*
X148719635Y-82488302D01*
X148819635Y-82488302D01*
X148819635Y-82188302D01*
X148719635Y-82188302D01*
G37*
X148719635Y-82188302D02*
X148719635Y-82488302D01*
X148819635Y-82488302D01*
X148819635Y-82188302D01*
X148719635Y-82188302D01*
G36*
X148719635Y-82188302D02*
G01*
X148719635Y-82288302D01*
X149219635Y-82288302D01*
X149219635Y-82188302D01*
X148719635Y-82188302D01*
G37*
X148719635Y-82188302D02*
X148719635Y-82288302D01*
X149219635Y-82288302D01*
X149219635Y-82188302D01*
X148719635Y-82188302D01*
D12*
X151765000Y-106779272D02*
X151765000Y-73759272D01*
X133985000Y-106779272D02*
X151765000Y-106779272D01*
X133985000Y-73759272D02*
X133985000Y-106779272D01*
X151765000Y-73759272D02*
X133985000Y-73759272D01*
X136525000Y-76299272D02*
X133985000Y-76299272D01*
D14*
G36*
X150270601Y-135669959D02*
G01*
X150621744Y-136152061D01*
X150827746Y-136712601D01*
X150882335Y-137215125D01*
X150849325Y-137752588D01*
X150736239Y-138181112D01*
X150526968Y-138548542D01*
X150370239Y-138736291D01*
X150190833Y-138939537D01*
X150070198Y-139092692D01*
X150038000Y-139150760D01*
X150115755Y-139176588D01*
X150321433Y-139195694D01*
X150613656Y-139204556D01*
X150673000Y-139204792D01*
X151308000Y-139204792D01*
X151308000Y-135394792D01*
X150004782Y-135394792D01*
X150270601Y-135669959D01*
X150270601Y-135669959D01*
G37*
X150270601Y-135669959D02*
X150621744Y-136152061D01*
X150827746Y-136712601D01*
X150882335Y-137215125D01*
X150849325Y-137752588D01*
X150736239Y-138181112D01*
X150526968Y-138548542D01*
X150370239Y-138736291D01*
X150190833Y-138939537D01*
X150070198Y-139092692D01*
X150038000Y-139150760D01*
X150115755Y-139176588D01*
X150321433Y-139195694D01*
X150613656Y-139204556D01*
X150673000Y-139204792D01*
X151308000Y-139204792D01*
X151308000Y-135394792D01*
X150004782Y-135394792D01*
X150270601Y-135669959D01*
G36*
X147606372Y-135390245D02*
G01*
X147477177Y-135452837D01*
X147495860Y-135558723D01*
X147499242Y-135564125D01*
X147560958Y-135684320D01*
X147543791Y-135759407D01*
X147423452Y-135799774D01*
X147175647Y-135815811D01*
X146905333Y-135818125D01*
X146228000Y-135818125D01*
X146228000Y-137589754D01*
X147328666Y-137486972D01*
X147328666Y-137880215D01*
X147306219Y-138136605D01*
X147250758Y-138258130D01*
X147180103Y-138234376D01*
X147112074Y-138054930D01*
X147102844Y-138012182D01*
X147031397Y-137814824D01*
X146932609Y-137705635D01*
X146931976Y-137705389D01*
X146795772Y-137690383D01*
X146767413Y-137797224D01*
X146816202Y-137965383D01*
X146861374Y-138124798D01*
X146806516Y-138182229D01*
X146699497Y-138188792D01*
X146553475Y-138160017D01*
X146535342Y-138048302D01*
X146542134Y-138019459D01*
X146545254Y-137877094D01*
X146471428Y-137849202D01*
X146355738Y-137923276D01*
X146233267Y-138086808D01*
X146206168Y-138139223D01*
X146070546Y-138345068D01*
X145916819Y-138474510D01*
X145894153Y-138483595D01*
X145745219Y-138590070D01*
X145747770Y-138755606D01*
X145889333Y-138950792D01*
X146006657Y-139039361D01*
X146168100Y-139091184D01*
X146417546Y-139115111D01*
X146729075Y-139120125D01*
X147137651Y-139118017D01*
X147406270Y-139093748D01*
X147564239Y-139020404D01*
X147640868Y-138871070D01*
X147648883Y-138788877D01*
X147328666Y-138788877D01*
X146715731Y-138764001D01*
X146391774Y-138744764D01*
X146200582Y-138712704D01*
X146105603Y-138657293D01*
X146072144Y-138578605D01*
X146082851Y-138462499D01*
X146166762Y-138466155D01*
X146321702Y-138465762D01*
X146370887Y-138435371D01*
X146505366Y-138407608D01*
X146756920Y-138450676D01*
X146842511Y-138474723D01*
X147080717Y-138539984D01*
X147204405Y-138547382D01*
X147258963Y-138494767D01*
X147272152Y-138454360D01*
X147300277Y-138424389D01*
X147318292Y-138540370D01*
X147318845Y-138552334D01*
X147328666Y-138788877D01*
X147648883Y-138788877D01*
X147665465Y-138618833D01*
X147667333Y-138258511D01*
X147669297Y-137898977D01*
X147680638Y-137677366D01*
X147709532Y-137562272D01*
X147764155Y-137522289D01*
X147852684Y-137526011D01*
X147857833Y-137526737D01*
X147982796Y-137574731D01*
X148053797Y-137703644D01*
X148094551Y-137934792D01*
X148205358Y-138385816D01*
X148425967Y-138724939D01*
X148775973Y-138975365D01*
X149079001Y-139100505D01*
X149272574Y-139149626D01*
X149367862Y-139116655D01*
X149396501Y-139064197D01*
X149434088Y-138946074D01*
X149407139Y-138871289D01*
X149281922Y-138801002D01*
X149105081Y-138728612D01*
X148730148Y-138509162D01*
X148504452Y-138211380D01*
X148429333Y-137838707D01*
X148456244Y-137617861D01*
X148522304Y-137514591D01*
X148605506Y-137548627D01*
X148652715Y-137638459D01*
X148768177Y-137745541D01*
X148861725Y-137765459D01*
X148930712Y-137753028D01*
X148976518Y-137696744D01*
X149003832Y-137568118D01*
X149017344Y-137338663D01*
X149020934Y-137045792D01*
X148683333Y-137045792D01*
X148671245Y-137167018D01*
X148607357Y-137230139D01*
X148450229Y-137253991D01*
X148217666Y-137257459D01*
X147950969Y-137251964D01*
X147812103Y-137222924D01*
X147759629Y-137151502D01*
X147752000Y-137045792D01*
X147413333Y-137045792D01*
X147399608Y-137171414D01*
X147329563Y-137234084D01*
X147159893Y-137255453D01*
X146990000Y-137257459D01*
X146738756Y-137250596D01*
X146613416Y-137215573D01*
X146570677Y-137130739D01*
X146566666Y-137045792D01*
X146580392Y-136920170D01*
X146650437Y-136857500D01*
X146820106Y-136836130D01*
X146990000Y-136834125D01*
X147241244Y-136840988D01*
X147366584Y-136876010D01*
X147409323Y-136960845D01*
X147413333Y-137045792D01*
X147752000Y-137045792D01*
X147764088Y-136924566D01*
X147827976Y-136861445D01*
X147985104Y-136837593D01*
X148217666Y-136834125D01*
X148484364Y-136839620D01*
X148623230Y-136868660D01*
X148675704Y-136940081D01*
X148683333Y-137045792D01*
X149020934Y-137045792D01*
X149021742Y-136979891D01*
X149022000Y-136791792D01*
X149022000Y-136269681D01*
X148683333Y-136269681D01*
X148665084Y-136441111D01*
X148584944Y-136534857D01*
X148404823Y-136573566D01*
X148161222Y-136580125D01*
X147915976Y-136574042D01*
X147795631Y-136537419D01*
X147755780Y-136442692D01*
X147752000Y-136326125D01*
X147413333Y-136326125D01*
X147404084Y-136476487D01*
X147347217Y-136551467D01*
X147199052Y-136577273D01*
X146990000Y-136580125D01*
X146739397Y-136574576D01*
X146614430Y-136540456D01*
X146571420Y-136451557D01*
X146566666Y-136326125D01*
X146575915Y-136175763D01*
X146632782Y-136100783D01*
X146780947Y-136074977D01*
X146990000Y-136072125D01*
X147240603Y-136077674D01*
X147365569Y-136111795D01*
X147408580Y-136200694D01*
X147413333Y-136326125D01*
X147752000Y-136326125D01*
X147759819Y-136180918D01*
X147811064Y-136105338D01*
X147947413Y-136076652D01*
X148210545Y-136072125D01*
X148217666Y-136072125D01*
X148484816Y-136078136D01*
X148623951Y-136107823D01*
X148676274Y-136178666D01*
X148683333Y-136269681D01*
X149022000Y-136269681D01*
X149022000Y-135818125D01*
X148509913Y-135818125D01*
X148222581Y-135812202D01*
X148056205Y-135781983D01*
X147962501Y-135708797D01*
X147896079Y-135580745D01*
X147792261Y-135413648D01*
X147656474Y-135380415D01*
X147606372Y-135390245D01*
X147606372Y-135390245D01*
G37*
X147606372Y-135390245D02*
X147477177Y-135452837D01*
X147495860Y-135558723D01*
X147499242Y-135564125D01*
X147560958Y-135684320D01*
X147543791Y-135759407D01*
X147423452Y-135799774D01*
X147175647Y-135815811D01*
X146905333Y-135818125D01*
X146228000Y-135818125D01*
X146228000Y-137589754D01*
X147328666Y-137486972D01*
X147328666Y-137880215D01*
X147306219Y-138136605D01*
X147250758Y-138258130D01*
X147180103Y-138234376D01*
X147112074Y-138054930D01*
X147102844Y-138012182D01*
X147031397Y-137814824D01*
X146932609Y-137705635D01*
X146931976Y-137705389D01*
X146795772Y-137690383D01*
X146767413Y-137797224D01*
X146816202Y-137965383D01*
X146861374Y-138124798D01*
X146806516Y-138182229D01*
X146699497Y-138188792D01*
X146553475Y-138160017D01*
X146535342Y-138048302D01*
X146542134Y-138019459D01*
X146545254Y-137877094D01*
X146471428Y-137849202D01*
X146355738Y-137923276D01*
X146233267Y-138086808D01*
X146206168Y-138139223D01*
X146070546Y-138345068D01*
X145916819Y-138474510D01*
X145894153Y-138483595D01*
X145745219Y-138590070D01*
X145747770Y-138755606D01*
X145889333Y-138950792D01*
X146006657Y-139039361D01*
X146168100Y-139091184D01*
X146417546Y-139115111D01*
X146729075Y-139120125D01*
X147137651Y-139118017D01*
X147406270Y-139093748D01*
X147564239Y-139020404D01*
X147640868Y-138871070D01*
X147648883Y-138788877D01*
X147328666Y-138788877D01*
X146715731Y-138764001D01*
X146391774Y-138744764D01*
X146200582Y-138712704D01*
X146105603Y-138657293D01*
X146072144Y-138578605D01*
X146082851Y-138462499D01*
X146166762Y-138466155D01*
X146321702Y-138465762D01*
X146370887Y-138435371D01*
X146505366Y-138407608D01*
X146756920Y-138450676D01*
X146842511Y-138474723D01*
X147080717Y-138539984D01*
X147204405Y-138547382D01*
X147258963Y-138494767D01*
X147272152Y-138454360D01*
X147300277Y-138424389D01*
X147318292Y-138540370D01*
X147318845Y-138552334D01*
X147328666Y-138788877D01*
X147648883Y-138788877D01*
X147665465Y-138618833D01*
X147667333Y-138258511D01*
X147669297Y-137898977D01*
X147680638Y-137677366D01*
X147709532Y-137562272D01*
X147764155Y-137522289D01*
X147852684Y-137526011D01*
X147857833Y-137526737D01*
X147982796Y-137574731D01*
X148053797Y-137703644D01*
X148094551Y-137934792D01*
X148205358Y-138385816D01*
X148425967Y-138724939D01*
X148775973Y-138975365D01*
X149079001Y-139100505D01*
X149272574Y-139149626D01*
X149367862Y-139116655D01*
X149396501Y-139064197D01*
X149434088Y-138946074D01*
X149407139Y-138871289D01*
X149281922Y-138801002D01*
X149105081Y-138728612D01*
X148730148Y-138509162D01*
X148504452Y-138211380D01*
X148429333Y-137838707D01*
X148456244Y-137617861D01*
X148522304Y-137514591D01*
X148605506Y-137548627D01*
X148652715Y-137638459D01*
X148768177Y-137745541D01*
X148861725Y-137765459D01*
X148930712Y-137753028D01*
X148976518Y-137696744D01*
X149003832Y-137568118D01*
X149017344Y-137338663D01*
X149020934Y-137045792D01*
X148683333Y-137045792D01*
X148671245Y-137167018D01*
X148607357Y-137230139D01*
X148450229Y-137253991D01*
X148217666Y-137257459D01*
X147950969Y-137251964D01*
X147812103Y-137222924D01*
X147759629Y-137151502D01*
X147752000Y-137045792D01*
X147413333Y-137045792D01*
X147399608Y-137171414D01*
X147329563Y-137234084D01*
X147159893Y-137255453D01*
X146990000Y-137257459D01*
X146738756Y-137250596D01*
X146613416Y-137215573D01*
X146570677Y-137130739D01*
X146566666Y-137045792D01*
X146580392Y-136920170D01*
X146650437Y-136857500D01*
X146820106Y-136836130D01*
X146990000Y-136834125D01*
X147241244Y-136840988D01*
X147366584Y-136876010D01*
X147409323Y-136960845D01*
X147413333Y-137045792D01*
X147752000Y-137045792D01*
X147764088Y-136924566D01*
X147827976Y-136861445D01*
X147985104Y-136837593D01*
X148217666Y-136834125D01*
X148484364Y-136839620D01*
X148623230Y-136868660D01*
X148675704Y-136940081D01*
X148683333Y-137045792D01*
X149020934Y-137045792D01*
X149021742Y-136979891D01*
X149022000Y-136791792D01*
X149022000Y-136269681D01*
X148683333Y-136269681D01*
X148665084Y-136441111D01*
X148584944Y-136534857D01*
X148404823Y-136573566D01*
X148161222Y-136580125D01*
X147915976Y-136574042D01*
X147795631Y-136537419D01*
X147755780Y-136442692D01*
X147752000Y-136326125D01*
X147413333Y-136326125D01*
X147404084Y-136476487D01*
X147347217Y-136551467D01*
X147199052Y-136577273D01*
X146990000Y-136580125D01*
X146739397Y-136574576D01*
X146614430Y-136540456D01*
X146571420Y-136451557D01*
X146566666Y-136326125D01*
X146575915Y-136175763D01*
X146632782Y-136100783D01*
X146780947Y-136074977D01*
X146990000Y-136072125D01*
X147240603Y-136077674D01*
X147365569Y-136111795D01*
X147408580Y-136200694D01*
X147413333Y-136326125D01*
X147752000Y-136326125D01*
X147759819Y-136180918D01*
X147811064Y-136105338D01*
X147947413Y-136076652D01*
X148210545Y-136072125D01*
X148217666Y-136072125D01*
X148484816Y-136078136D01*
X148623951Y-136107823D01*
X148676274Y-136178666D01*
X148683333Y-136269681D01*
X149022000Y-136269681D01*
X149022000Y-135818125D01*
X148509913Y-135818125D01*
X148222581Y-135812202D01*
X148056205Y-135781983D01*
X147962501Y-135708797D01*
X147896079Y-135580745D01*
X147792261Y-135413648D01*
X147656474Y-135380415D01*
X147606372Y-135390245D01*
G36*
X134459333Y-139204792D02*
G01*
X135094333Y-139204792D01*
X135397854Y-139196032D01*
X135622385Y-139172862D01*
X135726557Y-139139941D01*
X135729333Y-139133247D01*
X135672611Y-139029676D01*
X135551225Y-138900517D01*
X135402708Y-138731387D01*
X135228873Y-138486002D01*
X135150130Y-138358833D01*
X135032229Y-138131438D01*
X134964233Y-137910793D01*
X134933257Y-137635949D01*
X134926389Y-137300397D01*
X134957225Y-136773860D01*
X135063419Y-136354570D01*
X135263512Y-135990258D01*
X135486305Y-135721713D01*
X135636421Y-135553837D01*
X135721849Y-135444393D01*
X135729333Y-135428171D01*
X135651570Y-135412215D01*
X135445871Y-135400411D01*
X135153623Y-135394937D01*
X135094333Y-135394792D01*
X134459333Y-135394792D01*
X134459333Y-139204792D01*
X134459333Y-139204792D01*
G37*
X134459333Y-139204792D02*
X135094333Y-139204792D01*
X135397854Y-139196032D01*
X135622385Y-139172862D01*
X135726557Y-139139941D01*
X135729333Y-139133247D01*
X135672611Y-139029676D01*
X135551225Y-138900517D01*
X135402708Y-138731387D01*
X135228873Y-138486002D01*
X135150130Y-138358833D01*
X135032229Y-138131438D01*
X134964233Y-137910793D01*
X134933257Y-137635949D01*
X134926389Y-137300397D01*
X134957225Y-136773860D01*
X135063419Y-136354570D01*
X135263512Y-135990258D01*
X135486305Y-135721713D01*
X135636421Y-135553837D01*
X135721849Y-135444393D01*
X135729333Y-135428171D01*
X135651570Y-135412215D01*
X135445871Y-135400411D01*
X135153623Y-135394937D01*
X135094333Y-135394792D01*
X134459333Y-135394792D01*
X134459333Y-139204792D01*
G36*
X143873008Y-135548937D02*
G01*
X143786610Y-135760893D01*
X143772666Y-135958789D01*
X143765413Y-136072325D01*
X143718036Y-136130511D01*
X143592114Y-136144336D01*
X143349224Y-136124790D01*
X143234670Y-136112655D01*
X142935942Y-136086903D01*
X142763059Y-136094231D01*
X142674670Y-136140902D01*
X142640010Y-136202701D01*
X142605957Y-136294642D01*
X142614421Y-136350682D01*
X142698285Y-136387869D01*
X142890429Y-136423252D01*
X143137666Y-136460723D01*
X143417975Y-136508681D01*
X143567288Y-136558637D01*
X143622738Y-136632734D01*
X143621874Y-136749459D01*
X143581300Y-137055922D01*
X143528813Y-137226269D01*
X143438306Y-137293117D01*
X143283671Y-137289086D01*
X143200900Y-137275444D01*
X142760689Y-137219878D01*
X142453988Y-137230315D01*
X142290477Y-137305935D01*
X142267294Y-137354456D01*
X142284232Y-137438394D01*
X142396858Y-137495492D01*
X142637269Y-137539225D01*
X142736508Y-137551452D01*
X143088025Y-137598459D01*
X143298741Y-137661318D01*
X143396335Y-137772909D01*
X143408481Y-137966110D01*
X143362855Y-138273798D01*
X143359722Y-138291811D01*
X143300437Y-138645198D01*
X143274669Y-138864157D01*
X143285228Y-138980788D01*
X143334925Y-139027188D01*
X143424821Y-139035459D01*
X143575012Y-138960516D01*
X143631754Y-138844959D01*
X143669602Y-138651746D01*
X143714253Y-138370228D01*
X143737602Y-138201703D01*
X143796672Y-137748947D01*
X144271503Y-137813666D01*
X144673431Y-137863547D01*
X144937926Y-137880961D01*
X145094111Y-137863982D01*
X145171108Y-137810683D01*
X145193094Y-137752715D01*
X145176629Y-137673739D01*
X145070927Y-137611534D01*
X144846612Y-137554022D01*
X144602752Y-137509999D01*
X144295704Y-137455981D01*
X144057662Y-137408714D01*
X143934785Y-137377452D01*
X143929721Y-137375073D01*
X143920025Y-137287671D01*
X143938444Y-137101357D01*
X143974383Y-136882066D01*
X144017247Y-136695733D01*
X144052473Y-136611196D01*
X144137378Y-136616161D01*
X144338781Y-136645926D01*
X144525906Y-136678369D01*
X144809708Y-136719400D01*
X144972078Y-136710449D01*
X145053776Y-136649715D01*
X145114722Y-136520767D01*
X145072463Y-136443628D01*
X144900399Y-136392280D01*
X144767500Y-136369716D01*
X144433232Y-136314456D01*
X144235389Y-136259817D01*
X144143145Y-136179939D01*
X144125675Y-136048963D01*
X144150494Y-135852100D01*
X144176820Y-135621043D01*
X144155238Y-135511750D01*
X144072836Y-135480303D01*
X144040913Y-135479458D01*
X143873008Y-135548937D01*
X143873008Y-135548937D01*
G37*
X143873008Y-135548937D02*
X143786610Y-135760893D01*
X143772666Y-135958789D01*
X143765413Y-136072325D01*
X143718036Y-136130511D01*
X143592114Y-136144336D01*
X143349224Y-136124790D01*
X143234670Y-136112655D01*
X142935942Y-136086903D01*
X142763059Y-136094231D01*
X142674670Y-136140902D01*
X142640010Y-136202701D01*
X142605957Y-136294642D01*
X142614421Y-136350682D01*
X142698285Y-136387869D01*
X142890429Y-136423252D01*
X143137666Y-136460723D01*
X143417975Y-136508681D01*
X143567288Y-136558637D01*
X143622738Y-136632734D01*
X143621874Y-136749459D01*
X143581300Y-137055922D01*
X143528813Y-137226269D01*
X143438306Y-137293117D01*
X143283671Y-137289086D01*
X143200900Y-137275444D01*
X142760689Y-137219878D01*
X142453988Y-137230315D01*
X142290477Y-137305935D01*
X142267294Y-137354456D01*
X142284232Y-137438394D01*
X142396858Y-137495492D01*
X142637269Y-137539225D01*
X142736508Y-137551452D01*
X143088025Y-137598459D01*
X143298741Y-137661318D01*
X143396335Y-137772909D01*
X143408481Y-137966110D01*
X143362855Y-138273798D01*
X143359722Y-138291811D01*
X143300437Y-138645198D01*
X143274669Y-138864157D01*
X143285228Y-138980788D01*
X143334925Y-139027188D01*
X143424821Y-139035459D01*
X143575012Y-138960516D01*
X143631754Y-138844959D01*
X143669602Y-138651746D01*
X143714253Y-138370228D01*
X143737602Y-138201703D01*
X143796672Y-137748947D01*
X144271503Y-137813666D01*
X144673431Y-137863547D01*
X144937926Y-137880961D01*
X145094111Y-137863982D01*
X145171108Y-137810683D01*
X145193094Y-137752715D01*
X145176629Y-137673739D01*
X145070927Y-137611534D01*
X144846612Y-137554022D01*
X144602752Y-137509999D01*
X144295704Y-137455981D01*
X144057662Y-137408714D01*
X143934785Y-137377452D01*
X143929721Y-137375073D01*
X143920025Y-137287671D01*
X143938444Y-137101357D01*
X143974383Y-136882066D01*
X144017247Y-136695733D01*
X144052473Y-136611196D01*
X144137378Y-136616161D01*
X144338781Y-136645926D01*
X144525906Y-136678369D01*
X144809708Y-136719400D01*
X144972078Y-136710449D01*
X145053776Y-136649715D01*
X145114722Y-136520767D01*
X145072463Y-136443628D01*
X144900399Y-136392280D01*
X144767500Y-136369716D01*
X144433232Y-136314456D01*
X144235389Y-136259817D01*
X144143145Y-136179939D01*
X144125675Y-136048963D01*
X144150494Y-135852100D01*
X144176820Y-135621043D01*
X144155238Y-135511750D01*
X144072836Y-135480303D01*
X144040913Y-135479458D01*
X143873008Y-135548937D01*
G36*
X141273880Y-136254244D02*
G01*
X141143833Y-136361541D01*
X141026861Y-136618165D01*
X141007841Y-136679766D01*
X140892487Y-137075740D01*
X140322013Y-136912599D01*
X140015353Y-136830372D01*
X139760237Y-136771753D01*
X139612161Y-136749459D01*
X139462227Y-136812568D01*
X139423155Y-136997211D01*
X139495597Y-137296361D01*
X139548907Y-137430282D01*
X139723704Y-137777528D01*
X139879708Y-137965746D01*
X140013596Y-137991423D01*
X140053169Y-137962822D01*
X140067063Y-137830895D01*
X139968027Y-137582299D01*
X139915342Y-137483811D01*
X139793945Y-137254706D01*
X139755553Y-137135415D01*
X139793682Y-137091992D01*
X139839772Y-137088125D01*
X140021803Y-137112190D01*
X140273129Y-137171520D01*
X140525111Y-137246820D01*
X140709110Y-137318793D01*
X140750535Y-137344167D01*
X140759809Y-137445768D01*
X140729928Y-137672673D01*
X140666916Y-137986996D01*
X140611389Y-138218894D01*
X140519094Y-138591031D01*
X140468789Y-138829219D01*
X140458338Y-138962994D01*
X140485605Y-139021890D01*
X140548452Y-139035441D01*
X140552320Y-139035459D01*
X140636390Y-138997508D01*
X140716724Y-138866421D01*
X140805283Y-138616341D01*
X140894981Y-138294625D01*
X140986867Y-137959340D01*
X141068551Y-137687938D01*
X141127409Y-137521268D01*
X141143262Y-137491111D01*
X141253394Y-137469001D01*
X141447629Y-137500388D01*
X141462797Y-137504613D01*
X141661952Y-137540821D01*
X141758686Y-137491998D01*
X141775265Y-137458750D01*
X141739448Y-137350172D01*
X141593004Y-137246194D01*
X141392089Y-137180694D01*
X141301238Y-137172792D01*
X141253916Y-137129959D01*
X141253946Y-136986504D01*
X141303377Y-136719990D01*
X141366856Y-136454622D01*
X141390619Y-136292571D01*
X141332107Y-136247249D01*
X141273880Y-136254244D01*
X141273880Y-136254244D01*
G37*
X141273880Y-136254244D02*
X141143833Y-136361541D01*
X141026861Y-136618165D01*
X141007841Y-136679766D01*
X140892487Y-137075740D01*
X140322013Y-136912599D01*
X140015353Y-136830372D01*
X139760237Y-136771753D01*
X139612161Y-136749459D01*
X139462227Y-136812568D01*
X139423155Y-136997211D01*
X139495597Y-137296361D01*
X139548907Y-137430282D01*
X139723704Y-137777528D01*
X139879708Y-137965746D01*
X140013596Y-137991423D01*
X140053169Y-137962822D01*
X140067063Y-137830895D01*
X139968027Y-137582299D01*
X139915342Y-137483811D01*
X139793945Y-137254706D01*
X139755553Y-137135415D01*
X139793682Y-137091992D01*
X139839772Y-137088125D01*
X140021803Y-137112190D01*
X140273129Y-137171520D01*
X140525111Y-137246820D01*
X140709110Y-137318793D01*
X140750535Y-137344167D01*
X140759809Y-137445768D01*
X140729928Y-137672673D01*
X140666916Y-137986996D01*
X140611389Y-138218894D01*
X140519094Y-138591031D01*
X140468789Y-138829219D01*
X140458338Y-138962994D01*
X140485605Y-139021890D01*
X140548452Y-139035441D01*
X140552320Y-139035459D01*
X140636390Y-138997508D01*
X140716724Y-138866421D01*
X140805283Y-138616341D01*
X140894981Y-138294625D01*
X140986867Y-137959340D01*
X141068551Y-137687938D01*
X141127409Y-137521268D01*
X141143262Y-137491111D01*
X141253394Y-137469001D01*
X141447629Y-137500388D01*
X141462797Y-137504613D01*
X141661952Y-137540821D01*
X141758686Y-137491998D01*
X141775265Y-137458750D01*
X141739448Y-137350172D01*
X141593004Y-137246194D01*
X141392089Y-137180694D01*
X141301238Y-137172792D01*
X141253916Y-137129959D01*
X141253946Y-136986504D01*
X141303377Y-136719990D01*
X141366856Y-136454622D01*
X141390619Y-136292571D01*
X141332107Y-136247249D01*
X141273880Y-136254244D01*
G36*
X136375595Y-136519087D02*
G01*
X136297195Y-136589871D01*
X136273533Y-136679028D01*
X136307093Y-136831976D01*
X136400354Y-137094134D01*
X136408154Y-137115000D01*
X136680729Y-137690721D01*
X137028971Y-138135713D01*
X137480025Y-138481480D01*
X137680421Y-138591591D01*
X138143841Y-138805191D01*
X138482010Y-138913819D01*
X138701470Y-138918830D01*
X138807482Y-138825014D01*
X138853882Y-138693607D01*
X138862000Y-138660936D01*
X138789157Y-138626199D01*
X138605244Y-138564070D01*
X138502166Y-138532720D01*
X137877591Y-138290563D01*
X137388564Y-137964364D01*
X137014390Y-137535368D01*
X136734376Y-136984816D01*
X136703483Y-136902432D01*
X136600969Y-136635696D01*
X136525957Y-136502759D01*
X136454814Y-136475993D01*
X136375595Y-136519087D01*
X136375595Y-136519087D01*
G37*
X136375595Y-136519087D02*
X136297195Y-136589871D01*
X136273533Y-136679028D01*
X136307093Y-136831976D01*
X136400354Y-137094134D01*
X136408154Y-137115000D01*
X136680729Y-137690721D01*
X137028971Y-138135713D01*
X137480025Y-138481480D01*
X137680421Y-138591591D01*
X138143841Y-138805191D01*
X138482010Y-138913819D01*
X138701470Y-138918830D01*
X138807482Y-138825014D01*
X138853882Y-138693607D01*
X138862000Y-138660936D01*
X138789157Y-138626199D01*
X138605244Y-138564070D01*
X138502166Y-138532720D01*
X137877591Y-138290563D01*
X137388564Y-137964364D01*
X137014390Y-137535368D01*
X136734376Y-136984816D01*
X136703483Y-136902432D01*
X136600969Y-136635696D01*
X136525957Y-136502759D01*
X136454814Y-136475993D01*
X136375595Y-136519087D01*
G36*
X138501420Y-135921275D02*
G01*
X138278074Y-136075527D01*
X138001206Y-136304155D01*
X137873689Y-136487187D01*
X137887067Y-136640435D01*
X137940255Y-136707287D01*
X138023116Y-136752530D01*
X138132630Y-136720166D01*
X138302607Y-136593485D01*
X138468668Y-136446139D01*
X138711281Y-136198110D01*
X138827034Y-136016081D01*
X138831159Y-135944543D01*
X138769447Y-135846238D01*
X138670221Y-135835952D01*
X138501420Y-135921275D01*
X138501420Y-135921275D01*
G37*
X138501420Y-135921275D02*
X138278074Y-136075527D01*
X138001206Y-136304155D01*
X137873689Y-136487187D01*
X137887067Y-136640435D01*
X137940255Y-136707287D01*
X138023116Y-136752530D01*
X138132630Y-136720166D01*
X138302607Y-136593485D01*
X138468668Y-136446139D01*
X138711281Y-136198110D01*
X138827034Y-136016081D01*
X138831159Y-135944543D01*
X138769447Y-135846238D01*
X138670221Y-135835952D01*
X138501420Y-135921275D01*
D15*
X154576289Y-108601773D02*
X150676289Y-108601773D01*
X154576289Y-110601773D02*
X150676289Y-110601773D01*
X154576289Y-108601773D02*
X154576289Y-110601773D01*
X135876289Y-108670597D02*
X135876289Y-110670597D01*
X135876289Y-110670597D02*
X131976289Y-110670597D01*
X135876289Y-108670597D02*
X131976289Y-108670597D01*
X243392083Y-79924234D02*
X239727282Y-81258113D01*
X244076124Y-81803619D02*
X240411322Y-83137498D01*
X243392083Y-79924234D02*
X244076124Y-81803619D01*
X225024031Y-82086904D02*
X221359230Y-83420783D01*
X225708072Y-83966289D02*
X222043270Y-85300168D01*
X225024031Y-82086904D02*
X225708072Y-83966289D01*
X206655977Y-84249574D02*
X202991176Y-85583453D01*
X207340018Y-86128959D02*
X203675216Y-87462838D01*
X206655977Y-84249574D02*
X207340018Y-86128959D01*
X191195097Y-94399630D02*
X187530296Y-95733509D01*
X191879138Y-96279015D02*
X188214336Y-97612894D01*
X191195097Y-94399630D02*
X191879138Y-96279015D01*
X175734215Y-104549687D02*
X172069414Y-105883566D01*
X176418256Y-106429072D02*
X172753454Y-107762951D01*
X175734215Y-104549687D02*
X176418256Y-106429072D01*
X110015785Y-104549684D02*
X106350983Y-103215805D01*
X109331744Y-106429069D02*
X105666943Y-105095190D01*
X110015785Y-104549684D02*
X109331744Y-106429069D01*
X94554903Y-94399625D02*
X90890101Y-93065746D01*
X93870862Y-96279010D02*
X90206061Y-94945131D01*
X94554903Y-94399625D02*
X93870862Y-96279010D01*
X79094023Y-84249572D02*
X75429221Y-82915693D01*
X78409982Y-86128957D02*
X74745181Y-84795078D01*
X79094023Y-84249572D02*
X78409982Y-86128957D01*
X60725969Y-82086904D02*
X57061167Y-80753025D01*
X60041928Y-83966289D02*
X56377127Y-82632410D01*
X60725969Y-82086904D02*
X60041928Y-83966289D01*
X42357917Y-79924236D02*
X38693115Y-78590357D01*
X41673876Y-81803621D02*
X38009075Y-80469742D01*
X42357917Y-79924236D02*
X41673876Y-81803621D01*
X242301893Y-76928963D02*
X238637092Y-78262842D01*
X242985934Y-78808348D02*
X239321132Y-80142227D01*
X242301893Y-76928963D02*
X242985934Y-78808348D01*
X223933841Y-79091633D02*
X220269040Y-80425512D01*
X224617882Y-80971018D02*
X220953080Y-82304897D01*
X223933841Y-79091633D02*
X224617882Y-80971018D01*
X205565787Y-81254302D02*
X201900986Y-82588181D01*
X206249828Y-83133687D02*
X202585026Y-84467566D01*
X205565787Y-81254302D02*
X206249828Y-83133687D01*
X190104908Y-91404358D02*
X186440107Y-92738237D01*
X190788949Y-93283743D02*
X187124147Y-94617622D01*
X190104908Y-91404358D02*
X190788949Y-93283743D01*
X174644027Y-101554413D02*
X170979226Y-102888292D01*
X175328068Y-103433798D02*
X171663266Y-104767677D01*
X174644027Y-101554413D02*
X175328068Y-103433798D01*
X111105976Y-101554416D02*
X107441174Y-100220537D01*
X110421935Y-103433801D02*
X106757134Y-102099922D01*
X111105976Y-101554416D02*
X110421935Y-103433801D01*
X95645094Y-91404358D02*
X91980292Y-90070479D01*
X94961053Y-93283743D02*
X91296252Y-91949864D01*
X95645094Y-91404358D02*
X94961053Y-93283743D01*
X80184209Y-81254302D02*
X76519407Y-79920423D01*
X79500168Y-83133687D02*
X75835367Y-81799808D01*
X80184209Y-81254302D02*
X79500168Y-83133687D01*
X61816159Y-79091632D02*
X58151357Y-77757753D01*
X61132118Y-80971017D02*
X57467317Y-79637138D01*
X61816159Y-79091632D02*
X61132118Y-80971017D01*
X43448105Y-76928965D02*
X39783303Y-75595086D01*
X42764064Y-78808350D02*
X39099263Y-77474471D01*
X43448105Y-76928965D02*
X42764064Y-78808350D01*
X236487552Y-60954192D02*
X232822751Y-62288071D01*
X237171593Y-62833577D02*
X233506791Y-64167456D01*
X236487552Y-60954192D02*
X237171593Y-62833577D01*
X218119501Y-63116856D02*
X214454700Y-64450735D01*
X218803542Y-64996241D02*
X215138740Y-66330120D01*
X218119501Y-63116856D02*
X218803542Y-64996241D01*
X199751445Y-65279526D02*
X196086644Y-66613405D01*
X200435486Y-67158911D02*
X196770684Y-68492790D01*
X199751445Y-65279526D02*
X200435486Y-67158911D01*
X184290565Y-75429583D02*
X180625764Y-76763462D01*
X184974606Y-77308968D02*
X181309804Y-78642847D01*
X184290565Y-75429583D02*
X184974606Y-77308968D01*
X168829684Y-85579640D02*
X165164883Y-86913519D01*
X169513725Y-87459025D02*
X165848923Y-88792904D01*
X168829684Y-85579640D02*
X169513725Y-87459025D01*
X116920317Y-85579642D02*
X113255515Y-84245763D01*
X116236276Y-87459027D02*
X112571475Y-86125148D01*
X116920317Y-85579642D02*
X116236276Y-87459027D01*
X101459437Y-75429585D02*
X97794635Y-74095706D01*
X100775396Y-77308970D02*
X97110595Y-75975091D01*
X101459437Y-75429585D02*
X100775396Y-77308970D01*
X85998554Y-65279529D02*
X82333752Y-63945650D01*
X85314513Y-67158914D02*
X81649712Y-65825035D01*
X85998554Y-65279529D02*
X85314513Y-67158914D01*
X67630505Y-63116862D02*
X63965703Y-61782983D01*
X66946464Y-64996247D02*
X63281663Y-63662368D01*
X67630505Y-63116862D02*
X66946464Y-64996247D01*
X49262447Y-60954191D02*
X45597645Y-59620312D01*
X48578406Y-62833576D02*
X44913605Y-61499697D01*
X49262447Y-60954191D02*
X48578406Y-62833576D01*
D13*
X137737809Y-105452129D02*
X137623523Y-105490224D01*
X137585428Y-105528319D01*
X137547333Y-105604510D01*
X137547333Y-105718795D01*
X137585428Y-105794986D01*
X137623523Y-105833081D01*
X137699714Y-105871176D01*
X138004476Y-105871176D01*
X138004476Y-105071176D01*
X137737809Y-105071176D01*
X137661619Y-105109272D01*
X137623523Y-105147367D01*
X137585428Y-105223557D01*
X137585428Y-105299748D01*
X137623523Y-105375938D01*
X137661619Y-105414033D01*
X137737809Y-105452129D01*
X138004476Y-105452129D01*
X136823523Y-105071176D02*
X137204476Y-105071176D01*
X137242571Y-105452129D01*
X137204476Y-105414033D01*
X137128285Y-105375938D01*
X136937809Y-105375938D01*
X136861619Y-105414033D01*
X136823523Y-105452129D01*
X136785428Y-105528319D01*
X136785428Y-105718795D01*
X136823523Y-105794986D01*
X136861619Y-105833081D01*
X136937809Y-105871176D01*
X137128285Y-105871176D01*
X137204476Y-105833081D01*
X137242571Y-105794986D01*
X148659807Y-105452129D02*
X148545521Y-105490224D01*
X148507426Y-105528319D01*
X148469331Y-105604510D01*
X148469331Y-105718795D01*
X148507426Y-105794986D01*
X148545521Y-105833081D01*
X148621712Y-105871176D01*
X148926474Y-105871176D01*
X148926474Y-105071176D01*
X148659807Y-105071176D01*
X148583617Y-105109272D01*
X148545521Y-105147367D01*
X148507426Y-105223557D01*
X148507426Y-105299748D01*
X148545521Y-105375938D01*
X148583617Y-105414033D01*
X148659807Y-105452129D01*
X148926474Y-105452129D01*
X147783617Y-105071176D02*
X147935998Y-105071176D01*
X148012188Y-105109272D01*
X148050283Y-105147367D01*
X148126474Y-105261652D01*
X148164569Y-105414033D01*
X148164569Y-105718795D01*
X148126474Y-105794986D01*
X148088378Y-105833081D01*
X148012188Y-105871176D01*
X147859807Y-105871176D01*
X147783617Y-105833081D01*
X147745521Y-105794986D01*
X147707426Y-105718795D01*
X147707426Y-105528319D01*
X147745521Y-105452129D01*
X147783617Y-105414033D01*
X147859807Y-105375938D01*
X148012188Y-105375938D01*
X148088378Y-105414033D01*
X148126474Y-105452129D01*
X148164569Y-105528319D01*
X138004476Y-80471176D02*
X138004476Y-79671176D01*
X137814000Y-79671176D01*
X137699714Y-79709272D01*
X137623523Y-79785462D01*
X137585428Y-79861652D01*
X137547333Y-80014033D01*
X137547333Y-80128319D01*
X137585428Y-80280700D01*
X137623523Y-80356891D01*
X137699714Y-80433081D01*
X137814000Y-80471176D01*
X138004476Y-80471176D01*
X137242571Y-79747367D02*
X137204476Y-79709272D01*
X137128285Y-79671176D01*
X136937809Y-79671176D01*
X136861619Y-79709272D01*
X136823523Y-79747367D01*
X136785428Y-79823557D01*
X136785428Y-79899748D01*
X136823523Y-80014033D01*
X137280666Y-80471176D01*
X136785428Y-80471176D01*
X138004476Y-90631176D02*
X138004476Y-89831176D01*
X137814000Y-89831176D01*
X137699714Y-89869272D01*
X137623523Y-89945462D01*
X137585428Y-90021652D01*
X137547333Y-90174033D01*
X137547333Y-90288319D01*
X137585428Y-90440700D01*
X137623523Y-90516891D01*
X137699714Y-90593081D01*
X137814000Y-90631176D01*
X138004476Y-90631176D01*
X137052095Y-89831176D02*
X136975904Y-89831176D01*
X136899714Y-89869272D01*
X136861619Y-89907367D01*
X136823523Y-89983557D01*
X136785428Y-90135938D01*
X136785428Y-90326414D01*
X136823523Y-90478795D01*
X136861619Y-90554986D01*
X136899714Y-90593081D01*
X136975904Y-90631176D01*
X137052095Y-90631176D01*
X137128285Y-90593081D01*
X137166380Y-90554986D01*
X137204476Y-90478795D01*
X137242571Y-90326414D01*
X137242571Y-90135938D01*
X137204476Y-89983557D01*
X137166380Y-89907367D01*
X137128285Y-89869272D01*
X137052095Y-89831176D01*
X138004476Y-88091176D02*
X138004476Y-87291176D01*
X137814000Y-87291176D01*
X137699714Y-87329272D01*
X137623523Y-87405462D01*
X137585428Y-87481652D01*
X137547333Y-87634033D01*
X137547333Y-87748319D01*
X137585428Y-87900700D01*
X137623523Y-87976891D01*
X137699714Y-88053081D01*
X137814000Y-88091176D01*
X138004476Y-88091176D01*
X136785428Y-88091176D02*
X137242571Y-88091176D01*
X137014000Y-88091176D02*
X137014000Y-87291176D01*
X137090190Y-87405462D01*
X137166380Y-87481652D01*
X137242571Y-87519748D01*
X138023523Y-84789272D02*
X138099714Y-84751176D01*
X138214000Y-84751176D01*
X138328285Y-84789272D01*
X138404476Y-84865462D01*
X138442571Y-84941652D01*
X138480666Y-85094033D01*
X138480666Y-85208319D01*
X138442571Y-85360700D01*
X138404476Y-85436891D01*
X138328285Y-85513081D01*
X138214000Y-85551176D01*
X138137809Y-85551176D01*
X138023523Y-85513081D01*
X137985428Y-85474986D01*
X137985428Y-85208319D01*
X138137809Y-85208319D01*
X137642571Y-85551176D02*
X137642571Y-84751176D01*
X137185428Y-85551176D01*
X137185428Y-84751176D01*
X136804476Y-85551176D02*
X136804476Y-84751176D01*
X136614000Y-84751176D01*
X136499714Y-84789272D01*
X136423523Y-84865462D01*
X136385428Y-84941652D01*
X136347333Y-85094033D01*
X136347333Y-85208319D01*
X136385428Y-85360700D01*
X136423523Y-85436891D01*
X136499714Y-85513081D01*
X136614000Y-85551176D01*
X136804476Y-85551176D01*
X138023523Y-82249272D02*
X138099714Y-82211176D01*
X138214000Y-82211176D01*
X138328285Y-82249272D01*
X138404476Y-82325462D01*
X138442571Y-82401652D01*
X138480666Y-82554033D01*
X138480666Y-82668319D01*
X138442571Y-82820700D01*
X138404476Y-82896891D01*
X138328285Y-82973081D01*
X138214000Y-83011176D01*
X138137809Y-83011176D01*
X138023523Y-82973081D01*
X137985428Y-82934986D01*
X137985428Y-82668319D01*
X138137809Y-82668319D01*
X137642571Y-83011176D02*
X137642571Y-82211176D01*
X137185428Y-83011176D01*
X137185428Y-82211176D01*
X136804476Y-83011176D02*
X136804476Y-82211176D01*
X136614000Y-82211176D01*
X136499714Y-82249272D01*
X136423523Y-82325462D01*
X136385428Y-82401652D01*
X136347333Y-82554033D01*
X136347333Y-82668319D01*
X136385428Y-82820700D01*
X136423523Y-82896891D01*
X136499714Y-82973081D01*
X136614000Y-83011176D01*
X136804476Y-83011176D01*
X138004476Y-93171176D02*
X138004476Y-92371176D01*
X137814000Y-92371176D01*
X137699714Y-92409272D01*
X137623523Y-92485462D01*
X137585428Y-92561652D01*
X137547333Y-92714033D01*
X137547333Y-92828319D01*
X137585428Y-92980700D01*
X137623523Y-93056891D01*
X137699714Y-93133081D01*
X137814000Y-93171176D01*
X138004476Y-93171176D01*
X136861619Y-92637843D02*
X136861619Y-93171176D01*
X137052095Y-92333081D02*
X137242571Y-92904510D01*
X136747333Y-92904510D01*
X137547333Y-95634986D02*
X137585428Y-95673081D01*
X137699714Y-95711176D01*
X137775904Y-95711176D01*
X137890190Y-95673081D01*
X137966380Y-95596891D01*
X138004476Y-95520700D01*
X138042571Y-95368319D01*
X138042571Y-95254033D01*
X138004476Y-95101652D01*
X137966380Y-95025462D01*
X137890190Y-94949272D01*
X137775904Y-94911176D01*
X137699714Y-94911176D01*
X137585428Y-94949272D01*
X137547333Y-94987367D01*
X136861619Y-94911176D02*
X137014000Y-94911176D01*
X137090190Y-94949272D01*
X137128285Y-94987367D01*
X137204476Y-95101652D01*
X137242571Y-95254033D01*
X137242571Y-95558795D01*
X137204476Y-95634986D01*
X137166380Y-95673081D01*
X137090190Y-95711176D01*
X136937809Y-95711176D01*
X136861619Y-95673081D01*
X136823523Y-95634986D01*
X136785428Y-95558795D01*
X136785428Y-95368319D01*
X136823523Y-95292129D01*
X136861619Y-95254033D01*
X136937809Y-95215938D01*
X137090190Y-95215938D01*
X137166380Y-95254033D01*
X137204476Y-95292129D01*
X137242571Y-95368319D01*
X138004476Y-98251176D02*
X138004476Y-97451176D01*
X137814000Y-97451176D01*
X137699714Y-97489272D01*
X137623523Y-97565462D01*
X137585428Y-97641652D01*
X137547333Y-97794033D01*
X137547333Y-97908319D01*
X137585428Y-98060700D01*
X137623523Y-98136891D01*
X137699714Y-98213081D01*
X137814000Y-98251176D01*
X138004476Y-98251176D01*
X137280666Y-97451176D02*
X136747333Y-97451176D01*
X137090190Y-98251176D01*
X137966380Y-100372129D02*
X137699714Y-100372129D01*
X137585428Y-100791176D02*
X137966380Y-100791176D01*
X137966380Y-99991176D01*
X137585428Y-99991176D01*
X136899714Y-99991176D02*
X137052095Y-99991176D01*
X137128285Y-100029272D01*
X137166380Y-100067367D01*
X137242571Y-100181652D01*
X137280666Y-100334033D01*
X137280666Y-100638795D01*
X137242571Y-100714986D01*
X137204476Y-100753081D01*
X137128285Y-100791176D01*
X136975904Y-100791176D01*
X136899714Y-100753081D01*
X136861619Y-100714986D01*
X136823523Y-100638795D01*
X136823523Y-100448319D01*
X136861619Y-100372129D01*
X136899714Y-100334033D01*
X136975904Y-100295938D01*
X137128285Y-100295938D01*
X137204476Y-100334033D01*
X137242571Y-100372129D01*
X137280666Y-100448319D01*
X137737809Y-102912129D02*
X137623523Y-102950224D01*
X137585428Y-102988319D01*
X137547333Y-103064510D01*
X137547333Y-103178795D01*
X137585428Y-103254986D01*
X137623523Y-103293081D01*
X137699714Y-103331176D01*
X138004476Y-103331176D01*
X138004476Y-102531176D01*
X137737809Y-102531176D01*
X137661619Y-102569272D01*
X137623523Y-102607367D01*
X137585428Y-102683557D01*
X137585428Y-102759748D01*
X137623523Y-102835938D01*
X137661619Y-102874033D01*
X137737809Y-102912129D01*
X138004476Y-102912129D01*
X136861619Y-102797843D02*
X136861619Y-103331176D01*
X137052095Y-102493081D02*
X137242571Y-103064510D01*
X136747333Y-103064510D01*
X148659809Y-100372129D02*
X148545523Y-100410224D01*
X148507428Y-100448319D01*
X148469333Y-100524510D01*
X148469333Y-100638795D01*
X148507428Y-100714986D01*
X148545523Y-100753081D01*
X148621714Y-100791176D01*
X148926476Y-100791176D01*
X148926476Y-99991176D01*
X148659809Y-99991176D01*
X148583619Y-100029272D01*
X148545523Y-100067367D01*
X148507428Y-100143557D01*
X148507428Y-100219748D01*
X148545523Y-100295938D01*
X148583619Y-100334033D01*
X148659809Y-100372129D01*
X148926476Y-100372129D01*
X148202666Y-99991176D02*
X147707428Y-99991176D01*
X147974095Y-100295938D01*
X147859809Y-100295938D01*
X147783619Y-100334033D01*
X147745523Y-100372129D01*
X147707428Y-100448319D01*
X147707428Y-100638795D01*
X147745523Y-100714986D01*
X147783619Y-100753081D01*
X147859809Y-100791176D01*
X148088380Y-100791176D01*
X148164571Y-100753081D01*
X148202666Y-100714986D01*
X148659809Y-97832129D02*
X148545523Y-97870224D01*
X148507428Y-97908319D01*
X148469333Y-97984510D01*
X148469333Y-98098795D01*
X148507428Y-98174986D01*
X148545523Y-98213081D01*
X148621714Y-98251176D01*
X148926476Y-98251176D01*
X148926476Y-97451176D01*
X148659809Y-97451176D01*
X148583619Y-97489272D01*
X148545523Y-97527367D01*
X148507428Y-97603557D01*
X148507428Y-97679748D01*
X148545523Y-97755938D01*
X148583619Y-97794033D01*
X148659809Y-97832129D01*
X148926476Y-97832129D01*
X147707428Y-98251176D02*
X148164571Y-98251176D01*
X147936000Y-98251176D02*
X147936000Y-97451176D01*
X148012190Y-97565462D01*
X148088380Y-97641652D01*
X148164571Y-97679748D01*
X148602666Y-87672129D02*
X148869333Y-87672129D01*
X148869333Y-88091176D02*
X148869333Y-87291176D01*
X148488380Y-87291176D01*
X147840761Y-87557843D02*
X147840761Y-88091176D01*
X148031238Y-87253081D02*
X148221714Y-87824510D01*
X147726476Y-87824510D01*
X149402666Y-84751176D02*
X149136000Y-85551176D01*
X148869333Y-84751176D01*
X148145523Y-85474986D02*
X148183619Y-85513081D01*
X148297904Y-85551176D01*
X148374095Y-85551176D01*
X148488380Y-85513081D01*
X148564571Y-85436891D01*
X148602666Y-85360700D01*
X148640761Y-85208319D01*
X148640761Y-85094033D01*
X148602666Y-84941652D01*
X148564571Y-84865462D01*
X148488380Y-84789272D01*
X148374095Y-84751176D01*
X148297904Y-84751176D01*
X148183619Y-84789272D01*
X148145523Y-84827367D01*
X147345523Y-85474986D02*
X147383619Y-85513081D01*
X147497904Y-85551176D01*
X147574095Y-85551176D01*
X147688380Y-85513081D01*
X147764571Y-85436891D01*
X147802666Y-85360700D01*
X147840761Y-85208319D01*
X147840761Y-85094033D01*
X147802666Y-84941652D01*
X147764571Y-84865462D01*
X147688380Y-84789272D01*
X147574095Y-84751176D01*
X147497904Y-84751176D01*
X147383619Y-84789272D01*
X147345523Y-84827367D01*
X148945523Y-79709272D02*
X149021714Y-79671176D01*
X149136000Y-79671176D01*
X149250285Y-79709272D01*
X149326476Y-79785462D01*
X149364571Y-79861652D01*
X149402666Y-80014033D01*
X149402666Y-80128319D01*
X149364571Y-80280700D01*
X149326476Y-80356891D01*
X149250285Y-80433081D01*
X149136000Y-80471176D01*
X149059809Y-80471176D01*
X148945523Y-80433081D01*
X148907428Y-80394986D01*
X148907428Y-80128319D01*
X149059809Y-80128319D01*
X148564571Y-80471176D02*
X148564571Y-79671176D01*
X148107428Y-80471176D01*
X148107428Y-79671176D01*
X147726476Y-80471176D02*
X147726476Y-79671176D01*
X147536000Y-79671176D01*
X147421714Y-79709272D01*
X147345523Y-79785462D01*
X147307428Y-79861652D01*
X147269333Y-80014033D01*
X147269333Y-80128319D01*
X147307428Y-80280700D01*
X147345523Y-80356891D01*
X147421714Y-80433081D01*
X147536000Y-80471176D01*
X147726476Y-80471176D01*
X148659809Y-77512129D02*
X148545523Y-77550224D01*
X148507428Y-77588319D01*
X148469333Y-77664510D01*
X148469333Y-77778795D01*
X148507428Y-77854986D01*
X148545523Y-77893081D01*
X148621714Y-77931176D01*
X148926476Y-77931176D01*
X148926476Y-77131176D01*
X148659809Y-77131176D01*
X148583619Y-77169272D01*
X148545523Y-77207367D01*
X148507428Y-77283557D01*
X148507428Y-77359748D01*
X148545523Y-77435938D01*
X148583619Y-77474033D01*
X148659809Y-77512129D01*
X148926476Y-77512129D01*
X147974095Y-77131176D02*
X147897904Y-77131176D01*
X147821714Y-77169272D01*
X147783619Y-77207367D01*
X147745523Y-77283557D01*
X147707428Y-77435938D01*
X147707428Y-77626414D01*
X147745523Y-77778795D01*
X147783619Y-77854986D01*
X147821714Y-77893081D01*
X147897904Y-77931176D01*
X147974095Y-77931176D01*
X148050285Y-77893081D01*
X148088380Y-77854986D01*
X148126476Y-77778795D01*
X148164571Y-77626414D01*
X148164571Y-77435938D01*
X148126476Y-77283557D01*
X148088380Y-77207367D01*
X148050285Y-77169272D01*
X147974095Y-77131176D01*
X148602666Y-90212129D02*
X148869333Y-90212129D01*
X148869333Y-90631176D02*
X148869333Y-89831176D01*
X148488380Y-89831176D01*
X147802666Y-89831176D02*
X148183619Y-89831176D01*
X148221714Y-90212129D01*
X148183619Y-90174033D01*
X148107428Y-90135938D01*
X147916952Y-90135938D01*
X147840761Y-90174033D01*
X147802666Y-90212129D01*
X147764571Y-90288319D01*
X147764571Y-90478795D01*
X147802666Y-90554986D01*
X147840761Y-90593081D01*
X147916952Y-90631176D01*
X148107428Y-90631176D01*
X148183619Y-90593081D01*
X148221714Y-90554986D01*
X148602666Y-92752129D02*
X148869333Y-92752129D01*
X148869333Y-93171176D02*
X148869333Y-92371176D01*
X148488380Y-92371176D01*
X147840761Y-92371176D02*
X147993142Y-92371176D01*
X148069333Y-92409272D01*
X148107428Y-92447367D01*
X148183619Y-92561652D01*
X148221714Y-92714033D01*
X148221714Y-93018795D01*
X148183619Y-93094986D01*
X148145523Y-93133081D01*
X148069333Y-93171176D01*
X147916952Y-93171176D01*
X147840761Y-93133081D01*
X147802666Y-93094986D01*
X147764571Y-93018795D01*
X147764571Y-92828319D01*
X147802666Y-92752129D01*
X147840761Y-92714033D01*
X147916952Y-92675938D01*
X148069333Y-92675938D01*
X148145523Y-92714033D01*
X148183619Y-92752129D01*
X148221714Y-92828319D01*
X148602666Y-95292129D02*
X148869333Y-95292129D01*
X148869333Y-95711176D02*
X148869333Y-94911176D01*
X148488380Y-94911176D01*
X148259809Y-94911176D02*
X147726476Y-94911176D01*
X148069333Y-95711176D01*
X148659809Y-102912129D02*
X148545523Y-102950224D01*
X148507428Y-102988319D01*
X148469333Y-103064510D01*
X148469333Y-103178795D01*
X148507428Y-103254986D01*
X148545523Y-103293081D01*
X148621714Y-103331176D01*
X148926476Y-103331176D01*
X148926476Y-102531176D01*
X148659809Y-102531176D01*
X148583619Y-102569272D01*
X148545523Y-102607367D01*
X148507428Y-102683557D01*
X148507428Y-102759748D01*
X148545523Y-102835938D01*
X148583619Y-102874033D01*
X148659809Y-102912129D01*
X148926476Y-102912129D01*
X148164571Y-102607367D02*
X148126476Y-102569272D01*
X148050285Y-102531176D01*
X147859809Y-102531176D01*
X147783619Y-102569272D01*
X147745523Y-102607367D01*
X147707428Y-102683557D01*
X147707428Y-102759748D01*
X147745523Y-102874033D01*
X148202666Y-103331176D01*
X147707428Y-103331176D01*
X141493604Y-77131176D02*
X141036461Y-77131176D01*
X141265032Y-77931176D02*
X141265032Y-77131176D01*
X140845985Y-77131176D02*
X140312651Y-77931176D01*
X140312651Y-77131176D02*
X140845985Y-77931176D01*
X139855508Y-77131176D02*
X139779318Y-77131176D01*
X139703128Y-77169272D01*
X139665032Y-77207367D01*
X139626937Y-77283557D01*
X139588842Y-77435938D01*
X139588842Y-77626414D01*
X139626937Y-77778795D01*
X139665032Y-77854986D01*
X139703128Y-77893081D01*
X139779318Y-77931176D01*
X139855508Y-77931176D01*
X139931699Y-77893081D01*
X139969794Y-77854986D01*
X140007889Y-77778795D01*
X140045985Y-77626414D01*
X140045985Y-77435938D01*
X140007889Y-77283557D01*
X139969794Y-77207367D01*
X139931699Y-77169272D01*
X139855508Y-77131176D01*
X138674556Y-77093081D02*
X139360270Y-78121652D01*
X138407889Y-77931176D02*
X138407889Y-77131176D01*
X138217413Y-77131176D01*
X138103128Y-77169272D01*
X138026937Y-77245462D01*
X137988842Y-77321652D01*
X137950747Y-77474033D01*
X137950747Y-77588319D01*
X137988842Y-77740700D01*
X138026937Y-77816891D01*
X138103128Y-77893081D01*
X138217413Y-77931176D01*
X138407889Y-77931176D01*
X137684080Y-77131176D02*
X137188842Y-77131176D01*
X137455508Y-77435938D01*
X137341223Y-77435938D01*
X137265032Y-77474033D01*
X137226937Y-77512129D01*
X137188842Y-77588319D01*
X137188842Y-77778795D01*
X137226937Y-77854986D01*
X137265032Y-77893081D01*
X137341223Y-77931176D01*
X137569794Y-77931176D01*
X137645985Y-77893081D01*
X137684080Y-77854986D01*
X148448333Y-82953081D02*
X148334047Y-82991176D01*
X148143571Y-82991176D01*
X148067380Y-82953081D01*
X148029285Y-82914986D01*
X147991190Y-82838795D01*
X147991190Y-82762605D01*
X148029285Y-82686414D01*
X148067380Y-82648319D01*
X148143571Y-82610224D01*
X148295952Y-82572129D01*
X148372142Y-82534033D01*
X148410238Y-82495938D01*
X148448333Y-82419748D01*
X148448333Y-82343557D01*
X148410238Y-82267367D01*
X148372142Y-82229272D01*
X148295952Y-82191176D01*
X148105476Y-82191176D01*
X147991190Y-82229272D01*
X147762619Y-82191176D02*
X147305476Y-82191176D01*
X147534047Y-82991176D02*
X147534047Y-82191176D01*
X153540574Y-108054153D02*
X153540574Y-107054153D01*
X153302479Y-107054153D01*
X153159622Y-107101773D01*
X153064384Y-107197011D01*
X153016765Y-107292249D01*
X152969146Y-107482725D01*
X152969146Y-107625582D01*
X153016765Y-107816058D01*
X153064384Y-107911296D01*
X153159622Y-108006534D01*
X153302479Y-108054153D01*
X153540574Y-108054153D01*
X152635812Y-107054153D02*
X152016765Y-107054153D01*
X152350098Y-107435106D01*
X152207241Y-107435106D01*
X152112003Y-107482725D01*
X152064384Y-107530344D01*
X152016765Y-107625582D01*
X152016765Y-107863677D01*
X152064384Y-107958915D01*
X152112003Y-108006534D01*
X152207241Y-108054153D01*
X152492955Y-108054153D01*
X152588193Y-108006534D01*
X152635812Y-107958915D01*
X151064384Y-108054153D02*
X151635812Y-108054153D01*
X151350098Y-108054153D02*
X151350098Y-107054153D01*
X151445336Y-107197011D01*
X151540574Y-107292249D01*
X151635812Y-107339868D01*
X134840574Y-108122977D02*
X134840574Y-107122977D01*
X134602479Y-107122977D01*
X134459622Y-107170597D01*
X134364384Y-107265835D01*
X134316765Y-107361073D01*
X134269146Y-107551549D01*
X134269146Y-107694406D01*
X134316765Y-107884882D01*
X134364384Y-107980120D01*
X134459622Y-108075358D01*
X134602479Y-108122977D01*
X134840574Y-108122977D01*
X133935812Y-107122977D02*
X133316765Y-107122977D01*
X133650098Y-107503930D01*
X133507241Y-107503930D01*
X133412003Y-107551549D01*
X133364384Y-107599168D01*
X133316765Y-107694406D01*
X133316765Y-107932501D01*
X133364384Y-108027739D01*
X133412003Y-108075358D01*
X133507241Y-108122977D01*
X133792955Y-108122977D01*
X133888193Y-108075358D01*
X133935812Y-108027739D01*
X132697717Y-107122977D02*
X132602479Y-107122977D01*
X132507241Y-107170597D01*
X132459622Y-107218216D01*
X132412003Y-107313454D01*
X132364384Y-107503930D01*
X132364384Y-107742025D01*
X132412003Y-107932501D01*
X132459622Y-108027739D01*
X132507241Y-108075358D01*
X132602479Y-108122977D01*
X132697717Y-108122977D01*
X132792955Y-108075358D01*
X132840574Y-108027739D01*
X132888193Y-107932501D01*
X132935812Y-107742025D01*
X132935812Y-107503930D01*
X132888193Y-107313454D01*
X132840574Y-107218216D01*
X132792955Y-107170597D01*
X132697717Y-107122977D01*
X242231533Y-79763875D02*
X241889513Y-78824183D01*
X241665777Y-78905616D01*
X241547822Y-78999223D01*
X241490900Y-79121291D01*
X241478727Y-79227072D01*
X241499126Y-79422348D01*
X241547986Y-79556590D01*
X241657880Y-79719292D01*
X241735201Y-79792500D01*
X241857268Y-79849421D01*
X242007797Y-79845309D01*
X242231533Y-79763875D01*
X241027141Y-79239411D02*
X240966107Y-79210950D01*
X240860326Y-79198776D01*
X240636590Y-79280210D01*
X240563382Y-79357530D01*
X240534921Y-79418564D01*
X240522747Y-79524345D01*
X240555321Y-79613840D01*
X240648928Y-79731795D01*
X241381335Y-80073322D01*
X240799621Y-80285049D01*
X240352148Y-80447916D02*
X240173159Y-80513062D01*
X240067378Y-80500888D01*
X240006344Y-80472428D01*
X239867989Y-80370759D01*
X239758095Y-80208057D01*
X239627802Y-79850079D01*
X239639976Y-79744298D01*
X239668436Y-79683264D01*
X239741644Y-79605943D01*
X239920633Y-79540796D01*
X240026415Y-79552970D01*
X240087448Y-79581431D01*
X240164769Y-79654639D01*
X240246202Y-79878375D01*
X240234029Y-79984156D01*
X240205568Y-80045190D01*
X240132360Y-80122511D01*
X239953371Y-80187658D01*
X239847590Y-80175484D01*
X239786556Y-80147023D01*
X239709235Y-80073815D01*
X223863481Y-81926545D02*
X223521461Y-80986853D01*
X223297725Y-81068286D01*
X223179770Y-81161893D01*
X223122848Y-81283961D01*
X223110675Y-81389742D01*
X223131074Y-81585018D01*
X223179934Y-81719260D01*
X223289828Y-81881962D01*
X223367149Y-81955170D01*
X223489216Y-82012091D01*
X223639745Y-82007979D01*
X223863481Y-81926545D01*
X222659089Y-81402081D02*
X222598055Y-81373620D01*
X222492274Y-81361446D01*
X222268538Y-81442880D01*
X222195330Y-81520200D01*
X222166869Y-81581234D01*
X222154695Y-81687015D01*
X222187269Y-81776510D01*
X222280876Y-81894465D01*
X223013283Y-82235992D01*
X222431569Y-82447719D01*
X221699161Y-82106192D02*
X221772369Y-82028871D01*
X221800830Y-81967837D01*
X221813004Y-81862056D01*
X221796717Y-81817309D01*
X221719396Y-81744101D01*
X221658363Y-81715640D01*
X221552581Y-81703466D01*
X221373592Y-81768613D01*
X221300384Y-81845934D01*
X221271924Y-81906968D01*
X221259750Y-82012749D01*
X221276037Y-82057496D01*
X221353357Y-82130704D01*
X221414391Y-82159165D01*
X221520172Y-82171338D01*
X221699161Y-82106192D01*
X221804943Y-82118366D01*
X221865977Y-82146826D01*
X221943297Y-82220034D01*
X222008444Y-82399023D01*
X221996270Y-82504804D01*
X221967809Y-82565838D01*
X221894601Y-82643159D01*
X221715612Y-82708306D01*
X221609831Y-82696132D01*
X221548797Y-82667671D01*
X221471477Y-82594463D01*
X221406330Y-82415474D01*
X221418504Y-82309693D01*
X221446964Y-82248659D01*
X221520172Y-82171338D01*
X205495427Y-84089215D02*
X205153407Y-83149523D01*
X204929671Y-83230956D01*
X204811716Y-83324563D01*
X204754794Y-83446631D01*
X204742621Y-83552412D01*
X204763020Y-83747688D01*
X204811880Y-83881930D01*
X204921774Y-84044632D01*
X204999095Y-84117840D01*
X205121162Y-84174761D01*
X205271691Y-84170649D01*
X205495427Y-84089215D01*
X204291035Y-83564751D02*
X204230001Y-83536290D01*
X204124220Y-83524116D01*
X203900484Y-83605550D01*
X203827276Y-83682870D01*
X203798815Y-83743904D01*
X203786641Y-83849685D01*
X203819215Y-83939180D01*
X203912822Y-84057135D01*
X204645229Y-84398662D01*
X204063515Y-84610389D01*
X203408264Y-83784703D02*
X202781802Y-84012716D01*
X203526547Y-84805829D01*
X190034547Y-94239271D02*
X189692527Y-93299579D01*
X189468791Y-93381012D01*
X189350836Y-93474619D01*
X189293914Y-93596687D01*
X189281741Y-93702468D01*
X189302140Y-93897744D01*
X189351000Y-94031986D01*
X189460894Y-94194688D01*
X189538215Y-94267896D01*
X189660282Y-94324817D01*
X189810811Y-94320705D01*
X190034547Y-94239271D01*
X188830155Y-93714807D02*
X188769121Y-93686346D01*
X188663340Y-93674172D01*
X188439604Y-93755606D01*
X188366396Y-93832926D01*
X188337935Y-93893960D01*
X188325761Y-93999741D01*
X188358335Y-94089236D01*
X188451942Y-94207191D01*
X189184349Y-94548718D01*
X188602635Y-94760445D01*
X187455164Y-94113912D02*
X187634153Y-94048766D01*
X187739934Y-94060940D01*
X187800968Y-94089400D01*
X187939322Y-94191069D01*
X188049216Y-94353771D01*
X188179510Y-94711749D01*
X188167336Y-94817530D01*
X188138875Y-94878564D01*
X188065667Y-94955885D01*
X187886678Y-95021032D01*
X187780897Y-95008858D01*
X187719863Y-94980397D01*
X187642543Y-94907189D01*
X187561109Y-94683453D01*
X187573283Y-94577672D01*
X187601744Y-94516638D01*
X187674952Y-94439317D01*
X187853941Y-94374171D01*
X187959722Y-94386344D01*
X188020756Y-94414805D01*
X188098076Y-94488013D01*
X174573665Y-104389328D02*
X174231645Y-103449636D01*
X174007909Y-103531069D01*
X173889954Y-103624676D01*
X173833032Y-103746744D01*
X173820859Y-103852525D01*
X173841258Y-104047801D01*
X173890118Y-104182043D01*
X174000012Y-104344745D01*
X174077333Y-104417953D01*
X174199400Y-104474874D01*
X174349929Y-104470762D01*
X174573665Y-104389328D01*
X173369273Y-103864864D02*
X173308239Y-103836403D01*
X173202458Y-103824229D01*
X172978722Y-103905663D01*
X172905514Y-103982983D01*
X172877053Y-104044017D01*
X172864879Y-104149798D01*
X172897453Y-104239293D01*
X172991060Y-104357248D01*
X173723467Y-104698775D01*
X173141753Y-104910502D01*
X171949534Y-104280256D02*
X172397007Y-104117389D01*
X172604621Y-104548575D01*
X172543587Y-104520115D01*
X172437806Y-104507941D01*
X172214070Y-104589374D01*
X172140862Y-104666695D01*
X172112401Y-104727729D01*
X172100227Y-104833510D01*
X172181661Y-105057246D01*
X172258981Y-105130454D01*
X172320015Y-105158915D01*
X172425796Y-105171089D01*
X172649533Y-105089655D01*
X172722741Y-105012335D01*
X172751201Y-104951301D01*
X109229827Y-103680855D02*
X109571848Y-102741162D01*
X109348111Y-102659729D01*
X109197583Y-102655616D01*
X109075515Y-102712537D01*
X108998194Y-102785745D01*
X108888300Y-102948447D01*
X108839440Y-103082689D01*
X108819041Y-103277965D01*
X108831215Y-103383746D01*
X108888136Y-103505814D01*
X109006091Y-103599421D01*
X109229827Y-103680855D01*
X108644329Y-102504923D02*
X108615868Y-102443889D01*
X108542660Y-102366569D01*
X108318924Y-102285135D01*
X108213143Y-102297309D01*
X108152109Y-102325770D01*
X108074788Y-102398978D01*
X108042215Y-102488472D01*
X108038102Y-102639001D01*
X108379629Y-103371408D01*
X107797915Y-103159681D01*
X107220477Y-102240059D02*
X106992464Y-102866521D01*
X107574507Y-101963515D02*
X107553943Y-102716157D01*
X106972229Y-102504430D01*
X93768945Y-93530796D02*
X94110966Y-92591103D01*
X93887229Y-92509670D01*
X93736701Y-92505557D01*
X93614633Y-92562478D01*
X93537312Y-92635686D01*
X93427418Y-92798388D01*
X93378558Y-92932630D01*
X93358159Y-93127906D01*
X93370333Y-93233687D01*
X93427254Y-93355755D01*
X93545209Y-93449362D01*
X93768945Y-93530796D01*
X93183447Y-92354864D02*
X93154986Y-92293830D01*
X93081778Y-92216510D01*
X92858042Y-92135076D01*
X92752261Y-92147250D01*
X92691227Y-92175711D01*
X92613906Y-92248919D01*
X92581333Y-92338413D01*
X92577220Y-92488942D01*
X92918747Y-93221349D01*
X92337033Y-93009622D01*
X92365822Y-91955923D02*
X91784108Y-91744196D01*
X91967045Y-92216181D01*
X91832803Y-92167321D01*
X91727022Y-92179495D01*
X91665988Y-92207955D01*
X91588668Y-92281163D01*
X91507234Y-92504900D01*
X91519408Y-92610681D01*
X91547869Y-92671715D01*
X91621077Y-92749035D01*
X91889560Y-92846755D01*
X91995341Y-92834582D01*
X92056375Y-92806121D01*
X78308065Y-83380743D02*
X78650086Y-82441050D01*
X78426349Y-82359617D01*
X78275821Y-82355504D01*
X78153753Y-82412425D01*
X78076432Y-82485633D01*
X77966538Y-82648335D01*
X77917678Y-82782577D01*
X77897279Y-82977853D01*
X77909453Y-83083634D01*
X77966374Y-83205702D01*
X78084329Y-83299309D01*
X78308065Y-83380743D01*
X77722567Y-82204811D02*
X77694106Y-82143777D01*
X77620898Y-82066457D01*
X77397162Y-81985023D01*
X77291381Y-81997197D01*
X77230347Y-82025658D01*
X77153026Y-82098866D01*
X77120453Y-82188360D01*
X77116340Y-82338889D01*
X77457867Y-83071296D01*
X76876153Y-82859569D01*
X76827622Y-81879078D02*
X76799161Y-81818044D01*
X76725953Y-81740723D01*
X76502217Y-81659290D01*
X76396436Y-81671464D01*
X76335402Y-81699924D01*
X76258081Y-81773132D01*
X76225508Y-81862627D01*
X76221395Y-82013155D01*
X76562922Y-82745562D01*
X75981208Y-82533836D01*
X59940011Y-81218075D02*
X60282032Y-80278382D01*
X60058295Y-80196949D01*
X59907767Y-80192836D01*
X59785699Y-80249757D01*
X59708378Y-80322965D01*
X59598484Y-80485667D01*
X59549624Y-80619909D01*
X59529225Y-80815185D01*
X59541399Y-80920966D01*
X59598320Y-81043034D01*
X59716275Y-81136641D01*
X59940011Y-81218075D01*
X59354513Y-80042143D02*
X59326052Y-79981109D01*
X59252844Y-79903789D01*
X59029108Y-79822355D01*
X58923327Y-79834529D01*
X58862293Y-79862990D01*
X58784972Y-79936198D01*
X58752399Y-80025692D01*
X58748286Y-80176221D01*
X59089813Y-80908628D01*
X58508099Y-80696901D01*
X57613154Y-80371168D02*
X58150121Y-80566608D01*
X57881637Y-80468888D02*
X58223657Y-79529195D01*
X58264292Y-79696010D01*
X58321213Y-79818078D01*
X58394421Y-79895399D01*
X41571959Y-79055407D02*
X41913980Y-78115714D01*
X41690243Y-78034281D01*
X41539715Y-78030168D01*
X41417647Y-78087089D01*
X41340326Y-78160297D01*
X41230432Y-78322999D01*
X41181572Y-78457241D01*
X41161173Y-78652517D01*
X41173347Y-78758298D01*
X41230268Y-78880366D01*
X41348223Y-78973973D01*
X41571959Y-79055407D01*
X40986461Y-77879475D02*
X40958000Y-77818441D01*
X40884792Y-77741121D01*
X40661056Y-77659687D01*
X40555275Y-77671861D01*
X40494241Y-77700322D01*
X40416920Y-77773530D01*
X40384347Y-77863024D01*
X40380234Y-78013553D01*
X40721761Y-78745960D01*
X40140047Y-78534233D01*
X39900353Y-77382814D02*
X39810858Y-77350240D01*
X39705077Y-77362414D01*
X39644043Y-77390875D01*
X39566722Y-77464083D01*
X39456828Y-77626785D01*
X39375395Y-77850522D01*
X39354995Y-78045797D01*
X39367169Y-78151579D01*
X39395630Y-78212612D01*
X39468838Y-78289933D01*
X39558332Y-78322506D01*
X39664114Y-78310332D01*
X39725148Y-78281872D01*
X39802468Y-78208664D01*
X39912362Y-78045962D01*
X39993795Y-77822225D01*
X40014195Y-77626950D01*
X40002021Y-77521168D01*
X39973560Y-77460134D01*
X39900353Y-77382814D01*
X241141343Y-76768604D02*
X240799323Y-75828912D01*
X240575587Y-75910345D01*
X240457632Y-76003952D01*
X240400710Y-76126020D01*
X240388537Y-76231801D01*
X240408936Y-76427077D01*
X240457796Y-76561319D01*
X240567690Y-76724021D01*
X240645011Y-76797229D01*
X240767078Y-76854150D01*
X240917607Y-76850038D01*
X241141343Y-76768604D01*
X239709431Y-77289778D02*
X240246398Y-77094338D01*
X239977914Y-77192058D02*
X239635894Y-76252365D01*
X239774249Y-76354034D01*
X239896317Y-76410955D01*
X240002098Y-76423129D01*
X239261958Y-77452645D02*
X239082969Y-77517791D01*
X238977188Y-77505617D01*
X238916154Y-77477157D01*
X238777799Y-77375488D01*
X238667905Y-77212786D01*
X238537612Y-76854808D01*
X238549786Y-76749027D01*
X238578246Y-76687993D01*
X238651454Y-76610672D01*
X238830443Y-76545525D01*
X238936225Y-76557699D01*
X238997258Y-76586160D01*
X239074579Y-76659368D01*
X239156012Y-76883104D01*
X239143839Y-76988885D01*
X239115378Y-77049919D01*
X239042170Y-77127240D01*
X238863181Y-77192387D01*
X238757400Y-77180213D01*
X238696366Y-77151752D01*
X238619045Y-77078544D01*
X222773291Y-78931274D02*
X222431271Y-77991582D01*
X222207535Y-78073015D01*
X222089580Y-78166622D01*
X222032658Y-78288690D01*
X222020485Y-78394471D01*
X222040884Y-78589747D01*
X222089744Y-78723989D01*
X222199638Y-78886691D01*
X222276959Y-78959899D01*
X222399026Y-79016820D01*
X222549555Y-79012708D01*
X222773291Y-78931274D01*
X221341379Y-79452448D02*
X221878346Y-79257008D01*
X221609862Y-79354728D02*
X221267842Y-78415035D01*
X221406197Y-78516704D01*
X221528265Y-78573625D01*
X221634046Y-78585799D01*
X220608971Y-79110921D02*
X220682179Y-79033600D01*
X220710640Y-78972566D01*
X220722814Y-78866785D01*
X220706527Y-78822038D01*
X220629206Y-78748830D01*
X220568173Y-78720369D01*
X220462391Y-78708195D01*
X220283402Y-78773342D01*
X220210194Y-78850663D01*
X220181734Y-78911697D01*
X220169560Y-79017478D01*
X220185847Y-79062225D01*
X220263167Y-79135433D01*
X220324201Y-79163894D01*
X220429982Y-79176067D01*
X220608971Y-79110921D01*
X220714753Y-79123095D01*
X220775787Y-79151555D01*
X220853107Y-79224763D01*
X220918254Y-79403752D01*
X220906080Y-79509533D01*
X220877619Y-79570567D01*
X220804411Y-79647888D01*
X220625422Y-79713035D01*
X220519641Y-79700861D01*
X220458607Y-79672400D01*
X220381287Y-79599192D01*
X220316140Y-79420203D01*
X220328314Y-79314422D01*
X220356774Y-79253388D01*
X220429982Y-79176067D01*
X204405237Y-81093943D02*
X204063217Y-80154251D01*
X203839481Y-80235684D01*
X203721526Y-80329291D01*
X203664604Y-80451359D01*
X203652431Y-80557140D01*
X203672830Y-80752416D01*
X203721690Y-80886658D01*
X203831584Y-81049360D01*
X203908905Y-81122568D01*
X204030972Y-81179489D01*
X204181501Y-81175377D01*
X204405237Y-81093943D01*
X202973325Y-81615117D02*
X203510292Y-81419677D01*
X203241808Y-81517397D02*
X202899788Y-80577704D01*
X203038143Y-80679373D01*
X203160211Y-80736294D01*
X203265992Y-80748468D01*
X202318074Y-80789431D02*
X201691612Y-81017444D01*
X202436357Y-81810557D01*
X188944358Y-91243999D02*
X188602338Y-90304307D01*
X188378602Y-90385740D01*
X188260647Y-90479347D01*
X188203725Y-90601415D01*
X188191552Y-90707196D01*
X188211951Y-90902472D01*
X188260811Y-91036714D01*
X188370705Y-91199416D01*
X188448026Y-91272624D01*
X188570093Y-91329545D01*
X188720622Y-91325433D01*
X188944358Y-91243999D01*
X187512446Y-91765173D02*
X188049413Y-91569733D01*
X187780929Y-91667453D02*
X187438909Y-90727760D01*
X187577264Y-90829429D01*
X187699332Y-90886350D01*
X187805113Y-90898524D01*
X186364975Y-91118640D02*
X186543964Y-91053494D01*
X186649745Y-91065668D01*
X186710779Y-91094128D01*
X186849133Y-91195797D01*
X186959027Y-91358499D01*
X187089321Y-91716477D01*
X187077147Y-91822258D01*
X187048686Y-91883292D01*
X186975478Y-91960613D01*
X186796489Y-92025760D01*
X186690708Y-92013586D01*
X186629674Y-91985125D01*
X186552354Y-91911917D01*
X186470920Y-91688181D01*
X186483094Y-91582400D01*
X186511555Y-91521366D01*
X186584763Y-91444045D01*
X186763752Y-91378899D01*
X186869533Y-91391072D01*
X186930567Y-91419533D01*
X187007887Y-91492741D01*
X173483477Y-101394054D02*
X173141457Y-100454362D01*
X172917721Y-100535795D01*
X172799766Y-100629402D01*
X172742844Y-100751470D01*
X172730671Y-100857251D01*
X172751070Y-101052527D01*
X172799930Y-101186769D01*
X172909824Y-101349471D01*
X172987145Y-101422679D01*
X173109212Y-101479600D01*
X173259741Y-101475488D01*
X173483477Y-101394054D01*
X172051565Y-101915228D02*
X172588532Y-101719788D01*
X172320048Y-101817508D02*
X171978028Y-100877815D01*
X172116383Y-100979484D01*
X172238451Y-101036405D01*
X172344232Y-101048579D01*
X170859346Y-101284982D02*
X171306819Y-101122115D01*
X171514433Y-101553301D01*
X171453399Y-101524841D01*
X171347618Y-101512667D01*
X171123882Y-101594100D01*
X171050674Y-101671421D01*
X171022213Y-101732455D01*
X171010039Y-101838236D01*
X171091473Y-102061972D01*
X171168793Y-102135180D01*
X171229827Y-102163641D01*
X171335608Y-102175815D01*
X171559345Y-102094381D01*
X171632553Y-102017061D01*
X171661013Y-101956027D01*
X110320018Y-100685587D02*
X110662039Y-99745894D01*
X110438302Y-99664461D01*
X110287774Y-99660348D01*
X110165706Y-99717269D01*
X110088385Y-99790477D01*
X109978491Y-99953179D01*
X109929631Y-100087421D01*
X109909232Y-100282697D01*
X109921406Y-100388478D01*
X109978327Y-100510546D01*
X110096282Y-100604153D01*
X110320018Y-100685587D01*
X108888106Y-100164413D02*
X109425073Y-100359853D01*
X109156589Y-100262133D02*
X109498610Y-99322441D01*
X109539244Y-99489256D01*
X109596165Y-99611324D01*
X109669373Y-99688644D01*
X108310668Y-99244791D02*
X108082655Y-99871253D01*
X108664698Y-98968247D02*
X108644134Y-99720889D01*
X108062420Y-99509162D01*
X94859136Y-90535529D02*
X95201157Y-89595836D01*
X94977420Y-89514403D01*
X94826892Y-89510290D01*
X94704824Y-89567211D01*
X94627503Y-89640419D01*
X94517609Y-89803121D01*
X94468749Y-89937363D01*
X94448350Y-90132639D01*
X94460524Y-90238420D01*
X94517445Y-90360488D01*
X94635400Y-90454095D01*
X94859136Y-90535529D01*
X93427224Y-90014355D02*
X93964191Y-90209795D01*
X93695707Y-90112075D02*
X94037728Y-89172383D01*
X94078362Y-89339198D01*
X94135283Y-89461266D01*
X94208491Y-89538586D01*
X93456013Y-88960656D02*
X92874299Y-88748929D01*
X93057236Y-89220914D01*
X92922994Y-89172054D01*
X92817213Y-89184228D01*
X92756179Y-89212688D01*
X92678859Y-89285896D01*
X92597425Y-89509633D01*
X92609599Y-89615414D01*
X92638060Y-89676448D01*
X92711268Y-89753768D01*
X92979751Y-89851488D01*
X93085532Y-89839315D01*
X93146566Y-89810854D01*
X79398251Y-80385473D02*
X79740272Y-79445780D01*
X79516535Y-79364347D01*
X79366007Y-79360234D01*
X79243939Y-79417155D01*
X79166618Y-79490363D01*
X79056724Y-79653065D01*
X79007864Y-79787307D01*
X78987465Y-79982583D01*
X78999639Y-80088364D01*
X79056560Y-80210432D01*
X79174515Y-80304039D01*
X79398251Y-80385473D01*
X77966339Y-79864299D02*
X78503306Y-80059739D01*
X78234822Y-79962019D02*
X78576843Y-79022327D01*
X78617477Y-79189142D01*
X78674398Y-79311210D01*
X78747606Y-79388530D01*
X77917808Y-78883808D02*
X77889347Y-78822774D01*
X77816139Y-78745453D01*
X77592403Y-78664020D01*
X77486622Y-78676194D01*
X77425588Y-78704654D01*
X77348267Y-78777862D01*
X77315694Y-78867357D01*
X77311581Y-79017885D01*
X77653108Y-79750292D01*
X77071394Y-79538566D01*
X61030201Y-78222803D02*
X61372222Y-77283110D01*
X61148485Y-77201677D01*
X60997957Y-77197564D01*
X60875889Y-77254485D01*
X60798568Y-77327693D01*
X60688674Y-77490395D01*
X60639814Y-77624637D01*
X60619415Y-77819913D01*
X60631589Y-77925694D01*
X60688510Y-78047762D01*
X60806465Y-78141369D01*
X61030201Y-78222803D01*
X59598289Y-77701629D02*
X60135256Y-77897069D01*
X59866772Y-77799349D02*
X60208793Y-76859657D01*
X60249427Y-77026472D01*
X60306348Y-77148540D01*
X60379556Y-77225860D01*
X58703344Y-77375896D02*
X59240311Y-77571336D01*
X58971827Y-77473616D02*
X59313847Y-76533923D01*
X59354482Y-76700738D01*
X59411403Y-76822806D01*
X59484611Y-76900127D01*
X42662147Y-76060136D02*
X43004168Y-75120443D01*
X42780431Y-75039010D01*
X42629903Y-75034897D01*
X42507835Y-75091818D01*
X42430514Y-75165026D01*
X42320620Y-75327728D01*
X42271760Y-75461970D01*
X42251361Y-75657246D01*
X42263535Y-75763027D01*
X42320456Y-75885095D01*
X42438411Y-75978702D01*
X42662147Y-76060136D01*
X41230235Y-75538962D02*
X41767202Y-75734402D01*
X41498718Y-75636682D02*
X41840739Y-74696990D01*
X41881373Y-74863805D01*
X41938294Y-74985873D01*
X42011502Y-75063193D01*
X40990541Y-74387543D02*
X40901046Y-74354969D01*
X40795265Y-74367143D01*
X40734231Y-74395604D01*
X40656910Y-74468812D01*
X40547016Y-74631514D01*
X40465583Y-74855251D01*
X40445183Y-75050526D01*
X40457357Y-75156308D01*
X40485818Y-75217341D01*
X40559026Y-75294662D01*
X40648520Y-75327235D01*
X40754302Y-75315061D01*
X40815336Y-75286601D01*
X40892656Y-75213393D01*
X41002550Y-75050691D01*
X41083983Y-74826954D01*
X41104383Y-74631679D01*
X41092209Y-74525897D01*
X41063748Y-74464863D01*
X40990541Y-74387543D01*
X234879530Y-60956700D02*
X234537509Y-60017007D01*
X234313773Y-60098441D01*
X234195818Y-60192048D01*
X234138897Y-60314116D01*
X234126723Y-60419897D01*
X234147122Y-60615173D01*
X234195982Y-60749415D01*
X234305876Y-60912117D01*
X234383197Y-60985325D01*
X234505265Y-61042246D01*
X234655793Y-61038133D01*
X234879530Y-60956700D01*
X233895090Y-61315007D02*
X233716101Y-61380154D01*
X233610319Y-61367980D01*
X233549285Y-61339519D01*
X233410931Y-61237851D01*
X233301037Y-61075148D01*
X233170744Y-60717170D01*
X233182917Y-60611389D01*
X233211378Y-60550355D01*
X233284586Y-60473034D01*
X233463575Y-60407888D01*
X233569356Y-60420062D01*
X233630390Y-60448522D01*
X233707711Y-60521730D01*
X233789144Y-60745466D01*
X233776970Y-60851248D01*
X233748510Y-60912282D01*
X233675302Y-60989602D01*
X233496313Y-61054749D01*
X233390531Y-61042575D01*
X233329498Y-61014114D01*
X233252177Y-60940906D01*
X216511479Y-63119364D02*
X216169458Y-62179671D01*
X215945722Y-62261105D01*
X215827767Y-62354712D01*
X215770846Y-62476780D01*
X215758672Y-62582561D01*
X215779071Y-62777837D01*
X215827931Y-62912079D01*
X215937825Y-63074781D01*
X216015146Y-63147989D01*
X216137214Y-63204910D01*
X216287742Y-63200797D01*
X216511479Y-63119364D01*
X215242104Y-62973277D02*
X215315312Y-62895956D01*
X215343772Y-62834922D01*
X215355946Y-62729141D01*
X215339660Y-62684394D01*
X215262339Y-62611186D01*
X215201305Y-62582726D01*
X215095524Y-62570552D01*
X214916535Y-62635698D01*
X214843327Y-62713019D01*
X214814866Y-62774053D01*
X214802693Y-62879834D01*
X214818979Y-62924581D01*
X214896300Y-62997789D01*
X214957334Y-63026250D01*
X215063115Y-63038424D01*
X215242104Y-62973277D01*
X215347885Y-62985451D01*
X215408919Y-63013912D01*
X215486240Y-63087119D01*
X215551386Y-63266109D01*
X215539213Y-63371890D01*
X215510752Y-63432924D01*
X215437544Y-63510244D01*
X215258555Y-63575391D01*
X215152774Y-63563217D01*
X215091740Y-63534756D01*
X215014419Y-63461549D01*
X214949273Y-63282560D01*
X214961447Y-63176778D01*
X214989907Y-63115744D01*
X215063115Y-63038424D01*
X198143423Y-65282034D02*
X197801402Y-64342341D01*
X197577666Y-64423775D01*
X197459711Y-64517382D01*
X197402790Y-64639450D01*
X197390616Y-64745231D01*
X197411015Y-64940507D01*
X197459875Y-65074749D01*
X197569769Y-65237451D01*
X197647090Y-65310659D01*
X197769158Y-65367580D01*
X197919686Y-65363467D01*
X198143423Y-65282034D01*
X196951204Y-64651788D02*
X196324743Y-64879802D01*
X197069488Y-65672914D01*
X182682543Y-75432091D02*
X182340522Y-74492398D01*
X182116786Y-74573832D01*
X181998831Y-74667439D01*
X181941910Y-74789507D01*
X181929736Y-74895288D01*
X181950135Y-75090564D01*
X181998995Y-75224806D01*
X182108889Y-75387508D01*
X182186210Y-75460716D01*
X182308278Y-75517637D01*
X182458806Y-75513524D01*
X182682543Y-75432091D01*
X180998104Y-74980999D02*
X181177093Y-74915852D01*
X181282875Y-74928026D01*
X181343909Y-74956487D01*
X181482263Y-75058155D01*
X181592157Y-75220857D01*
X181722450Y-75578836D01*
X181710277Y-75684617D01*
X181681816Y-75745651D01*
X181608608Y-75822971D01*
X181429619Y-75888118D01*
X181323838Y-75875944D01*
X181262804Y-75847483D01*
X181185483Y-75774276D01*
X181104050Y-75550539D01*
X181116224Y-75444758D01*
X181144684Y-75383724D01*
X181217892Y-75306403D01*
X181396881Y-75241257D01*
X181502663Y-75253431D01*
X181563697Y-75281891D01*
X181641017Y-75355099D01*
X167221662Y-85582148D02*
X166879641Y-84642455D01*
X166655905Y-84723889D01*
X166537950Y-84817496D01*
X166481029Y-84939564D01*
X166468855Y-85045345D01*
X166489254Y-85240621D01*
X166538114Y-85374863D01*
X166648008Y-85537565D01*
X166725329Y-85610773D01*
X166847397Y-85667694D01*
X166997925Y-85663581D01*
X167221662Y-85582148D01*
X165492476Y-85147342D02*
X165939949Y-84984476D01*
X166147563Y-85415662D01*
X166086529Y-85387201D01*
X165980748Y-85375027D01*
X165757011Y-85456460D01*
X165683803Y-85533781D01*
X165655343Y-85594815D01*
X165643169Y-85700596D01*
X165724602Y-85924333D01*
X165801923Y-85997540D01*
X165862957Y-86026001D01*
X165968738Y-86038175D01*
X166192474Y-85956742D01*
X166265682Y-85879421D01*
X166294143Y-85818387D01*
X115686887Y-84547946D02*
X116028907Y-83608253D01*
X115805171Y-83526820D01*
X115654642Y-83522707D01*
X115532574Y-83579628D01*
X115455254Y-83652836D01*
X115345360Y-83815539D01*
X115296500Y-83949780D01*
X115276100Y-84145056D01*
X115288274Y-84250837D01*
X115345195Y-84372905D01*
X115463150Y-84466513D01*
X115686887Y-84547946D01*
X114572482Y-83432884D02*
X114344469Y-84059346D01*
X114926512Y-83156339D02*
X114905948Y-83908982D01*
X114324234Y-83697255D01*
X100226007Y-74397889D02*
X100568027Y-73458196D01*
X100344291Y-73376763D01*
X100193762Y-73372650D01*
X100071694Y-73429571D01*
X99994374Y-73502779D01*
X99884480Y-73665482D01*
X99835620Y-73799723D01*
X99815220Y-73994999D01*
X99827394Y-74100780D01*
X99884315Y-74222848D01*
X100002270Y-74316456D01*
X100226007Y-74397889D01*
X99717829Y-73148750D02*
X99136114Y-72937023D01*
X99319052Y-73409008D01*
X99184810Y-73360148D01*
X99079029Y-73372322D01*
X99017995Y-73400782D01*
X98940674Y-73473990D01*
X98859241Y-73697726D01*
X98871415Y-73803508D01*
X98899875Y-73864542D01*
X98973083Y-73941862D01*
X99241567Y-74039582D01*
X99347348Y-74027408D01*
X99408382Y-73998948D01*
X84765124Y-64247833D02*
X85107144Y-63308140D01*
X84883408Y-63226707D01*
X84732879Y-63222594D01*
X84610811Y-63279515D01*
X84533491Y-63352723D01*
X84423597Y-63515426D01*
X84374737Y-63649667D01*
X84354337Y-63844943D01*
X84366511Y-63950724D01*
X84423432Y-64072792D01*
X84541387Y-64166400D01*
X84765124Y-64247833D01*
X84179625Y-63071901D02*
X84151165Y-63010867D01*
X84077957Y-62933547D01*
X83854220Y-62852114D01*
X83748439Y-62864287D01*
X83687405Y-62892748D01*
X83610085Y-62965956D01*
X83577511Y-63055450D01*
X83573399Y-63205979D01*
X83914926Y-63938386D01*
X83333211Y-63726659D01*
X66397075Y-62085166D02*
X66739095Y-61145473D01*
X66515359Y-61064040D01*
X66364830Y-61059927D01*
X66242762Y-61116848D01*
X66165442Y-61190056D01*
X66055548Y-61352759D01*
X66006688Y-61487000D01*
X65986288Y-61682276D01*
X65998462Y-61788057D01*
X66055383Y-61910125D01*
X66173338Y-62003733D01*
X66397075Y-62085166D01*
X64965162Y-61563992D02*
X65502129Y-61759433D01*
X65233646Y-61661712D02*
X65575666Y-60722020D01*
X65616300Y-60888835D01*
X65673222Y-61010903D01*
X65746429Y-61088223D01*
X48029017Y-59922495D02*
X48371037Y-58982802D01*
X48147301Y-58901369D01*
X47996772Y-58897256D01*
X47874704Y-58954177D01*
X47797384Y-59027385D01*
X47687490Y-59190088D01*
X47638630Y-59324329D01*
X47618230Y-59519605D01*
X47630404Y-59625386D01*
X47687325Y-59747454D01*
X47805280Y-59841062D01*
X48029017Y-59922495D01*
X47252355Y-58575636D02*
X47162861Y-58543062D01*
X47057079Y-58555236D01*
X46996046Y-58583697D01*
X46918725Y-58656905D01*
X46808831Y-58819607D01*
X46727398Y-59043343D01*
X46706998Y-59238619D01*
X46719172Y-59344400D01*
X46747633Y-59405434D01*
X46820841Y-59482755D01*
X46910335Y-59515328D01*
X47016116Y-59503154D01*
X47077150Y-59474694D01*
X47154471Y-59401486D01*
X47264365Y-59238783D01*
X47345798Y-59015047D01*
X47366198Y-58819771D01*
X47354024Y-58713990D01*
X47325563Y-58652956D01*
X47252355Y-58575636D01*
M02*
